<svg version="1.1" xmlns="http://www.w3.org/2000/svg" xmlns:xlink="http://www.w3.org/1999/xlink" width="274.91375" height="86.98179" viewBox="0,0,274.91375,86.98179"><g transform="translate(-102.59701,-136.5091)"><g data-paper-data="{&quot;isPaintingLayer&quot;:true}" fill-rule="nonzero" stroke-linecap="butt" stroke-linejoin="miter" stroke-miterlimit="10" stroke-dasharray="" stroke-dashoffset="0" style="mix-blend-mode: normal"><g><g fill="none" stroke="#28a5da" stroke-width="6.94009"><path d="M118.58528,218.72615c-6.5507,0 -12.0452,-5.1325 -12.5081,-11.6808c-0.0045,-0.0854 -0.008,-0.1735 -0.0146,-0.2603c-0.1069,-2.1025 -0.2474,-6.1957 0.0073,-10.8092c0.1714,-3.0092 0.2474,-8.0713 0.2498,-8.2528c0.0004,-0.0135 0.0004,-0.0236 0.0004,-0.0371c0.0447,-3.1033 1.2371,-5.9456 3.1671,-8.1216c-0.9557,-3.333 -1.2659,-7.3069 -0.6701,-11.9869l0.0906,-0.7336c0.3387,-2.7719 0.8432,-6.8797 2.9304,-10.8324c3.1557,-5.9685 8.9392,-9.3941 15.8661,-9.3941c0.3984,0 0.812,0.0111 1.2333,0.0357c0.6204,0.0344 1.2992,0.1083 2.0234,0.2363c2.2142,-1.9533 5.1224,-3.1421 8.2982,-3.1421c0.0406,0 0.0864,0 0.1277,0c6.87,0.0853 12.4353,5.7356 12.4006,12.6004c0,0.0462 -0.0004,0.094 -0.0011,0.1398c-0.0021,0.1524 -0.6288,17.6976 -0.8179,18.9451c-0.0138,0.0867 -0.0281,0.1721 -0.0426,0.2575c-0.1656,0.9331 -0.4352,1.8256 -0.7888,2.6698c3.0325,3.5648 4.671,7.9943 4.7255,12.9981c0.0656,6.2936 -2.8138,12.4054 -7.9044,16.7652c-4.3684,3.7473 -9.9129,5.8067 -15.6048,5.8067c-0.001,0 0,0 -0.001,0c-0.9227,0 -1.8443,-0.0506 -2.7615,-0.1599c-0.187,0.2453 -0.3858,0.4879 -0.5916,0.7204c-2.2177,2.5084 -5.2835,4.0054 -8.6293,4.2109c-0.2228,0.0156 -0.5063,0.0249 -0.7846,0.0249z"/><path d="M145.07248,191.46035c0.035,3.3961 -1.6004,6.7624 -4.4802,9.2261c-3.2257,2.7643 -7.4304,3.9486 -11.5344,3.2626c-3.182,-0.5372 -5.8193,-1.7927 -7.8302,-3.087c-0.0197,2.9794 0.1198,5.109 0.1198,5.1496c0.0929,1.5125 -1.0497,2.8242 -2.5738,2.919c-1.5178,0.1009 -2.8204,-1.0525 -2.9259,-2.5713c-0.0077,-0.1885 -0.288,-4.6215 0,-9.8463c0.1804,-3.2476 0.263,-8.6317 0.263,-8.6838c0.0198,-1.5268 1.2784,-2.7406 2.7972,-2.7129c1.5206,0.0292 2.732,1.2742 2.715,2.7868c-0.0028,0.0583 -0.0101,0.4886 -0.0243,1.132c0.1162,1.4428 0.4729,3.7261 1.5223,5.178c1.2416,1.7214 3.6841,3.2056 4.6696,3.7417c0.6815,0.2433 1.4092,0.4365 2.1737,0.5597c2.4588,0.414 5.0999,-0.3341 7.0525,-2.0088c1.6389,-1.405 2.5647,-3.2247 2.5456,-4.9882c-0.0468,-4.5652 -5.0017,-6.271 -12.4217,-7.4401c-6.8204,-1.0653 -9.7199,-6.5639 -8.6123,-15.2626l0.0968,-0.7749c0.541,-4.416 1.4453,-12.0681 9.7772,-11.6108c3.0956,0.1746 5.8796,2.2868 8.0366,4.645c0.0427,-2.3988 0.0559,-4.7602 0.0559,-4.7921c0.0066,-1.5226 1.2443,-2.7472 2.7722,-2.7444c1.5157,0.017 2.7379,1.2499 2.7292,2.7645c-0.0042,0.2853 -0.6843,17.4905 -0.7072,17.6612c-0.2696,1.4952 -1.7038,2.4877 -3.1945,2.2208c-1.1542,-0.2082 -2.0085,-1.1052 -2.2167,-2.1927l-0.0017,0.001c0,0 -0.1746,-1.5539 -0.1836,-1.5955c-0.0975,-1.3013 -0.3605,-2.5085 -1.1326,-4.3601c-1.0532,-2.5418 -2.9662,-3.8205 -3.8018,-4.8053c-0.9268,-0.7568 -1.8481,-1.259 -2.6591,-1.31c-2.7115,-0.1398 -3.3132,1.1039 -4.0141,6.7899l-0.1003,0.7894c-0.8304,6.5376 0.8415,8.6404 3.9999,9.1338c5.5198,0.8686 16.9768,2.6581 17.0879,12.8257z"/><path d="M213.60098,216.15765c-2.3819,-0.0028 -4.7765,-0.4813 -7.3121,-1.4661c-2.2458,-0.8682 -4.0367,-2.1903 -5.4383,-3.5974c-0.9296,0.3783 -1.9085,0.6472 -2.9269,0.7957l-13.282,1.9484c-0.6246,0.0882 -1.2225,0.1309 -1.8165,0.1309c-6.1996,0 -11.5376,-4.6277 -12.4176,-10.7672c-0.4813,-3.2716 0.3501,-6.5768 2.3513,-9.2661c1.0025,-1.3481 2.2372,-2.4561 3.6356,-3.2903l-0.009,-1.9186c-2.5523,-2.2982 -4.1631,-5.6287 -4.1631,-9.3264c0,-2.7181 0.8703,-5.2367 2.3437,-7.2954c-2.9585,-1.9204 -5.0905,-5.0573 -5.6145,-8.7452c-0.4848,-3.2483 0.3453,-6.5654 2.3516,-9.265c2.0054,-2.6949 4.9379,-4.4427 8.2653,-4.9227c2.7736,-0.4087 8.3736,-1.1065 14.333,-1.1065c13.2244,0 21.6434,3.3871 25.7321,10.3542c2.1352,3.6439 4.569,10.9702 -1.8072,20.4143c0.6011,1.9331 1.0511,4.0807 1.3575,6.4855c0.0431,0 0.0861,0 0.1291,0c1.2489,0 2.4873,0.1836 3.6817,0.5531c6.633,2.0515 10.346,9.0919 8.3045,15.7006c-1.9911,6.4182 -5.163,10.3917 -10.2883,12.8881c-2.3503,1.134 -4.8275,1.6965 -7.4058,1.6965c0.0004,-0.0004 0.0004,-0.0004 -0.0041,-0.0004z"/><path d="M221.94498,198.67975c-1.2599,4.0582 -2.7798,5.7891 -5.2231,6.9807c-2.6448,1.2707 -5.1943,0.5646 -6.8849,-0.0961c-2.2965,-0.888 -3.629,-3.4104 -3.976,-4.1648c-1.1142,-2.3842 -1.4643,-7.8097 -1.498,-9.1359c-0.1704,-6.8818 -1.2752,-9.8213 -2.1715,-11.0712c-0.6396,-0.906 -1.2489,-1.1073 -2.3565,-1.2954c-0.3633,-0.0631 -0.9526,0.0118 -0.9675,0.016h-0.0045v0c-2.09,0.6368 -4.5916,1.2048 -7.2191,1.6299l0.0722,15.7949l3.9878,-0.5909c1.498,-0.2103 2.9023,0.8293 3.1202,2.3402c0.2225,1.4994 -0.8224,2.8947 -2.3211,3.1143l-13.2847,1.9499c-1.5032,0.2155 -2.9034,-0.8249 -3.1164,-2.3343c-0.2238,-1.497 0.8165,-2.9 2.3204,-3.1196l3.7896,-0.5517l-0.0579,-16.0254c-0.4706,0.0205 -0.9307,0.0333 -1.3887,0.0333c-1.5182,0 -2.7525,-1.2398 -2.7525,-2.7538c0,-1.5247 1.2343,-2.7493 2.7525,-2.7493c0.4486,0 0.9036,-0.0139 1.3616,-0.0413l-0.0545,-12.8184c-1.4511,0.1347 -2.8954,0.3061 -4.3059,0.5126c-1.504,0.2276 -2.9066,-0.8058 -3.1179,-2.3166c-0.2273,-1.5012 0.8071,-2.9069 2.3173,-3.1245c5.9522,-0.8793 25.7245,-3.1528 30.2258,4.5114c1.794,3.0676 0.9949,6.8492 -2.3811,11.226c-0.0195,0.0274 -0.0361,0.0441 -0.0562,0.0656c-0.1239,0.1655 -1.2392,1.474 -2.7716,2.481c2.2701,2.4502 3.6752,6.8926 3.8865,14.9761c0.0475,2.1892 0.5524,6.0233 0.9817,6.9463c0.2845,0.6038 0.7832,1.2513 0.9671,1.3602c1.1964,0.4657 1.9432,0.5445 2.4953,0.2773c0.559,-0.2658 1.3616,-0.3876 2.3676,-3.6571c0.4396,-1.4449 1.988,-2.2649 3.4457,-1.8176c1.4502,0.4494 2.2684,1.9932 1.8183,3.4482zM206.60258,166.30845c0,-0.2735 -0.0482,-0.5042 -0.1617,-0.6847c-1.2277,-2.1028 -7.5803,-2.919 -14.8605,-2.7184l0.0507,12.522c2.7632,-0.5066 5.3324,-1.2291 7.2732,-1.9196l1.3991,-0.4463c0.8925,-0.2734 1.8173,-0.5493 2.4939,-0.947c0.7308,-0.4355 1.4332,-1.177 1.6782,-1.4633c1.3783,-1.7843 2.1267,-3.3375 2.1271,-4.3427z"/><path d="M306.67378,215.60865c-14.1883,0 -22.3152,-10.6683 -23.0029,-21.2033h0.0045c-0.032,-0.6628 -0.0604,-2.0008 -0.1329,-5.516c-0.0011,-0.1131 -0.0039,-0.2231 -0.0011,-0.3362c0.0889,-6.488 0.1055,-7.7504 0.134,-8.2435h-0.0011c0.7145,-10.0974 4.2064,-17.142 10.3838,-20.9403c2.9294,-1.8145 6.2738,-2.7365 9.9142,-2.7365c1.2468,0 2.4371,0.109 3.5433,0.2849c2.2979,-2.5963 5.6586,-4.2372 9.3938,-4.2372c6.9185,0 12.5469,5.6263 12.5469,12.54v11.9304c0,1.4244 -0.2432,2.8069 -0.6964,4.1026c1.7257,2.0428 2.8142,4.6346 2.9471,7.462c0.075,0.9563 0.1163,1.5688 0.0854,2.2128c-0.0958,3.2091 -0.1007,3.2417 -0.1492,3.68c-0.0073,0.1044 -0.0205,0.2134 -0.0382,0.3165c-0.2905,2.0862 -1.0476,6.0514 -2.8219,9.165c-1.1426,1.9953 -2.3301,3.434 -3.4467,4.6954c-2.2476,2.5314 -4.8331,3.9385 -7.0713,4.984c-3.732,1.7548 -6.9508,1.7877 -9.3049,1.8117l-1.4831,0.0156c-0.2693,0.0066 -0.54,0.0121 -0.8033,0.0121z"/><path d="M321.93188,189.27695c0,0 0.0857,1.1087 0.0774,1.1514c0,0 -0.0892,3.0397 -0.1007,3.1393c-0.0857,0.6177 -0.5742,3.8199 -1.6316,5.6749c-0.712,1.2423 -1.4786,2.1574 -2.2711,3.054c-1.0965,1.2315 -2.5859,1.996 -3.8889,2.6074c-1.828,0.8588 -3.4277,0.871 -5.2894,0.8873l-1.5448,0.017c-10.2984,0.3307 -13.5592,-7.7344 -13.8441,-12.0414c-0.0035,-0.0347 -0.1069,-5.0798 -0.1069,-5.0798c0,0 0.1034,-7.6348 0.1069,-7.6847c0.4889,-6.8634 2.3662,-11.2145 5.7478,-13.2952c4.317,-2.667 9.6005,-0.4656 11.338,0.261c1.3467,0.5639 2.5643,1.3245 3.63,2.1542v-4.9018c0,-1.5129 1.2443,-2.7493 2.7549,-2.7493c1.5282,0 2.7562,1.2364 2.7562,2.7493v11.9304c0,1.2346 -0.8186,2.3075 -2.0053,2.6431c-1.1802,0.3276 -2.4468,-0.16 -3.0904,-1.2079c-0.0264,-0.032 -2.5103,-4.0142 -6.1615,-5.5368c-2.9675,-1.2371 -5.0381,-1.4557 -6.3338,-0.6479c-1.6813,1.0278 -2.7958,4.2081 -3.1411,8.9371c-0.0035,0.2023 -0.0864,7.2885 -0.0864,7.3759c0,0.0961 0.0829,4.5354 0.0864,4.7238c0.1152,1.2749 1.0195,7.0987 8.1789,6.8683l1.6743,-0.0216c1.6007,-0.0173 2.2822,-0.0305 2.9891,-0.3563c0.6253,-0.2992 1.6722,-0.787 2.1032,-1.277c0.7662,-0.8734 1.1982,-1.4158 1.6115,-2.1382c0.3726,-0.6444 0.772,-2.4575 0.9469,-3.5954c0.0091,-0.3084 0.0684,-2.4828 0.0684,-2.5931c0,-0.1114 -0.0736,-0.9862 -0.0736,-1.0011c0,-1.5012 1.2,-2.7327 2.6983,-2.7518c1.5272,-0.0263 2.7781,1.1923 2.8014,2.7049z"/><path d="M345.79568,220.02085c-2.9568,0 -5.7963,-1.1108 -7.9904,-3.13c-0.8839,-0.8071 -1.6244,-1.7128 -2.2198,-2.6906l-10.347,-0.1735c-6.8943,-0.1194 -12.4248,-5.8186 -12.336,-12.7021c0.0864,-5.0215 3.1387,-9.3407 7.4422,-11.2863l0.0344,-19.2279c-4.2953,-1.9942 -7.2854,-6.3488 -7.2854,-11.3925c0,-6.9155 5.627,-12.5435 12.5414,-12.5435h11.7933c2.2521,-2.7337 5.6437,-4.5125 9.4583,-4.5871c0,0 14.5003,-0.2481 14.5572,-0.2481c6.8037,0 12.4318,5.533 12.5473,12.3378c0.0743,4.967 -2.7476,9.3111 -6.8953,11.4119c0.084,13.6244 0.1339,22.1857 0.1596,27.8263c3.8021,1.9612 6.5015,5.8196 6.7923,10.3497c0.4414,6.9068 -4.8102,12.8853 -11.7104,13.3264c-5.6919,0.3727 -9.3229,1.0167 -10.3411,1.3054c-0.1984,0.0819 -0.3966,0.1558 -0.5996,0.221c-1.2582,0.4793 -3.1577,1.2031 -5.601,1.2031z"/><path d="M245.38728,205.63375c-2.7247,-0.0014 -5.3186,-0.8627 -7.5005,-2.4995c-0.4734,-0.3477 -0.9151,-0.7259 -1.3294,-1.1271c-1.5598,0.6919 -3.2872,1.0789 -5.0989,1.0789c-0.1884,0 -0.3765,-0.0042 -0.566,-0.0136l-13.7274,-0.6499c-6.8985,-0.3206 -12.2601,-6.1965 -11.9478,-13.0953c0.3023,-6.7089 5.8065,-11.9723 12.5363,-11.9723c0.0569,0 0.1148,0 0.1724,0.001c0.6302,-3.1574 2.1678,-10.8667 2.242,-11.238c-4.5454,-1.4321 -8.0408,-5.3918 -8.6956,-10.3116c-0.899,-6.8502 3.9247,-13.1622 10.7457,-14.0915l11.7843,-1.6202c0.5601,-0.076 1.134,-0.1155 1.6972,-0.1155c3.4537,0 6.7888,1.4459 9.1571,3.9714c0.8613,0.913 2.1001,2.706 2.7635,4.2914l10.3425,24.9993c0.0486,0.1152 0.1044,0.2456 0.1662,0.3976c0.0319,-0.0003 0.0677,-0.0003 0.0986,-0.0003c5.2789,0 10.0242,3.3361 11.8099,8.3066c2.3187,6.4959 -1.0597,13.682 -7.5286,16.034c-4.1332,1.4762 -6.7794,2.8302 -7.7344,3.434c-2.3638,2.6601 -5.7977,4.2209 -9.3861,4.2209c0,-0.0003 0,-0.0003 -0.001,-0.0003z"/><path d="M260.82128,185.25065c0.5115,1.4286 -0.23,3.0079 -1.6576,3.5249c-5.1353,1.8377 -10.3355,4.3015 -11.5587,5.9511c-0.9106,1.2222 -2.6404,1.4783 -3.8528,0.5681c-1.2236,-0.9029 -1.4838,-2.623 -0.5767,-3.8504c0.9705,-1.3026 2.2666,-2.0529 4.3417,-3.2403l-2.7254,-6.7388l-12.7309,2.1097l-0.6298,4.1967c1.9627,0 2.8499,1.3745 2.7816,2.9013c-0.076,1.5126 -1.3648,2.6844 -2.8815,2.6189l-13.7029,-0.65c-1.5171,-0.0708 -2.6966,-1.3529 -2.631,-2.8683c0.0698,-1.5234 1.3634,-2.6924 2.8802,-2.6268l7.9859,0.3876c1.2742,-6.2371 5.3383,-26.7502 6.3585,-31.7683c-3.5585,0.4806 -7.9502,1.1118 -7.9502,1.1118c-1.5098,0.1937 -2.8923,-0.855 -3.0942,-2.3658c-0.1954,-1.5033 0.8519,-2.8909 2.3586,-3.0957l11.7991,-1.6222c0.8793,-0.1222 1.767,0.1985 2.3791,0.8515c0.1784,0.1895 0.7558,1.0705 0.8588,1.3374l10.3501,25.0235c0.1211,0.2113 3.5398,8.7393 3.5398,8.7393c2.4464,-1.075 4.0235,-1.8665 4.839,-2.1559c1.4262,-0.5115 3.0078,0.2352 3.5193,1.6607zM242.66568,177.58915l-6.0545,-14.96l-3.376,16.5243z"/><path d="M264.84728,213.50415c-6.7958,0 -12.4238,-5.5379 -12.5411,-12.3409c-0.0843,-5.5718 3.4801,-10.3567 8.4745,-12.0726l-0.0073,-3.706c-0.3713,0.0895 -0.7498,0.1634 -1.1322,0.221c-0.6167,0.0947 -1.2472,0.1416 -1.8652,0.1416c-6.2544,0 -11.4685,-4.4927 -12.3992,-10.678l-2.0993,-13.5033c-0.557,-3.5787 0.4754,-7.2299 2.8333,-10.0115c2.3232,-2.7694 5.7703,-4.3927 9.4263,-4.4343l17.5154,-0.2929c8.5103,-0.1614 16.1041,-0.6978 16.5136,-0.7263c0.0587,-0.0083 0.1176,-0.0118 0.1784,-0.0146c0.2706,-0.0163 0.542,-0.0274 0.8102,-0.0274c3.3559,0 6.6191,1.3683 8.9576,3.7532c2.5192,2.5304 3.834,6.1059 3.5575,9.7491c-0.2363,3.1213 -0.3109,8.0564 -0.3217,9.2532c0.1399,5.0798 -2.6379,9.6759 -7.1601,11.7839c-1.6729,0.7881 -3.5668,1.2198 -5.4393,1.2198v0c-1.4883,0 -2.9419,-0.2717 -4.2931,-0.7725l0.0153,7.8736c4.7584,1.7412 8.2077,6.2929 8.2812,11.6191c0.0524,3.352 -1.2162,6.5306 -3.5668,8.9367c-2.3468,2.4027 -5.4869,3.7473 -8.8434,3.7778c0.0003,0.0007 -16.8481,0.2513 -16.8946,0.2513z"/><path d="M292.51908,156.66485c0.5667,0.5701 0.8481,1.3526 0.7891,2.1569c-0.2995,3.9427 -0.3543,10.1097 -0.3515,10.1558c0.0649,1.126 -0.4834,2.2732 -1.5057,2.7479c-1.3137,0.6208 -2.7992,0.2835 -3.4995,-0.9889c-0.2398,-0.415 -0.5545,-0.9737 -0.5545,-3.9177c0,-1.2544 0.068,-2.9797 0.2078,-5.2675c-2.7805,0.152 -6.838,0.3775 -11.5784,0.5097l0.0711,35.9781l5.4761,-0.0839c1.5174,-0.0115 2.7684,1.1933 2.792,2.7184c0.0201,1.514 -1.1972,2.7753 -2.715,2.7896l-16.7686,0.2508c-1.5144,0.0188 -2.7577,-1.195 -2.7875,-2.7212c-0.0226,-1.5126 1.1926,-2.7646 2.7111,-2.7909l5.7849,-0.0746l-0.0711,-35.9597c0,0 -10.939,0.1957 -11.6535,0.1991c0.5598,3.7744 1.666,10.7117 1.666,10.838c0,1.3408 -0.9768,2.5165 -2.3447,2.7219c-1.5036,0.2225 -2.9013,-0.8106 -3.1303,-2.3145l-2.1049,-13.5474c-0.1198,-0.7842 0.1165,-1.5806 0.6312,-2.1813c0.5135,-0.6173 1.2662,-0.9667 2.0646,-0.9726l17.5678,-0.2932c9.0141,-0.1732 17.0751,-0.7513 17.1604,-0.7631c0.794,-0.0493 1.5851,0.2408 2.1431,0.8103z"/><path d="M161.96778,219.05475c-14.1252,-0.0034 -22.2496,-10.5565 -23.0276,-21.0412c-0.0239,-0.32 -0.0333,-0.5903 -0.0354,-0.8051l-0.0999,-5.0899c0,-0.044 0.0999,-7.6226 0.0999,-7.6226c0.0007,-0.236 0.0118,-0.4983 0.0302,-0.7686c0.7259,-10.0895 4.2199,-17.1309 10.3879,-20.9254c2.9416,-1.8128 6.2801,-2.7316 9.9126,-2.7316c1.2478,0 2.4391,0.1127 3.5457,0.288c2.2995,-2.6005 5.6603,-4.2428 9.3979,-4.2428c6.9178,0 12.5417,5.628 12.5417,12.5466v11.9196c0,1.2846 -0.196,2.5362 -0.5687,3.723c1.6764,2.0529 2.7216,4.6419 2.8222,7.4599l0.077,1.4477c0.0111,0.1756 0.0146,0.3526 0.0146,0.5313c0,0.0312 -0.0364,3.3812 -0.2065,4.6446h0.0007c-0.3668,2.564 -1.1531,6.2367 -2.8218,9.1509c-1.1514,2.0223 -2.3635,3.4613 -3.4093,4.654c-2.293,2.5654 -4.8716,3.9701 -7.0997,5.0104c-3.7258,1.7586 -6.9516,1.7884 -9.307,1.811l-1.4373,0.0285c-0.2717,0.0072 -0.5441,0.0121 -0.8148,0.0121c-0.001,-0.0004 -0.0017,-0.0004 -0.0024,-0.0004z"/><path d="M177.19358,192.17135l0.0823,1.5716c0,0.0368 -0.0913,3.1556 -0.1066,3.2601c-0.0881,0.6173 -0.5684,3.8194 -1.6288,5.6752c-0.7051,1.2388 -1.4755,2.1525 -2.2673,3.0505c-1.1049,1.2378 -2.5824,1.9974 -3.8917,2.6088c-1.828,0.8616 -3.4308,0.8696 -5.2897,0.8873l-1.5459,0.0312c-10.3005,0.3085 -13.5582,-7.7423 -13.8462,-12.0584c-0.0038,-0.0347 -0.0038,-0.0746 -0.0038,-0.1186l-0.1003,-4.8636v-0.0969l0.1003,-7.5317c0,-0.0441 0,-0.0958 0.0038,-0.1499c0.4931,-6.8665 2.3739,-11.2179 5.7547,-13.2969c4.315,-2.6587 9.602,-0.4629 11.3335,0.2617c1.3534,0.5576 2.5672,1.3242 3.637,2.1532v-4.8932c0,-1.5219 1.2277,-2.7559 2.7549,-2.7559c1.5157,0 2.751,1.234 2.751,2.7559v11.9196c0,1.2368 -0.82,2.3132 -2.0071,2.6453c-1.1825,0.3404 -2.4491,-0.16 -3.0973,-1.2028c-0.0156,-0.0426 -2.5068,-4.0131 -6.158,-5.5416c-2.9655,-1.2354 -5.0388,-1.456 -6.329,-0.6468c-1.6836,1.0264 -2.7937,4.207 -3.1404,8.935c0,0.2026 -0.0919,7.2902 -0.0995,7.3818c0.0076,0.0868 0.0971,4.5326 0.0995,4.721c0.1156,1.2843 1.0168,7.0914 8.1765,6.8717l1.6809,-0.027c1.6007,-0.0157 2.2763,-0.0313 2.9815,-0.3647c0.628,-0.286 1.6725,-0.7794 2.099,-1.2722c0.7481,-0.8411 1.2086,-1.4116 1.6198,-2.1354c0.3734,-0.6444 0.769,-2.4575 0.9425,-3.5946c0.0093,-0.3165 0.0687,-2.4759 0.0701,-2.5877c0,-0.1159 -0.0753,-1.533 -0.0753,-1.5479c0,-1.4956 1.1989,-2.7292 2.7076,-2.757c1.514,-0.0284 2.7674,1.1916 2.792,2.7129z"/></g><g stroke="none" stroke-width="0.34701"><g fill="#f7f8f9"><path d="M118.58528,218.72615c-6.5507,0 -12.0452,-5.1325 -12.5081,-11.6808c-0.0045,-0.0854 -0.008,-0.1735 -0.0146,-0.2603c-0.1069,-2.1025 -0.2474,-6.1957 0.0073,-10.8092c0.1714,-3.0092 0.2474,-8.0713 0.2498,-8.2528c0.0004,-0.0135 0.0004,-0.0236 0.0004,-0.0371c0.0447,-3.1033 1.2371,-5.9456 3.1671,-8.1216c-0.9557,-3.333 -1.2659,-7.3069 -0.6701,-11.9869l0.0906,-0.7336c0.3387,-2.7719 0.8432,-6.8797 2.9304,-10.8324c3.1557,-5.9685 8.9392,-9.3941 15.8661,-9.3941c0.3984,0 0.812,0.0111 1.2333,0.0357c0.6204,0.0344 1.2992,0.1083 2.0234,0.2363c2.2142,-1.9533 5.1224,-3.1421 8.2982,-3.1421c0.0406,0 0.0864,0 0.1277,0c6.87,0.0853 12.4353,5.7356 12.4006,12.6004c0,0.0462 -0.0004,0.094 -0.0011,0.1398c-0.0021,0.1524 -0.6288,17.6976 -0.8179,18.9451c-0.0138,0.0867 -0.0281,0.1721 -0.0426,0.2575c-0.1656,0.9331 -0.4352,1.8256 -0.7888,2.6698c3.0325,3.5648 4.671,7.9943 4.7255,12.9981c0.0656,6.2936 -2.8138,12.4054 -7.9044,16.7652c-4.3684,3.7473 -9.9129,5.8067 -15.6048,5.8067c-0.001,0 0,0 -0.001,0c-0.9227,0 -1.8443,-0.0506 -2.7615,-0.1599c-0.187,0.2453 -0.3858,0.4879 -0.5916,0.7204c-2.2177,2.5084 -5.2835,4.0054 -8.6293,4.2109c-0.2228,0.0156 -0.5063,0.0249 -0.7846,0.0249z"/><path d="M145.07248,191.46035c0.035,3.3961 -1.6004,6.7624 -4.4802,9.2261c-3.2257,2.7643 -7.4304,3.9486 -11.5344,3.2626c-3.182,-0.5372 -5.8193,-1.7927 -7.8302,-3.087c-0.0197,2.9794 0.1198,5.109 0.1198,5.1496c0.0929,1.5125 -1.0497,2.8242 -2.5738,2.919c-1.5178,0.1009 -2.8204,-1.0525 -2.9259,-2.5713c-0.0077,-0.1885 -0.288,-4.6215 0,-9.8463c0.1804,-3.2476 0.263,-8.6317 0.263,-8.6838c0.0198,-1.5268 1.2784,-2.7406 2.7972,-2.7129c1.5206,0.0292 2.732,1.2742 2.715,2.7868c-0.0028,0.0583 -0.0101,0.4886 -0.0243,1.132c0.1162,1.4428 0.4729,3.7261 1.5223,5.178c1.2416,1.7214 3.6841,3.2056 4.6696,3.7417c0.6815,0.2433 1.4092,0.4365 2.1737,0.5597c2.4588,0.414 5.0999,-0.3341 7.0525,-2.0088c1.6389,-1.405 2.5647,-3.2247 2.5456,-4.9882c-0.0468,-4.5652 -5.0017,-6.271 -12.4217,-7.4401c-6.8204,-1.0653 -9.7199,-6.5639 -8.6123,-15.2626l0.0968,-0.7749c0.541,-4.416 1.4453,-12.0681 9.7772,-11.6108c3.0956,0.1746 5.8796,2.2868 8.0366,4.645c0.0427,-2.3988 0.0559,-4.7602 0.0559,-4.7921c0.0066,-1.5226 1.2443,-2.7472 2.7722,-2.7444c1.5157,0.017 2.7379,1.2499 2.7292,2.7645c-0.0042,0.2853 -0.6843,17.4905 -0.7072,17.6612c-0.2696,1.4952 -1.7038,2.4877 -3.1945,2.2208c-1.1542,-0.2082 -2.0085,-1.1052 -2.2167,-2.1927l-0.0017,0.001c0,0 -0.1746,-1.5539 -0.1836,-1.5955c-0.0975,-1.3013 -0.3605,-2.5085 -1.1326,-4.3601c-1.0532,-2.5418 -2.9662,-3.8205 -3.8018,-4.8053c-0.9268,-0.7568 -1.8481,-1.259 -2.6591,-1.31c-2.7115,-0.1398 -3.3132,1.1039 -4.0141,6.7899l-0.1003,0.7894c-0.8304,6.5376 0.8415,8.6404 3.9999,9.1338c5.5198,0.8686 16.9768,2.6581 17.0879,12.8257z"/><path d="M213.60098,216.15765c-2.3819,-0.0028 -4.7765,-0.4813 -7.3121,-1.4661c-2.2458,-0.8682 -4.0367,-2.1903 -5.4383,-3.5974c-0.9296,0.3783 -1.9085,0.6472 -2.9269,0.7957l-13.282,1.9484c-0.6246,0.0882 -1.2225,0.1309 -1.8165,0.1309c-6.1996,0 -11.5376,-4.6277 -12.4176,-10.7672c-0.4813,-3.2716 0.3501,-6.5768 2.3513,-9.2661c1.0025,-1.3481 2.2372,-2.4561 3.6356,-3.2903l-0.009,-1.9186c-2.5523,-2.2982 -4.1631,-5.6287 -4.1631,-9.3264c0,-2.7181 0.8703,-5.2367 2.3437,-7.2954c-2.9585,-1.9204 -5.0905,-5.0573 -5.6145,-8.7452c-0.4848,-3.2483 0.3453,-6.5654 2.3516,-9.265c2.0054,-2.6949 4.9379,-4.4427 8.2653,-4.9227c2.7736,-0.4087 8.3736,-1.1065 14.333,-1.1065c13.2244,0 21.6434,3.3871 25.7321,10.3542c2.1352,3.6439 4.569,10.9702 -1.8072,20.4143c0.6011,1.9331 1.0511,4.0807 1.3575,6.4855c0.0431,0 0.0861,0 0.1291,0c1.2489,0 2.4873,0.1836 3.6817,0.5531c6.633,2.0515 10.346,9.0919 8.3045,15.7006c-1.9911,6.4182 -5.163,10.3917 -10.2883,12.8881c-2.3503,1.134 -4.8275,1.6965 -7.4058,1.6965c0.0004,-0.0004 0.0004,-0.0004 -0.0041,-0.0004z"/><path d="M221.94498,198.67975c-1.2599,4.0582 -2.7798,5.7891 -5.2231,6.9807c-2.6448,1.2707 -5.1943,0.5646 -6.8849,-0.0961c-2.2965,-0.888 -3.629,-3.4104 -3.976,-4.1648c-1.1142,-2.3842 -1.4643,-7.8097 -1.498,-9.1359c-0.1704,-6.8818 -1.2752,-9.8213 -2.1715,-11.0712c-0.6396,-0.906 -1.2489,-1.1073 -2.3565,-1.2954c-0.3633,-0.0631 -0.9526,0.0118 -0.9675,0.016h-0.0045v0c-2.09,0.6368 -4.5916,1.2048 -7.2191,1.6299l0.0722,15.7949l3.9878,-0.5909c1.498,-0.2103 2.9023,0.8293 3.1202,2.3402c0.2225,1.4994 -0.8224,2.8947 -2.3211,3.1143l-13.2847,1.9499c-1.5032,0.2155 -2.9034,-0.8249 -3.1164,-2.3343c-0.2238,-1.497 0.8165,-2.9 2.3204,-3.1196l3.7896,-0.5517l-0.0579,-16.0254c-0.4706,0.0205 -0.9307,0.0333 -1.3887,0.0333c-1.5182,0 -2.7525,-1.2398 -2.7525,-2.7538c0,-1.5247 1.2343,-2.7493 2.7525,-2.7493c0.4486,0 0.9036,-0.0139 1.3616,-0.0413l-0.0545,-12.8184c-1.4511,0.1347 -2.8954,0.3061 -4.3059,0.5126c-1.504,0.2276 -2.9066,-0.8058 -3.1179,-2.3166c-0.2273,-1.5012 0.8071,-2.9069 2.3173,-3.1245c5.9522,-0.8793 25.7245,-3.1528 30.2258,4.5114c1.794,3.0676 0.9949,6.8492 -2.3811,11.226c-0.0195,0.0274 -0.0361,0.0441 -0.0562,0.0656c-0.1239,0.1655 -1.2392,1.474 -2.7716,2.481c2.2701,2.4502 3.6752,6.8926 3.8865,14.9761c0.0475,2.1892 0.5524,6.0233 0.9817,6.9463c0.2845,0.6038 0.7832,1.2513 0.9671,1.3602c1.1964,0.4657 1.9432,0.5445 2.4953,0.2773c0.559,-0.2658 1.3616,-0.3876 2.3676,-3.6571c0.4396,-1.4449 1.988,-2.2649 3.4457,-1.8176c1.4502,0.4494 2.2684,1.9932 1.8183,3.4482zM206.60258,166.30845c0,-0.2735 -0.0482,-0.5042 -0.1617,-0.6847c-1.2277,-2.1028 -7.5803,-2.919 -14.8605,-2.7184l0.0507,12.522c2.7632,-0.5066 5.3324,-1.2291 7.2732,-1.9196l1.3991,-0.4463c0.8925,-0.2734 1.8173,-0.5493 2.4939,-0.947c0.7308,-0.4355 1.4332,-1.177 1.6782,-1.4633c1.3783,-1.7843 2.1267,-3.3375 2.1271,-4.3427z"/><path d="M306.67378,215.60865c-14.1883,0 -22.3152,-10.6683 -23.0029,-21.2033h0.0045c-0.032,-0.6628 -0.0604,-2.0008 -0.1329,-5.516c-0.0011,-0.1131 -0.0039,-0.2231 -0.0011,-0.3362c0.0889,-6.488 0.1055,-7.7504 0.134,-8.2435h-0.0011c0.7145,-10.0974 4.2064,-17.142 10.3838,-20.9403c2.9294,-1.8145 6.2738,-2.7365 9.9142,-2.7365c1.2468,0 2.4371,0.109 3.5433,0.2849c2.2979,-2.5963 5.6586,-4.2372 9.3938,-4.2372c6.9185,0 12.5469,5.6263 12.5469,12.54v11.9304c0,1.4244 -0.2432,2.8069 -0.6964,4.1026c1.7257,2.0428 2.8142,4.6346 2.9471,7.462c0.075,0.9563 0.1163,1.5688 0.0854,2.2128c-0.0958,3.2091 -0.1007,3.2417 -0.1492,3.68c-0.0073,0.1044 -0.0205,0.2134 -0.0382,0.3165c-0.2905,2.0862 -1.0476,6.0514 -2.8219,9.165c-1.1426,1.9953 -2.3301,3.434 -3.4467,4.6954c-2.2476,2.5314 -4.8331,3.9385 -7.0713,4.984c-3.732,1.7548 -6.9508,1.7877 -9.3049,1.8117l-1.4831,0.0156c-0.2693,0.0066 -0.54,0.0121 -0.8033,0.0121z"/><path d="M321.93188,189.27695c0,0 0.0857,1.1087 0.0774,1.1514c0,0 -0.0892,3.0397 -0.1007,3.1393c-0.0857,0.6177 -0.5742,3.8199 -1.6316,5.6749c-0.712,1.2423 -1.4786,2.1574 -2.2711,3.054c-1.0965,1.2315 -2.5859,1.996 -3.8889,2.6074c-1.828,0.8588 -3.4277,0.871 -5.2894,0.8873l-1.5448,0.017c-10.2984,0.3307 -13.5592,-7.7344 -13.8441,-12.0414c-0.0035,-0.0347 -0.1069,-5.0798 -0.1069,-5.0798c0,0 0.1034,-7.6348 0.1069,-7.6847c0.4889,-6.8634 2.3662,-11.2145 5.7478,-13.2952c4.317,-2.667 9.6005,-0.4656 11.338,0.261c1.3467,0.5639 2.5643,1.3245 3.63,2.1542v-4.9018c0,-1.5129 1.2443,-2.7493 2.7549,-2.7493c1.5282,0 2.7562,1.2364 2.7562,2.7493v11.9304c0,1.2346 -0.8186,2.3075 -2.0053,2.6431c-1.1802,0.3276 -2.4468,-0.16 -3.0904,-1.2079c-0.0264,-0.032 -2.5103,-4.0142 -6.1615,-5.5368c-2.9675,-1.2371 -5.0381,-1.4557 -6.3338,-0.6479c-1.6813,1.0278 -2.7958,4.2081 -3.1411,8.9371c-0.0035,0.2023 -0.0864,7.2885 -0.0864,7.3759c0,0.0961 0.0829,4.5354 0.0864,4.7238c0.1152,1.2749 1.0195,7.0987 8.1789,6.8683l1.6743,-0.0216c1.6007,-0.0173 2.2822,-0.0305 2.9891,-0.3563c0.6253,-0.2992 1.6722,-0.787 2.1032,-1.277c0.7662,-0.8734 1.1982,-1.4158 1.6115,-2.1382c0.3726,-0.6444 0.772,-2.4575 0.9469,-3.5954c0.0091,-0.3084 0.0684,-2.4828 0.0684,-2.5931c0,-0.1114 -0.0736,-0.9862 -0.0736,-1.0011c0,-1.5012 1.2,-2.7327 2.6983,-2.7518c1.5272,-0.0263 2.7781,1.1923 2.8014,2.7049z"/><path d="M345.79568,220.02085c-2.9568,0 -5.7963,-1.1108 -7.9904,-3.13c-0.8839,-0.8071 -1.6244,-1.7128 -2.2198,-2.6906l-10.347,-0.1735c-6.8943,-0.1194 -12.4248,-5.8186 -12.336,-12.7021c0.0864,-5.0215 3.1387,-9.3407 7.4422,-11.2863l0.0344,-19.2279c-4.2953,-1.9942 -7.2854,-6.3488 -7.2854,-11.3925c0,-6.9155 5.627,-12.5435 12.5414,-12.5435h11.7933c2.2521,-2.7337 5.6437,-4.5125 9.4583,-4.5871c0,0 14.5003,-0.2481 14.5572,-0.2481c6.8037,0 12.4318,5.533 12.5473,12.3378c0.0743,4.967 -2.7476,9.3111 -6.8953,11.4119c0.084,13.6244 0.1339,22.1857 0.1596,27.8263c3.8021,1.9612 6.5015,5.8196 6.7923,10.3497c0.4414,6.9068 -4.8102,12.8853 -11.7104,13.3264c-5.6919,0.3727 -9.3229,1.0167 -10.3411,1.3054c-0.1984,0.0819 -0.3966,0.1558 -0.5996,0.221c-1.2582,0.4793 -3.1577,1.2031 -5.601,1.2031z"/><path d="M361.70798,207.52345c-6.5737,0.4255 -11.8152,1.2843 -13.4041,2.0054l0.0204,-0.0142c-1.5556,0.5763 -2.7885,1.1857 -3.8947,0.1662c-1.1104,-1.0098 -1.2267,-2.6983 -0.2346,-3.8198c1.5258,-1.7125 4.0398,-2.0075 7.7909,-2.7171c0,-3.697 -0.0413,-10.6176 -0.0957,-20.9944l-16.2388,2.7104l-0.0295,14.0467l4.7425,0.076c1.5154,0.0205 2.7271,1.2676 2.7042,2.7931c-0.0239,1.5181 -1.2756,2.733 -2.7954,2.7115l-14.873,-0.2495c-1.5199,-0.0264 -2.7268,-1.276 -2.7087,-2.7834c0.0274,-1.533 1.2804,-2.7468 2.7968,-2.7212l4.6312,0.0805l0.0652,-36.6356h-4.5503c-1.5202,0 -2.7496,-1.2354 -2.7496,-2.7601c0,-1.5178 1.2294,-2.7531 2.7496,-2.7531h14.4583c1.5241,0 2.7604,1.2353 2.7604,2.7531c0,1.5247 -1.2363,2.7601 -2.7604,2.7601h-4.401l-0.0295,17.1045l16.1933,-2.707c-0.0392,-6.566 -0.0715,-13.0567 -0.1149,-19.0776l-4.5766,0.083c-1.514,0.0298 -2.7719,-1.1878 -2.791,-2.7063c-0.026,-1.5216 1.1795,-2.7684 2.7042,-2.8017l14.3296,-0.2433c1.5184,-0.0215 2.7718,1.1947 2.7954,2.7112c0.0222,1.5181 -1.1937,2.7791 -2.708,2.8048l-4.2393,0.0597c0.1884,30.7661 0.2373,40.2455 0.2324,44.9506c1.4984,-0.1607 2.8441,-0.2624 3.8681,-0.3314c1.5164,-0.0982 2.8264,1.0573 2.9239,2.5713c0.0975,1.5202 -1.0539,2.8277 -2.5713,2.9276z"/><path d="M245.38728,205.63375c-2.7247,-0.0014 -5.3186,-0.8627 -7.5005,-2.4995c-0.4734,-0.3477 -0.9151,-0.7259 -1.3294,-1.1271c-1.5598,0.6919 -3.2872,1.0789 -5.0989,1.0789c-0.1884,0 -0.3765,-0.0042 -0.566,-0.0136l-13.7274,-0.6499c-6.8985,-0.3206 -12.2601,-6.1965 -11.9478,-13.0953c0.3023,-6.7089 5.8065,-11.9723 12.5363,-11.9723c0.0569,0 0.1148,0 0.1724,0.001c0.6302,-3.1574 2.1678,-10.8667 2.242,-11.238c-4.5454,-1.4321 -8.0408,-5.3918 -8.6956,-10.3116c-0.899,-6.8502 3.9247,-13.1622 10.7457,-14.0915l11.7843,-1.6202c0.5601,-0.076 1.134,-0.1155 1.6972,-0.1155c3.4537,0 6.7888,1.4459 9.1571,3.9714c0.8613,0.913 2.1001,2.706 2.7635,4.2914l10.3425,24.9993c0.0486,0.1152 0.1044,0.2456 0.1662,0.3976c0.0319,-0.0003 0.0677,-0.0003 0.0986,-0.0003c5.2789,0 10.0242,3.3361 11.8099,8.3066c2.3187,6.4959 -1.0597,13.682 -7.5286,16.034c-4.1332,1.4762 -6.7794,2.8302 -7.7344,3.434c-2.3638,2.6601 -5.7977,4.2209 -9.3861,4.2209c0,-0.0003 0,-0.0003 -0.001,-0.0003z"/><path d="M260.82128,185.25065c0.5115,1.4286 -0.23,3.0079 -1.6576,3.5249c-5.1353,1.8377 -10.3355,4.3015 -11.5587,5.9511c-0.9106,1.2222 -2.6404,1.4783 -3.8528,0.5681c-1.2236,-0.9029 -1.4838,-2.623 -0.5767,-3.8504c0.9705,-1.3026 2.2666,-2.0529 4.3417,-3.2403l-2.7254,-6.7388l-12.7309,2.1097l-0.6298,4.1967c1.9627,0 2.8499,1.3745 2.7816,2.9013c-0.076,1.5126 -1.3648,2.6844 -2.8815,2.6189l-13.7029,-0.65c-1.5171,-0.0708 -2.6966,-1.3529 -2.631,-2.8683c0.0698,-1.5234 1.3634,-2.6924 2.8802,-2.6268l7.9859,0.3876c1.2742,-6.2371 5.3383,-26.7502 6.3585,-31.7683c-3.5585,0.4806 -7.9502,1.1118 -7.9502,1.1118c-1.5098,0.1937 -2.8923,-0.855 -3.0942,-2.3658c-0.1954,-1.5033 0.8519,-2.8909 2.3586,-3.0957l11.7991,-1.6222c0.8793,-0.1222 1.767,0.1985 2.3791,0.8515c0.1784,0.1895 0.7558,1.0705 0.8588,1.3374l10.3501,25.0235c0.1211,0.2113 3.5398,8.7393 3.5398,8.7393c2.4464,-1.075 4.0235,-1.8665 4.839,-2.1559c1.4262,-0.5115 3.0078,0.2352 3.5193,1.6607zM242.66568,177.58915l-6.0545,-14.96l-3.376,16.5243z"/><path d="M264.84728,213.50415c-6.7958,0 -12.4238,-5.5379 -12.5411,-12.3409c-0.0843,-5.5718 3.4801,-10.3567 8.4745,-12.0726l-0.0073,-3.706c-0.3713,0.0895 -0.7498,0.1634 -1.1322,0.221c-0.6167,0.0947 -1.2472,0.1416 -1.8652,0.1416c-6.2544,0 -11.4685,-4.4927 -12.3992,-10.678l-2.0993,-13.5033c-0.557,-3.5787 0.4754,-7.2299 2.8333,-10.0115c2.3232,-2.7694 5.7703,-4.3927 9.4263,-4.4343l17.5154,-0.2929c8.5103,-0.1614 16.1041,-0.6978 16.5136,-0.7263c0.0587,-0.0083 0.1176,-0.0118 0.1784,-0.0146c0.2706,-0.0163 0.542,-0.0274 0.8102,-0.0274c3.3559,0 6.6191,1.3683 8.9576,3.7532c2.5192,2.5304 3.834,6.1059 3.5575,9.7491c-0.2363,3.1213 -0.3109,8.0564 -0.3217,9.2532c0.1399,5.0798 -2.6379,9.6759 -7.1601,11.7839c-1.6729,0.7881 -3.5668,1.2198 -5.4393,1.2198v0c-1.4883,0 -2.9419,-0.2717 -4.2931,-0.7725l0.0153,7.8736c4.7584,1.7412 8.2077,6.2929 8.2812,11.6191c0.0524,3.352 -1.2162,6.5306 -3.5668,8.9367c-2.3468,2.4027 -5.4869,3.7473 -8.8434,3.7778c0.0003,0.0007 -16.8481,0.2513 -16.8946,0.2513z"/><path d="M292.51908,156.66485c0.5667,0.5701 0.8481,1.3526 0.7891,2.1569c-0.2995,3.9427 -0.3543,10.1097 -0.3515,10.1558c0.0649,1.126 -0.4834,2.2732 -1.5057,2.7479c-1.3137,0.6208 -2.7992,0.2835 -3.4995,-0.9889c-0.2398,-0.415 -0.5545,-0.9737 -0.5545,-3.9177c0,-1.2544 0.068,-2.9797 0.2078,-5.2675c-2.7805,0.152 -6.838,0.3775 -11.5784,0.5097l0.0711,35.9781l5.4761,-0.0839c1.5174,-0.0115 2.7684,1.1933 2.792,2.7184c0.0201,1.514 -1.1972,2.7753 -2.715,2.7896l-16.7686,0.2508c-1.5144,0.0188 -2.7577,-1.195 -2.7875,-2.7212c-0.0226,-1.5126 1.1926,-2.7646 2.7111,-2.7909l5.7849,-0.0746l-0.0711,-35.9597c0,0 -10.939,0.1957 -11.6535,0.1991c0.5598,3.7744 1.666,10.7117 1.666,10.838c0,1.3408 -0.9768,2.5165 -2.3447,2.7219c-1.5036,0.2225 -2.9013,-0.8106 -3.1303,-2.3145l-2.1049,-13.5474c-0.1198,-0.7842 0.1165,-1.5806 0.6312,-2.1813c0.5135,-0.6173 1.2662,-0.9667 2.0646,-0.9726l17.5678,-0.2932c9.0141,-0.1732 17.0751,-0.7513 17.1604,-0.7631c0.794,-0.0493 1.5851,0.2408 2.1431,0.8103z"/><path d="M161.96778,219.05475c-14.1252,-0.0034 -22.2496,-10.5565 -23.0276,-21.0412c-0.0239,-0.32 -0.0333,-0.5903 -0.0354,-0.8051l-0.0999,-5.0899c0,-0.044 0.0999,-7.6226 0.0999,-7.6226c0.0007,-0.236 0.0118,-0.4983 0.0302,-0.7686c0.7259,-10.0895 4.2199,-17.1309 10.3879,-20.9254c2.9416,-1.8128 6.2801,-2.7316 9.9126,-2.7316c1.2478,0 2.4391,0.1127 3.5457,0.288c2.2995,-2.6005 5.6603,-4.2428 9.3979,-4.2428c6.9178,0 12.5417,5.628 12.5417,12.5466v11.9196c0,1.2846 -0.196,2.5362 -0.5687,3.723c1.6764,2.0529 2.7216,4.6419 2.8222,7.4599l0.077,1.4477c0.0111,0.1756 0.0146,0.3526 0.0146,0.5313c0,0.0312 -0.0364,3.3812 -0.2065,4.6446h0.0007c-0.3668,2.564 -1.1531,6.2367 -2.8218,9.1509c-1.1514,2.0223 -2.3635,3.4613 -3.4093,4.654c-2.293,2.5654 -4.8716,3.9701 -7.0997,5.0104c-3.7258,1.7586 -6.9516,1.7884 -9.307,1.811l-1.4373,0.0285c-0.2717,0.0072 -0.5441,0.0121 -0.8148,0.0121c-0.001,-0.0004 -0.0017,-0.0004 -0.0024,-0.0004z"/><path d="M177.19358,192.17135l0.0823,1.5716c0,0.0368 -0.0913,3.1556 -0.1066,3.2601c-0.0881,0.6173 -0.5684,3.8194 -1.6288,5.6752c-0.7051,1.2388 -1.4755,2.1525 -2.2673,3.0505c-1.1049,1.2378 -2.5824,1.9974 -3.8917,2.6088c-1.828,0.8616 -3.4308,0.8696 -5.2897,0.8873l-1.5459,0.0312c-10.3005,0.3085 -13.5582,-7.7423 -13.8462,-12.0584c-0.0038,-0.0347 -0.0038,-0.0746 -0.0038,-0.1186l-0.1003,-4.8636v-0.0969l0.1003,-7.5317c0,-0.0441 0,-0.0958 0.0038,-0.1499c0.4931,-6.8665 2.3739,-11.2179 5.7547,-13.2969c4.315,-2.6587 9.602,-0.4629 11.3335,0.2617c1.3534,0.5576 2.5672,1.3242 3.637,2.1532v-4.8932c0,-1.5219 1.2277,-2.7559 2.7549,-2.7559c1.5157,0 2.751,1.234 2.751,2.7559v11.9196c0,1.2368 -0.82,2.3132 -2.0071,2.6453c-1.1825,0.3404 -2.4491,-0.16 -3.0973,-1.2028c-0.0156,-0.0426 -2.5068,-4.0131 -6.158,-5.5416c-2.9655,-1.2354 -5.0388,-1.456 -6.329,-0.6468c-1.6836,1.0264 -2.7937,4.207 -3.1404,8.935c0,0.2026 -0.0919,7.2902 -0.0995,7.3818c0.0076,0.0868 0.0971,4.5326 0.0995,4.721c0.1156,1.2843 1.0168,7.0914 8.1765,6.8717l1.6809,-0.027c1.6007,-0.0157 2.2763,-0.0313 2.9815,-0.3647c0.628,-0.286 1.6725,-0.7794 2.099,-1.2722c0.7481,-0.8411 1.2086,-1.4116 1.6198,-2.1354c0.3734,-0.6444 0.769,-2.4575 0.9425,-3.5946c0.0093,-0.3165 0.0687,-2.4759 0.0701,-2.5877c0,-0.1159 -0.0753,-1.533 -0.0753,-1.5479c0,-1.4956 1.1989,-2.7292 2.7076,-2.757c1.514,-0.0284 2.7674,1.1916 2.792,2.7129z"/></g><path d="M145.07248,191.46035c0.035,3.3961 -1.6004,6.7624 -4.4802,9.2261c-3.2257,2.7643 -7.4304,3.9486 -11.5344,3.2626c-3.182,-0.5372 -5.8193,-1.7927 -7.8302,-3.087c-0.0197,2.9794 0.1198,5.109 0.1198,5.1496c0.0929,1.5125 -1.0497,2.8242 -2.5738,2.919c-1.5178,0.1009 -2.8204,-1.0525 -2.9259,-2.5713c-0.0077,-0.1885 -0.288,-4.6215 0,-9.8463c0.1804,-3.2476 0.263,-8.6317 0.263,-8.6838c0.0198,-1.5268 1.2784,-2.7406 2.7972,-2.7129c1.5206,0.0292 2.732,1.2742 2.715,2.7868c-0.0028,0.0583 -0.0101,0.4886 -0.0243,1.132c0.1162,1.4428 0.4729,3.7261 1.5223,5.178c1.2416,1.7214 3.6841,3.2056 4.6696,3.7417c0.6815,0.2433 1.4092,0.4365 2.1737,0.5597c2.4588,0.414 5.0999,-0.3341 7.0525,-2.0088c1.6389,-1.405 2.5647,-3.2247 2.5456,-4.9882c-0.0468,-4.5652 -5.0017,-6.271 -12.4217,-7.4401c-6.8204,-1.0653 -9.7199,-6.5639 -8.6123,-15.2626l0.0968,-0.7749c0.541,-4.416 1.4453,-12.0681 9.7772,-11.6108c3.0956,0.1746 5.8796,2.2868 8.0366,4.645c0.0427,-2.3988 0.0559,-4.7602 0.0559,-4.7921c0.0066,-1.5226 1.2443,-2.7472 2.7722,-2.7444c1.5157,0.017 2.7379,1.2499 2.7292,2.7645c-0.0042,0.2853 -0.6843,17.4905 -0.7072,17.6612c-0.2696,1.4952 -1.7038,2.4877 -3.1945,2.2208c-1.1542,-0.2082 -2.0085,-1.1052 -2.2167,-2.1927l-0.0017,0.001c0,0 -0.1746,-1.5539 -0.1836,-1.5955c-0.0975,-1.3013 -0.3605,-2.5085 -1.1326,-4.3601c-1.0532,-2.5418 -2.9662,-3.8205 -3.8018,-4.8053c-0.9268,-0.7568 -1.8481,-1.259 -2.6591,-1.31c-2.7115,-0.1398 -3.3132,1.1039 -4.0141,6.7899l-0.1003,0.7894c-0.8304,6.5376 0.8415,8.6404 3.9999,9.1338c5.5198,0.8686 16.9768,2.6581 17.0879,12.8257z" fill="#f9a737"/><path d="M221.94498,198.67975c-1.2599,4.0582 -2.7798,5.7891 -5.2231,6.9807c-2.6448,1.2707 -5.1943,0.5646 -6.8849,-0.0961c-2.2965,-0.888 -3.629,-3.4104 -3.976,-4.1648c-1.1142,-2.3842 -1.4643,-7.8097 -1.498,-9.1359c-0.1704,-6.8818 -1.2752,-9.8213 -2.1715,-11.0712c-0.6396,-0.906 -1.2489,-1.1073 -2.3565,-1.2954c-0.3633,-0.0631 -0.9526,0.0118 -0.9675,0.016h-0.0045v0c-2.09,0.6368 -4.5916,1.2048 -7.2191,1.6299l0.0722,15.7949l3.9878,-0.5909c1.498,-0.2103 2.9023,0.8293 3.1202,2.3402c0.2225,1.4994 -0.8224,2.8947 -2.3211,3.1143l-13.2847,1.9499c-1.5032,0.2155 -2.9034,-0.8249 -3.1164,-2.3343c-0.2238,-1.497 0.8165,-2.9 2.3204,-3.1196l3.7896,-0.5517l-0.0579,-16.0254c-0.4706,0.0205 -0.9307,0.0333 -1.3887,0.0333c-1.5182,0 -2.7525,-1.2398 -2.7525,-2.7538c0,-1.5247 1.2343,-2.7493 2.7525,-2.7493c0.4486,0 0.9036,-0.0139 1.3616,-0.0413l-0.0545,-12.8184c-1.4511,0.1347 -2.8954,0.3061 -4.3059,0.5126c-1.504,0.2276 -2.9066,-0.8058 -3.1179,-2.3166c-0.2273,-1.5012 0.8071,-2.9069 2.3173,-3.1245c5.9522,-0.8793 25.7245,-3.1528 30.2258,4.5114c1.794,3.0676 0.9949,6.8492 -2.3811,11.226c-0.0195,0.0274 -0.0361,0.0441 -0.0562,0.0656c-0.1239,0.1655 -1.2392,1.474 -2.7716,2.481c2.2701,2.4502 3.6752,6.8926 3.8865,14.9761c0.0475,2.1892 0.5524,6.0233 0.9817,6.9463c0.2845,0.6038 0.7832,1.2513 0.9671,1.3602c1.1964,0.4657 1.9432,0.5445 2.4953,0.2773c0.559,-0.2658 1.3616,-0.3876 2.3676,-3.6571c0.4396,-1.4449 1.988,-2.2649 3.4457,-1.8176c1.4502,0.4494 2.2684,1.9932 1.8183,3.4482zM206.60258,166.30845c0,-0.2735 -0.0482,-0.5042 -0.1617,-0.6847c-1.2277,-2.1028 -7.5803,-2.919 -14.8605,-2.7184l0.0507,12.522c2.7632,-0.5066 5.3324,-1.2291 7.2732,-1.9196l1.3991,-0.4463c0.8925,-0.2734 1.8173,-0.5493 2.4939,-0.947c0.7308,-0.4355 1.4332,-1.177 1.6782,-1.4633c1.3783,-1.7843 2.1267,-3.3375 2.1271,-4.3427z" fill="#f9a737"/><path d="M321.93188,189.27695c0,0 0.0857,1.1087 0.0774,1.1514c0,0 -0.0892,3.0397 -0.1007,3.1393c-0.0857,0.6177 -0.5742,3.8199 -1.6316,5.6749c-0.712,1.2423 -1.4786,2.1574 -2.2711,3.054c-1.0965,1.2315 -2.5859,1.996 -3.8889,2.6074c-1.828,0.8588 -3.4277,0.871 -5.2894,0.8873l-1.5448,0.017c-10.2984,0.3307 -13.5592,-7.7344 -13.8441,-12.0414c-0.0035,-0.0347 -0.1069,-5.0798 -0.1069,-5.0798c0,0 0.1034,-7.6348 0.1069,-7.6847c0.4889,-6.8634 2.3662,-11.2145 5.7478,-13.2952c4.317,-2.667 9.6005,-0.4656 11.338,0.261c1.3467,0.5639 2.5643,1.3245 3.63,2.1542v-4.9018c0,-1.5129 1.2443,-2.7493 2.7549,-2.7493c1.5282,0 2.7562,1.2364 2.7562,2.7493v11.9304c0,1.2346 -0.8186,2.3075 -2.0053,2.6431c-1.1802,0.3276 -2.4468,-0.16 -3.0904,-1.2079c-0.0264,-0.032 -2.5103,-4.0142 -6.1615,-5.5368c-2.9675,-1.2371 -5.0381,-1.4557 -6.3338,-0.6479c-1.6813,1.0278 -2.7958,4.2081 -3.1411,8.9371c-0.0035,0.2023 -0.0864,7.2885 -0.0864,7.3759c0,0.0961 0.0829,4.5354 0.0864,4.7238c0.1152,1.2749 1.0195,7.0987 8.1789,6.8683l1.6743,-0.0216c1.6007,-0.0173 2.2822,-0.0305 2.9891,-0.3563c0.6253,-0.2992 1.6722,-0.787 2.1032,-1.277c0.7662,-0.8734 1.1982,-1.4158 1.6115,-2.1382c0.3726,-0.6444 0.772,-2.4575 0.9469,-3.5954c0.0091,-0.3084 0.0684,-2.4828 0.0684,-2.5931c0,-0.1114 -0.0736,-0.9862 -0.0736,-1.0011c0,-1.5012 1.2,-2.7327 2.6983,-2.7518c1.5272,-0.0263 2.7781,1.1923 2.8014,2.7049z" fill="#f9a737"/><path d="M361.70798,207.52345c-6.5737,0.4255 -11.8152,1.2843 -13.4041,2.0054l0.0204,-0.0142c-1.5556,0.5763 -2.7885,1.1857 -3.8947,0.1662c-1.1104,-1.0098 -1.2267,-2.6983 -0.2346,-3.8198c1.5258,-1.7125 4.0398,-2.0075 7.7909,-2.7171c0,-3.697 -0.0413,-10.6176 -0.0957,-20.9944l-16.2388,2.7104l-0.0295,14.0467l4.7425,0.076c1.5154,0.0205 2.7271,1.2676 2.7042,2.7931c-0.0239,1.5181 -1.2756,2.733 -2.7954,2.7115l-14.873,-0.2495c-1.5199,-0.0264 -2.7268,-1.276 -2.7087,-2.7834c0.0274,-1.533 1.2804,-2.7468 2.7968,-2.7212l4.6312,0.0805l0.0652,-36.6356h-4.5503c-1.5202,0 -2.7496,-1.2354 -2.7496,-2.7601c0,-1.5178 1.2294,-2.7531 2.7496,-2.7531h14.4583c1.5241,0 2.7604,1.2353 2.7604,2.7531c0,1.5247 -1.2363,2.7601 -2.7604,2.7601h-4.401l-0.0295,17.1045l16.1933,-2.707c-0.0392,-6.566 -0.0715,-13.0567 -0.1149,-19.0776l-4.5766,0.083c-1.514,0.0298 -2.7719,-1.1878 -2.791,-2.7063c-0.026,-1.5216 1.1795,-2.7684 2.7042,-2.8017l14.3296,-0.2433c1.5184,-0.0215 2.7718,1.1947 2.7954,2.7112c0.0222,1.5181 -1.1937,2.7791 -2.708,2.8048l-4.2393,0.0597c0.1884,30.7661 0.2373,40.2455 0.2324,44.9506c1.4984,-0.1607 2.8441,-0.2624 3.8681,-0.3314c1.5164,-0.0982 2.8264,1.0573 2.9239,2.5713c0.0975,1.5202 -1.0539,2.8277 -2.5713,2.9276z" fill="#f9a737"/><path d="M260.82128,185.25065c0.5115,1.4286 -0.23,3.0079 -1.6576,3.5249c-5.1353,1.8377 -10.3355,4.3015 -11.5587,5.9511c-0.9106,1.2222 -2.6404,1.4783 -3.8528,0.5681c-1.2236,-0.9029 -1.4838,-2.623 -0.5767,-3.8504c0.9705,-1.3026 2.2666,-2.0529 4.3417,-3.2403l-2.7254,-6.7388l-12.7309,2.1097l-0.6298,4.1967c1.9627,0 2.8499,1.3745 2.7816,2.9013c-0.076,1.5126 -1.3648,2.6844 -2.8815,2.6189l-13.7029,-0.65c-1.5171,-0.0708 -2.6966,-1.3529 -2.631,-2.8683c0.0698,-1.5234 1.3634,-2.6924 2.8802,-2.6268l7.9859,0.3876c1.2742,-6.2371 5.3383,-26.7502 6.3585,-31.7683c-3.5585,0.4806 -7.9502,1.1118 -7.9502,1.1118c-1.5098,0.1937 -2.8923,-0.855 -3.0942,-2.3658c-0.1954,-1.5033 0.8519,-2.8909 2.3586,-3.0957l11.7991,-1.6222c0.8793,-0.1222 1.767,0.1985 2.3791,0.8515c0.1784,0.1895 0.7558,1.0705 0.8588,1.3374l10.3501,25.0235c0.1211,0.2113 3.5398,8.7393 3.5398,8.7393c2.4464,-1.075 4.0235,-1.8665 4.839,-2.1559c1.4262,-0.5115 3.0078,0.2352 3.5193,1.6607zM242.66568,177.58915l-6.0545,-14.96l-3.376,16.5243z" fill="#f9a737"/><path d="M292.51908,156.66485c0.5667,0.5701 0.8481,1.3526 0.7891,2.1569c-0.2995,3.9427 -0.3543,10.1097 -0.3515,10.1558c0.0649,1.126 -0.4834,2.2732 -1.5057,2.7479c-1.3137,0.6208 -2.7992,0.2835 -3.4995,-0.9889c-0.2398,-0.415 -0.5545,-0.9737 -0.5545,-3.9177c0,-1.2544 0.068,-2.9797 0.2078,-5.2675c-2.7805,0.152 -6.838,0.3775 -11.5784,0.5097l0.0711,35.9781l5.4761,-0.0839c1.5174,-0.0115 2.7684,1.1933 2.792,2.7184c0.0201,1.514 -1.1972,2.7753 -2.715,2.7896l-16.7686,0.2508c-1.5144,0.0188 -2.7577,-1.195 -2.7875,-2.7212c-0.0226,-1.5126 1.1926,-2.7646 2.7111,-2.7909l5.7849,-0.0746l-0.0711,-35.9597c0,0 -10.939,0.1957 -11.6535,0.1991c0.5598,3.7744 1.666,10.7117 1.666,10.838c0,1.3408 -0.9768,2.5165 -2.3447,2.7219c-1.5036,0.2225 -2.9013,-0.8106 -3.1303,-2.3145l-2.1049,-13.5474c-0.1198,-0.7842 0.1165,-1.5806 0.6312,-2.1813c0.5135,-0.6173 1.2662,-0.9667 2.0646,-0.9726l17.5678,-0.2932c9.0141,-0.1732 17.0751,-0.7513 17.1604,-0.7631c0.794,-0.0493 1.5851,0.2408 2.1431,0.8103z" fill="#f9a737"/><path d="M177.19358,192.17135l0.0823,1.5716c0,0.0368 -0.0913,3.1556 -0.1066,3.2601c-0.0881,0.6173 -0.5684,3.8194 -1.6288,5.6752c-0.7051,1.2388 -1.4755,2.1525 -2.2673,3.0505c-1.1049,1.2378 -2.5824,1.9974 -3.8917,2.6088c-1.828,0.8616 -3.4308,0.8696 -5.2897,0.8873l-1.5459,0.0312c-10.3005,0.3085 -13.5582,-7.7423 -13.8462,-12.0584c-0.0038,-0.0347 -0.0038,-0.0746 -0.0038,-0.1186l-0.1003,-4.8636v-0.0969l0.1003,-7.5317c0,-0.0441 0,-0.0958 0.0038,-0.1499c0.4931,-6.8665 2.3739,-11.2179 5.7547,-13.2969c4.315,-2.6587 9.602,-0.4629 11.3335,0.2617c1.3534,0.5576 2.5672,1.3242 3.637,2.1532v-4.8932c0,-1.5219 1.2277,-2.7559 2.7549,-2.7559c1.5157,0 2.751,1.234 2.751,2.7559v11.9196c0,1.2368 -0.82,2.3132 -2.0071,2.6453c-1.1825,0.3404 -2.4491,-0.16 -3.0973,-1.2028c-0.0156,-0.0426 -2.5068,-4.0131 -6.158,-5.5416c-2.9655,-1.2354 -5.0388,-1.456 -6.329,-0.6468c-1.6836,1.0264 -2.7937,4.207 -3.1404,8.935c0,0.2026 -0.0919,7.2902 -0.0995,7.3818c0.0076,0.0868 0.0971,4.5326 0.0995,4.721c0.1156,1.2843 1.0168,7.0914 8.1765,6.8717l1.6809,-0.027c1.6007,-0.0157 2.2763,-0.0313 2.9815,-0.3647c0.628,-0.286 1.6725,-0.7794 2.099,-1.2722c0.7481,-0.8411 1.2086,-1.4116 1.6198,-2.1354c0.3734,-0.6444 0.769,-2.4575 0.9425,-3.5946c0.0093,-0.3165 0.0687,-2.4759 0.0701,-2.5877c0,-0.1159 -0.0753,-1.533 -0.0753,-1.5479c0,-1.4956 1.1989,-2.7292 2.7076,-2.757c1.514,-0.0284 2.7674,1.1916 2.792,2.7129z" fill="#f9a737"/></g></g><path d="" fill="#9966ff" stroke="none" stroke-width="0.5"/></g></g></svg>