<svg version="1.1" xmlns="http://www.w3.org/2000/svg" xmlns:xlink="http://www.w3.org/1999/xlink" width="52.225" height="52.225" viewBox="0,0,52.225,52.225"><defs><radialGradient cx="239.8" cy="188.8" r="26.1125" gradientUnits="userSpaceOnUse" id="color-1"><stop offset="0" stop-color="#52f6ff"/><stop offset="1" stop-color="#52f6ff" stop-opacity="0"/></radialGradient></defs><g transform="translate(-213.6875,-162.6875)"><g data-paper-data="{&quot;isPaintingLayer&quot;:true}" fill-rule="nonzero" stroke-linejoin="miter" stroke-miterlimit="10" stroke-dasharray="" stroke-dashoffset="0" style="mix-blend-mode: normal"><path d="M213.6875,188.8c0,-14.42153 11.69097,-26.1125 26.1125,-26.1125c14.42153,0 26.1125,11.69097 26.1125,26.1125c0,14.42153 -11.69097,26.1125 -26.1125,26.1125c-14.42153,0 -26.1125,-11.69097 -26.1125,-26.1125z" fill="url(#color-1)" stroke="none" stroke-width="NaN" stroke-linecap="butt"/><path d="" fill="#ff0000" stroke="#ff0000" stroke-width="2.5" stroke-linecap="butt"/><path d="" fill="#ff0000" stroke="#ff0000" stroke-width="2.5" stroke-linecap="butt"/><path d="M226.42433,192.9258c0.0501,-2.5131 1.73899,-6.53323 3.75169,-8.57441c2.6596,-2.69723 6.75867,-3.70365 10.09535,-3.70365c5.90285,0 13.32005,5.07781 13.5305,13.43539c-1.81365,-0.05916 -6.6519,0.1163 -8.46932,0.1163c0,0 -0.37851,0 -0.75254,0.1915c-0.13421,-0.00873 -0.27059,-0.25639 -0.40905,-0.26552c-4.95137,-0.32643 -12.94312,-0.49869 -17.79501,-0.48442c-0.14298,0.00042 0.19145,-0.71542 0.0484,-0.71517z" fill="#52f6ff" stroke="#e2ff00" stroke-width="0" stroke-linecap="butt"/><path d="M225.65269,193.78909c0.3289,-7.65777 6.64119,-13.76514 14.37995,-13.76514c7.94848,0 14.39214,6.44287 14.39342,14.39105" fill="none" stroke="#000000" stroke-width="2.5" stroke-linecap="butt"/><path d="M225.57397,194.32817l28.79779,0.39788" fill="none" stroke="#000000" stroke-width="2.5" stroke-linecap="round"/><path d="" fill="none" stroke="#000000" stroke-width="2" stroke-linecap="round"/><path d="" fill="none" stroke="#000000" stroke-width="2" stroke-linecap="round"/></g></g></svg>