<svg version="1.1" xmlns="http://www.w3.org/2000/svg" xmlns:xlink="http://www.w3.org/1999/xlink" width="32.125" height="45.30324" viewBox="0,0,32.125,45.30324"><g transform="translate(-223.9375,-156.79351)"><g data-paper-data="{&quot;isPaintingLayer&quot;:true}" fill-rule="nonzero" stroke="none" stroke-linecap="butt" stroke-linejoin="miter" stroke-miterlimit="10" stroke-dasharray="" stroke-dashoffset="0" style="mix-blend-mode: normal"><path d="M223.9375,193.25865c0,-4.88115 3.95695,-8.8381 8.8381,-8.8381c4.88115,0 8.8381,3.95695 8.8381,8.8381c0,4.88115 -3.95695,8.8381 -8.8381,8.8381c-4.88115,0 -8.8381,-3.95695 -8.8381,-8.8381z" fill="#ff0000" stroke-width="0"/><path d="M238.3863,193.25865c0,-4.88115 3.95696,-8.8381 8.8381,-8.8381c4.88115,0 8.8381,3.95696 8.8381,8.8381c0,4.88115 -3.95696,8.8381 -8.8381,8.8381c-4.88115,0 -8.8381,-3.95696 -8.8381,-8.8381z" fill="#00ffff" stroke-width="0"/><path d="M231.25829,181.23154c0,-4.88115 3.95696,-8.8381 8.8381,-8.8381c4.88115,0 8.8381,3.95696 8.8381,8.8381c0,4.88115 -3.95696,8.8381 -8.8381,8.8381c-4.88115,0 -8.8381,-3.95696 -8.8381,-8.8381z" fill="#00ff6a" stroke-width="0"/><text transform="translate(228.07393,166.06608) scale(0.24509,0.24509)" font-size="40" xml:space="preserve" fill="#000000" fill-rule="nonzero" stroke="none" stroke-width="1" stroke-linecap="butt" stroke-linejoin="miter" stroke-miterlimit="10" stroke-dasharray="" stroke-dashoffset="0" font-family="Handwriting" font-weight="normal" text-anchor="start" style="mix-blend-mode: normal"><tspan x="0" dy="0">Reset</tspan></text></g></g></svg>