<svg version="1.1" xmlns="http://www.w3.org/2000/svg" xmlns:xlink="http://www.w3.org/1999/xlink" width="49.22504" height="30.74318" viewBox="0,0,49.22504,30.74318"><defs><linearGradient x1="213.05915" y1="162.16255" x2="213.05915" y2="192.90574" gradientUnits="userSpaceOnUse" id="color-1"><stop offset="0" stop-color="#ffffff"/><stop offset="1" stop-color="#cccccc"/></linearGradient><radialGradient cx="242.73373" cy="177.50298" r="28.99409" gradientUnits="userSpaceOnUse" id="color-2"><stop offset="0" stop-color="#ffffff"/><stop offset="1" stop-color="#cccccc"/></radialGradient></defs><g transform="translate(-213.05915,-162.16255)"><g data-paper-data="{&quot;isPaintingLayer&quot;:true}" fill-rule="nonzero" stroke="none" stroke-linecap="round" stroke-linejoin="miter" stroke-miterlimit="10" stroke-dasharray="" stroke-dashoffset="0" style="mix-blend-mode: normal"><path d="M238.37645,163.12671c4.322,-1.07309 9.2656,-1.57628 13.54061,0.25107c1.50216,0.72965 -0.50184,4.41897 0.52894,5.97565c0.56828,0.85767 2.00444,-1.37237 2.72928,-0.52727c2.90022,2.92054 7.09022,6.13634 7.10883,10.74613c0.01945,4.73734 -3.35218,9.60172 -7.00686,11.6259c-5.11751,2.82864 -11.30514,1.38241 -16.94314,0.97819c-5.26856,-0.37763 -10.3869,-2.21954 -15.59287,-3.26401c-2.58203,-0.40274 -5.50086,0.41628 -7.78586,-1.07961c-1.39088,-0.91041 -2.18552,-3.34338 -1.79836,-5.24755c0.56447,-2.21298 4.06644,-2.11304 4.69691,-4.34362c0.64446,-2.28329 -2.21769,-4.99293 -1.4387,-7.43188c0.58987,-1.65561 2.89261,-1.52658 4.52764,-1.80778c2.80209,-0.47754 5.78185,0.86169 8.50522,0c3.27977,-1.05201 5.60073,-5.04915 8.92835,-5.8752z" fill="url(#color-1)" stroke-width="0"/><path d="M239.16037,165.61978c1.86838,-0.65953 3.92998,-0.7273 5.33543,0.47076c1.18611,0.85868 0.41295,3.10655 0.95207,4.51927c0.41534,1.09077 1.00916,2.47386 1.94377,3.2718c0.87114,0.57433 1.98108,0.42791 3.07434,0.54136c1.74265,0.16714 3.74553,-1.08979 5.2561,-0.16478c2.49161,1.45844 6.05784,3.55753 5.85115,6.77894c-0.28878,4.49573 -4.84713,6.95122 -7.12053,10.59207c-0.48475,0.93541 1.33209,0.23632 0.5518,0.30692c-3.11875,0.28106 -5.76388,0.93635 -8.70373,0.79935c-3.619,-0.26552 -7.09199,-0.78287 -10.86926,-2.00071c-2.72091,-0.90856 -4.79001,-3.83059 -7.59659,-4.51931c-2.83911,-0.69716 -6.0995,1.28942 -8.70732,0.16478c-1.20752,-0.52535 -2.32459,-2.88953 -1.62641,-4.1662c0.96989,-1.73993 4.23702,-0.25328 5.43461,-1.9772c0.76284,-1.14489 -0.83818,-2.73605 -0.71404,-4.1662c-0.16261,-1.67781 -0.70966,-4.24107 0.59505,-4.94298c2.41583,-1.30213 5.42034,0.80783 7.97342,0c3.07474,-0.98623 5.31721,-4.42324 8.37014,-5.50789z" fill="url(#color-2)" stroke-width="1.20171"/></g></g></svg>