<svg version="1.1" xmlns="http://www.w3.org/2000/svg" xmlns:xlink="http://www.w3.org/1999/xlink" width="50.5" height="50.5" viewBox="0,0,50.5,50.5"><g transform="translate(-214.75,-154.75)"><g data-paper-data="{&quot;isPaintingLayer&quot;:true}" fill-rule="nonzero" stroke-linejoin="miter" stroke-miterlimit="10" stroke-dasharray="" stroke-dashoffset="0" style="mix-blend-mode: normal"><g><path d="M215.75,180c0,-13.39291 10.85709,-24.25 24.25,-24.25c13.39291,0 24.25,10.85709 24.25,24.25c0,13.39291 -10.85709,24.25 -24.25,24.25c-13.39291,0 -24.25,-10.85709 -24.25,-24.25z" fill="#59ff9f" stroke="#000000" stroke-width="2" stroke-linecap="butt"/><path d="M226.375,174.75c0,-2.55432 2.07068,-4.625 4.625,-4.625c2.55432,0 4.625,2.07068 4.625,4.625c0,2.55432 -2.07068,4.625 -4.625,4.625c-2.55432,0 -4.625,-2.07068 -4.625,-4.625z" fill="#000000" stroke="#000000" stroke-width="2" stroke-linecap="butt"/><path d="M244.375,174.25c0,-2.55432 2.07068,-4.625 4.625,-4.625c2.55432,0 4.625,2.07068 4.625,4.625c0,2.55432 -2.07068,4.625 -4.625,4.625c-2.55432,0 -4.625,-2.07068 -4.625,-4.625z" fill="#000000" stroke="#000000" stroke-width="2" stroke-linecap="butt"/><path d="M229.02326,186.85379c3.24826,-0.15209 6.25928,6.57489 11.28438,6.58701c2.30111,0.00555 5.30915,-0.52387 6.89597,-2.36184c0.59668,-0.69112 1.56522,-2.85464 2.27615,-3.09162c2.41787,-0.80596 4.56904,0.68576 3.63361,3.21435c-2.92851,7.91616 -13.44446,8.59723 -19.6169,5.01522c-1.28677,-0.74674 -6.33634,-3.76829 -6.43188,-5.48811c-0.25403,-0.39131 -0.40157,-0.85814 -0.40157,-1.35944c0,-1.22776 0.88504,-2.24881 2.05193,-2.45996c0.09689,-0.03131 0.19936,-0.05052 0.30832,-0.05562z" fill="#000000" stroke="none" stroke-width="0.5" stroke-linecap="butt"/><path d="M237.50001,163.75714l-8.85715,4" data-paper-data="{&quot;index&quot;:null}" fill="none" stroke="#000000" stroke-width="1.5" stroke-linecap="round"/><path d="M242.21428,163.75715l8.85715,4" data-paper-data="{&quot;index&quot;:null}" fill="none" stroke="#000000" stroke-width="1.5" stroke-linecap="round"/></g></g></g></svg>