<svg version="1.1" xmlns="http://www.w3.org/2000/svg" xmlns:xlink="http://www.w3.org/1999/xlink" width="381" height="278.8366" viewBox="0,0,381,278.8366"><g transform="translate(-49.5,-40.1634)"><g data-paper-data="{&quot;isPaintingLayer&quot;:true}" fill-rule="nonzero" stroke-linecap="butt" stroke-linejoin="miter" stroke-miterlimit="10" stroke-dasharray="" stroke-dashoffset="0" style="mix-blend-mode: normal"><path d="M54.5,314v-268h371v268z" fill="#00ffb6" stroke="#ffde00" stroke-width="10"/><text transform="translate(82.5,99.7) scale(1.58342,1.58342)" font-size="40" xml:space="preserve" fill="#000000" fill-rule="nonzero" stroke="#000000" stroke-width="0" stroke-linecap="butt" stroke-linejoin="miter" stroke-miterlimit="10" stroke-dasharray="" stroke-dashoffset="0" font-family="Handwriting" font-weight="normal" text-anchor="start" style="mix-blend-mode: normal"><tspan x="0" dy="0">How to Play</tspan></text><path d="M137.5,278.7516v-148.08625h205v148.08626z" fill="#00ffb6" stroke="#ffde00" stroke-width="10"/><text transform="translate(196.62399,161.44297) scale(0.87494,0.87494)" font-size="40" xml:space="preserve" fill="#000000" fill-rule="nonzero" stroke="#000000" stroke-width="0" stroke-linecap="butt" stroke-linejoin="miter" stroke-miterlimit="10" stroke-dasharray="" stroke-dashoffset="0" font-family="Handwriting" font-weight="normal" text-anchor="start" style="mix-blend-mode: normal"><tspan x="0" dy="0">Notes</tspan></text><path d="M151.86658,203.21656v-32.60108h73.35243v32.60108z" fill="#00ffff" stroke="#000000" stroke-width="5"/><path d="M248.56469,203.21657v-32.60108h73.35243v32.60108z" fill="#00ffff" stroke="#000000" stroke-width="5"/><text transform="translate(168.4434,190.36953) scale(0.38404,0.38404)" font-size="40" xml:space="preserve" fill="#000000" fill-rule="nonzero" stroke="none" stroke-width="1" stroke-linecap="butt" stroke-linejoin="miter" stroke-miterlimit="10" stroke-dasharray="" stroke-dashoffset="0" font-family="Handwriting" font-weight="normal" text-anchor="start" style="mix-blend-mode: normal"><tspan x="0" dy="0">Notes</tspan></text><text transform="translate(260.16847,190.92209) scale(0.38404,0.38404)" font-size="40" xml:space="preserve" fill="#000000" fill-rule="nonzero" stroke="none" stroke-width="1" stroke-linecap="butt" stroke-linejoin="miter" stroke-miterlimit="10" stroke-dasharray="" stroke-dashoffset="0" font-family="Handwriting" font-weight="normal" text-anchor="start" style="mix-blend-mode: normal"><tspan x="0" dy="0">Updates</tspan></text><path d="M151.31402,241.34325v-32.60108h73.35242v32.60108z" fill="#00ffff" stroke="#000000" stroke-width="5"/><text transform="translate(169.54852,229.04878) scale(0.38404,0.38404)" font-size="40" xml:space="preserve" fill="#000000" fill-rule="nonzero" stroke="none" stroke-width="1" stroke-linecap="butt" stroke-linejoin="miter" stroke-miterlimit="10" stroke-dasharray="" stroke-dashoffset="0" font-family="Handwriting" font-weight="normal" text-anchor="start" style="mix-blend-mode: normal"><tspan x="0" dy="0">Songs</tspan></text><path d="M248.56469,241.89581v-32.60108h73.35243v32.60108z" fill="#00ffff" stroke="#000000" stroke-width="5"/><text transform="translate(262.37871,229.60134) scale(0.38404,0.38404)" font-size="40" xml:space="preserve" fill="#000000" fill-rule="nonzero" stroke="none" stroke-width="1" stroke-linecap="butt" stroke-linejoin="miter" stroke-miterlimit="10" stroke-dasharray="" stroke-dashoffset="0" font-family="Handwriting" font-weight="normal" text-anchor="start" style="mix-blend-mode: normal"><tspan x="0" dy="0">Credits</tspan></text><path d="M144.86325,190.23013c-2.08013,-1.38675 -0.69338,-3.46688 -0.69338,-3.46688l1.79389,-2.25698c1.71462,-1.0228 3.49151,-1.96812 5.35776,-2.67746c0.02892,-0.01099 0.05926,-0.02131 0.09088,-0.03104c-3.70098,-2.40949 -7.73142,-4.14798 -11.49928,-6.53524c-3.52521,-2.23352 -6.85814,-4.8053 -10.43186,-6.95839c-3.17955,-1.91561 -7.05601,-3.0527 -10.10749,-5.06704c-0.7669,-0.50624 -1.15541,-1.47902 -1.9381,-1.96048c-5.36265,-3.29873 -12.33418,-2.7712 -17.80371,-5.39056c0,0 -2.23607,-1.11803 -1.11803,-3.3541c1.11803,-2.23607 3.3541,-1.11803 3.3541,-1.11803c3.07277,1.62992 4.73447,0.83179 8.08491,1.83693c2.72125,0.81638 7.65418,2.32757 10.11139,3.77251c0.83333,0.49003 1.26025,1.49923 2.0619,2.03952c2.92718,1.97287 6.80057,3.07117 9.89251,4.93296c3.61912,2.17924 7.0082,4.76526 10.56814,7.04161c2.37871,1.52103 4.91659,2.73842 7.38067,4.06925l-0.70239,-0.93652c-0.32311,-0.42124 -0.51515,-0.94829 -0.51515,-1.5202c0,-1.38071 1.11929,-2.5 2.5,-2.5c0.82831,0 1.56254,0.40283 2.01746,1.02328l1.40226,1.86968c1.23289,1.22547 4.02456,3.70736 5.02724,6.22643c2.49786,-2.90262 7.38241,-4.70383 10.41137,-5.53563c5.34758,-1.46852 11.44199,-2.95467 17.04212,-2.05146c1.04065,0.16784 1.96131,0.82049 3,1c1.92018,0.33184 3.90574,-0.20185 5.84589,-0.02012c1.88513,0.17658 4.73089,1.09659 6.44046,1.58402c0,0 1.56288,0.44654 1.80819,1.8797c1.35917,0.40772 2.71071,0.82406 4.14668,1.10786c1.89796,0.63353 5.94199,1.76058 7.24696,3.27825c0.98279,1.14297 1.31786,2.75295 1.57909,4.23755c1.16298,6.60944 -4.49759,9.17263 -9.78144,10.80441c-4.27066,1.31888 -8.78693,1.09604 -13.18628,1.09604c-11.21649,0 -21.84274,-0.10574 -31.138,-7.11137c-1.47912,-1.47912 -3.87082,-2.3093 -4.59807,-4.2706c-0.17505,-0.47209 -0.28936,-0.92924 -0.34899,-1.37166c-0.18375,0.04697 -0.37709,0.07077 -0.57769,0.07705c-2.14285,2.41234 -6.69621,3.398 -9.05101,4.82031l-0.20611,0.74302c0,0 -1.38675,2.08013 -3.46688,0.69338zM195.75734,177.66718c-0.09029,-0.01258 -0.17512,-0.02246 -0.25368,-0.02934c-1.53564,-0.13434 -4.73979,0.20799 -6.15411,-0.02012c-3.2209,-0.51947 -6.72003,-1.72745 -10.12678,-1.01283c-1.86712,0.39166 -3.64526,1.16192 -5.52207,1.50415c-2.7052,0.49328 -5.25704,1.2313 -7.63637,2.66759c-0.64936,0.39199 -1.17748,0.96137 -1.81433,1.37337c-0.43135,0.27905 -1.68311,0.58496 -1.26393,0.88197c1.18625,0.84051 2.37391,1.70138 3.40193,2.7294c9.41268,7.01977 22.82544,6.63978 34.18477,5.89493c3.65702,-0.23979 8.02208,-1.12399 11.00287,-3.36278c1.07424,-0.80684 1.22669,-3.52606 0.28572,-4.5055c-0.28168,-0.29319 -4.74473,-1.71899 -4.75304,-1.72176c-2.54483,-0.51466 -4.80621,-1.46823 -7.34862,-1.9648l-2.11605,-0.52609c0,0 -1.64285,-0.41072 -1.88632,-1.90819z" fill="#ffffff" stroke="none" stroke-width="0.5"/><path d="M355.25,183.15c0,2.5 -2.5,2.5 -2.5,2.5h-2c-8.74538,0 -17.5889,0.34912 -26.31188,0.99291c-0.63262,0.04669 -2.28395,0.29517 -3.95468,0.45178c0.33939,1.68873 -0.18477,3.44572 -1.75711,5.58636c-1.29413,1.76188 -2.86459,3.87306 -4.99166,4.76687c-2.69267,1.13148 -5.71538,1.22167 -8.60112,1.67248c-7.61838,1.19016 -16.56264,1.01928 -24.18901,0.01086c-2.31704,-0.30638 -4.60369,-0.99865 -6.94089,-0.99344c-2.98152,-0.64252 -5.69423,-1.89733 -8.41392,-3.27338c-0.6282,-0.31784 -0.96182,-1.12189 -1.63031,-1.34274c-0.69119,-0.22835 -1.46903,0.229 -2.1822,0.08318c-2.91955,-0.59694 -5.01142,-2.54809 -7.54765,-3.67263c-2.84189,-1.26006 -4.36984,0.68918 -5.86032,-4.01932c-0.97106,-3.06762 1.29047,-6.71895 3.58101,-8.39852c0.80124,-0.58752 1.97793,-0.32181 2.89824,-0.69623c0.90018,-0.36623 1.59512,-1.14554 2.5,-1.5c3.30682,-1.29533 7.66625,-1.64368 11.19486,-1.66718c3.35859,-0.5304 6.65438,-0.43641 10.05141,-0.66288c7.59724,-0.50648 15.43628,-1.06352 22.85419,0.76156c2.90381,0.96611 5.74068,1.95031 8.40005,3.23766c-0.02272,-0.14537 -0.04493,-0.29103 -0.06674,-0.4369c-0.21956,-1.46844 -0.87114,-2.97683 -0.53219,-4.42238c0.02547,-0.10861 0.05336,-0.21635 0.08349,-0.32327l-0.05846,-0.00835l0.4948,-3.46361c0.15585,-1.23096 1.2068,-2.18283 2.48007,-2.18283c1.25484,0 2.29374,0.92451 2.47274,2.12954l0.49324,2.95946l-0.08343,0.0139l0.10892,0.19089c0.00511,2.22382 0.47344,5.74454 0.39854,8.90958c0.09483,0.19945 0.20332,0.38872 0.32773,0.56586c0.35362,0.3045 0.70088,0.62175 1.04136,0.95279c0.10033,0.05748 0.20572,0.111 0.31647,0.16031c1.06453,-0.89282 2.10533,-1.82373 3.25711,-2.74516c3.09589,-3.08983 5.12264,-6.454 8.70553,-9.16529c8.45644,-6.39926 18.17944,-9.77055 27.18703,-15.12248c3.61218,-2.14621 6.51996,-4.70255 9.97962,-6.98779c2.04725,-1.35229 4.48311,-1.99934 6.67708,-3.09769c0,0 2.23607,-1.11803 3.3541,1.11803c1.11803,2.23607 -1.11803,3.3541 -1.11803,3.3541c-2.07473,1.03614 -4.39931,1.607 -6.32292,2.90231c-3.44306,2.31847 -6.40661,4.87512 -10.02038,7.01221c-8.9044,5.26583 -18.42218,8.64963 -26.81297,14.87752c-2.96727,2.20239 -4.88926,5.1305 -7.31181,7.79984c1.60929,-0.23689 3.13149,-0.48103 4.24612,-0.52579c7.21709,-0.2898 14.37825,-0.80216 21.60392,-0.80216h2c0,0 2.5,0 2.5,2.5zM313.25,191.15c-1.27327,0 -2.32422,-0.95187 -2.48007,-2.18283l-0.4948,-3.46361l0.0215,-0.00307c-0.01392,-0.05761 -0.02737,-0.11536 -0.04033,-0.17326c-0.17722,-0.7918 -0.28358,-1.64466 -0.34033,-2.5351c-3.00397,-1.85083 -6.28835,-3.04724 -9.86493,-4.24183c-6.7752,-1.72651 -14.18131,-1.03607 -21.12366,-0.57324c-3.29479,0.21965 -6.49968,0.09174 -9.75529,0.63706c-3.2272,0.54056 -8.52384,-0.0608 -10.92208,2.03589l-0.23224,0.26777c0,0 -0.90396,0.90396 -2.06546,0.77264c-1.3099,0.3369 -3.25441,0.75902 -2.82156,2.69665c0.07085,0.31716 0.48871,0.46187 0.7989,0.55876c1.58316,0.4945 3.097,1.21624 4.54517,2.02477c1.33434,0.74498 2.74807,1.43162 4.24796,1.72452c0.92226,0.1801 1.92693,-0.21571 2.8178,0.08319c3.08914,1.03643 5.67845,3.82478 8.95578,4.38387c2.37684,0.0051 4.70348,0.68974 7.05911,1.00656c9.01689,1.21272 21.5356,1.77078 30.20988,-1.31665c0.60773,-0.21631 1.51316,-0.9836 2.31915,-1.84474c-0.26097,0.09239 -0.54186,0.14266 -0.83448,0.14266z" fill="#ffffff" stroke="none" stroke-width="0.5"/><path d="M157.95943,244.52171c-2.37171,-0.79057 -1.58114,-3.16228 -1.58114,-3.16228l1,-3c1.06667,-3.18295 1.91563,-6.30207 2.99747,-9.49237c0.17425,-0.51387 0.32433,-1.03534 0.47039,-1.5581c-0.07301,-0.10569 -0.14345,-0.21433 -0.21116,-0.32603c-0.13183,-0.21748 -0.23403,-0.4472 -0.31577,-0.68538c-5.64002,1.6274 -10.96636,4.57603 -16.37268,6.70752c-8.8886,3.5044 -17.99822,6.47229 -26.54942,10.86622c-8.3006,4.26516 -16.15376,9.32712 -24.52908,13.51478c0,0 -2.23607,1.11803 -3.3541,-1.11803c-1.11803,-2.23607 1.11803,-3.3541 1.11803,-3.3541c8.35393,-4.17696 16.18701,-9.23589 24.47092,-13.48522c8.70355,-4.46459 17.9668,-7.50369 27.00837,-11.07464c3.71327,-1.46654 7.36078,-3.22492 11.08756,-4.74513c-2.30013,-0.86105 -4.58287,-1.86903 -6.80872,-2.61148l-0.0576,-0.05373l-0.01098,0.02746l-2.44593,-0.97837c-0.94948,-0.35452 -1.62559,-1.26971 -1.62559,-2.34282c0,-1.38071 1.11929,-2.5 2.5,-2.5h2.5v0.04607c0.06845,-0.01354 0.13718,-0.02608 0.2062,-0.03755c2.38948,-0.39733 3.88237,1.0142 5.96744,1.58395c2.15346,0.58844 4.31625,1.20744 6.3505,2.12693c0.04454,0.02013 0.09294,0.04138 0.14489,0.06367c0.10859,-0.60744 0.28028,-1.20929 0.5487,-1.8035c1.20562,-2.6689 4.87083,-5.52627 7.61493,-6.38886c0.89718,-0.28202 1.89324,0.08993 2.82058,-0.06655c1.19644,-0.20189 2.29605,-0.84925 3.5,-1c2.2807,-0.28556 4.55872,0.60636 6.81952,1.02095c2.45095,0.44945 5.2757,0.20244 7.77357,0.46706c1.94077,0.2056 3.73423,1.16955 5.65411,1.52012c1.42758,0.26067 2.88936,0.43782 4.36204,0.60225c0.73531,-0.63453 1.7375,-0.63453 1.7375,-0.63453l1.99029,0.04855c1.91849,0.39425 3.91791,0.19623 5.85647,0.47561c4.1108,0.59244 8.44177,2.00372 12.17738,3.69524c0.98526,0.44613 5.26306,1.97299 5.74363,2.51283c2.38909,2.68382 2.14011,6.22619 0.32725,9.13192c-0.86992,1.39434 -2.48443,2.15208 -3.72664,3.22811c-5.40899,2.67844 -11.19758,3.43326 -17.15216,4.13235c-9.91096,1.16359 -19.18687,0.61082 -28.81884,-1.79834c-2.78745,-0.6972 -5.32212,-1.76521 -8.07101,-2.51874c-1.1416,-0.31294 -2.40554,-0.62674 -3.6292,-1.07011c-0.9106,3.21885 -2.37802,6.597 -3.32545,9.45315l-1,3c0,0 -0.79057,2.37171 -3.16228,1.58114zM165.69488,220.68947c1.16847,0.20987 2.05512,1.23166 2.05512,2.46053c0,0.99734 -0.58402,1.85828 -1.42872,2.25949c-0.00072,0.00866 -0.00144,0.01731 -0.00216,0.02596c1.15214,0.69565 2.73784,0.93624 4.10452,1.30702c2.72459,0.73918 5.17668,1.79351 7.92899,2.48125c9.06742,2.26576 17.73409,2.78116 27.06489,1.6811c5.03508,-0.59361 10.4098,-1.03648 14.96411,-3.34708c0.75779,-0.59063 1.69216,-1.00685 2.27336,-1.7719c2.46972,-3.25098 -2.08337,-3.51292 -3.92912,-4.35524c-3.85182,-1.75781 -7.71083,-2.36743 -11.679,-2.96167c-0.89595,0.91076 -2.28715,0.63252 -2.28715,0.63252c-3.61302,-0.72309 -7.35059,-0.8389 -10.91017,-1.48373c-1.81937,-0.32959 -3.50486,-1.30859 -5.34589,-1.47988c-2.64955,-0.24651 -5.62175,-0.06311 -8.22643,-0.53294c-1.72949,-0.31196 -3.44658,-1.26548 -5.18048,-0.97906c-3.10918,0.5136 -8.53932,0.9953 -10.06449,4.54459c-0.15095,0.35128 -0.23043,0.82603 -0.27068,1.33238z" fill="#ffffff" stroke="none" stroke-width="0.5"/><path d="M335.70145,225.65971c0.49029,2.45145 -1.96116,2.94174 -1.96116,2.94174l-2.74395,0.53638c-4.23536,0.0106 -8.30056,0.81462 -12.4098,1.5127c0.91361,0.4344 1.79548,0.8597 2.59193,1.17828c2.05728,0.82792 3.90383,2.12054 5.94816,2.97993c4.70374,1.97735 10.42604,2.85493 15.39197,4.09688c5.09593,1.27446 9.41308,2.84369 14.1881,4.93468c1.8027,0.78941 3.9043,0.69105 5.72781,1.43112c4.38354,1.77904 8.33561,4.92612 12.49513,7.1744c2.97844,1.60989 6.19428,2.57513 9.30515,3.90632c0,0 2.29786,0.9848 1.31306,3.28266c-0.9848,2.29786 -3.28266,1.31306 -3.28266,1.31306c-3.25304,-1.39641 -6.56917,-2.41646 -9.69485,-4.09368c-3.93087,-2.10928 -7.6701,-5.19136 -11.79879,-6.86742c-1.9057,-0.77362 -4.08787,-0.71678 -5.97827,-1.52707c-4.57631,-1.96156 -8.58361,-3.47798 -13.45953,-4.69649c-5.16996,-1.292 -11.04187,-2.23829 -15.9604,-4.27194c-2.08345,-0.86144 -3.95658,-2.18775 -6.05184,-3.02007c-1.57496,-0.62998 -3.85558,-1.18582 -5.66164,-1.99939c0.51054,1.4761 1.3479,2.8851 1.47844,4.43934c0.00155,0.0184 0.00304,0.0368 0.00448,0.0552l0.01101,-0.00315l0.98414,3.44448c0.07283,0.23453 0.11205,0.48384 0.11205,0.74232c0,1.38071 -1.11929,2.5 -2.5,2.5c-1.0731,0 -1.98829,-0.67611 -2.34282,-1.62559l-0.97837,-2.44593l0.03172,-0.01269l-0.05799,-0.05589c-0.59342,-1.77905 -2.16452,-4.76356 -2.75653,-7.55268c-1.56101,0.78998 -3.36487,1.87011 -4.92324,2.14768c-1.22294,0.21783 -2.4881,-0.06503 -3.72642,0.03294c-1.84322,0.14584 -3.52504,1.15858 -5.34589,1.47989c-4.14404,0.73125 -9.43457,0.01413 -13.56779,-0.05843c-5.28307,-3.16984 -14.24216,-1.36989 -20.33267,-1.40929c-2.7875,-0.01803 -4.5767,0.34984 -7.02072,-1.51571c-2.98652,-2.27965 -3.2488,-6.2994 -2.97076,-9.69049c0.56575,-6.90014 4.19633,-11.25475 10.00121,-13.81435c7.2183,-3.60464 17.60447,-3.18221 25.23662,-2.46728c3.03967,0.28474 5.94713,1.48904 8.95986,1.99635c7.84005,0.03906 17.02354,2.51991 20.98531,9.78846c1.00973,1.85252 1.93256,3.64475 2.1487,5.38841c4.44613,-0.73645 8.84291,-1.68539 13.41344,-1.67322l2.25605,-0.46362c0,0 2.45145,-0.49029 2.94174,1.96116zM306.98206,228.59813c1.41074,-2.44033 3.35113,-2.47913 5.3297,-2.40072c-0.10881,-1.20211 -1.15793,-2.25396 -1.75327,-3.34439c-3.08873,-5.65729 -10.98911,-7.24451 -17.01469,-7.21154c-3.01843,-0.49894 -6.011,-1.73865 -9.04014,-2.00365c-3.67799,-0.32176 -7.55742,0.01616 -11.25366,0.01217c-2.93306,-0.00317 -6.10225,0.09021 -8.95471,0.96351c-0.39351,0.2878 -0.75472,0.4082 -0.75472,0.4082c-0.69658,0.2282 -1.35496,0.47752 -1.97412,0.75174c-0.11629,0.06626 -0.23156,0.13457 -0.34576,0.20499c-0.09971,0.67841 -0.53862,2.17156 -2.47069,2.17156c-0.2881,0 -0.54301,-0.0332 -0.76853,-0.09195c-1.85851,1.72877 -2.9647,4.06401 -3.23999,7.29815c-0.11414,1.34096 -0.37176,4.30823 1.02924,5.30951c1.70714,1.22008 5.65474,0.48429 7.47928,0.48429c5.67236,0 13.23617,-1.36798 18.16733,1.59071c7.00706,-0.16585 13.51587,-0.50663 20.3599,-1.5456c1.82618,-0.27723 3.31089,-1.64476 5.01606,-2.35481c0.00716,-0.00298 0.03548,-0.0108 0.08226,-0.02307c0.02956,-0.07406 0.0649,-0.14713 0.10651,-0.2191z" fill="#ffffff" stroke="none" stroke-width="0.5"/><text transform="translate(74,139.51261) scale(0.23229,0.23229)" font-size="40" xml:space="preserve" fill="#ffffff" fill-rule="nonzero" stroke="none" stroke-width="1" stroke-linecap="butt" stroke-linejoin="miter" stroke-miterlimit="10" stroke-dasharray="" stroke-dashoffset="0" font-family="Handwriting" font-weight="normal" text-anchor="start" style="mix-blend-mode: normal"><tspan x="0" dy="0">This is where</tspan><tspan x="0" dy="48px">you can see the notes.</tspan></text><text transform="translate(327,130.16645) scale(0.28379,0.28379)" font-size="40" xml:space="preserve" fill="#ffffff" fill-rule="nonzero" stroke="none" stroke-width="1" stroke-linecap="butt" stroke-linejoin="miter" stroke-miterlimit="10" stroke-dasharray="" stroke-dashoffset="0" font-family="Handwriting" font-weight="normal" text-anchor="start" style="mix-blend-mode: normal"><tspan x="0" dy="0">This is where you</tspan><tspan x="0" dy="46.15px">can see the updates.</tspan></text><text transform="translate(59,267.75) scale(0.2858,0.2858)" font-size="40" xml:space="preserve" fill="#ffffff" fill-rule="nonzero" stroke="none" stroke-width="1" stroke-linecap="butt" stroke-linejoin="miter" stroke-miterlimit="10" stroke-dasharray="" stroke-dashoffset="0" font-family="Handwriting" font-weight="normal" text-anchor="start" style="mix-blend-mode: normal"><tspan x="0" dy="0">This is where you</tspan><tspan x="0" dy="46.15px">can see the songs and</tspan><tspan x="0" dy="46.15px">their ID in newgrounds.</tspan></text><text transform="translate(326.5,275.53065) scale(0.3232,0.3232)" font-size="40" xml:space="preserve" fill="#ffffff" fill-rule="nonzero" stroke="none" stroke-width="1" stroke-linecap="butt" stroke-linejoin="miter" stroke-miterlimit="10" stroke-dasharray="" stroke-dashoffset="0" font-family="Handwriting" font-weight="normal" text-anchor="start" style="mix-blend-mode: normal"><tspan x="0" dy="0">This is the credits</tspan><tspan x="0" dy="46.15px">of the game.</tspan></text></g></g></svg>