<svg version="1.1" xmlns="http://www.w3.org/2000/svg" xmlns:xlink="http://www.w3.org/1999/xlink" width="360.5" height="115" viewBox="0,0,360.5,115"><g transform="translate(-59.5,-122.5)"><g data-paper-data="{&quot;isPaintingLayer&quot;:true}" fill-rule="nonzero" stroke-linecap="butt" stroke-linejoin="miter" stroke-miterlimit="10" stroke-dasharray="" stroke-dashoffset="0" style="mix-blend-mode: normal"><path d="M62.5,235v-110h355v110z" fill="#66c7ff" stroke="#00a2ff" stroke-width="5"/><path d="M59.5,235.3v-112h112v112z" fill="#00a2ff" stroke="none" stroke-width="0"/><path d="" fill="#2d3d7c" stroke="none" stroke-width="0"/><path d="" fill="#2d3d7c" stroke="none" stroke-width="0"/><g stroke="#000000"><path d="M100.3354,200.88726v-28.88199h28.88199v28.88199z" fill="#fa7f7f" stroke-width="2.5"/><path d="M111.92391,216.76181v-15.60559h5.82298v15.60559z" fill="#fa7f7f" stroke-width="2.5"/><path d="M105.86801,185.60342v-6.28882h6.28882v6.28882z" fill="#ffffff" stroke-width="2.5"/><path d="M117.45497,185.63105v-6.28881h6.28882v6.28882z" fill="#ffffff" stroke-width="2.5"/><path d="M105.63509,196.55063v-4.65839h18.40062v4.65839z" fill="#000000" stroke-width="2.5"/><path d="M91.1941,227.99473v-17.46894h49.6118v17.46894z" fill="#fa7f7f" stroke-width="2.5"/><path d="M97.30901,219.42113v-4.42547h11.43245v4.42547z" fill="#fa3333" stroke-width="0"/><path d="M122.8059,223.48946v-4.42547h11.43246v4.42547z" fill="#fa3333" stroke-width="0"/></g><text transform="translate(73.25,141.10009) scale(0.44367,0.44367)" font-size="40" xml:space="preserve" fill="#000000" fill-rule="nonzero" stroke="none" stroke-width="1" stroke-linecap="butt" stroke-linejoin="miter" stroke-miterlimit="10" stroke-dasharray="" stroke-dashoffset="0" font-family="Handwriting" font-weight="normal" text-anchor="start" style="mix-blend-mode: normal"><tspan x="0" dy="0">       The </tspan><tspan x="0" dy="46.15px">Shopkeeper</tspan></text></g></g></svg>