<svg version="1.1" xmlns="http://www.w3.org/2000/svg" xmlns:xlink="http://www.w3.org/1999/xlink" width="52.225" height="52.225" viewBox="0,0,52.225,52.225"><defs><radialGradient cx="240" cy="180" r="26.1125" gradientUnits="userSpaceOnUse" id="color-1"><stop offset="0" stop-color="#7733ff"/><stop offset="1" stop-color="#7733ff" stop-opacity="0"/></radialGradient></defs><g transform="translate(-213.8875,-153.8875)"><g data-paper-data="{&quot;isPaintingLayer&quot;:true}" fill-rule="nonzero" stroke-linecap="butt" stroke-linejoin="miter" stroke-miterlimit="10" stroke-dasharray="" stroke-dashoffset="0" style="mix-blend-mode: normal"><path d="M213.8875,180c0,-14.42154 11.69097,-26.1125 26.1125,-26.1125c14.42154,0 26.1125,11.69097 26.1125,26.1125c0,14.42154 -11.69096,26.1125 -26.1125,26.1125c-14.42154,0 -26.1125,-11.69097 -26.1125,-26.1125z" fill="url(#color-1)" stroke="none" stroke-width="NaN"/><path d="M225.46667,180c0,-8.02654 6.50679,-14.53333 14.53333,-14.53333c8.02654,0 14.53333,6.50679 14.53333,14.53333c0,8.02654 -6.50679,14.53333 -14.53333,14.53333c-8.02654,0 -14.53333,-6.50679 -14.53333,-14.53333z" fill="none" stroke="#000000" stroke-width="2.5"/><path d="M250.85023,180c0,5.99241 -4.85781,10.85023 -10.85023,10.85023c-5.99241,0 -10.85023,-4.85781 -10.85023,-10.85023c0,-5.99241 4.85781,-10.85023 10.85023,-10.85023c5.99241,0 10.85023,4.85781 10.85023,10.85023z" fill="#7733ff" stroke="#7733ff" stroke-width="2.5"/><path d="M245.13666,170.84657c0.85209,0.85209 0,1.70418 0,1.70418l-0.53557,0.53557c-0.9031,0.87118 -4.70436,4.40166 -7.0844,5.97453c2.14511,-0.00993 4.17522,-0.04584 6.23231,0.21265v-0.21074h1.60671c0.66552,0 1.20504,0.53952 1.20504,1.20504c0,0.33277 -0.13488,0.63403 -0.35295,0.85209l-0.91983,0.91983c-0.7853,2.41015 -2.71567,5.3305 -4.4359,7.11374c0,0 -0.85209,0.85209 -1.70418,0c-0.85209,-0.85209 0,-1.70418 0,-1.70418c1.46532,-1.39095 2.94454,-3.84321 3.80274,-5.93099c-1.78928,0.46262 -4.69104,-0.04545 -6.16408,-0.04545h-2.14228v0v0c-0.66552,0 -1.20504,-0.53952 -1.20504,-1.20504c0,-0.33277 0.13488,-0.63403 0.35295,-0.85209l1.07115,-1.07115l0.17791,0.17791c2.33166,-2.83244 5.32703,-4.47651 7.85566,-7.14035l0.53557,-0.53557c0,0 0.85209,-0.85209 1.70418,0z" fill="#ffffff" stroke="none" stroke-width="0.5"/></g></g></svg>