<svg version="1.1" xmlns="http://www.w3.org/2000/svg" xmlns:xlink="http://www.w3.org/1999/xlink" width="31.3895" height="31.3895" viewBox="0,0,31.3895,31.3895"><g transform="translate(-224.30525,-164.30525)"><g data-paper-data="{&quot;isPaintingLayer&quot;:true}" fill-rule="nonzero" stroke-linejoin="miter" stroke-miterlimit="10" stroke-dasharray="" stroke-dashoffset="0" style="mix-blend-mode: normal"><path d="M255.68476,164.47862l-15.5,15.54276l-15.86952,15.5v-31.04276z" data-paper-data="{&quot;index&quot;:null}" fill="#00e6ff" stroke="#00ffff" stroke-width="0" stroke-linecap="butt"/><path d="M249.77308,168.95682l-5.30952,4.28835l-5.44985,6.02381v-9.97883z" data-paper-data="{&quot;index&quot;:null}" fill="#00ffae" stroke="#000000" stroke-width="0" stroke-linecap="butt"/><path d="M231.00042,169.28313v9.97883h-6.61388v-9.97883z" data-paper-data="{&quot;index&quot;:null}" fill="#00ffae" stroke="#000000" stroke-width="0" stroke-linecap="butt"/><path d="M233.28075,185.28864l-3.96429,3.58598l-3.86614,4.67857l-0.07143,-8.26455z" data-paper-data="{&quot;index&quot;:null}" fill="#00ffae" stroke="#000000" stroke-width="0" stroke-linecap="butt"/><path d="M247.96356,169.59636l-4.33333,3.8158l-4.44368,4.85714c0,0 0.2146,-4.82516 0.30594,-6.3661c0.05207,-0.87841 -0.09166,-2.21159 -0.09166,-2.21159z" data-paper-data="{&quot;index&quot;:null}" fill="#00ff6c" stroke="none" stroke-width="0" stroke-linecap="butt"/><path d="M231.74147,186.11493l-3.17857,2.44343l-2.43076,3.21429c0,0 0.03707,-0.83895 0.06395,-1.44716c0.04584,-1.03744 0.18605,-4.21055 0.18605,-4.21055z" data-paper-data="{&quot;index&quot;:null}" fill="#00ff6c" stroke="none" stroke-width="0" stroke-linecap="butt"/><path d="M230.18819,170.32743v8.00627h-5.68215v-8.00627z" data-paper-data="{&quot;index&quot;:null}" fill="#00ff6c" stroke="none" stroke-width="0" stroke-linecap="butt"/><path d="M225.55525,194.44475l28.8895,-28.8895" data-paper-data="{&quot;index&quot;:null}" fill="none" stroke="#0c0c0c" stroke-width="2.5" stroke-linecap="round"/></g></g></svg>