<svg version="1.1" xmlns="http://www.w3.org/2000/svg" xmlns:xlink="http://www.w3.org/1999/xlink" width="90.725" height="90.725" viewBox="0,0,90.725,90.725"><defs><radialGradient cx="240" cy="180" r="45.3625" gradientUnits="userSpaceOnUse" id="color-1"><stop offset="0" stop-color="#fff700"/><stop offset="1" stop-color="#fff700" stop-opacity="0"/></radialGradient></defs><g transform="translate(-194.6375,-134.6375)"><g data-paper-data="{&quot;isPaintingLayer&quot;:true}" fill-rule="nonzero" stroke-linejoin="miter" stroke-miterlimit="10" stroke-dasharray="" stroke-dashoffset="0" style="mix-blend-mode: normal"><path d="M194.6375,180c0,-25.053 20.3095,-45.3625 45.3625,-45.3625c25.053,0 45.3625,20.3095 45.3625,45.3625c0,25.053 -20.3095,45.3625 -45.3625,45.3625c-25.053,0 -45.3625,-20.3095 -45.3625,-45.3625z" fill="url(#color-1)" stroke="none" stroke-width="NaN" stroke-linecap="butt"/><path d="" fill="#ff0000" stroke="#ff0000" stroke-width="2.5" stroke-linecap="butt"/><path d="" fill="#ff0000" stroke="#ff0000" stroke-width="2.5" stroke-linecap="butt"/><path d="M256.51728,180c0,21.49621 -7.87756,38.92234 -17.59502,38.92234c-9.71746,0 -17.59502,-17.42612 -17.59502,-38.92234c0,-21.49621 7.87756,-38.92234 17.59502,-38.92234c9.71746,0 17.59502,17.42612 17.59502,38.92234z" fill="none" stroke="#000000" stroke-width="10" stroke-linecap="butt"/><path d="M256.51728,180c0,21.49621 -7.87756,38.92234 -17.59502,38.92234c-9.71746,0 -17.59502,-17.42612 -17.59502,-38.92234c0,-21.49621 7.87756,-38.92234 17.59502,-38.92234c9.71746,0 17.59502,17.42612 17.59502,38.92234z" fill="none" stroke="#fff700" stroke-width="7.5" stroke-linecap="butt"/><path d="M256.34357,172.04673l-2.22136,8.5152" data-paper-data="{&quot;index&quot;:null}" fill="none" stroke="#000000" stroke-width="2.5" stroke-linecap="round"/><path d="M256.4514,171.93888l2.22136,8.5152" data-paper-data="{&quot;index&quot;:null}" fill="none" stroke="#000000" stroke-width="2.5" stroke-linecap="round"/></g></g></svg>