<svg version="1.1" xmlns="http://www.w3.org/2000/svg" xmlns:xlink="http://www.w3.org/1999/xlink" width="523.28334" height="231.91031" viewBox="0,0,523.28334,231.91031"><g transform="translate(53.75,-11.62303)"><g data-paper-data="{&quot;isPaintingLayer&quot;:true}" fill-rule="nonzero" stroke-linejoin="miter" stroke-miterlimit="10" stroke-dasharray="" stroke-dashoffset="0" style="mix-blend-mode: normal"><text transform="translate(-53.5,47.3) scale(0.5,0.5)" font-size="40" xml:space="preserve" fill="#ff4a00" fill-rule="nonzero" stroke="none" stroke-width="1" stroke-linecap="butt" stroke-linejoin="miter" stroke-miterlimit="10" stroke-dasharray="" stroke-dashoffset="0" font-family="Handwriting" font-weight="normal" text-anchor="start" style="mix-blend-mode: normal"><tspan x="0" dy="0"> </tspan></text><path d="M29.65496,170.46061v-150h424v150z" fill="#ca00ff" stroke="none" stroke-width="NaN" stroke-linecap="butt"/><text transform="translate(118.65496,60.96061) scale(1.15006,1.15006)" font-size="40" xml:space="preserve" fill="#000000" fill-rule="nonzero" stroke="none" stroke-width="1" stroke-linecap="butt" stroke-linejoin="miter" stroke-miterlimit="10" stroke-dasharray="" stroke-dashoffset="0" font-family="Sans Serif" font-weight="normal" text-anchor="start" style="mix-blend-mode: normal"><tspan x="0" dy="0">Level Eight</tspan></text><text transform="translate(186.02798,97.68048) scale(0.89004,0.89004)" font-size="40" xml:space="preserve" fill="#000000" fill-rule="nonzero" stroke="none" stroke-width="1" stroke-linecap="butt" stroke-linejoin="miter" stroke-miterlimit="10" stroke-dasharray="" stroke-dashoffset="0" font-family="Sans Serif" font-weight="normal" text-anchor="start" style="mix-blend-mode: normal"><tspan x="0" dy="0">Colors</tspan></text><g><path d="M391.75,55.00001c0,-13.39291 10.85709,-24.25 24.25,-24.25c13.39291,0 24.25,10.85709 24.25,24.25c0,13.39291 -10.85709,24.25 -24.25,24.25c-13.39291,0 -24.25,-10.85709 -24.25,-24.25z" fill="#ff9e59" stroke="#000000" stroke-width="2" stroke-linecap="butt"/><path d="M402.375,49.75001c0,-2.55432 2.07068,-4.625 4.625,-4.625c2.55432,0 4.625,2.07068 4.625,4.625c0,2.55432 -2.07068,4.625 -4.625,4.625c-2.55432,0 -4.625,-2.07068 -4.625,-4.625z" fill="#000000" stroke="#000000" stroke-width="2" stroke-linecap="butt"/><path d="M420.375,49.25001c0,-2.55432 2.07068,-4.625 4.625,-4.625c2.55432,0 4.625,2.07068 4.625,4.625c0,2.55432 -2.07068,4.625 -4.625,4.625c-2.55432,0 -4.625,-2.07068 -4.625,-4.625z" fill="#000000" stroke="#000000" stroke-width="2" stroke-linecap="butt"/><path d="M405.02327,73.28909c-0.10896,-0.0051 -0.21143,-0.02431 -0.30832,-0.05562c-1.16689,-0.21115 -2.05193,-1.2322 -2.05193,-2.45996c0,-0.5013 0.14754,-0.96813 0.40157,-1.35944c0.09554,-1.71982 5.14511,-4.74137 6.43188,-5.48811c6.17244,-3.58201 16.68839,-2.90094 19.6169,5.01522c0.93543,2.52859 -1.21574,4.02031 -3.63361,3.21435c-0.71093,-0.23698 -1.67947,-2.4005 -2.27615,-3.09162c-1.58682,-1.83797 -4.59486,-2.36739 -6.89597,-2.36184c-5.0251,0.01212 -8.03612,6.7391 -11.28438,6.58701z" data-paper-data="{&quot;index&quot;:null}" fill="#000000" stroke="none" stroke-width="0.5" stroke-linecap="butt"/><path d="M404.64286,38.75716l8.85715,4" fill="none" stroke="#000000" stroke-width="1.5" stroke-linecap="round"/><path d="M427.07143,38.75715l-8.85715,4" data-paper-data="{&quot;index&quot;:null}" fill="none" stroke="#000000" stroke-width="1.5" stroke-linecap="round"/></g><text transform="translate(329.5,125.20004) scale(0.5,0.5)" font-size="40" xml:space="preserve" fill="#000000" fill-rule="nonzero" stroke="none" stroke-width="1" stroke-linecap="butt" stroke-linejoin="miter" stroke-miterlimit="10" stroke-dasharray="" stroke-dashoffset="0" font-family="Sans Serif" font-weight="normal" text-anchor="start" style="mix-blend-mode: normal"><tspan x="0" dy="0">8* Moderate</tspan></text><path d="M439.46668,228.00001c0,-8.02654 6.50679,-14.53333 14.53333,-14.53333c8.02654,0 14.53333,6.50679 14.53333,14.53333c0,8.02654 -6.50679,14.53333 -14.53333,14.53333c-8.02654,0 -14.53333,-6.50679 -14.53333,-14.53333z" fill="#808080" stroke="#000000" stroke-width="2" stroke-linecap="butt"/><path d="M447.28126,227.83751h11.5" fill="none" stroke="#000000" stroke-width="2" stroke-linecap="round"/><path d="M455.46876,222.50001l5.25,5.25l-5.25,5.75" fill="none" stroke="#000000" stroke-width="2" stroke-linecap="round"/><path d="M35.00001,242.53334c-8.02654,0 -14.53333,-6.50679 -14.53333,-14.53333c0,-8.02654 6.50679,-14.53333 14.53333,-14.53333c8.02654,0 14.53333,6.50679 14.53333,14.53333c0,8.02654 -6.50679,14.53333 -14.53333,14.53333z" data-paper-data="{&quot;index&quot;:null}" fill="#808080" stroke="#000000" stroke-width="2" stroke-linecap="butt"/><path d="M30.21876,227.83751h11.5" data-paper-data="{&quot;index&quot;:null}" fill="none" stroke="#000000" stroke-width="2" stroke-linecap="round"/><path d="M33.53126,233.50001l-5.25,-5.75l5.25,-5.25" data-paper-data="{&quot;index&quot;:null}" fill="none" stroke="#000000" stroke-width="2" stroke-linecap="round"/></g></g></svg>