<svg version="1.1" xmlns="http://www.w3.org/2000/svg" xmlns:xlink="http://www.w3.org/1999/xlink" width="90.725" height="90.725" viewBox="0,0,90.725,90.725"><defs><radialGradient cx="240" cy="180" r="45.3625" gradientUnits="userSpaceOnUse" id="color-1"><stop offset="0" stop-color="#52f6ff"/><stop offset="1" stop-color="#52f6ff" stop-opacity="0"/></radialGradient></defs><g transform="translate(-194.6375,-134.6375)"><g data-paper-data="{&quot;isPaintingLayer&quot;:true}" fill-rule="nonzero" stroke-linejoin="miter" stroke-miterlimit="10" stroke-dasharray="" stroke-dashoffset="0" style="mix-blend-mode: normal"><path d="M194.6375,180c0,-25.053 20.3095,-45.3625 45.3625,-45.3625c25.053,0 45.3625,20.3095 45.3625,45.3625c0,25.053 -20.3095,45.3625 -45.3625,45.3625c-25.053,0 -45.3625,-20.3095 -45.3625,-45.3625z" fill="url(#color-1)" stroke="none" stroke-width="NaN" stroke-linecap="butt"/><path d="" fill="#ff0000" stroke="#ff0000" stroke-width="2.5" stroke-linecap="butt"/><path d="" fill="#ff0000" stroke="#ff0000" stroke-width="2.5" stroke-linecap="butt"/><path d="M252.6341,180c0,20.23442 -7.41517,36.63768 -16.56224,36.63768c-9.14707,0 -16.56224,-16.40324 -16.56224,-36.63768c0,-20.23442 7.41517,-36.63768 16.56224,-36.63768c9.14707,0 16.56224,16.40324 16.56224,36.63768z" fill="none" stroke="#000000" stroke-width="10" stroke-linecap="butt"/><path d="M252.6341,180c0,20.23442 -7.41517,36.63768 -16.56224,36.63768c-9.14707,0 -16.56224,-16.40324 -16.56224,-36.63768c0,-20.23442 7.41517,-36.63768 16.56224,-36.63768c9.14707,0 16.56224,16.40324 16.56224,36.63768z" fill="none" stroke="#52f6ff" stroke-width="5" stroke-linecap="butt"/><path d="M260.49037,185.1941c0,1.78267 -3.37199,3.22781 -7.53155,3.22781c-4.15955,0 -7.53155,-1.44515 -7.53155,-3.22781c0,-1.78267 3.37199,-3.22781 7.53155,-3.22781c4.15955,0 7.53155,1.44515 7.53155,3.22781z" fill="#000000" stroke="#000000" stroke-width="NaN" stroke-linecap="butt"/><path d="M249.01372,183.04223v-8.24884h8.24884v8.24884z" fill="#000000" stroke="none" stroke-width="0" stroke-linecap="butt"/><path d="" fill="#ff0000" stroke="#ff0000" stroke-width="2.5" stroke-linecap="butt"/><path d="" fill="#ff0000" stroke="#ff0000" stroke-width="2.5" stroke-linecap="butt"/><path d="" fill="none" stroke="#000000" stroke-width="2" stroke-linecap="round"/><path d="" fill="none" stroke="#000000" stroke-width="2" stroke-linecap="round"/></g></g></svg>