<svg version="1.1" xmlns="http://www.w3.org/2000/svg" xmlns:xlink="http://www.w3.org/1999/xlink" width="49.13916" height="49.13916" viewBox="0,0,49.13916,49.13916"><g transform="translate(-424.93043,-4.43042)"><g data-paper-data="{&quot;isPaintingLayer&quot;:true}" fill-rule="nonzero" stroke-linecap="butt" stroke-linejoin="miter" stroke-miterlimit="10" stroke-dasharray="" stroke-dashoffset="0" style="mix-blend-mode: normal"><path d="M428.21523,29c0,-11.75526 9.52952,-21.28477 21.28477,-21.28477c11.75526,0 21.28477,9.52952 21.28477,21.28477c0,11.75526 -9.52952,21.28477 -21.28477,21.28477c-11.75526,0 -21.28477,-9.52952 -21.28477,-21.28477z" fill="#fce700" stroke="none" stroke-width="NaN"/><path d="M425.93043,29c0,-13.01712 10.55246,-23.56958 23.56958,-23.56958c13.01712,0 23.56958,10.55246 23.56958,23.56958c0,13.01712 -10.55246,23.56958 -23.56958,23.56958c-13.01712,0 -23.56958,-10.55246 -23.56958,-23.56958z" fill="none" stroke="#fde800" stroke-width="2"/><path d="M440.86941,39.88282v-23.02145h4.20233v23.02145z" fill="#ff0095" stroke="#ff0095" stroke-width="2.5"/><path d="M453.36052,39.76695v-23.02145h4.20233v23.02145z" fill="#ff0095" stroke="#ff0095" stroke-width="2.5"/></g></g></svg>