<svg version="1.1" xmlns="http://www.w3.org/2000/svg" xmlns:xlink="http://www.w3.org/1999/xlink" width="15.53945" height="15.16205" viewBox="0,0,15.53945,15.16205"><g transform="translate(-232.23027,-172.41898)"><g data-paper-data="{&quot;isPaintingLayer&quot;:true}" fill="#00ffb5" fill-rule="nonzero" stroke-linejoin="miter" stroke-miterlimit="10" stroke-dasharray="" stroke-dashoffset="0" style="mix-blend-mode: normal"><path d="M236.64924,180.00001c0,-1.85058 1.50018,-3.35076 3.35076,-3.35076c1.85058,0 3.35076,1.50018 3.35076,3.35076c0,1.85058 -1.50018,3.35076 -3.35076,3.35076c-1.85058,0 -3.35076,-1.50018 -3.35076,-3.35076z" stroke="none" stroke-width="0" stroke-linecap="butt"/><path d="M240.95587,176.89086l-1.69335,0.00295l0.79652,-1.68802z" stroke="#00ffaf" stroke-width="2.5" stroke-linecap="round"/><path d="M243.29784,180.63104l-0.00295,-1.69334l1.68802,0.79652z" stroke="#00ffaf" stroke-width="2.5" stroke-linecap="round"/><path d="M239.26771,183.10916l1.69334,-0.00295l-0.79652,1.68802z" stroke="#00ffaf" stroke-width="2.5" stroke-linecap="round"/><path d="M236.70215,179.1385l0.00295,1.69335l-1.68802,-0.79652z" stroke="#00ffaf" stroke-width="2.5" stroke-linecap="round"/><path d="M237.16462,181.48684l1.19946,1.19529l-1.75684,0.63038z" stroke="#00ffaf" stroke-width="2.5" stroke-linecap="round"/><path d="M238.49718,177.00189l-1.19529,1.19946l-0.63038,-1.75684z" stroke="#00ffaf" stroke-width="2.5" stroke-linecap="round"/><path d="M242.98043,178.20863l-1.19946,-1.19529l1.75684,-0.63038z" stroke="#00ffaf" stroke-width="2.5" stroke-linecap="round"/><path d="M241.88014,182.57175l1.19529,-1.19946l0.63038,1.75684z" stroke="#00ffaf" stroke-width="2.5" stroke-linecap="round"/></g></g></svg>