<svg version="1.1" xmlns="http://www.w3.org/2000/svg" xmlns:xlink="http://www.w3.org/1999/xlink" width="31.94265" height="31.94265" viewBox="0,0,31.94265,31.94265"><g transform="translate(-224.0287,-164.0287)"><g data-paper-data="{&quot;isPaintingLayer&quot;:true}" fill-rule="nonzero" stroke="none" stroke-width="0" stroke-linecap="butt" stroke-linejoin="miter" stroke-miterlimit="10" stroke-dasharray="" stroke-dashoffset="0" style="mix-blend-mode: normal"><path d="M224.02871,195.97136v-31.94265h31.94265v31.94265z" fill="#7f7f7f"/><path d="M235.85629,173.36912c0,2.14777 -1.69137,3.88889 -3.77778,3.88889c-2.08641,0 -3.77777,-1.74112 -3.77777,-3.88889c0,-2.14777 1.69136,-3.88889 3.77777,-3.88889c2.08641,0 3.77778,1.74111 3.77778,3.88889z" fill="#e80000"/><path d="M252.74518,176.59134c0,2.14777 -1.69137,3.88889 -3.77778,3.88889c-2.08641,0 -3.77777,-1.74112 -3.77777,-3.88889c0,-2.14777 1.69136,-3.88889 3.77777,-3.88889c2.08641,0 3.77778,1.74112 3.77778,3.88889z" fill="#e80000"/><path d="M242.18963,187.81356c0,2.14777 -1.69137,3.88889 -3.77778,3.88889c-2.08641,0 -3.77777,-1.74112 -3.77777,-3.88889c0,-2.14777 1.69136,-3.88889 3.77777,-3.88889c2.08641,0 3.77778,1.74112 3.77778,3.88889z" fill="#e80000"/></g></g></svg>