<svg version="1.1" xmlns="http://www.w3.org/2000/svg" xmlns:xlink="http://www.w3.org/1999/xlink" width="487.94522" height="152.57308" viewBox="0,0,487.94522,152.57308"><g transform="translate(2.0785,-208.53026)"><g data-paper-data="{&quot;isPaintingLayer&quot;:true}" fill-rule="nonzero" stroke-linecap="butt" stroke-linejoin="miter" stroke-miterlimit="10" stroke-dasharray="" stroke-dashoffset="0" style="mix-blend-mode: normal"><path d="M-1.0785,360.10334v-113.93946h485.94522v113.93946z" fill-opacity="0.50196" fill="#ffffff" stroke="#000000" stroke-width="2"/><g><path d="M1.02739,242.03161c0,-7.76041 0,-23.39072 0,-27.8c0,-2.26809 2.32108,-4.70135 4.76667,-4.70135c6.42102,0 35.60642,0 47.8,0c3.31856,0 5.37855,1.96563 5.37855,3.90134c0,4.17796 0,20.33286 0,28.4c0,2.80955 -1.48926,4.63812 -3.97855,4.63812c-11.44162,0 -44.01023,0 -50.2,0c-1.98715,0 -3.76667,-1.74526 -3.76667,-4.43812z" fill-opacity="0.50196" fill="#ffffff" stroke="#000000" stroke-width="2"/><text transform="translate(9.29001,234) scale(0.5,0.5)" font-size="40" xml:space="preserve" fill="#000000" fill-rule="nonzero" stroke="none" stroke-width="1" stroke-linecap="butt" stroke-linejoin="miter" stroke-miterlimit="10" stroke-dasharray="" stroke-dashoffset="0" font-family="Handwriting" font-weight="normal" text-anchor="start" style="mix-blend-mode: normal"><tspan x="0" dy="0">Shop</tspan></text></g></g></g></svg>