<svg version="1.1" xmlns="http://www.w3.org/2000/svg" xmlns:xlink="http://www.w3.org/1999/xlink" width="2968.34118" height="1857"><defs><linearGradient x1="278" y1="-2.88398" x2="278" y2="358.88398" gradientUnits="userSpaceOnUse" id="color-1"><stop offset="0" stop-color="#191919"/><stop offset="1" stop-color="#13151d"/></linearGradient><linearGradient x1="369.41753" y1="-19.32595" x2="358.2192" y2="663.05816" gradientUnits="userSpaceOnUse" id="color-2"><stop offset="0" stop-color="#ff3396" stop-opacity="0"/><stop offset="1" stop-color="#ff3396"/></linearGradient><linearGradient x1="115.40412" y1="89.09474" x2="749.73154" y2="719.48509" gradientUnits="userSpaceOnUse" id="color-3"><stop offset="0" stop-color="#7ad0d6" stop-opacity="0"/><stop offset="1" stop-color="#7ad0d6"/></linearGradient><linearGradient x1="283.88032" y1="-83.88812" x2="283.88032" y2="810.40668" gradientUnits="userSpaceOnUse" id="color-4"><stop offset="0" stop-color="#7ad0d6" stop-opacity="0"/><stop offset="1" stop-color="#7ad0d6"/></linearGradient><linearGradient x1="128.37171" y1="45.31065" x2="128.37171" y2="153.72238" gradientTransform="translate(-47.74135,-56.06221) scale(0.49932,0.44279)" gradientUnits="userSpaceOnUse" id="color-5"><stop offset="0" stop-color="#87e7ff"/><stop offset="1" stop-color="#ffffff"/></linearGradient><linearGradient x1="272.12377" y1="73.49122" x2="272.12377" y2="146.20338" gradientTransform="translate(-90.41382,-81.25327) scale(0.52287,0.63475)" gradientUnits="userSpaceOnUse" id="color-6"><stop offset="0" stop-color="#87e7ff"/><stop offset="1" stop-color="#ffffff"/></linearGradient><linearGradient x1="226.14587" y1="179.92675" x2="226.14587" y2="220.57747" gradientUnits="userSpaceOnUse" id="color-7"><stop offset="0" stop-color="#3dd1ce"/><stop offset="1" stop-color="#3dd1ce" stop-opacity="0"/></linearGradient><linearGradient x1="242.86629" y1="211.54274" x2="216.00342" y2="214.60359" gradientUnits="userSpaceOnUse" id="color-8"><stop offset="0" stop-color="#3dd1ce"/><stop offset="1" stop-color="#3dd1ce" stop-opacity="0"/></linearGradient><linearGradient x1="227.67908" y1="200.74623" x2="218.40901" y2="225.70822" gradientUnits="userSpaceOnUse" id="color-9"><stop offset="0" stop-color="#3dd1ce"/><stop offset="1" stop-color="#3dd1ce" stop-opacity="0"/></linearGradient><linearGradient x1="214.52773" y1="200.72175" x2="214.52773" y2="227.3903" gradientUnits="userSpaceOnUse" id="color-10"><stop offset="0" stop-color="#3dd1ce"/><stop offset="1" stop-color="#3dd1ce" stop-opacity="0"/></linearGradient><linearGradient x1="216.8881" y1="207.26356" x2="207.05584" y2="220.97784" gradientUnits="userSpaceOnUse" id="color-11"><stop offset="0" stop-color="#3dd1ce"/><stop offset="1" stop-color="#3dd1ce" stop-opacity="0"/></linearGradient><linearGradient x1="230.3686" y1="207.66234" x2="217.66654" y2="233.24642" gradientUnits="userSpaceOnUse" id="color-12"><stop offset="0" stop-color="#3dd1ce"/><stop offset="1" stop-color="#3dd1ce" stop-opacity="0"/></linearGradient><linearGradient x1="211.53445" y1="216.91575" x2="199.46083" y2="225.45934" gradientUnits="userSpaceOnUse" id="color-13"><stop offset="0" stop-color="#3dd1ce"/><stop offset="1" stop-color="#3dd1ce" stop-opacity="0"/></linearGradient><linearGradient x1="214.04736" y1="210.62746" x2="209.92733" y2="221.72168" gradientUnits="userSpaceOnUse" id="color-14"><stop offset="0" stop-color="#3dd1ce"/><stop offset="1" stop-color="#3dd1ce" stop-opacity="0"/></linearGradient><radialGradient cx="233.31791" cy="185" r="1484.17059" gradientUnits="userSpaceOnUse" id="color-15"><stop offset="0" stop-color="#59aade" stop-opacity="0"/><stop offset="1" stop-color="#59aade"/></radialGradient></defs><g transform="translate(1244.17059,748.5)"><g data-paper-data="{&quot;isPaintingLayer&quot;:true}" fill-rule="nonzero" stroke-linejoin="miter" stroke-miterlimit="10" stroke-dasharray="" stroke-dashoffset="0" style="mix-blend-mode: normal"><path d="M-9,358.88398v-361.76796h574v361.76796z" data-paper-data="{&quot;origPos&quot;:null}" fill="url(#color-1)" stroke="#000000" stroke-width="2" stroke-linecap="butt"/><g data-paper-data="{&quot;origPos&quot;:null}"><path d="M218.14102,79.67307l40.85889,-68.15896l38.24021,68.73206z" data-paper-data="{&quot;origPos&quot;:null,&quot;origRot&quot;:0}" fill="url(#color-2)" stroke="none" stroke-width="0" stroke-linecap="butt"/><path d="M348.15162,153.46336l-147.21752,-31.05489l191.56394,-67.8688z" data-paper-data="{&quot;origPos&quot;:null,&quot;index&quot;:null,&quot;origRot&quot;:0}" fill="url(#color-3)" stroke="none" stroke-width="0" stroke-linecap="butt"/><path d="M50.74441,49.07218l196.47521,-48.81061l-104.20705,136.50313z" data-paper-data="{&quot;origPos&quot;:null}" fill="url(#color-4)" stroke="none" stroke-width="0" stroke-linecap="butt"/><text transform="translate(97.90943,48.74296) scale(0.94021,0.94021)" font-size="40" xml:space="preserve" data-paper-data="{&quot;origPos&quot;:null}" fill="#ffffff" fill-rule="nonzero" stroke="none" stroke-width="1" stroke-linecap="butt" stroke-linejoin="miter" stroke-miterlimit="10" stroke-dasharray="" stroke-dashoffset="0" font-family="Malgun Gothic" font-weight="normal" text-anchor="start" style="mix-blend-mode: normal"><tspan x="0" dy="0">just</tspan></text><text transform="translate(171.18608,68.7551) scale(1.56844,1.56844)" font-size="40" xml:space="preserve" data-paper-data="{&quot;origPos&quot;:null}" fill="#ffffff" fill-rule="nonzero" stroke="none" stroke-width="1" stroke-linecap="butt" stroke-linejoin="miter" stroke-miterlimit="10" stroke-dasharray="" stroke-dashoffset="0" font-family="Malgun Gothic" font-weight="normal" text-anchor="start" style="mix-blend-mode: normal"><tspan x="0" dy="0">sh  </tspan></text><text transform="translate(95.61256,126.61258) scale(2.00272,2.25843)" font-size="40" xml:space="preserve" data-paper-data="{&quot;origPos&quot;:null}" fill="url(#color-5)" fill-rule="nonzero" stroke="none" stroke-width="1" stroke-linecap="butt" stroke-linejoin="miter" stroke-miterlimit="10" stroke-dasharray="" stroke-dashoffset="0" font-family="Malgun Gothic" font-weight="normal" text-anchor="start" style="mix-blend-mode: normal"><tspan x="0" dy="0">&amp;</tspan></text><g data-paper-data="{&quot;origPos&quot;:null}" stroke="#961b57" stroke-width="1.5" stroke-linecap="butt"><path d="M238.45349,68.46352l19.46222,-34.79879l19.06502,34.79879z" data-paper-data="{&quot;origPos&quot;:null}" fill="#ff3396"/><path d="M251.26959,59.99398l6.4874,-11.59961l6.355,11.59961z" data-paper-data="{&quot;origPos&quot;:null}" fill="#ffffff"/></g><text transform="translate(172.91823,128.00884) scale(1.91252,1.57543)" font-size="40" xml:space="preserve" data-paper-data="{&quot;origPos&quot;:null}" fill="url(#color-6)" fill-rule="nonzero" stroke="none" stroke-width="1" stroke-linecap="butt" stroke-linejoin="miter" stroke-miterlimit="10" stroke-dasharray="" stroke-dashoffset="0" font-family="&quot;Microsoft YaHei&quot;, &quot;微软雅黑&quot;, STXihei, &quot;华文细黑&quot;" font-weight="normal" text-anchor="start" style="mix-blend-mode: normal"><tspan x="0" dy="0">beats</tspan></text><path d="M246.86555,67.83113l4.43952,-7.76916" data-paper-data="{&quot;origPos&quot;:null}" fill="none" stroke="#961b57" stroke-width="1.5" stroke-linecap="round"/><text transform="translate(277.19914,70.10611) scale(1.56844,1.56844)" font-size="40" xml:space="preserve" data-paper-data="{&quot;origPos&quot;:null}" fill="#ffffff" fill-rule="nonzero" stroke="none" stroke-width="1" stroke-linecap="butt" stroke-linejoin="miter" stroke-miterlimit="10" stroke-dasharray="" stroke-dashoffset="0" font-family="Malgun Gothic" font-weight="normal" text-anchor="start" style="mix-blend-mode: normal"><tspan x="0" dy="0">pes</tspan></text></g><path d="M210.155,213.02772l-1.06973,-4.07677l3.87272,-1.27378l1.06973,4.07677z" data-paper-data="{&quot;origPos&quot;:null,&quot;origRot&quot;:0}" fill="url(#color-7)" stroke="#1d6564" stroke-width="0" stroke-linecap="butt"/><path d="M217.90026,227.99327c0,0 -2.78597,-8.61292 -3.49144,-14.12561c-0.61575,-4.8116 0.10594,-12.3291 0.10594,-12.3291l26.45472,-3.3855l3.3855,26.45472z" data-paper-data="{&quot;origPos&quot;:null,&quot;origRot&quot;:0,&quot;index&quot;:null}" fill="url(#color-8)" stroke="#1d6564" stroke-width="0" stroke-linecap="butt"/><path d="M230.42021,226.35595l-3.49219,-26.44084l26.44084,-3.49219l3.49218,26.44084z" data-paper-data="{&quot;origPos&quot;:null,&quot;origRot&quot;:0}" fill="#3dd1ce" stroke="#1d6564" stroke-width="0" stroke-linecap="butt"/><path d="M210.31131,217.42563l0.27279,-2.74732l2.66856,0.10096l-0.27279,2.74732z" data-paper-data="{&quot;origPos&quot;:null,&quot;origRot&quot;:0}" fill="url(#color-9)" stroke="#1d6564" stroke-width="0" stroke-linecap="butt"/><path d="M204.03706,222.43735l-0.70179,-2.67453l2.54066,-0.83565l0.70179,2.67453z" data-paper-data="{&quot;origPos&quot;:null,&quot;origRot&quot;:0}" fill="url(#color-10)" stroke="#1d6564" stroke-width="0" stroke-linecap="butt"/><path d="M203.4871,214.56305l0.62516,-1.63411l1.61463,0.50697l-0.62516,1.63411z" data-paper-data="{&quot;origPos&quot;:null,&quot;origRot&quot;:0}" fill="url(#color-11)" stroke="#1d6564" stroke-width="0" stroke-linecap="butt"/><path d="M209.96153,223.49824l0.60061,-2.90003l2.83536,0.40843l-0.60061,2.90003z" data-paper-data="{&quot;origPos&quot;:null,&quot;origRot&quot;:0}" fill="url(#color-12)" stroke="#1d6564" stroke-width="0" stroke-linecap="butt"/><path d="M198.34236,219.12318l0.98601,-1.17454l1.19226,0.88252l-0.98601,1.17454z" data-paper-data="{&quot;origPos&quot;:null,&quot;origRot&quot;:0}" fill="url(#color-13)" stroke="#1d6564" stroke-width="0" stroke-linecap="butt"/><path d="M206.32836,218.04053l0.12124,-1.22103l1.18603,0.04487l-0.12124,1.22103z" data-paper-data="{&quot;origPos&quot;:null,&quot;origRot&quot;:0}" fill="url(#color-14)" stroke="#1d6564" stroke-width="0" stroke-linecap="butt"/><path d="M420.71875,184.42325c-2.21329,-10.36266 4.39308,-20.55747 14.75574,-22.77076c10.36266,-2.21329 20.55748,4.39308 22.77076,14.75574c2.21329,10.36266 -4.39308,20.55748 -14.75574,22.77077c-10.36266,2.21329 -20.55748,-4.39308 -22.77077,-14.75574z" data-paper-data="{&quot;origPos&quot;:null,&quot;origRot&quot;:0}" fill="#ff3396" stroke="none" stroke-width="0" stroke-linecap="butt"/><path d="M429.61137,164.02663l4.77982,-8.30467l7.40725,5.70172z" data-paper-data="{&quot;origPos&quot;:null,&quot;origRot&quot;:0}" fill="#ff3396" stroke="none" stroke-width="0" stroke-linecap="butt"/><path d="M449.39117,196.97287l-4.43161,8.2303l-7.75546,-5.62735z" data-paper-data="{&quot;origPos&quot;:null,&quot;index&quot;:null,&quot;origRot&quot;:0}" fill="#ff3396" stroke="none" stroke-width="0" stroke-linecap="butt"/><path d="M455.95514,170.52585l8.30467,4.77982l-5.70171,7.40725z" data-paper-data="{&quot;origPos&quot;:null,&quot;origRot&quot;:0}" fill="#ff3396" stroke="none" stroke-width="0" stroke-linecap="butt"/><path d="M423.00891,190.30563l-8.2303,-4.43161l5.62734,-7.75546z" data-paper-data="{&quot;origPos&quot;:null,&quot;index&quot;:null,&quot;origRot&quot;:0}" fill="#ff3396" stroke="none" stroke-width="0" stroke-linecap="butt"/><path d="M74.16667,216.00001c0,2.30119 -1.86548,4.16667 -4.16667,4.16667c-2.30119,0 -4.16667,-1.86548 -4.16667,-4.16667c0,-2.30119 1.86548,-4.16667 4.16667,-4.16667c2.30119,0 4.16667,1.86548 4.16667,4.16667z" data-paper-data="{&quot;origPos&quot;:null}" fill="#ff3396" stroke="none" stroke-width="0" stroke-linecap="butt"/><path d="M94.16668,243.00001c0,2.30119 -1.86548,4.16667 -4.16667,4.16667c-2.30119,0 -4.16667,-1.86548 -4.16667,-4.16667c0,-2.30119 1.86548,-4.16667 4.16667,-4.16667c2.30119,0 4.16667,1.86548 4.16667,4.16667z" data-paper-data="{&quot;origPos&quot;:null}" fill="#ff3396" stroke="none" stroke-width="0" stroke-linecap="butt"/><path d="M17.38506,183.16299c1.22274,1.94946 0.63361,4.52103 -1.31584,5.74376c-1.94946,1.22274 -4.52103,0.63361 -5.74376,-1.31584c-1.22274,-1.94946 -0.63361,-4.52103 1.31584,-5.74376c1.94946,-1.22274 4.52103,-0.63361 5.74376,1.31584z" data-paper-data="{&quot;origPos&quot;:null,&quot;origRot&quot;:0}" fill="#ff3396" stroke="none" stroke-width="0" stroke-linecap="butt"/><path d="M48.67456,195.4091c1.22274,1.94946 0.63361,4.52103 -1.31584,5.74376c-1.94946,1.22274 -4.52103,0.63361 -5.74376,-1.31584c-1.22274,-1.94946 -0.63361,-4.52103 1.31584,-5.74376c1.94946,-1.22274 4.52103,-0.63361 5.74376,1.31584z" data-paper-data="{&quot;origPos&quot;:null,&quot;origRot&quot;:0}" fill="#ff3396" stroke="none" stroke-width="0" stroke-linecap="butt"/><path d="M86.43349,349.41754c-2.19322,0.69661 -4.53589,-0.51662 -5.2325,-2.70984c-0.69661,-2.19322 0.51662,-4.53589 2.70984,-5.2325c2.19322,-0.69661 4.53589,0.51662 5.2325,2.70984c0.69661,2.19322 -0.51662,4.53589 -2.70984,5.2325z" data-paper-data="{&quot;origPos&quot;:null,&quot;origRot&quot;:0}" fill="#ff3396" stroke="none" stroke-width="0" stroke-linecap="butt"/><path d="M67.75472,371.65255c-2.19322,0.69661 -4.53589,-0.51662 -5.2325,-2.70984c-0.69661,-2.19322 0.51662,-4.53589 2.70984,-5.2325c2.19322,-0.69661 4.53589,0.51662 5.2325,2.70984c0.69661,2.19322 -0.51662,4.53589 -2.70984,5.2325z" data-paper-data="{&quot;origPos&quot;:null,&quot;origRot&quot;:0}" fill="#ff3396" stroke="none" stroke-width="0" stroke-linecap="butt"/><path d="M101.5409,280.35974c-1.48785,1.7555 -4.11709,1.97249 -5.87259,0.48464c-1.7555,-1.48785 -1.97249,-4.11709 -0.48465,-5.8726c1.48785,-1.7555 4.11709,-1.97249 5.8726,-0.48464c1.7555,1.48785 1.97249,4.11709 0.48464,5.8726z" data-paper-data="{&quot;origPos&quot;:null,&quot;origRot&quot;:0}" fill="#ff3396" stroke="none" stroke-width="0" stroke-linecap="butt"/><path d="M99.84131,316.38826c-1.48785,1.7555 -4.11709,1.97249 -5.8726,0.48464c-1.7555,-1.48785 -1.97249,-4.11709 -0.48464,-5.8726c1.48785,-1.7555 4.11709,-1.97249 5.87259,-0.48464c1.7555,1.48785 1.97249,4.11709 0.48465,5.8726z" data-paper-data="{&quot;origPos&quot;:null,&quot;origRot&quot;:0}" fill="#ff3396" stroke="none" stroke-width="0" stroke-linecap="butt"/><path d="M-23,367l24,-42l23,42z" data-paper-data="{&quot;origPos&quot;:null}" fill="#ff3396" stroke="none" stroke-width="0" stroke-linecap="butt"/><path d="M22.4,367l24,-42l23,42z" data-paper-data="{&quot;origPos&quot;:null}" fill="#ff3396" stroke="none" stroke-width="0" stroke-linecap="butt"/><path d="M66,367l24,-42l23,42z" data-paper-data="{&quot;origPos&quot;:null}" fill="#ff3396" stroke="none" stroke-width="0" stroke-linecap="butt"/><path d="M111.4,367l24,-42l23,42z" data-paper-data="{&quot;origPos&quot;:null}" fill="#ff3396" stroke="none" stroke-width="0" stroke-linecap="butt"/><path d="M154,367l24,-42l23,42z" data-paper-data="{&quot;origPos&quot;:null}" fill="#ff3396" stroke="none" stroke-width="0" stroke-linecap="butt"/><path d="M199.4,367l24,-42l23,42z" data-paper-data="{&quot;origPos&quot;:null}" fill="#ff3396" stroke="none" stroke-width="0" stroke-linecap="butt"/><path d="M243,367l24,-42l23,42z" data-paper-data="{&quot;origPos&quot;:null}" fill="#ff3396" stroke="none" stroke-width="0" stroke-linecap="butt"/><path d="M288.4,367l24,-42l23,42z" data-paper-data="{&quot;origPos&quot;:null}" fill="#ff3396" stroke="none" stroke-width="0" stroke-linecap="butt"/><g data-paper-data="{&quot;origPos&quot;:null}" fill="#ff3396" stroke="none" stroke-width="0" stroke-linecap="butt"><path d="M331.4,367l24,-42l23,42z" data-paper-data="{&quot;origPos&quot;:null}"/><path d="M374,367l24,-42l23,42z" data-paper-data="{&quot;origPos&quot;:null}"/><path d="M419.4,367l24,-42l23,42z" data-paper-data="{&quot;origPos&quot;:null}"/><path d="M463,367l24,-42l23,42z" data-paper-data="{&quot;origPos&quot;:null}"/><path d="M508.4,367l24,-42l23,42z" data-paper-data="{&quot;origPos&quot;:null}"/></g><g data-paper-data="{&quot;origPos&quot;:null}" fill="#ff3396" stroke="none" stroke-width="0" stroke-linecap="butt"><path d="M402.94795,259.96833c0,-3.89475 3.15732,-7.05205 7.05205,-7.05205c3.89475,0 7.05205,3.15732 7.05205,7.05205c0,3.89475 -3.15732,7.05205 -7.05205,7.05205c-3.89475,0 -7.05205,-3.15732 -7.05205,-7.05205z" data-paper-data="{&quot;origPos&quot;:null}"/><path d="M407.71025,253.31952l2.35566,-2.61813l2.22478,2.61813z" data-paper-data="{&quot;origPos&quot;:null}"/><path d="M412.29069,266.68049l-2.22478,2.61813l-2.35566,-2.61813z" data-paper-data="{&quot;origPos&quot;:null,&quot;index&quot;:null}"/><path d="M416.68048,257.67811l2.61813,2.35566l-2.61813,2.22478z" data-paper-data="{&quot;origPos&quot;:null,&quot;origRot&quot;:0}"/><path d="M403.31953,262.25855l-2.61813,-2.22478l2.61813,-2.35566z" data-paper-data="{&quot;origPos&quot;:null,&quot;index&quot;:null,&quot;origRot&quot;:0}"/><path d="M403.93232,257.06316l-0.20495,-3.3242l3.24058,0.23434z" data-paper-data="{&quot;origPos&quot;:null,&quot;origRot&quot;:0}"/><path d="M415.98095,262.82812l0.29169,3.23592l-3.32732,-0.14606z" data-paper-data="{&quot;origPos&quot;:null,&quot;index&quot;:null,&quot;origRot&quot;:0}"/><path d="M412.81743,253.90064l3.3242,-0.20494l-0.23434,3.24058z" data-paper-data="{&quot;origPos&quot;:null,&quot;origRot&quot;:0}"/><path d="M407.05248,265.94928l-3.23592,0.29169l0.14606,-3.32732z" data-paper-data="{&quot;origPos&quot;:null,&quot;index&quot;:null,&quot;origRot&quot;:0}"/></g><g data-paper-data="{&quot;origPos&quot;:null,&quot;origRot&quot;:0}" fill="#ff3396" stroke="none" stroke-width="0" stroke-linecap="butt"><path d="M366.99159,230.69209c-2.05394,-3.30913 -1.03641,-7.65676 2.27272,-9.71069c3.30914,-2.05394 7.65676,-1.03641 9.71069,2.27272c2.05394,3.30913 1.03641,7.65676 -2.27272,9.71069c-3.30914,2.05394 -7.65676,1.03641 -9.71069,-2.27272z" data-paper-data="{&quot;origPos&quot;:null}"/><path d="M367.53149,222.53153l0.62076,-3.46676l3.27097,1.0512z" data-paper-data="{&quot;origPos&quot;:null}"/><path d="M378.4693,231.46799l-0.50956,3.39774l-3.38217,-0.98218z" data-paper-data="{&quot;origPos&quot;:null,&quot;index&quot;:null}"/><path d="M377.45152,221.5042l3.46675,0.62076l-1.0512,3.27096z" data-paper-data="{&quot;origPos&quot;:null,&quot;origRot&quot;:0}"/><path d="M368.51508,232.44199l-3.39774,-0.50956l0.98218,-3.38217z" data-paper-data="{&quot;origPos&quot;:null,&quot;index&quot;:null,&quot;origRot&quot;:0}"/><path d="M366.29587,227.70462l-1.92719,-2.71629l2.87691,-1.50986z" data-paper-data="{&quot;origPos&quot;:null,&quot;origRot&quot;:0}"/><path d="M379.5731,226.24876l1.95433,2.59554l-2.90405,1.63061z" data-paper-data="{&quot;origPos&quot;:null,&quot;index&quot;:null,&quot;origRot&quot;:0}"/><path d="M372.17722,220.33194l2.7163,-1.92718l1.50986,2.87691z" data-paper-data="{&quot;origPos&quot;:null,&quot;origRot&quot;:0}"/><path d="M373.63309,233.60917l-2.59554,1.95434l-1.63061,-2.90405z" data-paper-data="{&quot;origPos&quot;:null,&quot;index&quot;:null,&quot;origRot&quot;:0}"/></g><g data-paper-data="{&quot;origPos&quot;:null,&quot;origRot&quot;:0}" fill="#ff3396" stroke="none" stroke-width="0" stroke-linecap="butt"><path d="M320.39511,267.47143c-1.38129,-3.64158 0.45105,-7.71341 4.09261,-9.09469c3.64158,-1.38129 7.7134,0.45105 9.09469,4.09261c1.38129,3.64158 -0.45104,7.7134 -4.09261,9.09469c-3.64158,1.38129 -7.71341,-0.45104 -9.09469,-4.09261z" data-paper-data="{&quot;origPos&quot;:null}"/><path d="M322.48982,259.56584l1.274,-3.28339l3.00869,1.65892z" data-paper-data="{&quot;origPos&quot;:null}"/><path d="M331.51105,270.43384l-1.15163,3.23698l-3.13107,-1.6125z" data-paper-data="{&quot;origPos&quot;:null,&quot;index&quot;:null}"/><path d="M332.42276,260.45978l3.28339,1.274l-1.65891,3.00869z" data-paper-data="{&quot;origPos&quot;:null,&quot;origRot&quot;:0}"/><path d="M321.55478,269.481l-3.23698,-1.15163l1.6125,-3.13106z" data-paper-data="{&quot;origPos&quot;:null,&quot;index&quot;:null,&quot;origRot&quot;:0}"/><path d="M320.28517,264.406l-1.37057,-3.03544l3.11304,-0.93018z" data-paper-data="{&quot;origPos&quot;:null,&quot;origRot&quot;:0}"/><path d="M333.59517,265.52312l1.42037,2.92212l-3.16284,1.04348z" data-paper-data="{&quot;origPos&quot;:null,&quot;index&quot;:null,&quot;origRot&quot;:0}"/><path d="M327.47112,258.2979l3.03544,-1.37056l0.93018,3.11304z" data-paper-data="{&quot;origPos&quot;:null,&quot;origRot&quot;:0}"/><path d="M326.354,271.60792l-2.92212,1.42036l-1.04348,-3.16284z" data-paper-data="{&quot;origPos&quot;:null,&quot;index&quot;:null,&quot;origRot&quot;:0}"/></g><path d="M13,289c0,-7.73199 6.26801,-14 14,-14c7.73199,0 14,6.26801 14,14c0,7.73199 -6.26801,14 -14,14c-7.73199,0 -14,-6.26801 -14,-14z" data-paper-data="{&quot;origPos&quot;:null}" fill="none" stroke="#ff3396" stroke-width="4.5" stroke-linecap="butt"/><path d="M21.54,289c0,-3.01548 2.44452,-5.46 5.46,-5.46c3.01548,0 5.46,2.44452 5.46,5.46c0,3.01548 -2.44452,5.46 -5.46,5.46c-3.01548,0 -5.46,-2.44452 -5.46,-5.46z" data-paper-data="{&quot;origPos&quot;:null}" fill="#ff3396" stroke="none" stroke-width="0" stroke-linecap="butt"/><path d="M56,141c0,-8.83655 7.16344,-16 16,-16c8.83656,0 16,7.16345 16,16c0,8.83655 -7.16344,16 -16,16c-8.83656,0 -16,-7.16345 -16,-16z" data-paper-data="{&quot;origPos&quot;:null}" fill="none" stroke="#ff3396" stroke-width="4.5" stroke-linecap="butt"/><path d="M65.76,141c0,-3.44626 2.79374,-6.24 6.24,-6.24c3.44626,0 6.24,2.79374 6.24,6.24c0,3.44626 -2.79374,6.24 -6.24,6.24c-3.44626,0 -6.24,-2.79374 -6.24,-6.24z" data-paper-data="{&quot;origPos&quot;:null}" fill="#ff3396" stroke="none" stroke-width="0" stroke-linecap="butt"/><path d="M133,226.5c0,-11.32184 9.17816,-20.5 20.5,-20.5c11.32184,0 20.5,9.17816 20.5,20.5c0,11.32184 -9.17816,20.5 -20.5,20.5c-11.32184,0 -20.5,-9.17816 -20.5,-20.5z" data-paper-data="{&quot;origPos&quot;:null}" fill="none" stroke="#ff3396" stroke-width="4.5" stroke-linecap="butt"/><path d="M145.505,226.5c0,-4.41552 3.57948,-7.995 7.995,-7.995c4.41552,0 7.995,3.57948 7.995,7.995c0,4.41552 -3.57948,7.995 -7.995,7.995c-4.41552,0 -7.995,-3.57948 -7.995,-7.995z" data-paper-data="{&quot;origPos&quot;:null}" fill="#ff3396" stroke="none" stroke-width="0" stroke-linecap="butt"/><path d="M-1244.17059,1108.5v-1857h2968.34118v1857z" data-paper-data="{&quot;origPos&quot;:null}" fill="url(#color-15)" stroke="none" stroke-width="0" stroke-linecap="butt"/></g></g></svg>