<svg version="1.1" xmlns="http://www.w3.org/2000/svg" xmlns:xlink="http://www.w3.org/1999/xlink" width="602.21201" height="167.87447"><g transform="translate(59,-261.16667)"><g data-paper-data="{&quot;isPaintingLayer&quot;:true}" fill="#ff3396" fill-rule="nonzero" stroke="none" stroke-width="0" stroke-linecap="butt" stroke-linejoin="miter" stroke-miterlimit="10" stroke-dasharray="" stroke-dashoffset="0" style="mix-blend-mode: normal"><path d="M-13,263.83333v-2.66666h501v2.66666z" data-paper-data="{&quot;origPos&quot;:null}"/><path d="M26,393l101.40299,-131l2.59701,-0.02985l-80.8209,125.02985z" data-paper-data="{&quot;origPos&quot;:null}"/><path d="M-59,362c0,0 75.90564,-61.0827 100.98342,-81.26327c8.35926,-6.72685 21.41957,-17.23673 21.41957,-17.23673l1.59701,0.97015l-95.82089,92.52985z" data-paper-data="{&quot;origPos&quot;:null}"/><path d="M120.788,413.39484l71.89018,-149.24935l2.53383,-0.57017l-53.00323,139.12275z" data-paper-data="{&quot;origPos&quot;:null,&quot;origRot&quot;:0}"/><path d="M435.0329,387l-80.8209,-125.02985l2.59701,0.02985l101.40299,131z" data-paper-data="{&quot;origPos&quot;:null,&quot;index&quot;:null}"/><path d="M515.0329,357l-95.82089,-92.52985l1.59701,-0.97015c0,0 13.06031,10.50988 21.41956,17.23673c25.07778,20.18057 100.98342,81.26327 100.98342,81.26327z" data-paper-data="{&quot;origPos&quot;:null,&quot;index&quot;:null}"/><path d="M342.00323,402.69806l-53.00322,-139.12274l2.53383,0.57018l71.89018,149.24935z" data-paper-data="{&quot;origPos&quot;:null,&quot;origRot&quot;:0,&quot;index&quot;:null}"/><path d="M231.7488,410.61007l7.64352,-148.68106l2.08829,1.54416l5.55108,165.56796z" data-paper-data="{&quot;origPos&quot;:null,&quot;origRot&quot;:0,&quot;index&quot;:null}"/></g></g></svg>