<svg version="1.1" xmlns="http://www.w3.org/2000/svg" xmlns:xlink="http://www.w3.org/1999/xlink" width="14.2454" height="14.24542"><g transform="translate(-232.88691,-172.85853)"><g data-paper-data="{&quot;isPaintingLayer&quot;:true}" fill="#ff3396" fill-rule="nonzero" stroke="none" stroke-width="0" stroke-linecap="butt" stroke-linejoin="miter" stroke-miterlimit="10" stroke-dasharray="" stroke-dashoffset="0" style="mix-blend-mode: normal"><path d="M234.58913,181.98313c-1.10866,-2.98336 0.4111,-6.30059 3.39445,-7.40925c2.98336,-1.10866 6.30059,0.4111 7.40925,3.39445c1.10866,2.98336 -0.4111,6.30059 -3.39445,7.40925c-2.98336,1.10866 -6.30059,-0.4111 -7.40925,-3.39445z" data-paper-data="{&quot;origPos&quot;:null,&quot;origRot&quot;:0}"/><path d="M236.34443,175.53456l1.05916,-2.67603l2.44944,1.37219z" data-paper-data="{&quot;origPos&quot;:null,&quot;origRot&quot;:0}"/><path d="M243.65629,184.46517l-0.95891,2.63877l-2.54969,-1.33493z" data-paper-data="{&quot;origPos&quot;:null,&quot;index&quot;:null,&quot;origRot&quot;:0}"/><path d="M244.45628,176.31981l2.67603,1.05916l-1.37219,2.44944z" data-paper-data="{&quot;origPos&quot;:null,&quot;origRot&quot;:0}"/><path d="M235.52568,183.63166l-2.63877,-0.95891l1.33493,-2.54969z" data-paper-data="{&quot;origPos&quot;:null,&quot;index&quot;:null,&quot;origRot&quot;:0}"/><path d="M234.51619,179.47758l-1.10324,-2.48799l2.54898,-0.74294z" data-paper-data="{&quot;origPos&quot;:null,&quot;origRot&quot;:0}"/><path d="M245.38641,180.46382l1.14455,2.39567l-2.59029,0.83525z" data-paper-data="{&quot;origPos&quot;:null,&quot;index&quot;:null,&quot;origRot&quot;:0}"/><path d="M240.42193,174.52591l2.48799,-1.10324l0.74294,2.54898z" data-paper-data="{&quot;origPos&quot;:null,&quot;origRot&quot;:0}"/><path d="M239.43569,185.39614l-2.39567,1.14455l-0.83525,-2.59029z" data-paper-data="{&quot;origPos&quot;:null,&quot;index&quot;:null,&quot;origRot&quot;:0}"/></g></g></svg>