<svg version="1.1" xmlns="http://www.w3.org/2000/svg" xmlns:xlink="http://www.w3.org/1999/xlink" width="100.11656" height="96.11191"><defs><radialGradient cx="238.66509" cy="178.66512" r="50.05828" gradientUnits="userSpaceOnUse" id="color-1"><stop offset="0" stop-color="#ffffff"/><stop offset="1" stop-color="#ffffff" stop-opacity="0"/></radialGradient><radialGradient cx="239.09129" cy="179.09131" r="34.07582" gradientUnits="userSpaceOnUse" id="color-2"><stop offset="0" stop-color="#ffffff"/><stop offset="1" stop-color="#ffffff" stop-opacity="0"/></radialGradient></defs><g transform="translate(-189.94172,-131.94404)"><g data-paper-data="{&quot;isPaintingLayer&quot;:true}" fill-rule="nonzero" stroke="none" stroke-width="0" stroke-linecap="butt" stroke-linejoin="miter" stroke-miterlimit="10" stroke-dasharray="" stroke-dashoffset="0" style="mix-blend-mode: normal"><path d="M290.05828,180c0,26.54057 -22.41186,48.05596 -50.05828,48.05596c-27.64644,0 -50.05828,-21.51539 -50.05828,-48.05596c0,-26.54057 22.41186,-48.05596 50.05828,-48.05596c27.64644,0 50.05828,21.51539 50.05828,48.05596z" data-paper-data="{&quot;origPos&quot;:null}" fill="url(#color-1)"/><path d="M274.0758,180c0,18.06677 -15.25629,32.71279 -34.07582,32.71279c-18.81955,0 -34.07582,-14.64602 -34.07582,-32.71279c0,-18.06677 15.25628,-32.71279 34.07582,-32.71279c18.81955,0 34.07582,14.64602 34.07582,32.71279z" data-paper-data="{&quot;origPos&quot;:null}" fill="url(#color-2)"/></g></g></svg>