<svg version="1.1" xmlns="http://www.w3.org/2000/svg" xmlns:xlink="http://www.w3.org/1999/xlink" width="712.22311" height="554.72132"><g transform="translate(133.07769,93.57266)"><g data-paper-data="{&quot;isPaintingLayer&quot;:true}" fill="#182325" fill-rule="nonzero" stroke="none" stroke-width="0" stroke-linecap="butt" stroke-linejoin="miter" stroke-miterlimit="10" stroke-dasharray="" stroke-dashoffset="0" style="mix-blend-mode: normal"><path d="M11.1978,60.57266l-6.87434,-113.05289l184.47876,-41.09243l36.87434,138.05289l-102.66281,15.70283z" data-paper-data="{&quot;origRot&quot;:0,&quot;origPos&quot;:null}"/><path d="M-133.07768,246.84534l114.38165,-92.32389l156.77374,221.30332l-145.38165,85.32389z" data-paper-data="{&quot;origRot&quot;:0,&quot;origPos&quot;:null}"/><path d="M203.22649,458l-15.22648,-93.7415c0,0 128.693,-23.84197 164.84012,-30.53868c12.04904,-2.23224 30.87417,-5.71982 30.87417,-5.71982l-6.83447,130z" data-paper-data="{&quot;origPos&quot;:null}"/><path d="M260.59241,8.65723l79.59499,-88.04317l125.06551,47.72871l-23.59499,111.04317z" data-paper-data="{&quot;origRot&quot;:0,&quot;origPos&quot;:null}"/><path d="M395.07763,358.01606l53.03613,-266.0842l131.03167,33.05206l-53.03613,266.0842z" data-paper-data="{&quot;origRot&quot;:0,&quot;origPos&quot;:null}"/><path d="M206.00001,279l-70,-123l261,-23l-60,98z" data-paper-data="{&quot;origPos&quot;:null}"/></g></g></svg>