<svg version="1.1" xmlns="http://www.w3.org/2000/svg" xmlns:xlink="http://www.w3.org/1999/xlink" width="638.625" height="128.30362"><g transform="translate(-186.375,-115.84819)"><g data-paper-data="{&quot;isPaintingLayer&quot;:true}" fill="#ff3396" fill-rule="nonzero" stroke="none" stroke-width="0" stroke-linecap="butt" stroke-linejoin="miter" stroke-miterlimit="10" stroke-dasharray="" stroke-dashoffset="0" style="mix-blend-mode: normal"><g data-paper-data="{&quot;origPos&quot;:null}"><path d="M210.3384,224.25446v-89.19503l14.40843,-12.35008h28.13074l-0.64528,17.16812l-14.44927,6.15981v67.23933l13.75197,7.3128l-0.02965,16.01514h-28.81686z" data-paper-data="{&quot;origPos&quot;:null}"/><path d="M256.30814,139.86224v-16.46678h12.35008l16.46678,6.17504v10.29173z" data-paper-data="{&quot;origPos&quot;:null}"/><path d="M283.75277,220.13776v10.29173l-16.46678,6.17504h-12.35008v-16.46678z" data-paper-data="{&quot;origPos&quot;:null,&quot;index&quot;:null}"/><path d="M230.92186,244.15181v-4.80281h33.61967l-10.63479,4.80281z" data-paper-data="{&quot;origPos&quot;:null}"/><path d="M255.27897,115.84819l10.63479,4.80281h-33.61967v-4.80281z" data-paper-data="{&quot;origPos&quot;:null,&quot;index&quot;:null}"/><path d="M239.38396,197.95336l0.45741,-39.3373l5.03151,5.03151v29.73168z"/></g><path d="M194.875,197.43146v-37.11215h12.93302v37.11215z" data-paper-data="{&quot;origPos&quot;:null}"/><path d="M186.375,189.18146v-19.86215h6.92166v19.86215z" data-paper-data="{&quot;origPos&quot;:null}"/><path d="M248,183v-9h577v9z" data-paper-data="{&quot;origPos&quot;:null}"/></g></g></svg>