<svg version="1.1" xmlns="http://www.w3.org/2000/svg" xmlns:xlink="http://www.w3.org/1999/xlink" width="15.19722" height="15.19723"><g transform="translate(-232.40139,-172.40139)"><g data-paper-data="{&quot;isPaintingLayer&quot;:true}" fill="#ff3396" fill-rule="nonzero" stroke="none" stroke-width="0" stroke-linecap="butt" stroke-linejoin="miter" stroke-miterlimit="10" stroke-dasharray="" stroke-dashoffset="0" style="mix-blend-mode: normal"><path d="M234.23722,179.97412c0,-3.1827 2.58009,-5.76278 5.76278,-5.76278c3.1827,0 5.76278,2.58009 5.76278,5.76278c0,3.1827 -2.58009,5.76278 -5.76278,5.76278c-3.1827,0 -5.76278,-2.58009 -5.76278,-5.76278z" data-paper-data="{&quot;origPos&quot;:null}"/><path d="M238.12887,174.54086l1.92499,-2.13948l1.81804,2.13948z" data-paper-data="{&quot;origPos&quot;:null}"/><path d="M241.8719,185.45914l-1.81804,2.13948l-1.92499,-2.13948z" data-paper-data="{&quot;origPos&quot;:null,&quot;index&quot;:null}"/><path d="M245.45913,178.1026l2.13948,1.92499l-2.13948,1.81804z" data-paper-data="{&quot;origPos&quot;:null,&quot;origRot&quot;:0}"/><path d="M234.54087,181.84563l-2.13948,-1.81804l2.13948,-1.92499z" data-paper-data="{&quot;origPos&quot;:null,&quot;index&quot;:null,&quot;origRot&quot;:0}"/><path d="M235.04163,177.60008l-0.16748,-2.71646l2.64813,0.1915z" data-paper-data="{&quot;origPos&quot;:null,&quot;origRot&quot;:0}"/><path d="M244.88749,182.31107l0.23836,2.64432l-2.71901,-0.11936z" data-paper-data="{&quot;origPos&quot;:null,&quot;index&quot;:null,&quot;origRot&quot;:0}"/><path d="M242.30234,175.01574l2.71646,-0.16748l-0.1915,2.64813z" data-paper-data="{&quot;origPos&quot;:null,&quot;origRot&quot;:0}"/><path d="M237.59135,184.86161l-2.64432,0.23836l0.11936,-2.71901z" data-paper-data="{&quot;origPos&quot;:null,&quot;index&quot;:null,&quot;origRot&quot;:0}"/></g></g></svg>