<svg version="1.1" xmlns="http://www.w3.org/2000/svg" xmlns:xlink="http://www.w3.org/1999/xlink" width="641.625" height="128.30362"><g transform="translate(352.625,-115.84819)"><g data-paper-data="{&quot;isPaintingLayer&quot;:true}" fill="#ff3396" fill-rule="nonzero" stroke="none" stroke-width="0" stroke-linecap="butt" stroke-linejoin="miter" stroke-miterlimit="10" stroke-dasharray="" stroke-dashoffset="0" style="mix-blend-mode: normal"><g data-paper-data="{&quot;origPos&quot;:null,&quot;index&quot;:null}"><path d="M252.68652,236.60455h-28.81686l-0.02965,-16.01514l13.75197,-7.3128v-67.23933l-14.44927,-6.15981l-0.64528,-17.16812h28.13074l14.40843,12.35008v89.19503z" data-paper-data="{&quot;origPos&quot;:null}"/><path d="M190.25,139.86223v-10.29173l16.46678,-6.17504h12.35008v16.46678z" data-paper-data="{&quot;origPos&quot;:null}"/><path d="M220.43909,220.13775v16.46678h-12.35008l-16.46678,-6.17504v-10.29173z" data-paper-data="{&quot;origPos&quot;:null,&quot;index&quot;:null}"/><path d="M221.46826,244.15181l-10.63479,-4.80281h33.61967v4.80281z" data-paper-data="{&quot;origPos&quot;:null}"/><path d="M243.08091,115.84819v4.80281h-33.61967l10.63479,-4.80281z" data-paper-data="{&quot;origPos&quot;:null,&quot;index&quot;:null}"/><path d="M230.50212,193.37925v-29.73168l5.03151,-5.03151l0.45741,39.3373z"/></g><path d="M267.56698,197.43146v-37.11215h12.93302v37.11215z" data-paper-data="{&quot;origPos&quot;:null,&quot;index&quot;:null}"/><path d="M282.07834,189.18146v-19.86215h6.92166v19.86215z" data-paper-data="{&quot;origPos&quot;:null,&quot;index&quot;:null}"/><path d="M-352.625,191v-25h580v25z" data-paper-data="{&quot;origPos&quot;:null,&quot;index&quot;:null}"/></g></g></svg>