<svg version="1.1" xmlns="http://www.w3.org/2000/svg" xmlns:xlink="http://www.w3.org/1999/xlink" width="106.32722" height="573.92093"><g transform="translate(-187,66.92093)"><g data-paper-data="{&quot;isPaintingLayer&quot;:true}" fill="#ff3396" fill-rule="nonzero" stroke="none" stroke-width="0" stroke-linecap="butt" stroke-linejoin="miter" stroke-miterlimit="10" stroke-dasharray="" stroke-dashoffset="0" style="mix-blend-mode: normal"><path d="M226.5,507v-272h26.5v272z" data-paper-data="{&quot;origPos&quot;:null}"/><path d="M203,233v-22.66667l13.28235,-0.04837l7.71765,4.71503h29.33333l9.07022,-4.57715l13.59645,0.24382v22.33333z" data-paper-data="{&quot;origPos&quot;:null}"/><path d="M212,235h12v56.5z" data-paper-data="{&quot;origPos&quot;:null}"/><path d="M255,292v-57h13.5z" data-paper-data="{&quot;origPos&quot;:null,&quot;index&quot;:null}"/><path d="M187,223.98915v-23.50658l14.5,5.48487v27.03256z" data-paper-data="{&quot;origPos&quot;:null}"/><path d="M201.45661,203.90991l-13.32425,-5.39702l16.19485,-23.43382z" data-paper-data="{&quot;origRot&quot;:0,&quot;origPos&quot;:null}"/><path d="M277.82722,233v-27.03256l14.5,-5.48487v23.50658z" data-paper-data="{&quot;origPos&quot;:null,&quot;index&quot;:null}"/><path d="M275,175.07907l16.19486,23.43382l-13.32425,5.39702z" data-paper-data="{&quot;origRot&quot;:0,&quot;origPos&quot;:null,&quot;index&quot;:null}"/><path d="M254,-66.92093v140h-26.5v-140z" data-paper-data="{&quot;origPos&quot;:null,&quot;index&quot;:null}"/><path d="M225,16.57908v56.5h-12z" data-paper-data="{&quot;origPos&quot;:null,&quot;index&quot;:null}"/><path d="M269.5,73.07908h-13.5v-57z" data-paper-data="{&quot;origPos&quot;:null,&quot;index&quot;:null}"/><path d="M202.5,75.07908v27.96599l-14.5,5.67426v-24.31825z" data-paper-data="{&quot;origPos&quot;:null,&quot;index&quot;:null}"/><path d="M205.32722,135l-16.19485,-24.24299l13.32425,-5.58337z" data-paper-data="{&quot;origRot&quot;:0,&quot;origPos&quot;:null,&quot;index&quot;:null}"/><path d="M293.32722,84.40108v24.31825l-14.5,-5.67426v-27.96599z" data-paper-data="{&quot;origPos&quot;:null,&quot;index&quot;:null}"/><path d="M278.87061,105.17364l13.32425,5.58337l-16.19486,24.24299z" data-paper-data="{&quot;origRot&quot;:0,&quot;origPos&quot;:null,&quot;index&quot;:null}"/><path d="M230.4,214v-29.3h2.175l2.75,1.5l9.01711,0.02425l2.48289,-1.52425h2.575v29.3z" data-paper-data="{&quot;origPos&quot;:null}"/><path d="M259.44366,154.55c0,10.90762 -8.71784,19.75 -19.47183,19.75c-10.75399,0 -19.47183,-8.84238 -19.47183,-19.75c0,-10.90762 8.71784,-19.75 19.47183,-19.75c10.75399,0 19.47183,8.84238 19.47183,19.75z" data-paper-data="{&quot;origPos&quot;:null}"/><path d="M222.9,180.55l-2.25,-7.2l5.5952,0.1602l4.2548,2.4398h19.2l4.56718,-2.69611l6.13282,-0.10389l-2.5,7l-8.2,2.6h-3.875l-2.48457,0.98063l-7.01543,0.01937l-2.5,-1h-3.325z" data-paper-data="{&quot;origPos&quot;:null}"/><path d="M249.4,95.15v29.3h-2.575l-2.48289,-1.52426l-9.01711,0.02426l-2.75,1.5h-2.175v-29.3z" data-paper-data="{&quot;origPos&quot;:null,&quot;index&quot;:null}"/><path d="M230.5,126.4h3.325l2.5,-1l7.01543,0.01937l2.48457,0.98063h3.875l8.2,2.6l2.5,7l-6.13282,-0.10389l-4.56718,-2.69611h-19.2l-4.2548,2.4398l-5.5952,0.1602l2.25,-7.2z" data-paper-data="{&quot;origPos&quot;:null,&quot;index&quot;:null}"/><path d="M277,74.95163v22.33334l-13.59645,0.24381l-9.07021,-4.57715h-29.33334l-7.71765,4.71504l-13.28235,-0.04837v-22.66666z" data-paper-data="{&quot;origPos&quot;:null,&quot;index&quot;:null}"/></g></g></svg>