<svg version="1.1" xmlns="http://www.w3.org/2000/svg" xmlns:xlink="http://www.w3.org/1999/xlink" width="523.28334" height="231.91031" viewBox="0,0,523.28334,231.91031"><g transform="translate(53.75,-11.62304)"><g data-paper-data="{&quot;isPaintingLayer&quot;:true}" fill-rule="nonzero" stroke-linejoin="miter" stroke-miterlimit="10" stroke-dasharray="" stroke-dashoffset="0" style="mix-blend-mode: normal"><text transform="translate(-53.5,47.3) scale(0.5,0.5)" font-size="40" xml:space="preserve" fill="#ff4a00" fill-rule="nonzero" stroke="none" stroke-width="1" stroke-linecap="butt" stroke-linejoin="miter" stroke-miterlimit="10" stroke-dasharray="" stroke-dashoffset="0" font-family="Handwriting" font-weight="normal" text-anchor="start" style="mix-blend-mode: normal"><tspan x="0" dy="0"> </tspan></text><path d="M29.65496,170.46061v-150h424v150z" fill="#ff5600" stroke="none" stroke-width="NaN" stroke-linecap="butt"/><text transform="translate(131.65496,60.96061) scale(1.15006,1.15006)" font-size="40" xml:space="preserve" fill="#000000" fill-rule="nonzero" stroke="none" stroke-width="1" stroke-linecap="butt" stroke-linejoin="miter" stroke-miterlimit="10" stroke-dasharray="" stroke-dashoffset="0" font-family="Sans Serif" font-weight="normal" text-anchor="start" style="mix-blend-mode: normal"><tspan x="0" dy="0">Level Two</tspan></text><text transform="translate(176.94958,101.68048) scale(0.89004,0.89004)" font-size="40" xml:space="preserve" fill="#000000" fill-rule="nonzero" stroke="none" stroke-width="1" stroke-linecap="butt" stroke-linejoin="miter" stroke-miterlimit="10" stroke-dasharray="" stroke-dashoffset="0" font-family="Sans Serif" font-weight="normal" text-anchor="start" style="mix-blend-mode: normal"><tspan x="0" dy="0">Bouncy</tspan></text><text transform="translate(376.5,102.20002) scale(0.5,0.5)" font-size="40" xml:space="preserve" fill="#000000" fill-rule="nonzero" stroke="none" stroke-width="1" stroke-linecap="butt" stroke-linejoin="miter" stroke-miterlimit="10" stroke-dasharray="" stroke-dashoffset="0" font-family="Sans Serif" font-weight="normal" text-anchor="start" style="mix-blend-mode: normal"><tspan x="0" dy="0">2* Easy</tspan></text><g stroke-linecap="butt"><path d="M387.75,53c0,-13.39291 10.85709,-24.25 24.25,-24.25c13.39291,0 24.25,10.85709 24.25,24.25c0,13.39291 -10.85709,24.25 -24.25,24.25c-13.39291,0 -24.25,-10.85709 -24.25,-24.25z" fill="#5896ff" stroke="#000000" stroke-width="2"/><path d="M398.375,47.75c0,-2.55432 2.07068,-4.625 4.625,-4.625c2.55432,0 4.625,2.07068 4.625,4.625c0,2.55432 -2.07068,4.625 -4.625,4.625c-2.55432,0 -4.625,-2.07068 -4.625,-4.625z" fill="#000000" stroke="#000000" stroke-width="2"/><path d="M416.375,47.25c0,-2.55432 2.07068,-4.625 4.625,-4.625c2.55432,0 4.625,2.07068 4.625,4.625c0,2.55432 -2.07068,4.625 -4.625,4.625c-2.55432,0 -4.625,-2.07068 -4.625,-4.625z" fill="#000000" stroke="#000000" stroke-width="2"/><path d="M402.53378,57.28126c2.11132,1.92054 2.78504,6.64311 4.60402,9.13072c1.91841,2.62358 4.94831,1.82671 7.88175,1.81831c5.60197,-0.01603 3.87902,-8.8394 5.64677,-10.60714c1.66667,-1.66667 2.70833,-1.66667 4.375,0c2.44574,2.44574 -3.13237,13.60803 -5.92661,14.62893c-12.09535,4.41912 -17.32797,-2.38874 -20.61415,-12.24728c-0.09499,-0.2642 -0.14675,-0.54902 -0.14675,-0.84593c0,-1.38071 1.11929,-2.5 2.5,-2.5c0.19231,0 0.37955,0.02171 0.55939,0.06282c0.39186,0.06776 0.77593,0.24608 1.12057,0.55957z" fill="#000000" stroke="none" stroke-width="0.5"/><path d="M408.49283,39.02493c-0.69636,0.27854 -0.9749,-0.41781 -0.9749,-0.41781l-0.25312,-0.64367c-0.46493,-0.69739 -1.36496,-2.8947 -2.33328,-3.0409c-1.66596,-0.25153 -3.84685,2.4701 -4.47499,3.74143c0,0 -0.33541,0.67082 -1.00623,0.33541c-0.67082,-0.33541 -0.33541,-1.00623 -0.33541,-1.00623c0.92582,-1.83317 3.69806,-5.00918 6.09644,-4.54428c1.67841,0.32534 2.5582,2.58203 3.38101,3.81625l0.31831,0.7849c0,0 0.27854,0.69636 -0.41781,0.9749z" fill="#000000" stroke="none" stroke-width="0.5"/><path d="M425.20712,39.31064c-0.69636,0.27855 -0.9749,-0.41782 -0.9749,-0.41782l-0.25313,-0.64366c-0.46492,-0.69739 -1.36497,-2.8947 -2.33328,-3.0409c-1.66596,-0.25153 -3.84685,2.4701 -4.47499,3.74143c0,0 -0.33541,0.67082 -1.00623,0.33541c-0.67082,-0.33541 -0.33541,-1.00623 -0.33541,-1.00623c0.92582,-1.83317 3.69806,-5.00917 6.09644,-4.54428c1.6784,0.32534 2.5582,2.58203 3.38101,3.81625l0.3183,0.7849c0,0 0.27855,0.69636 -0.41781,0.9749z" fill="#000000" stroke="none" stroke-width="0.5"/></g><path d="M439.46668,228.00001c0,-8.02654 6.50679,-14.53333 14.53333,-14.53333c8.02654,0 14.53333,6.50679 14.53333,14.53333c0,8.02654 -6.50679,14.53333 -14.53333,14.53333c-8.02654,0 -14.53333,-6.50679 -14.53333,-14.53333z" fill="#808080" stroke="#000000" stroke-width="2" stroke-linecap="butt"/><path d="M447.28126,227.83751h11.5" fill="none" stroke="#000000" stroke-width="2" stroke-linecap="round"/><path d="M455.46876,222.50001l5.25,5.25l-5.25,5.75" fill="none" stroke="#000000" stroke-width="2" stroke-linecap="round"/><path d="M35.00001,242.53334c-8.02654,0 -14.53333,-6.50679 -14.53333,-14.53333c0,-8.02654 6.50679,-14.53333 14.53333,-14.53333c8.02654,0 14.53333,6.50679 14.53333,14.53333c0,8.02654 -6.50679,14.53333 -14.53333,14.53333z" data-paper-data="{&quot;index&quot;:null}" fill="#808080" stroke="#000000" stroke-width="2" stroke-linecap="butt"/><path d="M30.21876,227.83751h11.5" data-paper-data="{&quot;index&quot;:null}" fill="none" stroke="#000000" stroke-width="2" stroke-linecap="round"/><path d="M33.53126,233.50001l-5.25,-5.75l5.25,-5.25" data-paper-data="{&quot;index&quot;:null}" fill="none" stroke="#000000" stroke-width="2" stroke-linecap="round"/></g></g></svg>