<svg version="1.1" xmlns="http://www.w3.org/2000/svg" xmlns:xlink="http://www.w3.org/1999/xlink" width="64.20285" height="31.3895" viewBox="0,0,64.20285,31.3895"><g transform="translate(-207.89857,-164.30525)"><g data-paper-data="{&quot;isPaintingLayer&quot;:true}" fill-rule="nonzero" stroke-linejoin="miter" stroke-miterlimit="10" stroke-dasharray="" stroke-dashoffset="0" style="mix-blend-mode: normal"><path d="M226.14957,189.2184c0,0 -0.17468,-3.17311 -0.23178,-4.21055c-0.03349,-0.60821 -0.07967,-1.44716 -0.07967,-1.44716l3.0282,3.21429l3.9598,2.44343z" data-paper-data="{&quot;index&quot;:null}" fill="#00ff6c" stroke="none" stroke-width="0" stroke-linecap="butt"/><path d="M207.95583,180.50262v-10.00652h13.57394v10.00652z" data-paper-data="{&quot;index&quot;:null}" fill="#00ffae" stroke="#000000" stroke-width="0" stroke-linecap="butt"/><path d="M215.62844,179.344c-2.13025,0 -7.42734,0 -7.42734,0v-8.02848h11.6617v8.02848c0,0 -2.62589,0 -4.23436,0z" data-paper-data="{&quot;index&quot;:null}" fill="#00ff6c" stroke="none" stroke-width="0" stroke-linecap="butt"/><path d="M207.89858,195.52138v-31.04276l32.47957,15.5l31.72329,15.54276z" data-paper-data="{&quot;index&quot;:null}" fill="#00e6ff" stroke="#00ffff" stroke-width="0" stroke-linecap="butt"/><path d="M237.9814,190.70985v-9.97883l11.15401,6.02381l10.8668,4.28835z" data-paper-data="{&quot;index&quot;:null}" fill="#00ffae" stroke="#000000" stroke-width="0" stroke-linecap="butt"/><path d="M208.0445,190.71687v-9.97883h13.53638v9.97883z" data-paper-data="{&quot;index&quot;:null}" fill="#00ffae" stroke="#000000" stroke-width="0" stroke-linecap="butt"/><path d="M215.05863,174.71136l0.1462,-8.26455l7.91269,4.67857l8.11357,3.58598z" data-paper-data="{&quot;index&quot;:null}" fill="#00ffae" stroke="#000000" stroke-width="0" stroke-linecap="butt"/><path d="M238.7737,190.30839c0,0 0.29417,-1.33318 0.1876,-2.21159c-0.18694,-1.54094 -0.62616,-6.3661 -0.62616,-6.3661l9.09472,4.85714l8.86886,3.8158z" data-paper-data="{&quot;index&quot;:null}" fill="#00ff6c" stroke="none" stroke-width="0" stroke-linecap="butt"/><path d="M208.28908,189.67257v-8.00627h11.62945v8.00627z" data-paper-data="{&quot;index&quot;:null}" fill="#00ff6c" stroke="none" stroke-width="0" stroke-linecap="butt"/><path d="M210.43646,165.55525l59.12709,28.8895" data-paper-data="{&quot;index&quot;:null}" fill="none" stroke="#0c0c0c" stroke-width="2.5" stroke-linecap="round"/></g></g></svg>