<svg version="1.1" xmlns="http://www.w3.org/2000/svg" xmlns:xlink="http://www.w3.org/1999/xlink" width="2381.52652" height="420.91592" viewBox="0,0,2381.52652,420.91592"><g transform="translate(950.76326,30.45796)"><g data-paper-data="{&quot;isPaintingLayer&quot;:true}" fill-rule="nonzero" stroke="none" stroke-width="0" stroke-linecap="butt" stroke-linejoin="miter" stroke-miterlimit="10" stroke-dasharray="" stroke-dashoffset="0" style="mix-blend-mode: normal"><g><g fill="#fee700"><path d="M238.57108,389.96246v-420.42042h85.58559v420.42042z"/><path d="M396.22873,389.96246v-420.42042h85.58559v420.42042z"/><path d="M80.91341,389.96246v-420.42042h85.58559v420.42042z"/><path d="M-76.74425,389.96246v-420.42042h85.58559v420.42042z"/><path d="M553.88637,389.96246v-420.42042h85.58559v420.42042z"/></g><g fill="#ffb800"><path d="M157.98549,390.45796v-420.42042h85.58559v420.42042z"/><path d="M315.64314,390.45796v-420.42042h85.58559v420.42042z"/><path d="M0.32783,390.45796v-420.42042h85.58559v420.42042z"/><path d="M-157.32984,390.45796v-420.42042h85.58559v420.42042z"/><path d="M473.30079,390.45796v-420.42042h85.58559v420.42042z"/></g></g><g><g fill="#fee700"><path d="M1029.86238,389.96246v-420.42042h85.58559v420.42042z"/><path d="M1187.52003,389.96246v-420.42042h85.58559v420.42042z"/><path d="M872.20471,389.96246v-420.42042h85.58559v420.42042z"/><path d="M714.54705,389.96246v-420.42042h85.58559v420.42042z"/><path d="M1345.17767,389.96246v-420.42042h85.58559v420.42042z"/></g><g fill="#ffb800"><path d="M949.27679,390.45796v-420.42042h85.58559v420.42042z"/><path d="M1106.93444,390.45796v-420.42042h85.58559v420.42042z"/><path d="M791.61913,390.45796v-420.42042h85.58559v420.42042z"/><path d="M633.96146,390.45796v-420.42042h85.58559v420.42042z"/><path d="M1264.59209,390.45796v-420.42042h85.58559v420.42042z"/></g></g><g><g fill="#fee700"><path d="M-554.86234,389.96246v-420.42042h85.58559v420.42042z"/><path d="M-397.20469,389.96246v-420.42042h85.58559v420.42042z"/><path d="M-712.52001,389.96246v-420.42042h85.58559v420.42042z"/><path d="M-870.17767,389.96246v-420.42042h85.58559v420.42042z"/><path d="M-239.54705,389.96246v-420.42042h85.58559v420.42042z"/></g><g fill="#ffb800"><path d="M-635.44793,390.45796v-420.42042h85.58559v420.42042z"/><path d="M-477.79028,390.45796v-420.42042h85.58559v420.42042z"/><path d="M-793.10559,390.45796v-420.42042h85.58559v420.42042z"/><path d="M-950.76326,390.45796v-420.42042h85.58559v420.42042z"/><path d="M-320.13263,390.45796v-420.42042h85.58559v420.42042z"/></g></g></g></g></svg>