<svg version="1.1" xmlns="http://www.w3.org/2000/svg" xmlns:xlink="http://www.w3.org/1999/xlink" width="90.725" height="90.725" viewBox="0,0,90.725,90.725"><defs><radialGradient cx="240" cy="180" r="45.3625" gradientUnits="userSpaceOnUse" id="color-1"><stop offset="0" stop-color="#ff4d4d"/><stop offset="1" stop-color="#ff4d4d" stop-opacity="0"/></radialGradient></defs><g transform="translate(-194.6375,-134.6375)"><g data-paper-data="{&quot;isPaintingLayer&quot;:true}" fill-rule="nonzero" stroke-linecap="butt" stroke-linejoin="miter" stroke-miterlimit="10" stroke-dasharray="" stroke-dashoffset="0" style="mix-blend-mode: normal"><path d="M194.6375,180c0,-25.053 20.3095,-45.3625 45.3625,-45.3625c25.053,0 45.3625,20.3095 45.3625,45.3625c0,25.053 -20.3095,45.3625 -45.3625,45.3625c-25.053,0 -45.3625,-20.3095 -45.3625,-45.3625z" fill="url(#color-1)" stroke="none" stroke-width="NaN"/><path d="M254.94525,180c0,21.49516 -7.87718,38.92043 -17.59417,38.92043c-9.717,0 -17.59418,-17.42528 -17.59418,-38.92043c0,-21.49516 7.8772,-38.92043 17.59418,-38.92043c9.717,0 17.59417,17.42528 17.59417,38.92043z" fill="none" stroke="#000000" stroke-width="10"/><path d="M254.94525,180c0,21.49516 -7.87718,38.92043 -17.59417,38.92043c-9.717,0 -17.59418,-17.42528 -17.59418,-38.92043c0,-21.49516 7.8772,-38.92043 17.59418,-38.92043c9.717,0 17.59417,17.42528 17.59417,38.92043z" fill="none" stroke="#000000" stroke-width="10"/><path d="M255.23968,180c0,21.49516 -7.87718,38.92043 -17.59417,38.92043c-9.717,0 -17.59417,-17.42528 -17.59417,-38.92043c0,-21.49516 7.87718,-38.92043 17.59417,-38.92043c9.717,0 17.59417,17.42528 17.59417,38.92043z" fill="none" stroke="#ff009d" stroke-width="5"/><path d="M255.23968,180c0,21.49516 -7.87718,38.92043 -17.59417,38.92043c-9.717,0 -17.59417,-17.42528 -17.59417,-38.92043c0,-21.49516 7.87718,-38.92043 17.59417,-38.92043c9.717,0 17.59417,17.42528 17.59417,38.92043z" fill="none" stroke="#ff4d4d" stroke-width="5"/><path d="M244.66239,180c0,-5.14993 4.17485,-9.32478 9.32478,-9.32478c5.14993,0 9.32478,4.17485 9.32478,9.32478c0,5.14993 -4.17485,9.32478 -9.32478,9.32478c-5.14993,0 -9.32478,-4.17485 -9.32478,-9.32478z" fill="#000000" stroke="none" stroke-width="0"/></g></g></svg>