<svg version="1.1" xmlns="http://www.w3.org/2000/svg" xmlns:xlink="http://www.w3.org/1999/xlink" width="33.20834" height="31.33318" viewBox="0,0,33.20834,31.33318"><defs><radialGradient cx="240.00002" cy="180.00002" r="16.60417" gradientUnits="userSpaceOnUse" id="color-1"><stop offset="0" stop-color="#ffbf00"/><stop offset="1" stop-color="#ffbf00" stop-opacity="0"/></radialGradient></defs><g transform="translate(-223.39584,-164.33342)"><g data-paper-data="{&quot;isPaintingLayer&quot;:true}" stroke-linecap="butt" stroke-linejoin="miter" stroke-miterlimit="10" stroke-dasharray="" stroke-dashoffset="0" style="mix-blend-mode: normal"><path d="M256.60418,180.00002c0,8.65242 -7.43394,15.66659 -16.60417,15.66659c-9.17023,0 -16.60417,-7.01417 -16.60417,-15.66659c0,-8.65242 7.43394,-15.66659 16.60417,-15.66659c9.17023,0 16.60417,7.01417 16.60417,15.66659z" fill="url(#color-1)" fill-rule="nonzero" stroke="#000000" stroke-width="0"/><path d="M227.34383,189.02361c-3.49596,0 -1.37968,-14.5515 7.53649,-14.3356c9.08204,0.22013 12.37942,14.3356 12.37942,14.3356z" fill="#efab00" fill-rule="evenodd" stroke="none" stroke-width="1"/><path d="M253.84538,183.18284c0,0 -18.1456,4.83177 -21.40257,5.31168c-4.36149,0.6427 -5.80698,-0.75969 -6.33345,-3.03068c-0.87091,-3.75651 2.16439,-3.88043 3.09457,-5.93282c0.92979,-2.05278 -1.25768,-5.39211 3.09457,-5.56452c3.64028,-0.14432 3.6957,-2.9414 5.48524,-3.14691c2.77553,-0.31865 3.38166,2.3164 5.43521,3.05069c1.93964,0.6935 2.96025,-1.08104 5.13118,-0.20859c1.85997,0.74776 1.94387,4.72209 4.39381,5.54836c3.9928,1.34697 1.10144,3.97279 1.10144,3.97279" fill="#59c059" fill-rule="evenodd" stroke="none" stroke-width="1"/><path d="M230.26776,182.03168c-0.39601,-0.12007 -0.6223,-0.54302 -0.50184,-0.93903l0.2413,-0.79587c0.12007,-0.39601 0.54264,-0.62192 0.93903,-0.50184l2.11898,0.64231c0.39639,0.12046 0.6223,0.54302 0.50184,0.93941l-0.2413,0.79548c-0.12007,0.39639 -0.54264,0.62192 -0.93903,0.50184l-2.11898,-0.64231" fill="#e8511c" fill-rule="evenodd" stroke="none" stroke-width="1"/><path d="M228.8479,181.4698c0.43873,0.11161 1.06603,0.58882 1.57788,0.71582c-1.32388,3.429 -1.56248,6.7156 -3.20194,6.83106h-0.0077c-1.25845,-0.10391 -2.61697,-1.28155 -1.83188,-2.49382c0.46567,-0.71967 -0.25785,-1.61251 -0.06158,-2.43994c0.28094,-1.19303 1.50091,-1.45088 1.92424,-1.57018c0.46182,-0.127 0.95058,-1.20842 1.60097,-1.04294" fill="#c18500" fill-rule="evenodd" stroke="none" stroke-width="1"/><path d="M232.14597,180.16116c-0.3887,0.70427 -0.70812,1.42779 -0.97751,2.14361l-0.36176,-0.11161l-0.34636,-0.10352c0.28094,-0.7162 0.61191,-1.43587 1.01215,-2.13206z" fill="#c6431a" fill-rule="evenodd" stroke="none" stroke-width="1"/><path d="M231.16846,182.30492c-1.27385,3.35588 -1.5317,6.54242 -3.11342,6.70791c-0.18473,0 -0.27709,0 -0.58497,0.01155h-0.07697c-0.05773,0 -0.11161,-0.00385 -0.16933,-0.0077c1.63945,-0.11545 1.87806,-3.40206 3.20194,-6.83106c0.13855,0.03464 0.26555,0.04233 0.381,0.0077z" fill="#a06b00" fill-rule="evenodd" stroke="none" stroke-width="1"/><path d="M231.86522,177.62886c-0.3733,0.17895 -0.8255,0.01963 -1.00407,-0.35406l-0.06927,-0.14393c-0.17857,-0.37369 -0.01924,-0.82511 0.35406,-1.00407l1.03332,-0.49453c0.37369,-0.17895 0.8255,-0.01963 1.00407,0.35368l0.06927,0.14432c0.17857,0.3733 0.01924,0.8255 -0.35406,1.00407l-1.03332,0.49453" fill="#e8511c" fill-rule="evenodd" stroke="none" stroke-width="1"/><path d="M242.35215,174.45405c-0.28094,0.00385 -0.56958,0.01924 -0.86591,0.04233c-5.16467,0.39639 -7.80088,2.87097 -9.34027,5.66497l-0.67348,-0.20397c1.55479,-2.71318 4.18715,-5.0723 9.22482,-5.461c0.57727,-0.04618 1.12761,-0.05773 1.65485,-0.04233" fill="#4ba04b" fill-rule="evenodd" stroke="none" stroke-width="1"/><path d="M251.26566,180.26376c-0.20705,-0.35868 -0.08313,-0.82165 0.27594,-1.0287l0.36638,-0.21167c0.35868,-0.20705 0.82165,-0.08274 1.0287,0.27555l0.7824,1.35544c0.20705,0.35868 0.08313,0.82127 -0.27594,1.0287l-0.36638,0.21128c-0.35868,0.20705 -0.82165,0.08313 -1.0287,-0.27555l-0.7824,-1.35505" fill="#e8511c" fill-rule="evenodd" stroke="none" stroke-width="1"/><path d="M242.38975,175.0702c-0.39062,0.13778 -0.82281,-0.0685 -0.96058,-0.45912l-0.14085,-0.39909c-0.13816,-0.39062 0.06812,-0.82281 0.45874,-0.96097l1.47551,-0.52147c0.39062,-0.13778 0.82281,0.06889 0.96058,0.45912l0.14124,0.39909c0.13816,0.39062 -0.0685,0.82319 -0.45912,0.96097l-1.47551,0.52147" fill="#e8511c" fill-rule="evenodd" stroke="none" stroke-width="1"/><path d="M227.92103,189.02361c3.46364,0 0.85552,-13.55244 13.56591,-14.52803c10.11843,-0.77662 12.62303,7.8078 13.14912,12.31592c0.13739,1.17648 -0.7697,2.21211 -1.95349,2.21211z" fill="#ffbf00" fill-rule="evenodd" stroke="none" stroke-width="1"/><path d="M237.15219,174.10827c-0.11161,0 -0.22244,-0.04849 -0.29864,-0.14201c-0.13431,-0.16472 -0.1093,-0.40717 0.05542,-0.5411l2.02045,-1.64561c0.1651,-0.13354 0.40755,-0.1093 0.54148,0.05542c0.13431,0.16472 0.1093,0.40717 -0.05542,0.54148l-2.02045,1.64523c-0.07158,0.05811 -0.1574,0.08659 -0.24284,0.08659" fill="#ffbf00" fill-rule="evenodd" stroke="none" stroke-width="1"/><path d="M250.27198,175.31281c-0.02386,0 -0.04772,-0.00192 -0.07197,-0.00693l-2.5604,-0.48452c-0.20897,-0.03925 -0.34598,-0.24092 -0.30672,-0.4495c0.03964,-0.20897 0.2413,-0.34829 0.4495,-0.30672l2.56078,0.48491c0.20897,0.03925 0.34598,0.24092 0.30634,0.4495c-0.03464,0.18473 -0.19627,0.31327 -0.37754,0.31327" fill="#ffbf00" fill-rule="evenodd" stroke="none" stroke-width="1"/><path d="M228.40047,183.21328c-0.08544,0 -0.17164,-0.02809 -0.24322,-0.08698l-2.0193,-1.64715c-0.16472,-0.13393 -0.18935,-0.37638 -0.05465,-0.5411c0.13431,-0.16433 0.37638,-0.18973 0.54148,-0.05503l2.0193,1.64754c0.16472,0.13393 0.18935,0.37638 0.05465,0.5411c-0.07582,0.09313 -0.18665,0.14162 -0.29826,0.14162" fill="#ffbf00" fill-rule="evenodd" stroke="none" stroke-width="1"/><path d="M250.11339,182.114c-0.62769,0 -0.62884,-0.97559 0,-0.97559c0.62807,0 0.62884,0.97559 0,0.97559" fill="#efab00" fill-rule="evenodd" stroke="none" stroke-width="1"/><path d="M245.11713,182.98664c-0.62769,0 -0.62884,-0.97559 0,-0.97559c0.62807,0 0.62884,0.97559 0,0.97559" fill="#efab00" fill-rule="evenodd" stroke="none" stroke-width="1"/><path d="M244.51315,187.0035c-0.62769,0 -0.62884,-0.97559 0,-0.97559c0.62807,0 0.62923,0.97559 0,0.97559" fill="#efab00" fill-rule="evenodd" stroke="none" stroke-width="1"/><path d="M236.24984,187.49133c-0.62769,0 -0.62884,-0.97559 0,-0.97559c0.62769,0 0.62884,0.97559 0,0.97559" fill="#efab00" fill-rule="evenodd" stroke="none" stroke-width="1"/><path d="M237.21666,179.00889c-0.62769,0 -0.62884,-0.97559 0,-0.97559c0.62769,0 0.62884,0.97559 0,0.97559" fill="#efab00" fill-rule="evenodd" stroke="none" stroke-width="1"/><path d="M242.3886,176.79828c-0.62769,0 -0.62884,-0.97598 0,-0.97598c0.62769,0 0.62884,0.97598 0,0.97598" fill="#efab00" fill-rule="evenodd" stroke="none" stroke-width="1"/><path d="M239.85325,183.57746c-0.62769,0 -0.62884,-0.97559 0,-0.97559c0.62769,0 0.62884,0.97559 0,0.97559" fill="#efab00" fill-rule="evenodd" stroke="none" stroke-width="1"/><path d="M234.45279,183.96231c-0.62769,0 -0.62884,-0.97559 0,-0.97559c0.62769,0 0.62884,0.97559 0,0.97559" fill="#efab00" fill-rule="evenodd" stroke="none" stroke-width="1"/><path d="M251.06612,186.07636c-0.62769,0 -0.62884,-0.97559 0,-0.97559c0.62769,0 0.62884,0.97559 0,0.97559" fill="#efab00" fill-rule="evenodd" stroke="none" stroke-width="1"/><path d="M247.25974,178.52106c-0.62807,0 -0.62923,-0.97559 0,-0.97559c0.62769,0 0.62884,0.97559 0,0.97559" fill="#efab00" fill-rule="evenodd" stroke="none" stroke-width="1"/><path d="M230.46037,182.08956l0.34636,0.10391c-0.11545,0.03425 -0.24245,0.02694 -0.381,-0.0077c0.01155,-0.03079 0.02309,-0.06158 0.03464,-0.09621" fill="#4ba04b" fill-rule="evenodd" stroke="none" stroke-width="1"/></g></g></svg>