<svg version="1.1" xmlns="http://www.w3.org/2000/svg" xmlns:xlink="http://www.w3.org/1999/xlink" width="52.225" height="52.225" viewBox="0,0,52.225,52.225"><defs><radialGradient cx="239.8" cy="188.8" r="26.1125" gradientUnits="userSpaceOnUse" id="color-1"><stop offset="0" stop-color="#ff4c4c"/><stop offset="1" stop-color="#ff4c4c" stop-opacity="0"/></radialGradient></defs><g transform="translate(-213.6875,-162.6875)"><g data-paper-data="{&quot;isPaintingLayer&quot;:true}" fill-rule="nonzero" stroke-linejoin="miter" stroke-miterlimit="10" stroke-dasharray="" stroke-dashoffset="0" style="mix-blend-mode: normal"><path d="M213.6875,188.8c0,-14.42153 11.69097,-26.1125 26.1125,-26.1125c14.42153,0 26.1125,11.69097 26.1125,26.1125c0,14.42153 -11.69097,26.1125 -26.1125,26.1125c-14.42153,0 -26.1125,-11.69097 -26.1125,-26.1125z" fill="url(#color-1)" stroke="none" stroke-width="NaN" stroke-linecap="butt"/><path d="" fill="#ff0000" stroke="#ff0000" stroke-width="2.5" stroke-linecap="butt"/><path d="" fill="#ff0000" stroke="#ff0000" stroke-width="2.5" stroke-linecap="butt"/><path d="M226.25732,192.86908c0.05071,-2.54401 1.76038,-6.6136 3.79784,-8.6799c2.69231,-2.73041 6.84182,-3.74922 10.21954,-3.74922c5.97546,0 13.48391,5.14028 13.69695,13.60067c-1.83596,-0.05989 -6.73373,0.11773 -8.57351,0.11773c0,0 -0.38317,0 -0.7618,0.19386c-0.13586,-0.00884 -0.27392,-0.25954 -0.41408,-0.26879c-5.01228,-0.33045 -13.10235,-0.50483 -18.01393,-0.49038c-0.14474,0.00043 0.19381,-0.72422 0.04899,-0.72397z" fill="#ff4c4c" stroke="#e2ff00" stroke-width="0" stroke-linecap="butt"/><path d="M225.47619,193.74299c0.33294,-7.75198 6.72289,-13.93447 14.55685,-13.93447c8.04626,0 14.56919,6.52213 14.57048,14.56809" fill="none" stroke="#000000" stroke-width="2.5" stroke-linecap="butt"/><path d="M225.3965,194.28871l29.15206,0.40277" fill="none" stroke="#000000" stroke-width="2.5" stroke-linecap="round"/></g></g></svg>