<svg version="1.1" xmlns="http://www.w3.org/2000/svg" xmlns:xlink="http://www.w3.org/1999/xlink" width="31.94265" height="31.94265" viewBox="0,0,31.94265,31.94265"><g transform="translate(-224.02867,-164.02867)"><g data-paper-data="{&quot;isPaintingLayer&quot;:true}" fill-rule="nonzero" stroke="none" stroke-width="0" stroke-linecap="butt" stroke-linejoin="miter" stroke-miterlimit="10" stroke-dasharray="" stroke-dashoffset="0" style="mix-blend-mode: normal"><path d="M224.02868,195.97133v-31.94265h31.94265v31.94265z" fill="#2c2c2c"/><path d="M235.85625,173.36909c0,2.14777 -1.69137,3.88889 -3.77778,3.88889c-2.08641,0 -3.77777,-1.74112 -3.77777,-3.88889c0,-2.14777 1.69136,-3.88889 3.77777,-3.88889c2.08641,0 3.77778,1.74111 3.77778,3.88889z" fill="#ccaf00"/><path d="M252.74514,176.59131c0,2.14777 -1.69137,3.88889 -3.77778,3.88889c-2.08641,0 -3.77777,-1.74112 -3.77777,-3.88889c0,-2.14777 1.69136,-3.88889 3.77777,-3.88889c2.08641,0 3.77778,1.74112 3.77778,3.88889z" fill="#ccaf00"/><path d="M242.18959,187.81353c0,2.14777 -1.69137,3.88889 -3.77778,3.88889c-2.08641,0 -3.77777,-1.74112 -3.77777,-3.88889c0,-2.14777 1.69136,-3.88889 3.77777,-3.88889c2.08641,0 3.77778,1.74112 3.77778,3.88889z" fill="#ccaf00"/></g></g></svg>