<svg version="1.1" xmlns="http://www.w3.org/2000/svg" xmlns:xlink="http://www.w3.org/1999/xlink" width="113.6" height="54.8" viewBox="0,0,113.6,54.8"><g transform="translate(-183.2,-152.6)"><g data-paper-data="{&quot;isPaintingLayer&quot;:true}" fill-rule="nonzero" stroke-linecap="butt" stroke-linejoin="miter" stroke-miterlimit="10" stroke-dasharray="" stroke-dashoffset="0" style="mix-blend-mode: normal"><path d="M185.7,204.9v-49.8h108.6v49.8z" fill="#808080" stroke="#000000" stroke-width="5"/><text transform="translate(189.35167,187.2478) scale(0.60398,0.60398)" font-size="40" xml:space="preserve" fill="#000000" fill-rule="nonzero" stroke="none" stroke-width="1" stroke-linecap="butt" stroke-linejoin="miter" stroke-miterlimit="10" stroke-dasharray="" stroke-dashoffset="0" font-family="Handwriting" font-weight="normal" text-anchor="start" style="mix-blend-mode: normal"><tspan x="0" dy="0">-300</tspan></text><g><path d="M248.58501,178.198c0,-9.88959 8.01707,-17.90666 17.90666,-17.90666c9.88959,0 17.90666,8.01708 17.90666,17.90666c0,9.88959 -8.01707,17.90666 -17.90666,17.90666c-9.88959,0 -17.90666,-8.01707 -17.90666,-17.90666z" fill="#fde800" stroke="#ffe900" stroke-width="2.5"/><path d="M279.86034,178.198c0,7.38332 -5.98536,13.36867 -13.36867,13.36867c-7.38331,0 -13.36867,-5.98535 -13.36867,-13.36867c0,-7.38332 5.98536,-13.36867 13.36867,-13.36867c7.38331,0 13.36867,5.98535 13.36867,13.36867z" fill="#fdf500" stroke="#fcf400" stroke-width="2.5"/><text transform="translate(261.83347,182.61334) scale(0.36795,0.36795)" font-size="40" xml:space="preserve" fill="#fd9800" fill-rule="nonzero" stroke="none" stroke-width="1" stroke-linecap="butt" stroke-linejoin="miter" stroke-miterlimit="10" stroke-dasharray="" stroke-dashoffset="0" font-family="Sans Serif" font-weight="normal" text-anchor="start" style="mix-blend-mode: normal"><tspan x="0" dy="0">C</tspan></text></g><path d="" fill="#9966ff" stroke="none" stroke-width="0.5"/></g></g></svg>