<svg version="1.1" xmlns="http://www.w3.org/2000/svg" xmlns:xlink="http://www.w3.org/1999/xlink" width="52.225" height="52.225" viewBox="0,0,52.225,52.225"><defs><radialGradient cx="240" cy="180" r="26.1125" gradientUnits="userSpaceOnUse" id="color-1"><stop offset="0" stop-color="#ff66c2"/><stop offset="1" stop-color="#ff66c2" stop-opacity="0"/></radialGradient></defs><g transform="translate(-213.8875,-153.8875)"><g data-paper-data="{&quot;isPaintingLayer&quot;:true}" fill-rule="nonzero" stroke-linejoin="miter" stroke-miterlimit="10" stroke-dasharray="" stroke-dashoffset="0" style="mix-blend-mode: normal"><path d="M213.8875,180c0,-14.42154 11.69097,-26.1125 26.1125,-26.1125c14.42154,0 26.1125,11.69097 26.1125,26.1125c0,14.42154 -11.69096,26.1125 -26.1125,26.1125c-14.42154,0 -26.1125,-11.69097 -26.1125,-26.1125z" fill="url(#color-1)" stroke="none" stroke-width="NaN" stroke-linecap="butt"/><path d="M255.01534,166.93733v16.968c0,0.33667 -0.13466,0.67333 -0.404,0.808c-2.15466,1.88533 -4.84801,2.828 -7.60867,2.828c-2.76066,0 -5.454,-1.01 -7.60867,-2.828c-1.75066,-1.48134 -3.90533,-2.35667 -6.19467,-2.35667c-2.08733,0 -4.10734,0.67334 -5.79067,2.02v11.24467c0,0.67334 -0.53866,1.212 -1.212,1.212c-0.67334,0 -1.212,-0.53867 -1.212,-1.212v-28.684c0,-0.53867 0.33667,-0.87533 0.67333,-1.07733c2.15466,-1.75066 4.71333,-2.69334 7.40667,-2.69334c2.76066,0 5.52134,1.01 7.676,2.828c1.75066,1.48134 3.90533,2.28933 6.19467,2.28933c2.28933,0 4.444,-0.808 6.19467,-2.28933c0.404,-0.26934 0.87534,-0.33666 1.27934,-0.13466c0.404,0.202 0.606,0.606 0.606,1.07733z" fill="#ff66bf" stroke="#983d72" stroke-width="2.5" stroke-linecap="butt"/><g><path d="M238.79568,174.56576v4.19882" fill="none" stroke="#000000" stroke-width="1.25" stroke-linecap="round"/><path d="M238.97293,175.82799c-0.46241,0 -0.46241,-0.46241 -0.46241,-0.46241l0.0659,-0.21849c-0.11054,-0.20268 -0.29308,-0.38042 -0.33161,-0.60804c-0.04257,-0.25146 0.06685,-0.50568 0.10027,-0.75852c0.38684,-0.96804 1.12647,-1.91624 2.03806,-2.46561c0.37947,-0.22869 1.33012,-0.296 1.55595,-0.72485c0.12277,-0.23314 0.00916,-0.38826 -0.09653,-0.59141c-0.43444,-0.83506 -0.95324,-1.1095 -1.86556,-1.10783c-0.42597,0.00078 -0.85195,0 -1.2779,0c0,0 -0.46241,0 -0.46241,-0.46241c0,-0.46241 0.46241,-0.46241 0.46241,-0.46241c1.25338,0 2.64156,-0.20638 3.54615,0.89207c0.18108,0.21991 0.30534,0.48238 0.43012,0.73846c0.24357,0.49984 0.36101,0.85621 0.08602,1.41672c-0.37632,0.76706 -1.27895,0.72279 -1.91264,1.10072c-0.68737,0.40995 -1.32019,1.18455 -1.61308,1.91575c-0.05184,0.21221 0.00742,0.46336 0.13377,0.64156l0.0659,0.6943c0,0 0,0.46241 -0.46241,0.46241z" fill="#000000" stroke="none" stroke-width="0.5" stroke-linecap="butt"/><path d="M238.12681,181.55154c0,-0.38308 0.31054,-0.69362 0.69362,-0.69362c0.38308,0 0.69362,0.31054 0.69362,0.69362c0,0.38308 -0.31054,0.69362 -0.69362,0.69362c-0.38308,0 -0.69362,-0.31054 -0.69362,-0.69362z" fill="#000000" stroke="none" stroke-width="0.5" stroke-linecap="butt"/></g></g></g></svg>