<svg version="1.1" xmlns="http://www.w3.org/2000/svg" xmlns:xlink="http://www.w3.org/1999/xlink" width="113.6" height="54.8" viewBox="0,0,113.6,54.8"><g transform="translate(-183.2,-152.6)"><g data-paper-data="{&quot;isPaintingLayer&quot;:true}" fill-rule="nonzero" stroke-linejoin="miter" stroke-miterlimit="10" stroke-dasharray="" stroke-dashoffset="0" style="mix-blend-mode: normal"><path d="M185.7,204.9v-49.8h108.6v49.8z" fill="#808080" stroke="#000000" stroke-width="5" stroke-linecap="butt"/><text transform="translate(209.32875,188.65312) scale(0.74192,0.74192)" font-size="40" xml:space="preserve" fill="#000000" fill-rule="nonzero" stroke="none" stroke-width="1" stroke-linecap="butt" stroke-linejoin="miter" stroke-miterlimit="10" stroke-dasharray="" stroke-dashoffset="0" font-family="Handwriting" font-weight="normal" text-anchor="start" style="mix-blend-mode: normal"><tspan x="0" dy="0">+10</tspan></text><path d="" fill="#9966ff" stroke="none" stroke-width="0.5" stroke-linecap="butt"/><g><path d="M265.25,162.15012c4.90392,0 8.87933,3.97541 8.87933,8.87933c0,4.90392 -3.97541,8.87933 -8.87933,8.87933c-4.90392,0 -8.87933,-3.97541 -8.87933,-8.87933c0,-4.90392 3.97541,-8.87933 8.87933,-8.87933z" fill="#ffea00" stroke="#ff874c" stroke-width="2.5" stroke-linecap="butt"/><path d="M265.25,177.65853c-3.66114,0 -6.62909,-2.96794 -6.62909,-6.62909c0,-3.66114 2.96794,-6.62909 6.62909,-6.62909c3.66114,0 6.62909,2.96794 6.62909,6.62909c0,3.66114 -2.96794,6.62909 -6.62909,6.62909z" fill="#ff0000" stroke="#ff0000" stroke-width="2.5" stroke-linecap="butt"/><path d="M265.28649,179.23978v18.6101" fill="none" stroke="#ff874c" stroke-width="5" stroke-linecap="round"/><path d="M258.83681,190.05006h6.20336" fill="none" stroke="#ff874c" stroke-width="5" stroke-linecap="round"/><path d="M258.92804,195.15871h6.20336" fill="none" stroke="#ff874c" stroke-width="5" stroke-linecap="round"/></g></g></g></svg>