<svg version="1.1" xmlns="http://www.w3.org/2000/svg" xmlns:xlink="http://www.w3.org/1999/xlink" width="484" height="368" viewBox="0,0,484,368"><defs><linearGradient x1="240" y1="-4" x2="240" y2="364" gradientUnits="userSpaceOnUse" id="color-1"><stop offset="0" stop-color="#993d3d"/><stop offset="1" stop-color="#995c3d"/></linearGradient></defs><g transform="translate(2,4)"><g data-paper-data="{&quot;isPaintingLayer&quot;:true}" fill-rule="nonzero" stroke-miterlimit="10" stroke-dasharray="" stroke-dashoffset="0" style="mix-blend-mode: normal"><path d="M-2,364v-368h484v368z" fill="url(#color-1)" stroke="#000000" stroke-width="0" stroke-linecap="butt" stroke-linejoin="miter"/><text transform="translate(141.08979,52.1008) scale(1.2584,1.2584)" font-size="40" xml:space="preserve" fill="#000000" fill-rule="nonzero" stroke="none" stroke-width="1" stroke-linecap="butt" stroke-linejoin="miter" stroke-miterlimit="10" stroke-dasharray="" stroke-dashoffset="0" font-family="Handwriting" font-weight="normal" text-anchor="start" style="mix-blend-mode: normal"><tspan x="0" dy="0">The Cage</tspan></text><path d="M147.5,143.12606v-36h185v36z" fill="#ffffff" stroke="#000000" stroke-width="5" stroke-linecap="butt" stroke-linejoin="miter"/><path d="M429.75,360.45v-52.5h30v52.5z" fill="#000000" stroke="none" stroke-width="NaN" stroke-linecap="butt" stroke-linejoin="miter"/><path d="M429.6,310.75674c0,-9.1127 6.80527,-16.5 15.2,-16.5c8.39473,0 15.2,7.3873 15.2,16.5c0,9.1127 -6.80527,16.5 -15.2,16.5c-8.39473,0 -15.2,-7.3873 -15.2,-16.5z" fill="#000000" stroke="none" stroke-width="0" stroke-linecap="butt" stroke-linejoin="miter"/><g><g><path d="M226.27285,240.55676c-8.73469,-3.30446 -25.91771,-10.59588 -20.99889,-18.72539c4.91775,-8.12831 26.1063,11.608 31.42314,13.51207c0,0 6.90194,-5.0059 7.39734,0.00708c0.49645,5.01312 -6.07962,4.21482 -6.07962,4.21482c0,0 7.54958,0.49592 4.92991,5.23322c-2.61955,4.73744 -5.92415,0.9575 -6.76251,-0.56324c0,0 2.5394,4.73156 -0.98128,6.00936c-3.52176,1.27673 -5.52946,-3.44295 -2.83994,-6.24228c0,0 -1.8326,-1.83595 -6.08815,-3.44563v0v0v0v0z" fill="#ffe154" stroke="#000000" stroke-width="1.52832" stroke-linecap="butt" stroke-linejoin="round"/><path d="M226.74445,179.02302v0v0v0v0c3.2867,-1.8708 6.04608,-3.51748 6.04716,-3.51643c-2.72387,-2.76727 -0.77105,-7.5094 2.76527,-6.27407c3.53632,1.23531 1.05273,5.99612 1.05273,5.99612c0.81967,-1.52968 4.07964,-5.34915 6.75384,-0.64217c2.67725,4.70725 -4.86688,5.28999 -4.86688,5.28999c0,0 6.56457,-0.87711 6.12824,4.14177c-0.43528,5.01886 -7.39612,0.09497 -7.39612,0.09497c-5.2932,1.9679 -25.50955,20.14582 -30.52265,12.07708c-5.01298,-8.06955 12.12596,-12.66728 20.03845,-17.16726z" fill="#ffe154" stroke="#000000" stroke-width="1.52832" stroke-linecap="butt" stroke-linejoin="round"/><path d="M284.62756,168.14974v0v0v0v0c3.28562,-1.87094 6.04608,-3.51748 6.04501,-3.51643c-2.72279,-2.7674 -0.77091,-7.5094 2.76541,-6.27407c3.53632,1.23531 1.05273,5.99612 1.05273,5.99612c0.81953,-1.52968 4.08072,-5.34915 6.75489,-0.64217c2.67725,4.70725 -4.867,5.28999 -4.867,5.28999c0,0 6.56457,-0.87711 6.12824,4.14177c-0.43528,5.01873 -7.39507,0.09509 -7.39507,0.09509c-5.29427,1.96778 -25.50955,20.14663 -30.52265,12.07708c-5.01391,-8.06967 12.12596,-12.66728 20.03845,-17.16738z" fill="#ffe154" stroke="#000000" stroke-width="1.52832" stroke-linecap="butt" stroke-linejoin="round"/><path d="M290.56826,235.06763v0v0v0v0c3.47114,1.50044 6.44651,2.71557 6.44663,2.71464c0.57258,-3.84018 5.53615,-5.13306 6.67622,-1.56441c1.13914,3.5677 -4.15699,4.44761 -4.15699,4.44761c1.71466,-0.26633 6.72699,0.04207 4.57571,5.00951c-2.15128,4.9705 -7.15439,-0.70668 -7.15439,-0.70668c0,0 4.6501,4.71822 0.37825,7.38732c-4.27292,2.67111 -4.52468,-5.85122 -4.52468,-5.85122c-4.75695,-3.04522 -31.43916,-8.26188 -28.00756,-17.12039c3.43055,-8.85863 17.41249,2.06982 25.76678,5.68361z" fill="#ffe154" stroke="#000000" stroke-width="1.52832" stroke-linecap="butt" stroke-linejoin="round"/><path d="M286.92643,184.27869v0v0v0v0c3.83777,2.63772 7.97793,11.48447 7.63948,20.46464c0.06117,9.54167 -6.74875,20.74658 -12.08203,23.50652c-11.2542,5.82438 -23.54685,1.86198 -32.08094,2.47692c-6.55962,0.47281 -10.98254,7.667 -22.66615,7.08253c-19.23962,-0.96099 -33.31665,-11.64581 -33.43592,-29.53618c-0.11928,-17.8913 15.50335,-25.64284 30.65154,-26.79909c10.27173,-0.78535 19.34365,5.52133 25.06038,5.02593c10.91095,-0.94615 28.48517,-8.01333 36.91361,-2.22127z" fill="#ffe154" stroke="#000000" stroke-width="1.52832" stroke-linecap="butt" stroke-linejoin="miter"/><path d="M314.59981,168.45305l-4.31753,10.73813" fill="none" stroke="#000000" stroke-width="1.52832" stroke-linecap="round" stroke-linejoin="miter"/><path d="M314.66992,181.4135l6.85667,-8.57002" fill="none" stroke="#000000" stroke-width="1.52832" stroke-linecap="round" stroke-linejoin="miter"/><path d="M319.19782,184.55221l8.24892,-2.3977" fill="none" stroke="#000000" stroke-width="1.52832" stroke-linecap="round" stroke-linejoin="miter"/><path d="M312.28157,229.77123l5.19316,8.19483" fill="none" stroke="#000000" stroke-width="1.52832" stroke-linecap="round" stroke-linejoin="miter"/><path d="M324.643,234.24076l-8.13419,-7.36715" fill="none" stroke="#000000" stroke-width="1.52832" stroke-linecap="round" stroke-linejoin="miter"/><path d="M319.41939,224.03568l8.52647,1.0506" fill="none" stroke="#000000" stroke-width="1.52832" stroke-linecap="round" stroke-linejoin="miter"/><path d="M277.70972,183.49413c28.79023,-23.37108 34.85662,-2.68486 34.85662,-2.68486c0,0 0.09791,0.0589 0.14906,0.08428c6.02218,3.05402 10.27306,4.10797 9.80439,24.64499c-0.54653,23.95863 -10.23819,24.23268 -10.23819,24.23268c-9.68846,19.97192 -33.18575,-4.79287 -33.18575,-4.79287" fill="#ffe154" stroke="#000000" stroke-width="1.52832" stroke-linecap="butt" stroke-linejoin="round"/><g stroke-width="0.76416" stroke-linecap="butt" stroke-linejoin="miter"><path d="M311.34183,218.39376c0.03607,-0.95872 0.45839,-1.81204 1.11043,-2.41761c0.65285,-0.60449 1.53556,-0.96137 2.49427,-0.92532c0.95872,0.03619 1.8119,0.45852 2.41747,1.11043c0.60464,0.65299 0.96151,1.53556 0.92532,2.49427c-0.03607,0.95872 -0.45839,1.81204 -1.11043,2.41761c-0.65299,0.60449 -1.53556,0.96137 -2.49427,0.92532c-0.95872,-0.03619 -1.8119,-0.45852 -2.41747,-1.11043c-0.60464,-0.65299 -0.96151,-1.53556 -0.92532,-2.49427z" fill="#ffffff" stroke="#000000"/><path d="M313.34553,217.69202c0.02257,-0.59768 0.28569,-1.13006 0.69318,-1.50699c0.40643,-0.37784 0.95711,-0.60024 1.5548,-0.57765c0.59768,0.02244 1.13006,0.28569 1.50685,0.69306c0.37798,0.40643 0.60024,0.95711 0.57779,1.5548c-0.02257,0.59768 -0.28569,1.13006 -0.69318,1.50699c-0.40643,0.37784 -0.95711,0.60024 -1.5548,0.57765c-0.59768,-0.02257 -1.13006,-0.28569 -1.50685,-0.69306c-0.37798,-0.40643 -0.60024,-0.95724 -0.57779,-1.5548z" fill="#000000" stroke="none"/></g><g stroke-width="0.76416" stroke-linecap="butt" stroke-linejoin="miter"><path d="M312.53642,190.97776c0.03619,-0.95872 0.45852,-1.8119 1.11043,-2.41761c0.65299,-0.60449 1.53556,-0.96137 2.49427,-0.92518c0.95872,0.03607 1.81204,0.45839 2.41761,1.11029c0.60449,0.65299 0.96137,1.5357 0.92532,2.49439c-0.03619,0.95857 -0.45852,1.8119 -1.11043,2.41747c-0.65299,0.60449 -1.53556,0.96151 -2.49427,0.92532c-0.95872,-0.03619 -1.81204,-0.45839 -2.41761,-1.11043c-0.60449,-0.65299 -0.96137,-1.53556 -0.92532,-2.49427v0v0v0z" fill="#ffffff" stroke="#000000"/><path d="M314.54024,190.27601c0.02257,-0.59768 0.28569,-1.13006 0.69306,-1.50685c0.40643,-0.37798 0.95724,-0.60024 1.5548,-0.57779c0.59768,0.02257 1.1302,0.28569 1.50699,0.69318c0.37784,0.40643 0.60024,0.95711 0.57765,1.5548c-0.02244,0.59756 -0.28569,1.13006 -0.69306,1.50685c-0.40643,0.37798 -0.95711,0.60024 -1.5548,0.57779c-0.59768,-0.02257 -1.13006,-0.28569 -1.50699,-0.69318c-0.37784,-0.40643 -0.60024,-0.95711 -0.57765,-1.5548z" fill="#000000" stroke="none"/></g><path d="M321.19924,205.42556c0.05115,-1.35738 0.34273,-2.57722 0.77225,-3.45258c0.42966,-0.87656 0.99797,-1.40667 1.60155,-1.38384c0.60344,0.02271 1.13034,0.59409 1.4927,1.50044c0.36249,0.90529 0.56137,2.14354 0.51022,3.50092c-0.05115,1.35752 -0.34258,2.57722 -0.77225,3.45271c-0.42966,0.87644 -0.99797,1.40655 -1.60141,1.38384c-0.60356,-0.02271 -1.13034,-0.59409 -1.49282,-1.50044c-0.36249,-0.90529 -0.56137,-2.14354 -0.51022,-3.50106v0v0v0z" fill="#ec008c" stroke="#000000" stroke-width="1.30982" stroke-linecap="butt" stroke-linejoin="miter"/><path d="M291.87744,231.38708c-3.82215,-0.66808 -16.43094,2.69795 -17.43692,1.34256c-1.00705,-1.35659 1.05299,-2.35951 3.26652,-5.75479c2.21353,-3.39421 7.05208,-13.34779 7.05208,-13.34779" fill="#ffe154" stroke="#000000" stroke-width="1.52832" stroke-linecap="round" stroke-linejoin="round"/><path d="M278.9063,230.00751v0v0v0v0c0,0 5.66222,-6.74502 7.96631,-11.51372c0.75062,2.92996 2.9608,7.83609 3.96465,9.97989c0,0 -0.73594,-0.0931 -0.73405,-0.09095c-2.47651,-0.49471 -11.19691,1.62479 -11.19691,1.62479z" fill="#58595b" stroke="none" stroke-width="0.76416" stroke-linecap="butt" stroke-linejoin="miter"/><path d="M283.43471,196.76272c0,0 -4.07551,-10.28949 -6.02725,-13.83969c-1.95174,-3.55221 -3.93046,-4.70847 -2.82416,-5.98532c1.1051,-1.27484 13.42378,3.02971 17.2864,2.65242" fill="#ffe154" stroke="#000000" stroke-width="1.52832" stroke-linecap="round" stroke-linejoin="round"/><path d="M278.83256,179.98733c0,0 8.53622,2.76981 11.0429,2.46289c-0.00213,0.00308 0.73873,-0.0354 0.73873,-0.0354c-1.1624,2.0622 -3.73546,6.78695 -4.70445,9.6532c-1.93972,-4.92871 -7.07718,-12.08069 -7.07718,-12.08069z" fill="#58595b" stroke="none" stroke-width="0.76416" stroke-linecap="butt" stroke-linejoin="miter"/><path d="M199.98718,211.26956c-0.65512,2.85863 -3.49986,4.6521 -6.36397,4.00793c-9.67911,-2.17251 -17.1861,-1.16866 -22.31247,2.98604c-8.52099,6.90488 -8.59512,20.82513 -8.59325,20.96203c0.03593,2.94906 -2.32117,5.35943 -5.26714,5.39644c-2.94397,0.03712 -5.35931,-2.32224 -5.3955,-5.26621c-0.00949,-0.77853 -0.08428,-19.14424 12.54227,-29.37818c7.78773,-6.31055 18.34061,-8.02801 31.36183,-5.1034c2.87226,0.64458 4.67881,3.49786 4.03425,6.37011c-0.00227,0.00801 -0.00361,0.01616 -0.006,0.02524v0v0v0z" fill="#ffe154" stroke="#000000" stroke-width="1.52832" stroke-linecap="butt" stroke-linejoin="miter"/></g><path d="" fill="#9966ff" stroke="none" stroke-width="0.5" stroke-linecap="butt" stroke-linejoin="miter"/></g><text transform="translate(17.5,348.30555) scale(0.24014,0.24014)" font-size="40" xml:space="preserve" fill="#000000" fill-rule="nonzero" stroke="none" stroke-width="1" stroke-linecap="butt" stroke-linejoin="miter" stroke-miterlimit="10" stroke-dasharray="" stroke-dashoffset="0" font-family="Sans Serif" font-weight="normal" text-anchor="start" style="mix-blend-mode: normal"><tspan x="0" dy="0">--. --. --... ...-- -.... # --. . -.. .... .- .-... -.... ..--- -.--. - ...- # ---.. -.- . -... -.. ...-- -.-. .... ..- ...--</tspan></text></g></g></svg>