<svg viewBox="0,0,32.18803,44.25895" height="44.25895" width="32.18803" xmlns:xlink="http://www.w3.org/1999/xlink" xmlns="http://www.w3.org/2000/svg" version="1.1"><g transform="translate(-223.9053,-157.83785)"><g style="mix-blend-mode: normal" stroke-dashoffset="0" stroke-dasharray="" stroke-miterlimit="10" stroke-linejoin="miter" stroke-linecap="butt" stroke="none" fill-rule="nonzero" data-paper-data="{&quot;isPaintingLayer&quot;:true}"><path stroke-width="0" fill="#ff6666" fill-opacity="0.5098" d="M223.9053,193.2587c0,-4.88115 3.95695,-8.8381 8.8381,-8.8381c4.88115,0 8.8381,3.95695 8.8381,8.8381c0,4.88115 -3.95695,8.8381 -8.8381,8.8381c-4.88115,0 -8.8381,-3.95695 -8.8381,-8.8381z"></path><path stroke-width="0" fill="#66ffff" fill-opacity="0.50196" d="M238.3541,193.2587c0,-4.88115 3.95696,-8.8381 8.8381,-8.8381c4.88115,0 8.8381,3.95696 8.8381,8.8381c0,4.88115 -3.95696,8.8381 -8.8381,8.8381c-4.88115,0 -8.8381,-3.95696 -8.8381,-8.8381z"></path><path stroke-width="0" fill="#66ffb5" fill-opacity="0.50196" d="M231.22609,181.23159c0,-4.88115 3.95696,-8.8381 8.8381,-8.8381c4.88115,0 8.8381,3.95696 8.8381,8.8381c0,4.88115 -3.95696,8.8381 -8.8381,8.8381c-4.88115,0 -8.8381,-3.95696 -8.8381,-8.8381z"></path><text style="mix-blend-mode: normal" text-anchor="start" font-weight="normal" font-family="Handwriting" stroke-dashoffset="0" stroke-dasharray="" stroke-miterlimit="10" stroke-linejoin="miter" stroke-linecap="butt" stroke-width="1" stroke="none" fill-rule="nonzero" fill="#000000" xml:space="preserve" font-size="40" transform="translate(224.61765,167.17578) scale(0.24509,0.24509)"><tspan dy="0" x="0">Opacity</tspan></text></g></g></svg>