<svg version="1.1" xmlns="http://www.w3.org/2000/svg" xmlns:xlink="http://www.w3.org/1999/xlink" width="20.78542" height="61.98625" viewBox="0,0,20.78542,61.98625"><g transform="translate(-229.60729,-149.00688)"><g data-paper-data="{&quot;isPaintingLayer&quot;:true}" fill-rule="nonzero" stroke-linejoin="miter" stroke-miterlimit="10" stroke-dasharray="" stroke-dashoffset="0" style="mix-blend-mode: normal"><path d="M232.50775,177.69252v18.20757" fill="none" stroke="#000000" stroke-width="4.5" stroke-linecap="round"/><path d="M233.27637,183.16602c-2.00517,0 -2.00517,-2.00517 -2.00517,-2.00517l0.28576,-0.94745c-0.47935,-0.87891 -1.27091,-1.64962 -1.438,-2.63667c-0.1846,-1.09043 0.28988,-2.19281 0.43478,-3.28924c1.6775,-4.19777 4.88478,-8.30949 8.83779,-10.69177c1.64549,-0.99166 5.76785,-1.28355 6.74714,-3.14321c0.53238,-1.01095 0.03974,-1.68362 -0.41858,-2.56457c-1.8839,-3.62113 -4.13357,-4.81116 -8.08971,-4.80395c-1.84716,0.00339 -3.69431,0 -5.54143,0c0,0 -2.00517,0 -2.00517,-2.00517c0,-2.00517 2.00517,-2.00517 2.00517,-2.00517c5.4351,0 11.45475,-0.89493 15.3774,3.86831c0.78526,0.95357 1.32407,2.09178 1.86518,3.20224c1.05621,2.16749 1.56544,3.71286 0.37302,6.14339c-1.63185,3.32625 -5.54599,3.13426 -8.2939,4.77311c-2.98068,1.7777 -5.72481,5.13666 -6.99489,8.30741c-0.22482,0.92021 0.03219,2.00926 0.58007,2.78201l0.28576,3.01074c0,0 0,2.00517 -2.00517,2.00517z" fill="#000000" stroke="none" stroke-width="0.5" stroke-linecap="butt"/><path d="M229.60729,207.98534c0,-1.66117 1.34661,-3.00778 3.00778,-3.00778c1.66117,0 3.00778,1.34661 3.00778,3.00778c0,1.66117 -1.34661,3.00778 -3.00778,3.00778c-1.66117,0 -3.00778,-1.34661 -3.00778,-3.00778z" fill="#000000" stroke="none" stroke-width="0.5" stroke-linecap="butt"/></g></g></svg>