<svg version="1.1" xmlns="http://www.w3.org/2000/svg" xmlns:xlink="http://www.w3.org/1999/xlink" width="64.20285" height="31.3895" viewBox="0,0,64.20285,31.3895"><g transform="translate(-207.89858,-164.30525)"><g data-paper-data="{&quot;isPaintingLayer&quot;:true}" fill-rule="nonzero" stroke-linejoin="miter" stroke-miterlimit="10" stroke-dasharray="" stroke-dashoffset="0" style="mix-blend-mode: normal"><path d="M247.17389,189.21841l3.95981,-2.44343l3.0282,-3.21429c0,0 -0.04618,0.83895 -0.07967,1.44716c-0.05711,1.03744 -0.23178,4.21055 -0.23178,4.21055z" fill="#00ff6c" stroke="none" stroke-width="0" stroke-linecap="butt"/><path d="M258.47024,180.50262v-10.00652h13.57394v10.00652z" data-paper-data="{&quot;index&quot;:null}" fill="#00ffae" stroke="#000000" stroke-width="0" stroke-linecap="butt"/><path d="M260.13721,179.34401v-8.02848h11.6617v8.02848c0,0 -5.29709,0 -7.42734,0c-1.60847,0 -4.23436,0 -4.23436,0z" data-paper-data="{&quot;index&quot;:null}" fill="#00ff6c" stroke="none" stroke-width="0" stroke-linecap="butt"/><path d="M207.89858,195.52138l31.72328,-15.54276l32.47957,-15.5v31.04276z" fill="#00e6ff" stroke="#00ffff" stroke-width="0" stroke-linecap="butt"/><path d="M219.9978,191.04318l10.8668,-4.28835l11.15401,-6.02381v9.97883z" fill="#00ffae" stroke="#000000" stroke-width="0" stroke-linecap="butt"/><path d="M258.41912,190.71687v-9.97883h13.53639v9.97883z" fill="#00ffae" stroke="#000000" stroke-width="0" stroke-linecap="butt"/><path d="M248.76893,174.71136l8.11357,-3.58598l7.91269,-4.67857l0.14619,8.26455z" fill="#00ffae" stroke="#000000" stroke-width="0" stroke-linecap="butt"/><path d="M223.70128,190.40364l8.86887,-3.8158l9.09472,-4.85714c0,0 -0.43921,4.82516 -0.62615,6.3661c-0.10657,0.87841 0.1876,2.21159 0.1876,2.21159z" fill="#00ff6c" stroke="none" stroke-width="0" stroke-linecap="butt"/><path d="M260.08148,189.67257v-8.00627h11.62945v8.00627z" fill="#00ff6c" stroke="none" stroke-width="0" stroke-linecap="butt"/><path d="M210.43647,194.44475l59.12709,-28.8895" fill="none" stroke="#0c0c0c" stroke-width="2.5" stroke-linecap="round"/></g></g></svg>