<svg version="1.1" xmlns="http://www.w3.org/2000/svg" xmlns:xlink="http://www.w3.org/1999/xlink" width="62.07735" height="59.93764" viewBox="0,0,62.07735,59.93764"><g transform="translate(-208.96133,-150.03118)"><g data-paper-data="{&quot;isPaintingLayer&quot;:true}" fill="#00ffb5" fill-rule="nonzero" stroke-linejoin="miter" stroke-miterlimit="10" stroke-dasharray="" stroke-dashoffset="0" style="mix-blend-mode: normal"><path d="M221.00206,180c0,-10.49229 8.50565,-18.99794 18.99794,-18.99794c10.49229,0 18.99794,8.50565 18.99794,18.99794c0,10.49229 -8.50565,18.99794 -18.99794,18.99794c-10.49229,0 -18.99794,-8.50565 -18.99794,-18.99794z" stroke="none" stroke-width="0" stroke-linecap="butt"/><path d="M245.41954,162.37195l-9.60085,0.01671l4.51606,-9.57067z" stroke="#00ffaf" stroke-width="2.5" stroke-linecap="round"/><path d="M258.69792,183.57779l-0.01672,-9.60082l9.57067,4.51606z" stroke="#00ffaf" stroke-width="2.5" stroke-linecap="round"/><path d="M235.84815,197.62808l9.60082,-0.01671l-4.51606,9.57065z" stroke="#00ffaf" stroke-width="2.5" stroke-linecap="round"/><path d="M221.30206,175.11545l0.01674,9.60085l-9.57067,-4.51609z" stroke="#00ffaf" stroke-width="2.5" stroke-linecap="round"/><path d="M223.92412,188.42995l6.80062,6.77699l-9.96083,3.57412z" stroke="#00ffaf" stroke-width="2.5" stroke-linecap="round"/><path d="M231.4794,163.0014l-6.77698,6.80064l-3.57412,-9.96083z" stroke="#00ffaf" stroke-width="2.5" stroke-linecap="round"/><path d="M256.89831,169.84335l-6.80064,-6.77699l9.96083,-3.57412z" stroke="#00ffaf" stroke-width="2.5" stroke-linecap="round"/><path d="M250.65993,194.58109l6.77699,-6.80065l3.57412,9.96084z" stroke="#00ffaf" stroke-width="2.5" stroke-linecap="round"/></g></g></svg>