<svg version="1.1" xmlns="http://www.w3.org/2000/svg" xmlns:xlink="http://www.w3.org/1999/xlink" width="49.13916" height="49.13916" viewBox="0,0,49.13916,49.13916"><g transform="translate(-318.41056,-4.43042)"><g data-paper-data="{&quot;isPaintingLayer&quot;:true}" fill-rule="nonzero" stroke-linecap="butt" stroke-linejoin="miter" stroke-miterlimit="10" stroke-dasharray="" stroke-dashoffset="0" style="mix-blend-mode: normal"><path d="M321.69536,29c0,-11.75526 9.52952,-21.28477 21.28477,-21.28477c11.75526,0 21.28477,9.52952 21.28477,21.28477c0,11.75526 -9.52952,21.28477 -21.28477,21.28477c-11.75526,0 -21.28477,-9.52952 -21.28477,-21.28477z" fill="#fde800" stroke="none" stroke-width="NaN"/><path d="M319.41056,29c0,-13.01712 10.55246,-23.56958 23.56958,-23.56958c13.01712,0 23.56958,10.55246 23.56958,23.56958c0,13.01712 -10.55246,23.56958 -23.56958,23.56958c-13.01712,0 -23.56958,-10.55246 -23.56958,-23.56958z" fill="none" stroke="#fde800" stroke-width="2"/><text transform="translate(334.13054,37.65171) scale(0.66487,0.66487)" font-size="40" xml:space="preserve" fill="#ff0095" fill-rule="nonzero" stroke="#ff0094" stroke-width="5" stroke-linecap="butt" stroke-linejoin="miter" stroke-miterlimit="10" stroke-dasharray="" stroke-dashoffset="0" font-family="Handwriting" font-weight="normal" text-anchor="start" style="mix-blend-mode: normal"><tspan x="0" dy="0">R</tspan></text></g></g></svg>