<svg version="1.1" xmlns="http://www.w3.org/2000/svg" xmlns:xlink="http://www.w3.org/1999/xlink" width="381" height="278.8366" viewBox="0,0,381,278.8366"><g transform="translate(-49.5,-40.16341)"><g data-paper-data="{&quot;isPaintingLayer&quot;:true}" fill-rule="nonzero" stroke-linecap="butt" stroke-linejoin="miter" stroke-miterlimit="10" stroke-dasharray="" stroke-dashoffset="0" style="mix-blend-mode: normal"><path d="M54.5,314v-268h371v268z" fill="#00ffb6" stroke="#ffde00" stroke-width="10"/><text transform="translate(82.5,99.7) scale(1.58342,1.58342)" font-size="40" xml:space="preserve" fill="#000000" fill-rule="nonzero" stroke="#000000" stroke-width="0" stroke-linecap="butt" stroke-linejoin="miter" stroke-miterlimit="10" stroke-dasharray="" stroke-dashoffset="0" font-family="Handwriting" font-weight="normal" text-anchor="start" style="mix-blend-mode: normal"><tspan x="0" dy="0">How to Play</tspan></text><path d="M112.81344,297.87601v-183.75202h254.37313v183.75202z" fill="#00ffb6" stroke="#ffde00" stroke-width="10"/><text transform="translate(165.60786,153.68553) scale(1.08566,1.08566)" font-size="40" xml:space="preserve" fill="#000000" fill-rule="nonzero" stroke="#000000" stroke-width="0" stroke-linecap="butt" stroke-linejoin="miter" stroke-miterlimit="10" stroke-dasharray="" stroke-dashoffset="0" font-family="Handwriting" font-weight="normal" text-anchor="start" style="mix-blend-mode: normal"><tspan x="0" dy="0">Settings</tspan></text><path d="M130.64012,204.14877v-40.45287h91.01896v40.45287z" fill="#00ffff" stroke="#000000" stroke-width="5"/><path d="M250.62745,204.14878v-40.45287h91.01896v40.45287z" fill="#00ffff" stroke="#000000" stroke-width="5"/><text transform="translate(145.0386,188.2076) scale(0.47654,0.47654)" font-size="40" xml:space="preserve" fill="#000000" fill-rule="nonzero" stroke="none" stroke-width="1" stroke-linecap="butt" stroke-linejoin="miter" stroke-miterlimit="10" stroke-dasharray="" stroke-dashoffset="0" font-family="Handwriting" font-weight="normal" text-anchor="start" style="mix-blend-mode: normal"><tspan x="0" dy="0">Account</tspan></text><text transform="translate(276.68184,188.89324) scale(0.47654,0.47654)" font-size="40" xml:space="preserve" fill="#000000" fill-rule="nonzero" stroke="none" stroke-width="1" stroke-linecap="butt" stroke-linejoin="miter" stroke-miterlimit="10" stroke-dasharray="" stroke-dashoffset="0" font-family="Handwriting" font-weight="normal" text-anchor="start" style="mix-blend-mode: normal"><tspan x="0" dy="0">Rate</tspan></text><path d="M129.95448,251.45807v-40.45287h91.01896v40.45287z" fill="#00ffff" stroke="#000000" stroke-width="5"/><text transform="translate(156.00887,236.20253) scale(0.47654,0.47654)" font-size="40" xml:space="preserve" fill="#000000" fill-rule="nonzero" stroke="none" stroke-width="1" stroke-linecap="butt" stroke-linejoin="miter" stroke-miterlimit="10" stroke-dasharray="" stroke-dashoffset="0" font-family="Handwriting" font-weight="normal" text-anchor="start" style="mix-blend-mode: normal"><tspan x="0" dy="0">Help</tspan></text><path d="M250.62745,252.14371v-40.45287h91.01896v40.45287z" fill="#00ffff" stroke="#000000" stroke-width="5"/><text transform="translate(267.76849,236.88818) scale(0.47654,0.47654)" font-size="40" xml:space="preserve" fill="#000000" fill-rule="nonzero" stroke="none" stroke-width="1" stroke-linecap="butt" stroke-linejoin="miter" stroke-miterlimit="10" stroke-dasharray="" stroke-dashoffset="0" font-family="Handwriting" font-weight="normal" text-anchor="start" style="mix-blend-mode: normal"><tspan x="0" dy="0">Options</tspan></text><path d="M162.99479,170.00915c-0.73596,0.64085 -1.74479,0.64085 -1.74479,0.64085c-5.40825,0 -10.07805,0.66743 -15.1913,2.36559c-3.02481,1.00457 -7.24238,2.15885 -9.22159,5.01064c-2.3197,3.34239 0.93968,10.84025 4.43332,12.34151c1.01012,0.43406 3.21631,0.28989 4.13492,0.2871c8.50043,1.06762 16.76474,3.68582 25.19141,5.01933c2.02589,0.32059 4.10215,-0.02416 6.15324,-0.02416c5.81124,0 12.63402,0.52669 18.22689,-1.37745c1.07426,-0.36574 1.95756,-1.20331 3.04865,-1.51528c4.68684,-1.34005 9.46055,-1.47764 13.82115,-3.72819c0.2474,-0.74585 1.13719,-1.63124 0.66724,-2.26104c-0.92506,-1.23973 -2.46995,-1.94314 -3.33855,-3.22306c-1.70978,-2.51943 -3.2001,-5.70731 -6.08564,-7.18052c-2.43709,-1.24426 -5.31574,-0.64541 -7.94236,-1.28817c-9.48465,-2.32099 -19.28533,-2.55436 -28.88766,-4.47483c-1.10747,-0.22194 -2.19302,-0.39768 -3.26492,-0.5923zM152.75007,166.17294c-0.00005,-0.00762 -0.00007,-0.01527 -0.00007,-0.02294c0,-2.5 2.5,-2.5 2.5,-2.5l3.47277,0.04511c2.83208,1.10163 5.5521,1.41149 8.51752,2.00344c9.67023,1.93404 19.57095,2.08275 29.11234,4.52517c3.27225,0.83764 5.8416,0.12428 9.05764,1.71184c4.61419,2.27774 5.81918,7.05464 9.1075,10.44668c0.75943,0.78339 2.0368,1.14762 2.46831,2.14973c1.30324,3.02661 -0.22783,5.14099 -1.33276,7.73896c-5.31528,3.42042 -10.29074,3.59072 -16.17885,5.27181c-1.05894,0.30233 -1.90464,1.14243 -2.95135,1.48473c-5.18762,1.69647 -11.38951,1.62254 -16.77311,1.62254c-3.15941,0 -6.7271,0.44401 -9.84676,-0.02417c-8.30731,-1.24669 -16.44332,-3.94093 -24.80859,-4.98066c-2.0308,-0.00575 -3.91397,0.16847 -5.86508,-0.71291c-6.375,-2.87979 -10.49859,-13.63693 -6.56668,-19.65849c1.4432,-2.2102 3.15817,-2.9831 5.30087,-4.2675c4.49711,-2.6957 9.59197,-4.14576 14.78631,-4.83333z" fill="#ffffff" stroke="none" stroke-width="0.5"/><path d="M114.38197,196.81107c-2.23607,-1.11803 -1.11803,-3.35411 -1.11803,-3.35411l0.21016,-0.41647c1.71804,-3.76946 3.96973,-7.03405 6.3064,-10.35796c-0.5896,0.05343 -1.12546,0.09592 -1.57144,0.13371c-9.31951,0.78966 -20.28666,1.11405 -29.22767,-1.86234c-4.31692,-1.43706 -8.2013,-3.67806 -12.30159,-5.61956c0,0 -2.25934,-1.07022 -1.18913,-3.32956c1.07022,-2.25934 3.32956,-1.18913 3.32956,-1.18913c3.89189,1.84421 7.60457,4.01372 11.69841,5.38044c6.77177,2.26075 14.45051,1.85167 21.48856,1.87892c3.73639,0.01447 7.24959,-0.25386 10.86072,-1.16878c0.12807,-0.03245 0.25608,-0.07162 0.38411,-0.11428c-0.91375,-1.35997 -1.67833,-3.32186 -2.01788,-3.9743l-1.6076,-1.83727c-0.38989,-0.44092 -0.62654,-1.02052 -0.62654,-1.65538c0,-1.38071 1.11929,-2.5 2.5,-2.5c0.57191,0 1.09897,0.19205 1.52021,0.51516l1.97979,1.48484l-0.03875,0.05167c0.07771,0.03472 0.1549,0.0709 0.23152,0.10863c0.97801,0.48168 1.49629,1.58874 2.18222,2.43611c1.56028,1.92749 2.47228,2.67293 2.4571,3.96567c0.64383,0.32404 1.15087,0.70788 1.14632,1.36014c-0.01232,1.76436 -1.95442,3.02866 -3.38437,4.07083c-2.91456,4.90453 -7.16798,8.99553 -9.56813,14.29147l-0.28984,0.58353c0,0 -1.11804,2.23607 -3.35411,1.11803z" fill="#ffffff" stroke="none" stroke-width="0.5"/><text transform="translate(65.5,142.825) scale(0.16053,0.16053)" font-size="40" xml:space="preserve" fill="#ffffff" fill-rule="nonzero" stroke="none" stroke-width="1" stroke-linecap="butt" stroke-linejoin="miter" stroke-miterlimit="10" stroke-dasharray="" stroke-dashoffset="0" font-family="Handwriting" font-weight="normal" text-anchor="start" style="mix-blend-mode: normal"><tspan x="0" dy="0">In the account,</tspan><tspan x="0" dy="46.150000000000006px">there is save, load, and</tspan><tspan x="0" dy="46.150000000000006px">reset, which work like the</tspan><tspan x="0" dy="46.150000000000006px">level editor.</tspan></text><path d="M319.51887,182.21345c-0.00068,-0.00014 -0.00134,-0.00027 -0.00201,-0.00041c-0.00894,0.0025 -0.01779,0.00489 -0.02657,0.00716zM321.85665,181.49086c-0.56378,0.6771 -1.29555,0.81159 -1.87527,0.7817c-0.57056,0.4132 -1.90985,1.10325 -3.24914,-0.23604c-0.51794,-0.51793 -0.73237,-1.03587 -0.7767,-1.50934c-1.21927,-0.67902 -2.41971,-1.39691 -3.6463,-2.06023c-3.80879,-2.05972 -7.79809,-2.73893 -11.91187,-3.77192c-1.97848,-0.4968 -3.792,-1.58729 -5.79783,-1.95856c-2.39846,-0.44395 -5.70017,0.03228 -8.09954,0.03228c-1.5906,0 -5.22742,-0.70772 -6.67248,-0.14093c-0.99602,0.39067 -3.05074,3.34185 -3.4647,3.80823c-1.22102,1.37568 -2.54144,2.665 -3.70281,4.0914c-2.31871,5.6365 3.11491,11.04026 8.48559,12.3261c6.49602,1.55527 14.00598,0.36161 20.49378,-0.55866c4.47152,-0.63426 8.97769,-0.80888 13.38784,-1.48103c1.96651,-0.29972 3.84053,-2.25776 5.56946,-3.16603c0.51421,-1.60622 1.61197,-4.39466 1.33315,-5.9775c-0.0134,-0.07606 -0.03833,-0.1351 -0.07318,-0.17946zM319.88311,176.96379c0.61719,-0.1732 1.23372,-0.30997 1.84546,-0.18457c7.55687,1.54915 4.82498,9.16779 2.67475,14.11046c-2.61262,1.69671 -5.27726,4.19447 -8.43054,4.83396c-4.40376,0.89309 -9.11192,0.87118 -13.61216,1.51897c-7.09602,1.02143 -15.42255,2.26494 -22.50622,0.44135c-1.92673,-0.49601 -3.59392,-1.73704 -5.24937,-2.84058c-4.65402,-3.10244 -8.8339,-7.30609 -7.55992,-13.54739c0.23546,-1.1535 0.86325,-2.19062 1.29487,-3.28593c2.46483,-3.12085 6.04292,-8.57046 9.8325,-10.10036c1.97412,-0.79698 6.14897,-0.14093 8.32752,-0.14093c2.70189,0 6.21963,-0.44856 8.90046,0.03228c1.30602,0.23425 4.78331,1.68842 6.20217,2.04144c4.53289,1.12779 8.89392,1.97871 13.08813,4.22808c1.74487,0.93578 3.41841,2.01865 5.19235,2.89324z" fill="#ffffff" stroke="none" stroke-width="0.5"/><path d="M343.5,176.76875c0,2.5 -2.5,2.5 -2.5,2.5h-0.5c-2.10807,0 -4.49874,0.2282 -6.79448,0.09219c-1.00122,0.92226 -1.9294,1.53318 -2.53331,1.38623c-1.83907,-0.4475 -2.60699,-1.58508 -2.92472,-2.91285c-0.63054,-0.40648 -1.21273,-0.91368 -1.73178,-1.54485c-0.64376,-0.78284 -0.76462,-1.87833 -1.19512,-2.79591c-0.56682,-1.20816 -2.28653,-2.33748 -1.79546,-3.57837c2.4214,-6.11871 6.31003,-3.6489 8.67906,-0.32609c0.55595,0.77979 0.62446,1.79774 0.71397,2.77821c0.68716,-0.69999 1.3644,-1.307 1.58184,-1.59856c2.73267,-3.57749 6.51961,-5.46829 9.86199,-8.38864c5.68745,-4.96929 14.59825,-9.5439 21.8649,-11.98882c0.93925,-0.31601 2.00958,-0.12144 2.93433,-0.47764c1.24155,-0.47822 2.23067,-1.48253 3.46213,-1.98617c4.15868,-1.70079 9.4767,-1.72826 13.88635,-2.61019c0,0 2.45145,-0.49029 2.94174,1.96116c0.49029,2.45145 -1.96116,2.94174 -1.96116,2.94174c-4.10015,0.82003 -9.28329,0.76072 -13.11365,2.38981c-1.24871,0.53108 -2.27112,1.52732 -3.53787,2.01383c-0.9677,0.37166 -2.08125,0.19755 -3.06567,0.52237c-6.60535,2.17944 -14.98751,6.50038 -20.1351,11.01118c-3.01256,2.63988 -6.75195,4.35114 -9.13801,7.61137c-0.11445,0.15186 -0.27098,0.35982 -0.4613,0.60916c0.86998,-0.05566 1.70666,-0.10916 2.4613,-0.10916h0.5c0,0 2.5,0 2.5,2.5z" fill="#ffffff" stroke="none" stroke-width="0.5"/><text transform="translate(344.5,126.26875) scale(0.21109,0.21109)" font-size="40" xml:space="preserve" fill="#ffffff" fill-rule="nonzero" stroke="none" stroke-width="1" stroke-linecap="butt" stroke-linejoin="miter" stroke-miterlimit="10" stroke-dasharray="" stroke-dashoffset="0" font-family="Handwriting" font-weight="normal" text-anchor="start" style="mix-blend-mode: normal"><tspan x="0" dy="0">This is where</tspan><tspan x="0" dy="46.150000000000006px">you can rate, like,</tspan><tspan x="0" dy="46.150000000000006px">and favorite Blocky.</tspan></text><path d="M199.99119,224.49132c-0.00455,0.04298 -0.00997,0.08665 -0.01631,0.13099c-0.35356,2.47487 -2.82843,2.12132 -2.82843,2.12132c-6.63751,-0.94822 -13.3655,-1.73374 -19.92586,-3.14356c-4.74486,-1.01967 -9.34636,-2.55946 -14.14267,-3.36721c-2.5599,-0.43112 -10.22612,-1.92012 -11.87373,1.21554c-1.34139,2.55288 0.78782,3.71963 1.86598,5.41878c1.24152,1.95661 1.88104,4.23614 2.874,6.32988c3.66866,2.80576 8.52978,6.23218 13.30218,6.58386c3.66599,0.27015 7.59254,-0.01638 11.25366,-0.01216c4.26388,0.00491 8.82721,-0.41365 12.90786,-1.79105c3.35412,-1.13216 8.8383,-4.84187 9.66586,-8.31158c0.36816,-1.54357 0.89966,-4.41798 -1.40124,-5.0383c-0.54896,-0.148 -1.11193,-0.16923 -1.6813,-0.1365zM190.43037,220.76596c0.71495,-0.99721 2.06963,-0.99721 2.06963,-0.99721c1.16666,0 3.33334,0 4.5,0c1.01029,0 5.9055,-0.03066 6.32752,0.14093c5.90443,2.40072 6.35621,10.0624 3.20059,14.82084c-0.59106,0.89128 -1.66309,1.34503 -2.49705,2.01456c-4.58465,3.68069 -8.28613,5.90336 -14.12224,7.08086c-4.95744,1.00022 -9.37819,0.94281 -14.40882,0.94281c-3.22864,0 -6.61234,0.40447 -9.74153,-0.6125c-5.19585,-1.68863 -9.52706,-4.37474 -13.70263,-7.8158c-1.12964,-2.18016 -1.80497,-4.60033 -3.126,-6.67012c-0.56442,-0.88434 -1.75953,-1.31633 -2.1659,-2.28354c-3.39652,-8.08398 2.98658,-12.59652 10.23607,-12.61803c7.39998,-0.02196 14.11316,2.40469 21.27109,3.94292c4.00895,0.86152 8.08293,1.48322 12.15928,2.05429z" fill="#ffffff" stroke="none" stroke-width="0.5"/><path d="M135.23224,246.53652c-1.76776,-1.76776 0,-3.53554 0,-3.53554l1.52197,-1.33061c0.10834,-1.17534 0.07063,-2.37344 0.32502,-3.52602c0.27788,-1.25903 1.72151,-3.46335 1.56343,-5.17248c-1.73009,0.4325 -3.6726,0.52384 -4.56828,0.73c-1.08441,0.24959 -2.07075,0.88883 -3.17392,1.03459c-12.74913,1.68455 -23.56732,-4.27336 -35.75401,-5.99284c0,0 -2.47487,-0.35356 -2.12132,-2.82843c0.35356,-2.47487 2.82843,-2.12132 2.82843,-2.12132c8.95065,1.29299 17.17602,5.44682 26.2847,5.9787c3.87676,0.22637 7.10117,-0.08389 10.78737,-0.93694c0.03665,-0.00849 0.07334,-0.01702 0.11005,-0.0256c-0.21674,-0.17283 -0.40855,-0.35966 -0.56673,-0.56495c-0.00818,-0.01062 -0.01635,-0.02125 -0.0245,-0.03189l-0.00619,0.00774l-2.48197,-1.98557c-0.5823,-0.45772 -0.9563,-1.16849 -0.9563,-1.9666c0,-1.38071 1.11929,-2.5 2.5,-2.5c0.34826,0 0.67988,0.07121 0.98111,0.19986l2.44736,0.97895l-0.01641,0.04102l0.11207,-0.00043c1.17601,0.60694 2.62515,0.85326 3.52804,1.82082c0.96121,1.03006 2.19303,2.16105 2.87564,3.41805c0.54724,0.41895 0.98999,0.84223 1.20842,1.24307c2.32759,4.27132 -0.74226,10.10069 -1.39044,14.39704l-2.47803,2.66939c0,0 -1.76776,1.76776 -3.53553,0z" fill="#ffffff" stroke="none" stroke-width="0.5"/><text transform="translate(61,204.46736) scale(0.17865,0.17865)" font-size="40" xml:space="preserve" fill="#ffffff" fill-rule="nonzero" stroke="none" stroke-width="1" stroke-linecap="butt" stroke-linejoin="miter" stroke-miterlimit="10" stroke-dasharray="" stroke-dashoffset="0" font-family="Handwriting" font-weight="normal" text-anchor="start" style="mix-blend-mode: normal"><tspan x="0" dy="0">This is where</tspan><tspan x="0" dy="46.150000000000006px">you can see</tspan><tspan x="0" dy="46.150000000000006px">common questions</tspan><tspan x="0" dy="46.150000000000006px">asked.</tspan></text><path d="M349.5,227.26875c0,2.5 -2.5,2.5 -2.5,2.5l-3.28624,-0.35627c-2.42045,-1.45442 -4.51705,-2.96092 -7.41996,-3.15225c-0.90727,-0.0598 -1.81719,-0.08708 -2.72728,-0.08687c0.14772,0.19465 0.29226,0.39306 0.43348,0.59538c0.67295,0.96408 1.72682,1.7904 1.93807,2.94698c0.82589,4.52179 -4.14749,9.41442 -7.2778,11.76747c-5.45011,1.86992 -11.00758,4.03468 -16.65119,5.23317c-3.87476,0.82285 -7.90842,0.72204 -11.83185,1.04609c-5.78951,0.47818 -11.33747,1.00629 -17.17722,1.00629c-8.22847,0 -15.82814,0.21177 -22.94393,-4.45915c-0.86139,-0.69302 -1.9919,-1.14554 -2.58417,-2.07907c-3.45282,-5.44229 -0.13478,-10.98347 2.98726,-15.40571c3.73762,-5.29418 9.58904,-9.70377 16.06808,-11.01096c5.67516,-1.145 11.82069,-0.69134 17.61922,-1.51998c0,0 2.36872,-0.33839 2.80249,1.9643c7.8917,-0.17022 17.38852,-2.29165 24.64945,1.26479c0.72343,0.35434 1.4451,0.71445 2.15961,1.08615c0.37178,-1.68813 1.25172,-3.65639 2.00553,-5.43557c-0.0191,-1.54759 0.12611,-2.99916 0.95421,-3.92522c0.12477,-0.13953 0.25597,-0.27142 0.3927,-0.39675l-0.11043,-0.08282l1.48254,-1.97672c0.45492,-0.62044 1.18914,-1.02328 2.01746,-1.02328c1.38071,0 2.5,1.11929 2.5,2.5c0,0.36939 -0.08011,0.72006 -0.22391,1.0356l-1.44742,3.37731c-0.03963,0.11919 -0.18306,0.55073 -0.37599,1.13096c-0.0427,1.26699 -0.02983,2.43514 -0.14475,3.55604c0.61209,-0.20814 1.09542,-0.35329 1.26359,-0.4211c2.00943,-0.79092 3.67522,-2.33173 5.70402,-3.07154c0.83,-0.30266 1.79649,0.18741 2.65008,-0.04039c1.85066,-0.49391 3.41478,-1.75866 5.21449,-2.41434c5.98274,-2.17966 12.17737,-3.55726 18.14097,-5.54694c4.04633,-1.35001 7.85877,-3.39223 11.81261,-4.93554c2.05084,-0.80051 4.3394,-0.74636 6.50585,-1.13778c1.84018,-0.33247 3.57716,-1.11373 5.41017,-1.48373c0,0 2.45145,-0.49029 2.94174,1.96116c0.49029,2.45145 -1.96116,2.94174 -1.96116,2.94174c-1.89388,0.3748 -3.69071,1.16902 -5.58983,1.51627c-1.82356,0.33343 -3.77966,0.15717 -5.49415,0.86222c-4.04836,1.6648 -8.0154,3.67501 -12.18739,5.06446c-5.87515,1.95668 -11.9636,3.31378 -17.85903,5.45306c-1.98565,0.72054 -3.75034,2.01994 -5.78551,2.58566c-0.7548,0.20981 -1.61337,-0.3073 -2.34992,-0.04039c-1.56781,0.56813 -2.88506,1.68039 -4.35074,2.47695c0.61269,0.0369 1.22433,0.08678 1.83248,0.13884c3.75154,0.32111 6.43534,1.96354 9.58004,3.84775l0.71376,-0.35627c0,0 2.5,0 2.5,2.5zM327.10774,226.6041c-0.30085,-0.16807 -0.59334,-0.36639 -0.8712,-0.58969c-1.34806,-0.76241 -2.74479,-1.40263 -3.90042,-2.03311c-1.78816,-0.97558 -3.46056,-2.3005 -5.43876,-2.78628c-6.59264,-1.61893 -14.1768,0.07372 -20.89737,0.07372l-1.39366,0.42536c0,0 -2.42536,0.60634 -3.0317,-1.81902c-0.0065,-0.02601 -0.01266,-0.05181 -0.01847,-0.0774c-1.11211,0.19278 -2.22605,0.36932 -3.34997,0.46255c-5.20281,0.43157 -11.14828,-0.45261 -15.93838,2.1632c-0.73359,0.4006 -1.07089,1.30091 -1.72929,1.81584c-0.28352,0.22174 -3.64681,2.08353 -4.2224,2.74752c-2.58997,2.98778 -8.15049,10.13307 -3.3722,13.24111c6.00495,4.08349 13.07193,3.54085 20.05607,3.54085c5.72927,0 11.14266,-0.51637 16.82278,-0.99371c3.69034,-0.31013 7.52923,-0.16608 11.16815,-0.95391c5.21329,-1.12868 10.27417,-3.14102 15.34881,-4.76683c1.29864,-0.96963 2.18543,-2.40498 3.11942,-3.72948c0.57095,-0.80968 1.94048,-1.57164 1.60278,-2.50305c-0.632,-1.7431 -2.02504,-3.03212 -3.62713,-4.08126c-0.11167,-0.03235 -0.22083,-0.07706 -0.32706,-0.13641z" fill="#ffffff" stroke="none" stroke-width="0.5"/><text transform="translate(348,232.25794) scale(0.16744,0.16744)" font-size="40" xml:space="preserve" fill="#ffffff" fill-rule="nonzero" stroke="none" stroke-width="1" stroke-linecap="butt" stroke-linejoin="miter" stroke-miterlimit="10" stroke-dasharray="" stroke-dashoffset="0" font-family="Handwriting" font-weight="normal" text-anchor="start" style="mix-blend-mode: normal"><tspan x="0" dy="0">This is where you</tspan><tspan x="0" dy="46.150000000000006px">can change</tspan><tspan x="0" dy="46.150000000000006px">settings, like the volume</tspan><tspan x="0" dy="46.150000000000006px">and more.</tspan></text></g></g></svg>