<svg version="1.1" xmlns="http://www.w3.org/2000/svg" xmlns:xlink="http://www.w3.org/1999/xlink" width="88.28162" height="47.98869" viewBox="0,0,88.28162,47.98869"><g transform="translate(-195.85936,-155.87783)"><g data-paper-data="{&quot;isPaintingLayer&quot;:true}" fill-rule="nonzero" stroke-miterlimit="10" stroke-dasharray="" stroke-dashoffset="0" style="mix-blend-mode: normal"><g><path d="M233.22947,197.2829c-4.30814,-1.62983 -12.78318,-5.22612 -10.35711,-9.23577c2.42554,-4.00906 12.8762,5.72532 15.49858,6.66445c0,0 3.40419,-2.46902 3.64853,0.00349c0.24486,2.47258 -2.9986,2.07884 -2.9986,2.07884c0,0 3.72362,0.2446 2.43154,2.58114c-1.29202,2.33661 -2.92192,0.47226 -3.33542,-0.2778c0,0 1.25249,2.33371 -0.48399,2.96395c-1.73701,0.62971 -2.72725,-1.69814 -1.40072,-3.07883c0,0 -0.90388,-0.90553 -3.00281,-1.69946v0v0v0v0z" fill="#ffe154" stroke="#000000" stroke-width="1.52832" stroke-linecap="butt" stroke-linejoin="round"/><path d="M233.46207,166.93311v0v0v0v0c1.62107,-0.92272 2.98206,-1.7349 2.98259,-1.73438c-1.34347,-1.36488 -0.3803,-3.7038 1.36389,-3.09451c1.74419,0.60928 0.51923,2.95742 0.51923,2.95742c0.40428,-0.75447 2.01217,-2.63832 3.33114,-0.31673c1.32048,2.32172 -2.40045,2.60914 -2.40045,2.60914c0,0 3.23779,-0.43261 3.02258,2.04281c-0.21469,2.47541 -3.64793,0.04684 -3.64793,0.04684c-2.61072,0.97061 -12.58187,9.93636 -15.05444,5.95668c-2.47251,-3.98008 5.98079,-6.24778 9.8834,-8.46727z" fill="#ffe154" stroke="#000000" stroke-width="1.52832" stroke-linecap="butt" stroke-linejoin="round"/><path d="M262.01129,161.57017v0v0v0v0c1.62054,-0.92279 2.98206,-1.7349 2.98153,-1.73438c-1.34294,-1.36494 -0.38023,-3.7038 1.36396,-3.09451c1.74419,0.60928 0.51923,2.95742 0.51923,2.95742c0.40421,-0.75447 2.0127,-2.63832 3.33166,-0.31673c1.32048,2.32172 -2.40051,2.60914 -2.40051,2.60914c0,0 3.23779,-0.43261 3.02258,2.04281c-0.21469,2.47535 -3.64741,0.0469 -3.64741,0.0469c-2.61125,0.97055 -12.58187,9.93676 -15.05444,5.95668c-2.47297,-3.98014 5.98079,-6.24778 9.8834,-8.46733z" fill="#ffe154" stroke="#000000" stroke-width="1.52832" stroke-linecap="butt" stroke-linejoin="round"/><path d="M264.94137,194.57554v0v0v0v0c1.71204,0.74005 3.17956,1.33938 3.17962,1.33892c0.28241,-1.89406 2.73055,-2.53174 3.29286,-0.7716c0.56185,1.75967 -2.05032,2.19366 -2.05032,2.19366c0.84571,-0.13136 3.3179,0.02075 2.25684,2.4708c-1.06106,2.45156 -3.5287,-0.34855 -3.5287,-0.34855c0,0 2.29353,2.32713 0.18656,3.64359c-2.1075,1.31745 -2.23167,-2.88595 -2.23167,-2.88595c-2.34623,-1.50197 -15.50648,-4.07494 -13.81394,-8.44415c1.69202,-4.36927 8.58822,1.02088 12.70874,2.80328z" fill="#ffe154" stroke="#000000" stroke-width="1.52832" stroke-linecap="butt" stroke-linejoin="round"/><path d="M263.14514,169.52532v0v0v0v0c1.89287,1.30098 3.93489,5.66439 3.76796,10.09361c0.03017,4.70616 -3.32863,10.23267 -5.95912,11.59393c-5.55082,2.87271 -11.61382,0.91837 -15.82302,1.22167c-3.23535,0.2332 -5.41683,3.78153 -11.17944,3.49326c-9.4894,-0.47398 -16.4325,-5.74397 -16.49133,-14.56789c-0.05883,-8.82438 7.64659,-12.64761 15.11801,-13.2179c5.06624,-0.38735 9.54071,2.72324 12.36033,2.4789c5.38152,-0.46666 14.04951,-3.95235 18.2066,-1.09558z" fill="#ffe154" stroke="#000000" stroke-width="1.52832" stroke-linecap="butt" stroke-linejoin="miter"/><path d="M276.79426,161.71977l-2.1295,5.29628" fill="none" stroke="#000000" stroke-width="1.52832" stroke-linecap="round" stroke-linejoin="miter"/><path d="M276.82884,168.11215l3.38186,-4.22692" fill="none" stroke="#000000" stroke-width="1.52832" stroke-linecap="round" stroke-linejoin="miter"/><path d="M279.0621,169.66023l4.06855,-1.1826" fill="none" stroke="#000000" stroke-width="1.52832" stroke-linecap="round" stroke-linejoin="miter"/><path d="M275.65085,191.96324l2.56138,4.04187" fill="none" stroke="#000000" stroke-width="1.52832" stroke-linecap="round" stroke-linejoin="miter"/><path d="M281.74778,194.16771l-4.01196,-3.63364" fill="none" stroke="#000000" stroke-width="1.52832" stroke-linecap="round" stroke-linejoin="miter"/><path d="M279.17138,189.13434l4.20544,0.51818" fill="none" stroke="#000000" stroke-width="1.52832" stroke-linecap="round" stroke-linejoin="miter"/><path d="M258.59926,169.13836c14.19997,-11.52713 17.19205,-1.32423 17.19205,-1.32423c0,0 0.04829,0.02905 0.07352,0.04157c2.97027,1.50631 5.0669,2.02614 4.83574,12.15545c-0.26956,11.81692 -5.0497,11.95209 -5.0497,11.95209c-4.77856,9.85059 -16.36794,-2.36395 -16.36794,-2.36395" fill="#ffe154" stroke="#000000" stroke-width="1.52832" stroke-linecap="butt" stroke-linejoin="round"/><g stroke-width="0.76416" stroke-linecap="butt" stroke-linejoin="miter"><path d="M275.18735,186.35162c0.01779,-0.47286 0.22609,-0.89374 0.54769,-1.19242c0.322,-0.29815 0.75737,-0.47417 1.23023,-0.45639c0.47286,0.01785 0.89367,0.22615 1.19235,0.54769c0.29822,0.32207 0.47424,0.75737 0.45639,1.23023c-0.01779,0.47286 -0.22609,0.89374 -0.54769,1.19242c-0.32207,0.29815 -0.75737,0.47417 -1.23023,0.45639c-0.47286,-0.01785 -0.89367,-0.22615 -1.19235,-0.54769c-0.29822,-0.32207 -0.47424,-0.75737 -0.45639,-1.23023v0v0z" fill="#ffffff" stroke="#000000"/><path d="M276.17562,186.00551c0.01113,-0.29479 0.14091,-0.55737 0.34189,-0.74328c0.20046,-0.18636 0.47207,-0.29605 0.76686,-0.28491c0.29479,0.01107 0.55737,0.14091 0.74321,0.34183c0.18643,0.20046 0.29605,0.47207 0.28498,0.76686c-0.01113,0.29479 -0.14091,0.55737 -0.34189,0.74328c-0.20046,0.18636 -0.47207,0.29605 -0.76686,0.28491c-0.29479,-0.01113 -0.55737,-0.14091 -0.74321,-0.34183c-0.18643,-0.20046 -0.29605,-0.47213 -0.28498,-0.76686v0v0z" fill="#000000" stroke="none"/></g><g stroke-width="0.76416" stroke-linecap="butt" stroke-linejoin="miter"><path d="M275.77655,172.82945c0.01785,-0.47286 0.22615,-0.89367 0.54769,-1.19242c0.32207,-0.29815 0.75737,-0.47417 1.23023,-0.45632c0.47286,0.01779 0.89374,0.22609 1.19242,0.54762c0.29815,0.32207 0.47417,0.75744 0.45639,1.23029c-0.01785,0.47279 -0.22615,0.89367 -0.54769,1.19235c-0.32207,0.29815 -0.75737,0.47424 -1.23023,0.45639c-0.47286,-0.01785 -0.89374,-0.22609 -1.19242,-0.54769c-0.29815,-0.32207 -0.47417,-0.75737 -0.45639,-1.23023v0v0v0z" fill="#ffffff" stroke="#000000"/><path d="M276.76488,172.48333c0.01113,-0.29479 0.14091,-0.55737 0.34183,-0.74321c0.20046,-0.18643 0.47213,-0.29605 0.76686,-0.28498c0.29479,0.01113 0.55744,0.14091 0.74328,0.34189c0.18636,0.20046 0.29605,0.47207 0.28491,0.76686c-0.01107,0.29473 -0.14091,0.55737 -0.34183,0.74321c-0.20046,0.18643 -0.47207,0.29605 -0.76686,0.28498c-0.29479,-0.01113 -0.55737,-0.14091 -0.74328,-0.34189c-0.18636,-0.20046 -0.29605,-0.47207 -0.28491,-0.76686v0v0z" fill="#000000" stroke="none"/></g><path d="M280.04924,179.95542c0.02523,-0.66949 0.16904,-1.27114 0.38089,-1.70289c0.21192,-0.43234 0.49222,-0.6938 0.78992,-0.68254c0.29763,0.0112 0.55751,0.29302 0.73623,0.74005c0.17879,0.44651 0.27688,1.05724 0.25165,1.72673c-0.02523,0.66956 -0.16897,1.27114 -0.38089,1.70295c-0.21192,0.43228 -0.49222,0.69374 -0.78985,0.68254c-0.29769,-0.0112 -0.55751,-0.29302 -0.73629,-0.74005c-0.17879,-0.44651 -0.27688,-1.05724 -0.25165,-1.7268v0v0v0z" fill="#ec008c" stroke="#000000" stroke-width="1.30982" stroke-linecap="butt" stroke-linejoin="miter"/><path d="M265.58709,192.76021c-1.88517,-0.32951 -8.1041,1.33069 -8.60027,0.66218c-0.4967,-0.6691 0.51936,-1.16376 1.61112,-2.83839c1.09176,-1.6741 3.47824,-6.58342 3.47824,-6.58342" fill="#ffe154" stroke="#000000" stroke-width="1.52832" stroke-linecap="round" stroke-linejoin="round"/><path d="M259.18944,192.07978v0v0v0v0c0,0 2.79273,-3.32679 3.92916,-5.67882c0.37022,1.44512 1.46033,3.86493 1.95545,4.9223c0,0 -0.36298,-0.04592 -0.36205,-0.04486c-1.22147,-0.244 -5.52256,0.80138 -5.52256,0.80138z" fill="#58595b" stroke="none" stroke-width="0.76416" stroke-linecap="butt" stroke-linejoin="miter"/><path d="M261.42295,175.68272c0,0 -2.01013,-5.075 -2.97277,-6.82604c-0.96264,-1.75203 -1.93859,-2.32232 -1.39294,-2.95209c0.54506,-0.62878 6.6209,1.49432 8.52603,1.30823" fill="#ffe154" stroke="#000000" stroke-width="1.52832" stroke-linecap="round" stroke-linejoin="round"/><path d="M259.15307,167.40873c0,0 4.21025,1.36613 5.4466,1.21475c-0.00105,0.00152 0.36436,-0.01746 0.36436,-0.01746c-0.57332,1.01712 -1.84241,3.34747 -2.32034,4.76117c-0.95671,-2.43095 -3.49062,-5.95846 -3.49062,-5.95846v0v0v0z" fill="#58595b" stroke="none" stroke-width="0.76416" stroke-linecap="butt" stroke-linejoin="miter"/><path d="M220.2648,182.83781c-0.32312,1.40994 -1.72621,2.29452 -3.13885,1.9768c-4.77395,-1.07153 -8.47656,-0.57641 -11.005,1.47278c-4.20274,3.40564 -4.2393,10.27141 -4.23838,10.33893c0.01772,1.45454 -1.14485,2.64339 -2.59787,2.66164c-1.45203,0.01831 -2.64333,-1.14538 -2.66118,-2.59741c-0.00468,-0.38399 -0.04157,-9.44236 6.18612,-14.48996c3.84108,-3.1125 9.04599,-3.95959 15.46834,-2.51711c1.41666,0.31792 2.30769,1.72522 1.98978,3.14188c-0.00112,0.00395 -0.00178,0.00797 -0.00296,0.01245v0v0v0v0z" fill="#ffe154" stroke="#000000" stroke-width="1.52832" stroke-linecap="butt" stroke-linejoin="miter"/></g><path d="" fill="#9966ff" stroke="none" stroke-width="0.5" stroke-linecap="butt" stroke-linejoin="miter"/></g></g></svg>