<svg version="1.1" xmlns="http://www.w3.org/2000/svg" xmlns:xlink="http://www.w3.org/1999/xlink" width="167.3625" height="353.89741" viewBox="0,0,167.3625,353.89741"><g transform="translate(-267.5518,-4.43042)"><g data-paper-data="{&quot;isPaintingLayer&quot;:true}" fill-rule="nonzero" stroke-linecap="butt" stroke-linejoin="miter" stroke-miterlimit="10" stroke-dasharray="" stroke-dashoffset="0" style="mix-blend-mode: normal"><path d="M374.64289,29c0,-11.75526 9.52952,-21.28477 21.28477,-21.28477c11.75526,0 21.28477,9.52952 21.28477,21.28477c0,11.75526 -9.52952,21.28477 -21.28477,21.28477c-11.75526,0 -21.28477,-9.52952 -21.28477,-21.28477z" fill="#fde800" stroke="none" stroke-width="NaN"/><path d="M372.35809,29c0,-13.01712 10.55246,-23.56958 23.56958,-23.56958c13.01712,0 23.56958,10.55246 23.56958,23.56958c0,13.01712 -10.55246,23.56958 -23.56958,23.56958c-13.01712,0 -23.56958,-10.55246 -23.56958,-23.56958z" fill="none" stroke="#fde800" stroke-width="2"/><path d="M386.41756,35.82333l16.27862,-16.27862l2.9715,2.9715l-16.27862,16.27862z" fill="#ff0095" stroke="#ff0095" stroke-width="2.5"/><text transform="translate(387.8018,350.07783) scale(0.5,0.5)" font-size="40" xml:space="preserve" fill="#000000" fill-rule="nonzero" stroke="#000000" stroke-width="1" stroke-linecap="butt" stroke-linejoin="miter" stroke-miterlimit="10" stroke-dasharray="" stroke-dashoffset="0" font-family="Handwriting" font-weight="normal" text-anchor="start" style="mix-blend-mode: normal"><tspan x="0" dy="0">Lives:</tspan></text><text transform="translate(267.8018,350.07783) scale(0.5,0.5)" font-size="40" xml:space="preserve" fill="#000000" fill-rule="nonzero" stroke="#000000" stroke-width="1" stroke-linecap="butt" stroke-linejoin="miter" stroke-miterlimit="10" stroke-dasharray="" stroke-dashoffset="0" font-family="Handwriting" font-weight="normal" text-anchor="start" style="mix-blend-mode: normal"><tspan x="0" dy="0">Blocks:</tspan></text></g></g></svg>