<svg version="1.1" xmlns="http://www.w3.org/2000/svg" xmlns:xlink="http://www.w3.org/1999/xlink" width="44.20739" height="31.96666" viewBox="0,0,44.20739,31.96666"><g transform="translate(-277.67972,-164.01667)"><g data-paper-data="{&quot;isPaintingLayer&quot;:true}" fill-rule="nonzero" stroke-linecap="butt" stroke-linejoin="miter" stroke-miterlimit="10" stroke-dasharray="" stroke-dashoffset="0" style="mix-blend-mode: normal"><path d="M278.92972,180c0,-8.137 6.59633,-14.73333 14.73333,-14.73333c8.137,0 14.73333,6.59633 14.73333,14.73333c0,8.137 -6.59633,14.73333 -14.73333,14.73333c-8.137,0 -14.73333,-6.59633 -14.73333,-14.73333z" fill="#fde800" stroke="#ffe900" stroke-width="2.5"/><path d="M304.66259,180c0,6.07488 -4.92466,10.99954 -10.99954,10.99954c-6.07488,0 -10.99954,-4.92466 -10.99954,-10.99954c0,-6.07488 4.92466,-10.99954 10.99954,-10.99954c6.07488,0 10.99954,4.92466 10.99954,10.99954z" fill="#fdf500" stroke="#fcf400" stroke-width="2.5"/><text transform="translate(289.83035,183.63287) scale(0.30274,0.30274)" font-size="40" xml:space="preserve" fill="#fd9800" fill-rule="nonzero" stroke="none" stroke-width="1" stroke-linecap="butt" stroke-linejoin="miter" stroke-miterlimit="10" stroke-dasharray="" stroke-dashoffset="0" font-family="Sans Serif" font-weight="normal" text-anchor="start" style="mix-blend-mode: normal"><tspan x="0" dy="0">C</tspan></text><text transform="translate(310.27461,185.76875) scale(0.5,0.5)" font-size="40" xml:space="preserve" fill="#000000" fill-rule="nonzero" stroke="none" stroke-width="1" stroke-linecap="butt" stroke-linejoin="miter" stroke-miterlimit="10" stroke-dasharray="" stroke-dashoffset="0" font-family="Sans Serif" font-weight="normal" text-anchor="start" style="mix-blend-mode: normal"><tspan x="0" dy="0">x</tspan></text></g></g></svg>