<svg version="1.1" xmlns="http://www.w3.org/2000/svg" xmlns:xlink="http://www.w3.org/1999/xlink" width="90.725" height="90.725" viewBox="0,0,90.725,90.725"><defs><radialGradient cx="240" cy="180" r="45.3625" gradientUnits="userSpaceOnUse" id="color-1"><stop offset="0" stop-color="#ff009f"/><stop offset="1" stop-color="#ff009f" stop-opacity="0"/></radialGradient></defs><g transform="translate(-194.6375,-134.6375)"><g data-paper-data="{&quot;isPaintingLayer&quot;:true}" fill-rule="nonzero" stroke-linejoin="miter" stroke-miterlimit="10" stroke-dasharray="" stroke-dashoffset="0" style="mix-blend-mode: normal"><path d="M194.6375,180c0,-25.053 20.3095,-45.3625 45.3625,-45.3625c25.053,0 45.3625,20.3095 45.3625,45.3625c0,25.053 -20.3095,45.3625 -45.3625,45.3625c-25.053,0 -45.3625,-20.3095 -45.3625,-45.3625z" data-paper-data="{&quot;index&quot;:null}" fill="url(#color-1)" stroke="none" stroke-width="NaN" stroke-linecap="butt"/><path d="" fill="#ff0000" stroke="#ff0000" stroke-width="2.5" stroke-linecap="butt"/><path d="" fill="#ff0000" stroke="#ff0000" stroke-width="2.5" stroke-linecap="butt"/><path d="M256.4709,180c0,21.67132 -7.94173,39.23939 -17.73835,39.23939c-9.79662,0 -17.73835,-17.56807 -17.73835,-39.23939c0,-21.67132 7.94173,-39.23939 17.73835,-39.23939c9.79662,0 17.73835,17.56807 17.73835,39.23939z" fill="none" stroke="#000000" stroke-width="10" stroke-linecap="butt"/><path d="M256.4709,180c0,21.67132 -7.94173,39.23939 -17.73835,39.23939c-9.79662,0 -17.73835,-17.56807 -17.73835,-39.23939c0,-21.67132 7.94173,-39.23939 17.73835,-39.23939c9.79662,0 17.73835,17.56807 17.73835,39.23939z" fill="none" stroke="#ff009f" stroke-width="7.5" stroke-linecap="butt"/><path d="M253.8171,179.20744l5.18871,3.74716" data-paper-data="{&quot;index&quot;:null}" fill="none" stroke="#000000" stroke-width="2.5" stroke-linecap="round"/><path d="M258.63444,172.59095l-5.10293,6.54448" data-paper-data="{&quot;index&quot;:null}" fill="none" stroke="#000000" stroke-width="2.5" stroke-linecap="round"/></g></g></svg>