<svg version="1.1" xmlns="http://www.w3.org/2000/svg" xmlns:xlink="http://www.w3.org/1999/xlink" width="8.95685" height="8.82872" viewBox="0,0,8.95685,8.82872"><g transform="translate(-235.52157,-175.58566)"><g data-paper-data="{&quot;isPaintingLayer&quot;:true}" fill="#00ffb5" fill-rule="nonzero" stroke-linejoin="miter" stroke-miterlimit="10" stroke-dasharray="" stroke-dashoffset="0" style="mix-blend-mode: normal"><path d="M238.86247,180.00001c0,-0.62824 0.50928,-1.13752 1.13752,-1.13752c0.62824,0 1.13752,0.50929 1.13752,1.13752c0,0.62824 -0.50928,1.13752 -1.13752,1.13752c-0.62824,0 -1.13752,-0.50928 -1.13752,-1.13752z" stroke="none" stroke-width="0" stroke-linecap="butt"/><path d="M240.3245,178.94451l-0.57486,0.001l0.2704,-0.57305z" stroke="#00ffaf" stroke-width="2.5" stroke-linecap="round"/><path d="M241.11955,180.21423l-0.001,-0.57486l0.57305,0.2704z" stroke="#00ffaf" stroke-width="2.5" stroke-linecap="round"/><path d="M239.7514,181.05551l0.57486,-0.001l-0.2704,0.57305z" stroke="#00ffaf" stroke-width="2.5" stroke-linecap="round"/><path d="M238.88043,179.70754l0.001,0.57486l-0.57305,-0.27041z" stroke="#00ffaf" stroke-width="2.5" stroke-linecap="round"/><path d="M239.03743,180.50476l0.4072,0.40578l-0.59642,0.214z" stroke="#00ffaf" stroke-width="2.5" stroke-linecap="round"/><path d="M239.48981,178.9822l-0.40578,0.4072l-0.214,-0.59642z" stroke="#00ffaf" stroke-width="2.5" stroke-linecap="round"/><path d="M241.0118,179.39187l-0.4072,-0.40578l0.59642,-0.214z" stroke="#00ffaf" stroke-width="2.5" stroke-linecap="round"/><path d="M240.63827,180.87307l0.40578,-0.4072l0.214,0.59642z" stroke="#00ffaf" stroke-width="2.5" stroke-linecap="round"/></g></g></svg>