<svg version="1.1" xmlns="http://www.w3.org/2000/svg" xmlns:xlink="http://www.w3.org/1999/xlink" width="123.16843" height="129.06976" viewBox="0,0,123.16843,129.06976"><defs><radialGradient cx="215.5" cy="139.025" r="2.75" gradientUnits="userSpaceOnUse" id="color-1"><stop offset="0" stop-color="#e8ff5c"/><stop offset="1" stop-color="#e8ff5c" stop-opacity="0"/></radialGradient><radialGradient cx="199.5" cy="139.625" r="2.75" gradientUnits="userSpaceOnUse" id="color-2"><stop offset="0" stop-color="#e8ff5c"/><stop offset="1" stop-color="#e8ff5c" stop-opacity="0"/></radialGradient></defs><g transform="translate(-179.64053,-115.46512)"><g data-paper-data="{&quot;isPaintingLayer&quot;:true}" fill-rule="nonzero" stroke-linecap="butt" stroke-linejoin="miter" stroke-miterlimit="10" stroke-dasharray="" stroke-dashoffset="0" style="mix-blend-mode: normal"><g stroke="#000000"><path d="M230.37401,230.59616l0.04001,-27.21326l69.94544,-32.10708l-3.7771,28.32902z" data-paper-data="{&quot;index&quot;:null}" fill="#000000" stroke-width="2"/><path d="M231.21264,203.05671l-6.80045,-29.28379l63.65184,-29.67722l11.48942,26.4501z" data-paper-data="{&quot;index&quot;:null}" fill="#4c4c4c" stroke-width="5"/></g><path d="M179.64053,143.80814c0,-15.65342 12.6896,-28.34302 28.34302,-28.34302c15.65342,0 28.34303,12.6896 28.34303,28.34302c0,15.65342 -12.6896,28.34303 -28.34303,28.34303c-15.65342,0 -28.34302,-12.6896 -28.34302,-28.34303z" fill="#000000" stroke="#000000" stroke-width="NaN"/><path d="M199.69867,244.53488v-100.2907h13.0814v100.2907z" fill="#000000" stroke="none" stroke-width="0"/><path d="M244.12783,221.61943l-40.69975,-40.69975l6.7833,-6.78329l40.69975,40.69975z" fill="#000000" stroke="none" stroke-width="0"/><path d="M260.72809,201.06947l-53.00687,-22.43238l3.73873,-8.83447l53.00687,22.43237z" fill="#000000" stroke="none" stroke-width="0"/><path d="M215.5,141.775c-1.51879,0 -2.75,-1.23121 -2.75,-2.75c0,-1.51879 1.23121,-2.75 2.75,-2.75c1.51879,0 2.75,1.23121 2.75,2.75c0,1.51879 -1.23121,2.75 -2.75,2.75z" data-paper-data="{&quot;index&quot;:null}" fill="url(#color-1)" stroke="none" stroke-width="0"/><path d="M196.75,139.625c0,-1.51879 1.23121,-2.75 2.75,-2.75c1.51879,0 2.75,1.23121 2.75,2.75c0,1.51879 -1.23121,2.75 -2.75,2.75c-1.51879,0 -2.75,-1.23121 -2.75,-2.75z" data-paper-data="{&quot;index&quot;:null}" fill="url(#color-2)" stroke="none" stroke-width="0"/></g></g></svg>