<svg version="1.1" xmlns="http://www.w3.org/2000/svg" xmlns:xlink="http://www.w3.org/1999/xlink" width="444.04167" height="319.01268" viewBox="0,0,444.04167,319.01268"><g transform="translate(-21.70833,-41)"><g data-paper-data="{&quot;isPaintingLayer&quot;:true}" fill-rule="nonzero" stroke-linejoin="miter" stroke-miterlimit="10" stroke-dasharray="" stroke-dashoffset="0" style="mix-blend-mode: normal"><path d="M54.5,314v-268h371v268z" fill="#00ffb6" stroke="#ffde00" stroke-width="10" stroke-linecap="butt"/><text transform="translate(146.5,79.34453) scale(0.83415,0.83415)" font-size="40" xml:space="preserve" fill="#ffea00" fill-rule="nonzero" stroke="#000000" stroke-width="1" stroke-linecap="butt" stroke-linejoin="miter" stroke-miterlimit="10" stroke-dasharray="" stroke-dashoffset="0" font-family="Handwriting" font-weight="normal" text-anchor="start" style="mix-blend-mode: normal"><tspan x="0" dy="0">Online Levels</tspan></text><path d="M60,133v-44h360v44z" fill="#00fffe" stroke="#000000" stroke-width="5" stroke-linecap="butt"/><path d="M60,177v-44h360v44z" fill="#00fffe" stroke="#000000" stroke-width="5" stroke-linecap="butt"/><path d="M174.5,174.30001v-39" fill="none" stroke="#000000" stroke-width="5" stroke-linecap="round"/><path d="M307.5,134.30001v39" fill="none" stroke="#000000" stroke-width="5" stroke-linecap="round"/><text transform="translate(204.5,117.3) scale(0.5,0.5)" font-size="40" xml:space="preserve" fill="#000000" fill-rule="nonzero" stroke="none" stroke-width="1" stroke-linecap="butt" stroke-linejoin="miter" stroke-miterlimit="10" stroke-dasharray="" stroke-dashoffset="0" font-family="Handwriting" font-weight="normal" text-anchor="start" style="mix-blend-mode: normal"><tspan x="0" dy="0">Featured</tspan></text><text transform="translate(88.5,160.3) scale(0.5,0.5)" font-size="40" xml:space="preserve" fill="#000000" fill-rule="nonzero" stroke="none" stroke-width="1" stroke-linecap="butt" stroke-linejoin="miter" stroke-miterlimit="10" stroke-dasharray="" stroke-dashoffset="0" font-family="Handwriting" font-weight="normal" text-anchor="start" style="mix-blend-mode: normal"><tspan x="0" dy="0">Names</tspan></text><text transform="translate(193.04001,161.76875) scale(0.5,0.5)" font-size="40" xml:space="preserve" fill="#000000" fill-rule="nonzero" stroke="none" stroke-width="1" stroke-linecap="butt" stroke-linejoin="miter" stroke-miterlimit="10" stroke-dasharray="" stroke-dashoffset="0" font-family="Handwriting" font-weight="normal" text-anchor="start" style="mix-blend-mode: normal"><tspan x="0" dy="0">Description</tspan></text><text transform="translate(338.5,160.3) scale(0.5,0.5)" font-size="40" xml:space="preserve" fill="#000000" fill-rule="nonzero" stroke="none" stroke-width="1" stroke-linecap="butt" stroke-linejoin="miter" stroke-miterlimit="10" stroke-dasharray="" stroke-dashoffset="0" font-family="Handwriting" font-weight="normal" text-anchor="start" style="mix-blend-mode: normal"><tspan x="0" dy="0">Codes</tspan></text><path d="" fill="#2d3d7c" stroke="none" stroke-width="0" stroke-linecap="butt"/><path d="" fill="#2d3d7c" stroke="none" stroke-width="0" stroke-linecap="butt"/><g stroke="#000000"><path d="M28.33599,324.43291v-8.06648c0,0 1.06991,-1.32588 2.62015,-2.19439c1.09835,-0.61535 2.59509,-0.86846 3.42433,-0.84727c0.87253,0.0223 2.43868,0.41507 3.56093,1.14244c1.41123,0.91467 2.30408,2.20362 2.30408,2.20362v8.06648" fill="none" stroke-width="2.5" stroke-linecap="round"/><path d="M22.95833,347.78767v-23.08333h23.08333v23.08333z" fill="#e4cd00" stroke-width="2.5" stroke-linecap="butt"/><path d="M31.15165,333.15385c0,-1.76519 1.43096,-3.19615 3.19615,-3.19615c1.76519,0 3.19615,1.43096 3.19615,3.19615c0,1.76519 -1.43096,3.19615 -3.19615,3.19615c-1.76519,0 -3.19615,-1.43096 -3.19615,-3.19615z" fill="#000000" stroke-width="1" stroke-linecap="butt"/><path d="M33.74797,342.36629v-7.39503h1.2534v7.39503z" fill="#000000" stroke-width="1" stroke-linecap="butt"/></g><path d="" fill="#00ffb6" stroke="none" stroke-width="0.5" stroke-linecap="butt"/><path d="M453.125,360.01268v-23.75c0,0 0.83891,-1.56909 2.31047,-2.68195c1.12639,-0.85183 3.08663,-1.31805 3.97525,-1.31805c0.9062,0 2.50848,0.56535 3.72961,1.38578c1.68096,1.12936 2.60967,2.61422 2.60967,2.61422v23.75z" fill="#000000" stroke="none" stroke-width="NaN" stroke-linecap="butt"/><text transform="translate(178.12002,215.76875) scale(0.5,0.5)" font-size="40" xml:space="preserve" fill="#000000" fill-rule="nonzero" stroke="none" stroke-width="1" stroke-linecap="butt" stroke-linejoin="miter" stroke-miterlimit="10" stroke-dasharray="" stroke-dashoffset="0" font-family="Handwriting" font-weight="normal" text-anchor="start" style="mix-blend-mode: normal"><tspan x="0" dy="0">Nothing Here...</tspan></text></g></g></svg>