<svg version="1.1" xmlns="http://www.w3.org/2000/svg" xmlns:xlink="http://www.w3.org/1999/xlink" width="31.3895" height="31.3895" viewBox="0,0,31.3895,31.3895"><g transform="translate(-224.30525,-164.30525)"><g data-paper-data="{&quot;isPaintingLayer&quot;:true}" fill-rule="nonzero" stroke-linejoin="miter" stroke-miterlimit="10" stroke-dasharray="" stroke-dashoffset="0" style="mix-blend-mode: normal"><path d="M224.31524,195.52138l15.5,-15.54276l15.86952,-15.5v31.04276z" fill="#00e6ff" stroke="#00ffff" stroke-width="0" stroke-linecap="butt"/><path d="M230.22692,191.04318l5.30952,-4.28835l5.44985,-6.02381v9.97883z" fill="#00ffae" stroke="#000000" stroke-width="0" stroke-linecap="butt"/><path d="M248.99958,190.71687v-9.97883h6.61388v9.97883z" fill="#00ffae" stroke="#000000" stroke-width="0" stroke-linecap="butt"/><path d="M246.71925,174.71136l3.96429,-3.58598l3.86614,-4.67857l0.07143,8.26455z" fill="#00ffae" stroke="#000000" stroke-width="0" stroke-linecap="butt"/><path d="M232.03644,190.40364l4.33333,-3.8158l4.44368,-4.85714c0,0 -0.2146,4.82516 -0.30594,6.3661c-0.05207,0.87841 0.09166,2.21159 0.09166,2.21159z" fill="#00ff6c" stroke="none" stroke-width="0" stroke-linecap="butt"/><path d="M248.25853,173.88507l3.17857,-2.44343l2.43076,-3.21429c0,0 -0.03707,0.83895 -0.06395,1.44716c-0.04584,1.03744 -0.18605,4.21055 -0.18605,4.21055z" fill="#00ff6c" stroke="none" stroke-width="0" stroke-linecap="butt"/><path d="M249.81181,189.67257v-8.00627h5.68215v8.00627z" fill="#00ff6c" stroke="none" stroke-width="0" stroke-linecap="butt"/><path d="M254.44475,165.55525l-28.8895,28.8895" fill="none" stroke="#0c0c0c" stroke-width="2.5" stroke-linecap="round"/></g></g></svg>