<svg version="1.1" xmlns="http://www.w3.org/2000/svg" xmlns:xlink="http://www.w3.org/1999/xlink" width="40.07341" height="42.14639" viewBox="0,0,40.07341,42.14639"><g transform="translate(-219.96329,-158.9268)"><g data-paper-data="{&quot;isPaintingLayer&quot;:true}" fill-rule="nonzero" stroke="#000000" stroke-width="1.5" stroke-linecap="butt" stroke-linejoin="miter" stroke-miterlimit="10" stroke-dasharray="" stroke-dashoffset="0" style="mix-blend-mode: normal"><path d="M244.34921,165.06254c8.24975,0 14.9375,6.68775 14.9375,14.9375c0,8.24975 -6.68775,14.9375 -14.9375,14.9375c-8.24975,0 -14.9375,-6.68775 -14.9375,-14.9375c0,-8.24975 6.68775,-14.9375 14.9375,-14.9375z" data-paper-data="{&quot;index&quot;:null}" fill="#ff009a"/><path d="M244.34921,173.31254c3.6934,0 6.6875,2.9941 6.6875,6.6875c0,3.6934 -2.9941,6.6875 -6.6875,6.6875c-3.6934,0 -6.6875,-2.9941 -6.6875,-6.6875c0,-3.6934 2.9941,-6.6875 6.6875,-6.6875z" data-paper-data="{&quot;index&quot;:null}" fill="#fee700"/><path d="M237.14434,159.67681v40.64639h-16.43104v-40.64639z" data-paper-data="{&quot;index&quot;:null}" fill="#ff009a"/></g></g></svg>