<svg version="1.1" xmlns="http://www.w3.org/2000/svg" xmlns:xlink="http://www.w3.org/1999/xlink" width="52.225" height="52.225" viewBox="0,0,52.225,52.225"><defs><radialGradient cx="240" cy="180" r="26.1125" gradientUnits="userSpaceOnUse" id="color-1"><stop offset="0" stop-color="#ffe900"/><stop offset="1" stop-color="#ffe900" stop-opacity="0"/></radialGradient></defs><g transform="translate(-213.8875,-153.8875)"><g data-paper-data="{&quot;isPaintingLayer&quot;:true}" fill-rule="nonzero" stroke-linecap="butt" stroke-linejoin="miter" stroke-miterlimit="10" stroke-dasharray="" stroke-dashoffset="0" style="mix-blend-mode: normal"><path d="M213.8875,180c0,-14.42154 11.69097,-26.1125 26.1125,-26.1125c14.42154,0 26.1125,11.69097 26.1125,26.1125c0,14.42154 -11.69096,26.1125 -26.1125,26.1125c-14.42154,0 -26.1125,-11.69097 -26.1125,-26.1125z" fill="url(#color-1)" stroke="none" stroke-width="NaN"/><path d="M225.26668,180.00001c0,-8.137 6.59633,-14.73333 14.73333,-14.73333c8.137,0 14.73333,6.59633 14.73333,14.73333c0,8.137 -6.59633,14.73333 -14.73333,14.73333c-8.137,0 -14.73333,-6.59633 -14.73333,-14.73333z" fill="#fde800" stroke="#ffe900" stroke-width="2.5"/><path d="M250.99955,180.00001c0,6.07488 -4.92466,10.99954 -10.99954,10.99954c-6.07488,0 -10.99954,-4.92466 -10.99954,-10.99954c0,-6.07488 4.92466,-10.99954 10.99954,-10.99954c6.07488,0 10.99954,4.92466 10.99954,10.99954z" fill="#fdf500" stroke="#fcf400" stroke-width="2.5"/><text transform="translate(236.16731,183.63288) scale(0.30274,0.30274)" font-size="40" xml:space="preserve" fill="#fd9800" fill-rule="nonzero" stroke="none" stroke-width="1" stroke-linecap="butt" stroke-linejoin="miter" stroke-miterlimit="10" stroke-dasharray="" stroke-dashoffset="0" font-family="Sans Serif" font-weight="normal" text-anchor="start" style="mix-blend-mode: normal"><tspan x="0" dy="0">C</tspan></text></g></g></svg>