<svg version="1.1" xmlns="http://www.w3.org/2000/svg" xmlns:xlink="http://www.w3.org/1999/xlink" width="62.28958" height="36.88727" viewBox="0,0,62.28958,36.88727"><g transform="translate(-218.19455,-155.37851)"><g data-paper-data="{&quot;isPaintingLayer&quot;:true}" fill-rule="nonzero" stroke-linejoin="miter" stroke-miterlimit="10" stroke-dasharray="" stroke-dashoffset="0" style="mix-blend-mode: normal"><g><g stroke="#000000" stroke-width="0" stroke-linecap="round"><path d="M263.2102,189.88582c0,0 -7.14404,1.80379 -21.89823,-1.6246c-15.66439,-3.63989 -22.558,-9.26706 -22.558,-9.26706c0,0 1.59279,-5.43781 1.63063,-5.50267c4.11583,-7.05333 21.21811,-21.2208 36.77196,-15.95003c3.96278,1.34288 10.27647,3.30981 11.58131,6.23796c1.32378,2.97066 -4.79888,5.41572 -5.82232,8.87859c-1.21046,4.0956 2.49356,9.16403 2.33797,11.75664c-0.00576,0.09594 -2.04331,5.47117 -2.04331,5.47117z" fill="#ffffff"/><path d="M264.22824,184.57425c-2.23784,-0.5233 -12.08077,-2.43179 -22.35192,-4.92125c-10.35624,-2.51008 -21.13205,-5.59913 -21.13205,-5.59913" fill="#e6e6e6"/></g><g fill="#bf0000" stroke="#000000" stroke-width="0" stroke-linecap="round"><path d="M220.07528,174.11714c4.11583,-7.05333 21.52744,-21.84643 37.08128,-16.57566c3.96278,1.34288 10.27647,3.30981 11.58131,6.23796c1.32378,2.97066 -4.79888,5.41572 -5.82232,8.87859c-1.21046,4.0956 2.49356,9.16403 2.33797,11.75664c-0.00287,0.0477 -11.48077,-1.40361 -22.63712,-4.12223c-11.28551,-2.75009 -22.56015,-6.14268 -22.54112,-6.1753z"/><path d="M264.22824,184.57425c-2.23784,-0.5233 -12.08077,-2.43179 -22.35192,-4.92125c-10.35624,-2.51008 -21.13205,-5.59913 -21.13205,-5.59913"/></g><path d="M263.24843,171.49441c0.54434,3.15805 1.08234,6.33183 1.33467,9.53139c0.06592,0.8359 0.38092,2.6447 -0.68576,3.12767c-0.52836,0.23923 -1.05152,-0.10525 -1.58231,-0.49168c-0.52717,0.04502 -1.08471,-0.06043 -1.55926,-0.13562c-2.26573,-0.35896 -4.2802,-1.37185 -6.50842,-1.81199c-0.01951,-0.00366 -0.03901,-0.00734 -0.0585,-0.01103c-0.63252,-0.11343 -1.59739,-0.11034 -2.26783,-0.31568c-0.19669,0.12017 -0.4272,0.24448 -0.69477,0.37353c-1.08922,0.5253 -4.34703,-1.64054 -5.61115,-1.91011c-3.21394,-0.68596 -6.5091,-1.51289 -9.73554,-2.46582c-1.02054,-0.1919 -2.04905,-0.43033 -3.04497,-0.71713c-0.16324,0.23854 -0.42875,0.40413 -0.7393,0.42942c-0.16625,0.01354 -0.32625,-0.01469 -0.46969,-0.0759l-1.13243,-0.45546c-0.0886,-0.03572 -0.17726,-0.07087 -0.26596,-0.10547c-0.08294,-0.17811 -0.24287,-0.27888 -0.24287,-0.27888c-0.99817,-0.62719 -1.92605,-1.15334 -3.10902,-1.29586l-0.39348,0.33466c-1.20483,-0.36343 -2.40482,-0.72514 -3.58742,-1.17987l-0.01158,0.11709l-1.21731,-0.12043c-0.47676,-0.0382 -0.86919,-0.41721 -0.90927,-0.90935c-0.04233,-0.51987 0.32375,-0.97876 0.8299,-1.06076l0.30411,-0.0528c0.01707,-0.79296 1.03988,-1.4247 1.42085,-2.18306l0.0533,-0.14451c0,0 0.30551,-0.75961 1.05144,-0.62198c0.09382,-0.42746 0.25831,-0.88193 0.50266,-1.36829c0,0 0.45624,-0.88206 1.33831,-0.42582c0.88206,0.45624 -5.49618,4.28337 17.3591,9.58956c21.77266,5.05484 18.61663,-3.10729 18.61663,-3.10729c0,0 1.01517,-2.56172 1.01586,-2.25855z" fill="#a70000" stroke="none" stroke-width="0.5" stroke-linecap="butt"/><g fill="none" stroke="#000000" stroke-width="2.5" stroke-linecap="round"><path d="M263.4584,190.19962c-1.92914,1.18257 -7.39224,1.49001 -22.14643,-1.93838c-15.66439,-3.63989 -21.29797,-7.60539 -21.86742,-8.98932c-0.81997,-1.99275 0.90221,-5.71556 0.94005,-5.78042c2.33777,-4.00625 12.56769,-14.59179 25.72272,-16.86299c9.52636,-1.64471 23.46476,5.77778 23.36746,8.14102c-0.12742,3.09503 -5.07237,4.73606 -6.53824,8.09875c-1.39011,3.18888 2.49221,8.62645 2.31698,11.54638c-0.00576,0.09594 -0.60803,5.05727 -1.79511,5.78495z"/><path d="M264.22824,184.57425c-2.23784,-0.5233 -12.08077,-2.43179 -22.35192,-4.92125c-10.35624,-2.51008 -21.13205,-5.59913 -21.13205,-5.59913"/></g><path d="M266.70783,166.28408c-0.25216,-3.09666 2.44354,-6.92397 5.54021,-7.17612c3.09666,-0.25216 6.73394,3.05946 6.9861,6.15613c0.25216,3.09666 -3.36606,5.91828 -6.46272,6.17044c-3.09666,0.25216 -5.81143,-2.05377 -6.06358,-5.15044z" fill="#ffffff" stroke="#000000" stroke-width="2.5" stroke-linecap="butt"/></g></g></g></svg>