<svg xmlns="http://www.w3.org/2000/svg" width="357" height="569" viewBox="0 0 94.192 150.492"><g transform="matrix(0 -.264583 .264583 0 -62.749251 102.15049)"><path d="M-112.33 593.16h.012zm340.638-338.194l33.278.1-.105-17.902-302.598-.002.13 17.667zm-269.296-.138h-.262l.264.255zM-94.416 539.87l-.207-.213v.213zm391.394 35.382l.207.2v-.2zm-35.602.203l.208-.2h-.208z"/><path d="M-41.13 576.352c5.447-2.064 10.994-.287 16.748-1.294 2.607-5.158-.2-11.245 1.842-17.06h17.02v35.16h53.4l.186-17.613H64.63c2.107-5.687.324-11.258 1.477-17.266h88.327v17.266H172.3l.183 17.613h53.398V557.98h17.7v17.272h17.795v-17.1c11.84-1.148 23.104-.5 35.8-.408v17.517h16.563c2.664-5.35-.1-11.408 2.03-17.576h17.114v-17.918h-176.92c-2.594-5.502-.377-11.22-2.1-17.85H136.75v17.945H-41.018v16.467c-5.676 2.405-11.33.404-16.803 1.704-2.5 5.197.108 10.93-1.984 16.77-11 1.124-22.236.426-34.817.443v-35.37h-17.694v53.3l71.187.002V576.36zm248.48-18.058c1.387 5.12.626 10.467.466 17.06H172.5v-17.06zM47.875 557.7v17.664H13.4c-1.995-5.662-.895-11.06-.936-17.065 11.592-1.43 22.857-.536 35.4-.6zm213.7 17.555l-.208.2h.207zm-.093 17.905h35.6l-.102-17.705h-35.396zm35.704-17.705l-.207-.2v.2zm-338.204-35.8l.005-.005h-.195v.2l-.003.003h.193zM-58.8 272.892l-.255-.263v.263zm-.246 248.2v-248.2h-17.88v123.964H-94.64v-17.4h-17.758v-17.25h-70.3v53.303h16.924v16.488c6.257 2.27 12.43-.642 17.53 2.013 1.173 5.8-.96 11.436 1.24 16.24 5.918 1.427 11.563-.812 16.425 1.446 1.346 5.854-.787 11.484 1.447 16.532 11.787 1.1 23.185-.693 34.155.977 1.253 6.105-.67 11.716 1.355 16.733 5.836 1.206 11.44-.7 17.083 1.52-.742 11.62.755 22.95-.846 34.024-5.998 1.272-11.614-.65-17.02 1.45v16.726l53.203.006v-16.488c-5.4-2.616-11.1-.175-17.835-2.082zm-52.958-70.896l-.002-15.582c-5.653-3.234-11.432-.516-17.08-2.296-2.414-4.894.002-10.633-1.613-16.15-5.127-2.376-10.9.203-16.4-1.806-2.13-5.088.377-10.84-1.794-16.642h-15.3c-2.7-5.815-1.127-11.285-1.427-17.4h34.53c2.388 4.9-.262 10.66 1.75 16.182 5.04 2.178 10.802-.34 16.604 1.813V413.4c5.638 3.422 11.428.617 17 2.315 2.917 4.84-.07 10.655 2.013 16.44 4.852 1.903 10.523-.006 16.27 1.34 1.476 5.453.377 10.8.705 16.7h-35.257zM-94.4 539.87zm-.217-.215l.205.213v-.213zm35.824-266.763v-17.808h17.807l-.265-.255v17.8h-17.8z"/><path d="M368.277 414.966l-.354 53.668-35.372-.122c-.063-11.65.77-23.333-.574-35.547h-17.024c-5.745.287-11.6-.712-17.866.937v34.532h35.545v35.945h18.046l-.2 17.77.192-.192h-17.993v17.992l.216-.2h-176.92c-2.584-5.502-.367-11.22-2.1-17.85H136.75l.165.205-.167-17.904c11.65-.476 23.384.753 35.773-.8v-34.99c11.638-.07 23.3.783 35.35-.573.08-11.867.86-23.096-.538-34.892h-16.986c-5.745.287-11.6-.712-17.866.937v16.933l.12 17.676c-11.65.477-23.383-.753-35.772.8v34.988l-17.864-.02v-89.2c5.788-.077 11.642.708 17.8-.644V343.86l35.817-.006c.027 5.802-.63 11.654.6 17.806h17.216c.018 5.802-.645 11.652.596 17.8h17.204c.052 5.782-.688 11.62.485 17.193h70.644v-17.24l-.195.194h16.856c2.32-6.478-.353-12.226 2.096-17.11 5.557-2.016 11.338.902 16.806-2.237v-16.484l-.2.192h35.975l-.192-.192v71.392h17.993l-.193-.2zm-177.4 71.55v34.84h123.908c-.086-11.857.723-23.117-.604-34.78-5.982-.026-11.364-1.02-16.38.626-1.88 5.802.88 11.594-1.937 16.47h-33.48c-2.123-5.596.358-11.342-1.9-17.05-5.452-.242-10.782-.75-16.27.404-1.285 5.802.515 11.457-1.33 16.365h-34.118c-1.782-5.977.922-11.75-2.065-16.877h-15.815zM278.4 468.08v-16.804h-16.416v16.804z" fill="#989898"/><path d="M-59.05 272.63h17.8v-17.8l302.836.24-.187-.288v18.066h18.066l-.267-.266-.072 107.022.195-.194-17.86-.215v-69.31c-6.148-3.054-12.126.184-16.835-2.665-2.496-5.436 1.063-11.468-2.493-16.112-5.3-1.388-10.646.563-15.16-1.42-2.65-5.625.857-11.65-2.54-16.262H-4.31c-2.733 5.675.56 11.664-2.514 16.386-5.27 1.847-10.67-.568-15.46 1.748-2.552 5.27.685 11.248-2.286 16.004-5.25 1.896-10.644-.45-15.805 1.88v175.902c5.807 2.433 11.797-.87 16.487 2.505 1.435 5.305-.585 10.657 1.64 15.54 5.76 1.5 11.322.418 16.807.806l-.113-.113c.46 5.745-.928 11.67 1.21 17.66h123.528l17.736.374-.165-.205v17.945h-177.96v-16.68c-5.4-2.613-11.096-.174-17.838-2.08l-.01-248.466z" fill="#fecb98"/><path d="M-94.62 539.655l53.604.006v16.66c-5.678 2.406-11.334.403-16.806 1.704-2.5 5.197.107 10.93-1.984 16.77-11.018 1.125-22.237.428-34.815.443v-35.584zM48.07 575.352H13.41c-1.992-5.672-.896-11.06-.936-17.065 11.602-1.43 22.858-.537 35.4-.598v17.856zm124.42.193v-17.253h34.857c1.387 5.12.626 10.466.466 17.06h-35.516zm124.696-.08h-35.81v-17.31c11.84-1.147 23.095-.5 35.81-.408z" fill="#989898"/><path d="M279.465 272.845H261.4V254.78h18.066zm71.012 249.303l.2-17.77 17.726-.096-.23-.238v18.104h-17.706z"/><path d="M332.676 539.948v-17.993h17.993v17.992z"/><path d="M368.404 504.283l-17.726.096h-18.046v-35.945l-.08.08 35.372.122z" fill="#fe9898"/><path d="M-112.004 450.196v-15.583c-5.65-3.23-11.432-.516-17.08-2.295-2.413-4.892.004-10.634-1.6-16.15-5.13-2.377-10.89.203-16.393-1.806-2.128-5.087.38-10.84-1.794-16.642h-15.303c-2.69-5.815-1.138-11.284-1.425-17.4h34.53c2.388 4.902-.262 10.66 1.75 16.182 5.04 2.178 10.8-.342 16.604 1.813V413.4c5.64 3.422 11.43.617 16.99 2.315 2.915 4.838-.07 10.653 2.013 16.44 4.85 1.9 10.52-.006 16.27 1.34 1.478 5.454.38 10.802.708 16.7h-35.263z" fill="#989898"/><path d="M136.77 343.855v70.557c-6.158 1.35-12.012.565-17.8.644l.205.2v-71.2h17.8z"/><path d="M136.834 504.29V469.3c12.4-1.543 24.122-.314 35.77-.8l-.078-.08v34.99c-12.39 1.543-24.122.313-35.774.8z" fill="#fe9898"/><path d="M295.982 379.603c2.32-6.48-.353-12.23 2.096-17.1 5.556-2.016 11.338.903 16.806-2.236v-16.3h35.592v71.198h17.8l-.353 53.47.477 35.412 17.68.114v-89l-17.6-.192v-71.196h-17.8V326.87h-35.975v16.904H296.7V272.58h-17.5l-.072 106.826-17.674-.2-53.27.458c.032 5.718-.675 11.486.486 16.995h70.644v-17.046zm90.1 35.56l-.001-.01v.01zm-17.9 88.883l.23.238-.003-.237c-.074 0-.15 0-.227-.001zm-266.75-88.608l-.5 17.582v71.048h18.05v-88.8zm212.762 71.138c-5.98-.026-11.362-1.02-16.38.626-1.882 5.813.88 11.593-1.937 16.47h-33.5c-2.113-5.595.368-11.34-1.9-17.05-5.452-.242-10.78-.75-16.27.404-1.284 5.802.516 11.457-1.328 16.365h-34.12c-1.783-5.977.922-11.75-2.066-16.877l-15.805.001v34.84h123.9c-.086-11.86.723-23.117-.604-34.78zm-195.214-71.52v.202l.216-.002-.205-.2zm0 89.212l.205-.2h-.205zm53.42-160.213l.2-.205h-.2zm-35.423-17.15v16.95l35.412-.006v-16.945zm-.205 16.95l.205.2v-.2zm71.208 35.8l.204-.002.001-.198zM172.608 468.5v-.08h-.078z"/><path d="M297.086 468.433h35.466c-.07-11.625.768-23.3-.574-35.468h-17.026v17.866h-17.866zm-89.206-.576c.08-11.866.862-23.095-.538-34.893h-16.987v17.87H172.5l.12 17.596c11.612-.064 23.26.78 35.27-.572zm124.752.576h-.08v.08zm-54.232-.353h-16.406v-16.804H278.4zm-70.216-88.624H191c-1.24-6.147-.578-12-.596-17.8l-.206.2h17.8v17.8zm-17.8-17.8h-17.216c-1.22-6.148-.564-12.004-.6-17.806l-.2.205h17.8v17.8z"/><path d="M190.355 432.965v17.868H172.5V433.9c6.267-1.647 12.122-.648 17.866-.935zm124.6 0v17.868h-17.866V433.9c6.267-1.647 12.122-.648 17.866-.935z" fill="#fefefe"/><path d="M136.922 522.115l-17.736-.374-.01-17.674-.205.2 17.864.02-.078-.08z"/><path d="M119.176 504.067l.01 17.674H-4.34c-2.137-5.99-.75-11.904-1.2-17.66 5.758-.23 11.647.995 17.466-1.02.438-5.564.73-10.6-.277-16.527-5.777.188-11.088-1.07-17.074.942v16.718c-5.48-.388-11.043.695-16.805-.806-2.227-4.882-.207-10.235-1.64-15.54-4.69-3.376-10.682-.072-16.487-2.505V309.44c5.16-2.333 10.556.017 15.805-1.88 2.972-4.755-.267-10.733 2.286-16.004 4.79-2.316 10.19.1 15.46-1.748 3.074-4.722-.223-10.71 2.514-16.386H224.44c3.396 4.602-.1 10.637 2.54 16.262 4.516 1.98 9.86.03 15.16 1.42 3.557 4.646-.003 10.68 2.493 16.11 4.71 2.85 10.688-.388 16.835 2.666v69.3l-53.475.462V361.84h-17.8v-17.8h-17.8v-17.15H136.98v17.15h-17.8v71.2l-17.764.183c-5.794-.16-11.647-1.083-17.534.77-.495 5.585-.72 10.628.245 16.8h16.8v71.048l18.25.005v.01zM83.034 379.14c.412-6.232 1.188-11.524-.854-17.564-5.51 1.07-10.944-1.355-16.186 1.656-.318 5.302-.702 10.32.28 15.755 5.527.93 10.535.636 16.762.154zm-34.56 106.84c6.138.407 11.153.76 16.686-.218.662-5.802.974-11.06-.295-16.772-5.803-.418-11.088-1.136-16.56.64-.576 5.465-.73 10.46.168 16.35zm160.17-159.574c-.633 5.595-1.117 11.104.296 17.136 5.792.384 11.083 1.16 16.625-.723.117-5.722 1.315-11.076-1.084-16.414zm-196.47-.47c-.284-6.272 1.025-11.56-.916-17.19-5.696-.294-11.008-1.2-16.495.852-.026 5.692-1.375 11.072 1.205 16.34zm142.045-34.984c-6.27-.417-11.284-.77-17.143.267.104 5.738-.965 11.004.833 17.146 5.572-.593 10.897 1.144 16.31-1.155zm-70.174 17.1c6.34.063 11.704 1.36 16.632-.98v-16.025c-5.885-.57-11.15-1.05-16.713.415-.716 5.5-.7 10.483.08 16.6zM-5.816 450.34c.063-6.48 1.36-11.855-1.128-17.1-5.388-.24-10.417-.76-15.884.396-.563 5.807-1.044 11.07.438 16.693h16.574zm18.63-52.752c-.598 6.28-1.1 11.552.418 17.186 5.77.298 11.084 1.215 17.094-1.046-1.23-5.44 1.43-10.917-1.836-16.14z" fill="#fe98fe"/><path d="M100.922 433.02h-16.8c-.964-6.183-.74-11.226-.245-16.8 5.887-1.854 11.74-.933 17.534-.77l-.5 17.58zm-17.888-53.877c-6.227.48-11.233.776-16.762-.153-.98-5.435-.596-10.453-.277-15.755 5.238-3 10.676-.585 16.186-1.656 2.04 6.037 1.268 11.33.855 17.563zm-34.56 106.84c-.9-5.902-.744-10.887-.168-16.352 5.47-1.77 10.753-1.057 16.557-.64 1.27 5.702.96 10.97.295 16.772-5.53.98-10.545.625-16.686.218h.002zm-53.912 18.213v-16.718c5.986-2.015 11.295-.755 17.075-.942 1.005 5.93.714 10.964.276 16.527-5.818 2.015-11.707.792-17.466 1.02zm214.07-177.788h15.838c2.4 5.337 1.2 10.692 1.084 16.414-5.542 1.883-10.834 1.105-16.626.723-1.413-6.042-.93-11.543-.296-17.137zm-196.468-.47H-4.04c-2.578-5.267-1.23-10.647-1.205-16.34 5.487-2.063 10.8-1.146 16.506-.852 1.945 5.63.633 10.917.916 17.2h-.01zM154.2 290.95v16.255c-5.402 2.3-10.738.563-16.3 1.154-1.798-6.142-.73-11.406-.833-17.146 5.86-1.034 10.875-.682 17.143-.263zm-70.166 17.112c-.8-6.106-.798-11.1-.08-16.59 5.565-1.466 10.83-.985 16.713-.415v16.025c-4.918 2.34-10.292 1.042-16.633.98zM-5.816 450.34H-22.39c-1.48-5.624-1.002-10.888-.438-16.693 5.467-1.156 10.496-.637 15.884-.396 2.487 5.234 1.2 10.6 1.128 17.1h.001zM12.81 397.59h15.675c3.267 5.224.608 10.7 1.836 16.14-6.01 2.26-11.32 1.344-17.094 1.046-1.517-5.635-1.015-10.905-.417-17.187z" fill="#fe3398"/></g></svg>