<svg version="1.1" xmlns="http://www.w3.org/2000/svg" xmlns:xlink="http://www.w3.org/1999/xlink" width="523.28334" height="232.59264" viewBox="0,0,523.28334,232.59264"><g transform="translate(53.75,-10.9407)"><g data-paper-data="{&quot;isPaintingLayer&quot;:true}" fill-rule="nonzero" stroke-linejoin="miter" stroke-miterlimit="10" stroke-dasharray="" stroke-dashoffset="0" style="mix-blend-mode: normal"><text transform="translate(-53.5,47.30001) scale(0.5,0.5)" font-size="40" xml:space="preserve" fill="#ff4a00" fill-rule="nonzero" stroke="none" stroke-width="1" stroke-linecap="butt" stroke-linejoin="miter" stroke-miterlimit="10" stroke-dasharray="" stroke-dashoffset="0" font-family="Handwriting" font-weight="normal" text-anchor="start" style="mix-blend-mode: normal"><tspan x="0" dy="0"> </tspan></text><path d="M29.65496,170.46062v-150h424v150z" fill="#ff1334" stroke="none" stroke-width="NaN" stroke-linecap="butt"/><text transform="translate(155.58176,58.2268) scale(1.10224,1.10224)" font-size="40" xml:space="preserve" fill="#000000" fill-rule="nonzero" stroke="none" stroke-width="1" stroke-linecap="butt" stroke-linejoin="miter" stroke-miterlimit="10" stroke-dasharray="" stroke-dashoffset="0" font-family="Sans Serif" font-weight="normal" text-anchor="start" style="mix-blend-mode: normal"><tspan x="0" dy="0">Level 10</tspan></text><text transform="translate(365.5,117.20005) scale(0.5,0.5)" font-size="40" xml:space="preserve" fill="#000000" fill-rule="nonzero" stroke="none" stroke-width="1" stroke-linecap="butt" stroke-linejoin="miter" stroke-miterlimit="10" stroke-dasharray="" stroke-dashoffset="0" font-family="Sans Serif" font-weight="normal" text-anchor="start" style="mix-blend-mode: normal"><tspan x="0" dy="0">10* Hard</tspan></text><path d="M439.46668,228.00001c0,-8.02654 6.50679,-14.53333 14.53333,-14.53333c8.02654,0 14.53333,6.50679 14.53333,14.53333c0,8.02654 -6.50679,14.53333 -14.53333,14.53333c-8.02654,0 -14.53333,-6.50679 -14.53333,-14.53333z" fill="#808080" stroke="#000000" stroke-width="2" stroke-linecap="butt"/><path d="M447.28126,227.83751h11.5" fill="none" stroke="#000000" stroke-width="2" stroke-linecap="round"/><path d="M455.46876,222.50001l5.25,5.25l-5.25,5.75" fill="none" stroke="#000000" stroke-width="2" stroke-linecap="round"/><path d="M35.00001,242.53334c-8.02654,0 -14.53333,-6.50679 -14.53333,-14.53333c0,-8.02654 6.50679,-14.53333 14.53333,-14.53333c8.02654,0 14.53333,6.50679 14.53333,14.53333c0,8.02654 -6.50679,14.53333 -14.53333,14.53333z" data-paper-data="{&quot;index&quot;:null}" fill="#808080" stroke="#000000" stroke-width="2" stroke-linecap="butt"/><path d="M41.71876,227.83751h-11.5" data-paper-data="{&quot;index&quot;:null}" fill="none" stroke="#000000" stroke-width="2" stroke-linecap="round"/><path d="M33.53126,233.50001l-5.25,-5.75l5.25,-5.25" data-paper-data="{&quot;index&quot;:null}" fill="none" stroke="#000000" stroke-width="2" stroke-linecap="round"/><g><path d="M388.75,54c0,-13.39291 10.85709,-24.25 24.25,-24.25c13.39291,0 24.25,10.85709 24.25,24.25c0,13.39291 -10.85709,24.25 -24.25,24.25c-13.39291,0 -24.25,-10.85709 -24.25,-24.25z" fill="#ff5959" stroke="#000000" stroke-width="2" stroke-linecap="butt"/><path d="M399.375,48.75c0,-2.55432 2.07068,-4.625 4.625,-4.625c2.55432,0 4.625,2.07068 4.625,4.625c0,2.55432 -2.07068,4.625 -4.625,4.625c-2.55432,0 -4.625,-2.07068 -4.625,-4.625z" fill="#000000" stroke="#000000" stroke-width="2" stroke-linecap="butt"/><path d="M417.375,48.25c0,-2.55432 2.07068,-4.625 4.625,-4.625c2.55432,0 4.625,2.07068 4.625,4.625c0,2.55432 -2.07068,4.625 -4.625,4.625c-2.55432,0 -4.625,-2.07068 -4.625,-4.625z" fill="#000000" stroke="#000000" stroke-width="2" stroke-linecap="butt"/><path d="M399.78572,36.6143l11.14287,7.14285" data-paper-data="{&quot;index&quot;:null}" fill="none" stroke="#000000" stroke-width="1.5" stroke-linecap="round"/><path d="M426.07144,36.32858l-11.14287,7.14285" data-paper-data="{&quot;index&quot;:null}" fill="none" stroke="#000000" stroke-width="1.5" stroke-linecap="round"/><path d="M403.53377,73.71873c-0.34464,0.31349 -0.72871,0.49181 -1.12057,0.55957c-0.17984,0.04111 -0.36708,0.06282 -0.55939,0.06282c-1.38071,0 -2.5,-1.11929 -2.5,-2.5c0,-0.29691 0.05176,-0.58173 0.14675,-0.84593c3.28618,-9.85854 8.5188,-16.6664 20.61415,-12.24728c2.79424,1.0209 8.37235,12.18319 5.92661,14.62893c-1.66667,1.66667 -2.70833,1.66667 -4.375,0c-1.76775,-1.76774 -0.0448,-10.59111 -5.64677,-10.60714c-2.93344,-0.0084 -5.96334,-0.80527 -7.88175,1.81831c-1.81898,2.48761 -2.4927,7.21018 -4.60402,9.13072z" data-paper-data="{&quot;index&quot;:null}" fill="#000000" stroke="none" stroke-width="0.5" stroke-linecap="butt"/></g><text transform="translate(157.45771,100.68048) scale(0.89004,0.89004)" font-size="40" xml:space="preserve" fill="#000000" fill-rule="nonzero" stroke="none" stroke-width="1" stroke-linecap="butt" stroke-linejoin="miter" stroke-miterlimit="10" stroke-dasharray="" stroke-dashoffset="0" font-family="Sans Serif" font-weight="normal" text-anchor="start" style="mix-blend-mode: normal"><tspan x="0" dy="0">Mysteries</tspan></text></g></g></svg>