<svg version="1.1" xmlns="http://www.w3.org/2000/svg" xmlns:xlink="http://www.w3.org/1999/xlink" width="509.33756" height="161.26226" viewBox="0,0,509.33756,161.26226"><g transform="translate(53.75,-28.25)"><g data-paper-data="{&quot;isPaintingLayer&quot;:true}" fill-rule="nonzero" stroke-linejoin="miter" stroke-miterlimit="10" stroke-dasharray="" stroke-dashoffset="0" style="mix-blend-mode: normal"><text transform="translate(-53.5,47.3) scale(0.5,0.5)" font-size="40" xml:space="preserve" fill="#ff4a00" fill-rule="nonzero" stroke="none" stroke-width="1" stroke-linecap="butt" stroke-linejoin="miter" stroke-miterlimit="10" stroke-dasharray="" stroke-dashoffset="0" font-family="Handwriting" font-weight="normal" text-anchor="start" style="mix-blend-mode: normal"><tspan x="0" dy="0"> </tspan></text><path d="M427.98445,154.79724h19.21154" fill="none" stroke="#000000" stroke-width="2" stroke-linecap="round"/><path d="M420.78563,164.6267l-0.01581,11.07763" fill="none" stroke="#000000" stroke-width="2" stroke-linecap="round"/><path d="M439.84305,172.22032c0,1.43382 -1.36745,2.59615 -3.0543,2.59615c-1.68684,0 -3.0543,-1.16234 -3.0543,-2.59615c0,-1.43382 1.36745,-2.59615 3.0543,-2.59615c1.68684,0 3.0543,1.16234 3.0543,2.59615z" fill="#000000" stroke="#000000" stroke-width="2" stroke-linecap="butt"/><g><path d="M420.73445,188.54724v-33.75h33.75v33.75z" fill="#005fff" stroke="none" stroke-width="0" stroke-linecap="butt"/><path d="M447.04214,159.6434h-19.21154" fill="none" stroke="#0015ff" stroke-width="2" stroke-linecap="round"/><path d="M446.86907,164.66263h-19.21154" fill="none" stroke="#0015ff" stroke-width="2" stroke-linecap="round"/><path d="M446.52291,162.06648h-19.21154" fill="none" stroke="#0015ff" stroke-width="2" stroke-linecap="round"/><path d="M446.86907,157.22032h-19.21154" fill="none" stroke="#0015ff" stroke-width="2" stroke-linecap="round"/><path d="M447.21522,166.73955h-19.21154" fill="none" stroke="#0015ff" stroke-width="2" stroke-linecap="round"/><path d="M420.73445,188.37417v-33.57692h6.50695v33.57692z" fill="#ff9500" stroke="#000000" stroke-width="2" stroke-linecap="butt"/><path d="M447.3883,188.37417v-33.57692h7.19926v33.57692z" fill="#ff9500" stroke="#000000" stroke-width="2" stroke-linecap="butt"/><path d="M420.69947,167.46684h33.23077v5.81465h-33.23077z" data-paper-data="{&quot;index&quot;:null}" fill="#ff9500" stroke="none" stroke-width="0" stroke-linecap="butt"/><path d="M421.39178,182.35146h32.71154v6.1608h-32.71154z" fill="#ff9500" stroke="#000000" stroke-width="2" stroke-linecap="butt"/><path d="M420.69947,171.79377h33.23077v4.08388h-33.23077z" data-paper-data="{&quot;index&quot;:null}" fill="#ff9500" stroke="none" stroke-width="0" stroke-linecap="butt"/><path d="M453.61907,172.60587l-32.88462,-0.41945" fill="none" stroke="#000000" stroke-width="2" stroke-linecap="round"/><path d="M430.94599,177.81648v-11.25h11.94231v11.25z" fill="#ffdf00" stroke="none" stroke-width="0" stroke-linecap="butt"/></g><path d="M436.15753,177.06648v-3.63462h1.03846v3.63462z" fill="#000000" stroke="#000000" stroke-width="2" stroke-linecap="butt"/><path d="M439.31364,172.04724c0,1.14705 -1.09397,2.07692 -2.44344,2.07692c-1.34947,0 -2.44344,-0.92987 -2.44344,-2.07692c0,-1.14705 1.09396,-2.07692 2.44344,-2.07692c1.34947,0 2.44344,0.92987 2.44344,2.07692z" fill="#ffffff" stroke="#000000" stroke-width="2" stroke-linecap="butt"/></g></g></svg>