<svg version="1.1" xmlns="http://www.w3.org/2000/svg" xmlns:xlink="http://www.w3.org/1999/xlink" width="31.84293" height="31.7212" viewBox="0,0,31.84293,31.7212"><g transform="translate(-224.09395,-164.12398)"><g data-paper-data="{&quot;isPaintingLayer&quot;:true}" fill-rule="nonzero" stroke-linejoin="miter" stroke-miterlimit="10" stroke-dasharray="" stroke-dashoffset="0" style="mix-blend-mode: normal"><g><path d="M248.42091,165.12398h-16.93578" fill="none" stroke="#000000" stroke-width="2" stroke-linecap="round"/><path d="M225.13907,173.78906l-0.01394,9.76539" fill="none" stroke="#000000" stroke-width="2" stroke-linecap="round"/><path d="M241.93898,180.48316c0,1.26397 -1.20546,2.28861 -2.69249,2.28861c-1.48702,0 -2.69249,-1.02465 -2.69249,-2.28861c0,-1.26397 1.20546,-2.28861 2.69249,-2.28861c1.48702,0 2.69249,1.02465 2.69249,2.28861z" fill="#000000" stroke="#000000" stroke-width="2" stroke-linecap="butt"/><g><path d="M225.09395,194.87602v-29.75204h29.75204v29.75204z" fill="#005fff" stroke="none" stroke-width="0" stroke-linecap="butt"/><path d="M248.28528,169.39607h-16.93578" fill="none" stroke="#0015ff" stroke-width="2" stroke-linecap="round"/><path d="M248.13271,173.82074h-16.93578" fill="none" stroke="#0015ff" stroke-width="2" stroke-linecap="round"/><path d="M247.82756,171.53212h-16.93578" fill="none" stroke="#0015ff" stroke-width="2" stroke-linecap="round"/><path d="M248.13271,167.26003h-16.93578" fill="none" stroke="#0015ff" stroke-width="2" stroke-linecap="round"/><path d="M231.50208,175.65163h16.93578" fill="none" stroke="#0015ff" stroke-width="2" stroke-linecap="round"/><path d="M225.09395,194.72345v-29.59946h5.73615v29.59946z" fill="#ff9500" stroke="#000000" stroke-width="2" stroke-linecap="butt"/><path d="M248.59044,194.72345v-29.59946h6.34645v29.59946z" fill="#ff9500" stroke="#000000" stroke-width="2" stroke-linecap="butt"/><path d="M225.06312,176.29276h29.29431v5.12586h-29.29431z" data-paper-data="{&quot;index&quot;:null}" fill="#ff9500" stroke="none" stroke-width="0" stroke-linecap="butt"/><path d="M225.67342,189.41418h28.83659v5.431h-28.83659z" fill="#ff9500" stroke="#000000" stroke-width="2" stroke-linecap="butt"/><path d="M225.06312,180.10713h29.29431v3.60011h-29.29431z" data-paper-data="{&quot;index&quot;:null}" fill="#ff9500" stroke="none" stroke-width="0" stroke-linecap="butt"/><path d="M254.08312,180.82303l-28.98917,-0.36976" fill="none" stroke="#000000" stroke-width="2" stroke-linecap="round"/><path d="M234.09585,185.4164v-9.91735h10.52765v9.91735z" fill="#ffdf00" stroke="none" stroke-width="0" stroke-linecap="butt"/></g><path d="M238.69004,184.75525v-3.20407h0.91545v3.20407z" fill="#000000" stroke="#000000" stroke-width="2" stroke-linecap="butt"/><path d="M241.47229,180.33058c0,1.01117 -0.96438,1.83089 -2.15399,1.83089c-1.18961,0 -2.15399,-0.81972 -2.15399,-1.83089c0,-1.01117 0.96437,-1.83089 2.15399,-1.83089c1.18961,0 2.15399,0.81972 2.15399,1.83089z" fill="#ffffff" stroke="#000000" stroke-width="2" stroke-linecap="butt"/></g><path d="" fill="#9966ff" stroke="none" stroke-width="0.5" stroke-linecap="butt"/></g></g></svg>