<svg version="1.1" xmlns="http://www.w3.org/2000/svg" xmlns:xlink="http://www.w3.org/1999/xlink" width="32.89377" height="30.45746" viewBox="0,0,32.89377,30.45746"><g transform="translate(-223.55311,-164.77128)"><g data-paper-data="{&quot;isPaintingLayer&quot;:true}" fill-rule="nonzero" stroke-linejoin="miter" stroke-miterlimit="10" stroke-dasharray="" stroke-dashoffset="0" style="mix-blend-mode: normal"><path d="M235.32863,175.89989h-10.49998" fill="none" stroke="#000000" stroke-width="2.5" stroke-linecap="round"/><path d="M224.80311,175.94627l7.42461,7.42461" fill="none" stroke="#000000" stroke-width="2.5" stroke-linecap="round"/><path d="M232.39043,183.45322v10.49998" fill="none" stroke="#000000" stroke-width="2.5" stroke-linecap="round"/><path d="M232.43681,193.97874l7.42461,-7.42461" fill="none" stroke="#000000" stroke-width="2.5" stroke-linecap="round"/><path d="M240.13831,186.3605l7.42461,7.42461" fill="none" stroke="#000000" stroke-width="2.5" stroke-linecap="round"/><path d="M247.61378,183.27038v10.49998" fill="none" stroke="#000000" stroke-width="2.5" stroke-linecap="round"/><path d="M244.67136,175.77502h10.49999" data-paper-data="{&quot;index&quot;:null}" fill="none" stroke="#000000" stroke-width="2.5" stroke-linecap="round"/><path d="M255.19689,175.82141l-7.42461,7.42461" data-paper-data="{&quot;index&quot;:null}" fill="none" stroke="#000000" stroke-width="2.5" stroke-linecap="round"/><path d="M235.73226,175.39927l5.0026,-9.23168" data-paper-data="{&quot;index&quot;:null}" fill="none" stroke="#000000" stroke-width="2.5" stroke-linecap="round"/><path d="M244.62292,175.80299l-3.81681,-9.78171" data-paper-data="{&quot;index&quot;:null}" fill="none" stroke="#000000" stroke-width="2.5" stroke-linecap="round"/><path d="M252.91286,177.51609c0,0.27262 -0.10024,0.52182 -0.26589,0.71276c-0.06458,0.59489 -0.61151,1.15404 -0.96883,1.6637c-0.91065,1.29892 -2.94363,2.53565 -4.50348,3.3626c0.14156,1.35472 0.17216,2.72013 0.27901,4.13733c0.09338,1.23845 0.12872,2.25031 0.05008,3.31251l0.11364,-0.01748l0.17023,1.10648c0.01028,0.06007 0.01563,0.12182 0.01563,0.18484c0,0.60102 -0.48722,1.08825 -1.08825,1.08825c-0.32284,0 -0.61286,-0.14059 -0.81215,-0.36388l-0.7318,-0.8131c-1.73603,-1.39926 -3.32198,-3.32963 -4.652,-5.14163c-0.08625,-0.07777 -0.16405,-0.17841 -0.22569,-0.30821c-1.96714,1.61231 -3.95786,3.61173 -5.55961,5.54242c0,0 -0.18343,0.22011 -0.47499,0.34033c-0.0744,0.32179 -0.30969,0.83066 -1.05386,0.83066c-1.08825,0 -1.08825,-1.08825 -1.08825,-1.08825l0.01266,-0.33868c0.16664,-1.06198 0.16309,-1.97412 0.08418,-3.03614c-0.00669,-0.05523 -0.01023,-0.11379 -0.01023,-0.17591c0,-0.27971 0.07189,-0.48752 0.17872,-0.64192c0.02684,-1.62185 0.14342,-3.22132 0.16444,-4.84465c-0.31894,-0.01423 -0.60217,-0.16573 -0.79203,-0.39686l-0.71386,-0.85662l0.04121,-0.03435c-0.34862,-0.2489 -0.68645,-0.55733 -1.04806,-0.9725l-0.226,-0.01099c0,0 -0.54287,-0.27143 -0.61506,-0.8143c-0.21648,-0.14818 -0.40477,-0.40092 -0.41735,-0.83197c-0.20609,-0.11483 -0.38103,-0.20718 -0.45919,-0.25208c-0.76535,-0.43968 -1.47093,-0.994 -2.09944,-1.61372c0,0 -0.76951,-0.76951 0,-1.53901c0.76951,-0.76951 1.53902,0 1.53902,0c0.16472,0.16769 0.34172,0.31994 0.52702,0.46161c0.49791,-0.21347 1.00625,0.10424 1.00625,0.10424c0.04697,0.02938 0.09557,0.05903 0.14561,0.08899c0.07184,-0.02957 0.142,-0.05887 0.20949,-0.08834c0.37775,-0.16497 0.8274,0.03623 1.23653,-0.01406c1.15788,-0.14236 2.27791,-0.57049 3.45004,-0.71893l0.71032,-0.0084c0,0 0.22465,0 0.46979,0.10206c0.76776,-1.42944 1.7902,-2.84477 2.20437,-4.09012l0.33848,-1.01544c0.13676,-0.44469 0.55081,-0.76792 1.04034,-0.76792c0.06638,0 0.13138,0.00594 0.19447,0.01732c0.02841,-0.27676 0.06348,-0.55366 0.10609,-0.83072l-0.00316,-1.04286c0,0 0,-1.08825 1.08825,-1.08825c1.08825,0 1.08825,1.08825 1.08825,1.08825l-0.00211,0.80272c0.1471,0.08987 0.2712,0.21368 0.36143,0.36055l0.59639,0.93718l-0.03886,0.02472c0.05033,0.05987 0.09818,0.12199 0.14315,0.18674c0.28405,0.409 0.13119,0.98766 0.22153,1.47736c0.06381,0.34586 0.14707,0.88742 0.27433,1.47279c0.24116,0.24116 0.48232,0.48232 0.7235,0.7235l0.37285,0.85198c0,0 0.11881,0.47524 -0.12185,0.86774c0.15684,0.18067 0.33345,0.31583 0.53277,0.38728c0.94099,0.33733 2.09472,-0.1555 3.00466,-0.32774c1.72016,-0.32561 3.52614,-0.36158 5.28522,-0.36548c0.65468,-0.34578 1.23213,0.23168 1.23213,0.23168l-0.68291,1.94437c-0.18506,0 -0.37109,-0.00018 -0.55785,-0.00013c0.00043,0.01252 0.00064,0.02509 0.00064,0.03772z" fill="#000000" stroke="none" stroke-width="0.5" stroke-linecap="butt"/></g></g></svg>