<svg version="1.1" xmlns="http://www.w3.org/2000/svg" xmlns:xlink="http://www.w3.org/1999/xlink" width="360.5" height="115" viewBox="0,0,360.5,115"><defs><radialGradient cx="122.5" cy="181.425" r="2.75" gradientUnits="userSpaceOnUse" id="color-1"><stop offset="0" stop-color="#ffffff"/><stop offset="1" stop-color="#e8ff5c"/></radialGradient><radialGradient cx="106.5" cy="182.425" r="2.75" gradientUnits="userSpaceOnUse" id="color-2"><stop offset="0" stop-color="#ffffff"/><stop offset="1" stop-color="#e8ff5c"/></radialGradient></defs><g transform="translate(-59.5,-122.5)"><g data-paper-data="{&quot;isPaintingLayer&quot;:true}" fill-rule="nonzero" stroke-linejoin="miter" stroke-miterlimit="10" stroke-dasharray="" stroke-dashoffset="0" style="mix-blend-mode: normal"><path d="M62.5,235v-110h355v110z" fill="#66c7ff" stroke="#00a2ff" stroke-width="5" stroke-linecap="butt"/><path d="M59.5,235.3v-112h112v112z" fill="#00a2ff" stroke="none" stroke-width="0" stroke-linecap="butt"/><g><path d="M109.17857,221.36071v-4h11.71429v4z" fill="#404040" stroke="#000000" stroke-width="0" stroke-linecap="butt"/><path d="M103.30725,169.58475l-10.30061,10.33657l-5.0609,-15.51143z" fill="#808080" stroke="#000000" stroke-width="2.5" stroke-linecap="round"/><path d="M142.64059,164.90989l-5.0609,15.51143l-10.30061,-10.33657z" data-paper-data="{&quot;index&quot;:null}" fill="#808080" stroke="#000000" stroke-width="2.5" stroke-linecap="round"/><path d="M87.83333,190c0,-15.00374 12.16293,-27.16667 27.16667,-27.16667c15.00374,0 27.16667,12.16293 27.16667,27.16667c0,15.00374 -12.16293,27.16667 -27.16667,27.16667c-15.00374,0 -27.16667,-12.16293 -27.16667,-27.16667z" fill="#4d5266" stroke="#000000" stroke-width="2.5" stroke-linecap="butt"/><path d="" fill="#2d3d7c" stroke="none" stroke-width="0" stroke-linecap="butt"/><path d="" fill="#2d3d7c" stroke="none" stroke-width="0" stroke-linecap="butt"/><path d="M122.5,184.175c-1.51879,0 -2.75,-1.23121 -2.75,-2.75c0,-1.51879 1.23121,-2.75 2.75,-2.75c1.51879,0 2.75,1.23121 2.75,2.75c0,1.51879 -1.23121,2.75 -2.75,2.75z" data-paper-data="{&quot;index&quot;:null}" fill="url(#color-1)" stroke="none" stroke-width="0" stroke-linecap="butt"/><path d="M103.75,182.425c0,-1.51879 1.23121,-2.75 2.75,-2.75c1.51879,0 2.75,1.23121 2.75,2.75c0,1.51879 -1.23121,2.75 -2.75,2.75c-1.51879,0 -2.75,-1.23121 -2.75,-2.75z" data-paper-data="{&quot;index&quot;:null}" fill="url(#color-2)" stroke="none" stroke-width="0" stroke-linecap="butt"/><path d="M106.08334,177.84167c2.85347,0 5.16666,2.3132 5.16666,5.16667c0,0.25477 -0.01844,0.50524 -0.05406,0.75014c-1.23223,-0.69743 -2.29739,-1.62905 -3.71355,-2.10139c-1.89237,-0.63118 -4.01272,-0.74915 -6.02329,-0.95584c0.84749,-1.69538 2.59991,-2.85958 4.62423,-2.85958z" fill="#3c4466" stroke="none" stroke-width="0" stroke-linecap="butt"/><path d="M127.08334,180.36791c-2.01057,0.20668 -4.13092,0.32466 -6.02329,0.95584c-1.41616,0.47234 -2.48132,1.40396 -3.71355,2.10139c-0.03562,-0.2449 -0.05406,-0.49536 -0.05406,-0.75014c0,-2.85347 2.3132,-5.16667 5.16666,-5.16667c2.02433,0 3.77674,1.1642 4.62423,2.85958z" data-paper-data="{&quot;index&quot;:null}" fill="#3c4466" stroke="none" stroke-width="0" stroke-linecap="butt"/><path d="M126.09129,200.20267l2.68758,-2.81562l1.43864,4.10745z" fill="none" stroke="#414866" stroke-width="2.5" stroke-linecap="round"/><path d="M101.05917,198.21099l2.81563,2.68758l-4.10744,1.43864z" fill="none" stroke="#414866" stroke-width="2.5" stroke-linecap="round"/><path d="M96.96809,195.99c0.02405,-1.68227 1.91645,-2.72055 3.48061,-2.41658c0.29523,0.05737 0.57877,0.16256 0.83585,0.32027c3.61895,2.22008 4.65954,6.36378 10.05248,6.42965c4.6456,0.05674 9.0244,0.08422 12.66487,-2.47453c2.19647,-1.54382 5.89762,-6.74599 8.42866,-3.6088c2.8262,3.50302 -5.07841,8.19395 -7.7796,9.01401c-1.75148,0.53174 -3.39648,1.64057 -5.53325,2.06932c-8.15529,1.6364 -18.15969,-1.53774 -21.83242,-8.17032z" data-paper-data="{&quot;index&quot;:null}" fill="#3c4466" stroke="none" stroke-width="0.5" stroke-linecap="butt"/><path d="M111.7,172.72857v-6.6h6.6v6.6z" fill="#3c4466" stroke="none" stroke-width="0" stroke-linecap="butt"/><path d="M112.61429,169.42571v-2h2v2z" fill="#626983" stroke="none" stroke-width="0" stroke-linecap="butt"/><path d="M115.47143,169.42572v-2h2v2z" fill="#626983" stroke="none" stroke-width="0" stroke-linecap="butt"/><path d="M113.18572,168.85429v-0.85714h0.85714v0.85714z" fill="#000000" stroke="none" stroke-width="0" stroke-linecap="butt"/><path d="M116.04286,168.85429v-0.85714h0.85714v0.85714z" fill="#000000" stroke="none" stroke-width="0" stroke-linecap="butt"/><path d="M112.75714,171.85429v-1.28571h4.57143v1.28571z" fill="#626983" stroke="none" stroke-width="0" stroke-linecap="butt"/><path d="M109.58333,232.39286v-10.83333h10.83333v10.83333z" fill="#e4cd00" stroke="#000000" stroke-width="1" stroke-linecap="butt"/><path d="M113.42857,225.525c0,-0.82843 0.67157,-1.5 1.5,-1.5c0.82843,0 1.5,0.67157 1.5,1.5c0,0.82843 -0.67157,1.5 -1.5,1.5c-0.82843,0 -1.5,-0.67157 -1.5,-1.5z" fill="#000000" stroke="#000000" stroke-width="1" stroke-linecap="butt"/><path d="M114.64706,229.84853v-3.47059h0.58824v3.47059z" fill="none" stroke="#000000" stroke-width="1" stroke-linecap="butt"/><path d="M112.10714,221.43214v-3.78571" fill="none" stroke="#000000" stroke-width="1" stroke-linecap="round"/><path d="M116.82143,221.575v-3.78571" fill="none" stroke="#000000" stroke-width="1" stroke-linecap="round"/></g><text transform="translate(76.25,142.10009) scale(0.44367,0.44367)" font-size="40" xml:space="preserve" fill="#000000" fill-rule="nonzero" stroke="none" stroke-width="1" stroke-linecap="butt" stroke-linejoin="miter" stroke-miterlimit="10" stroke-dasharray="" stroke-dashoffset="0" font-family="Handwriting" font-weight="normal" text-anchor="start" style="mix-blend-mode: normal"><tspan x="0" dy="0">The Guard</tspan></text></g></g></svg>