<svg version="1.1" xmlns="http://www.w3.org/2000/svg" xmlns:xlink="http://www.w3.org/1999/xlink" width="523.28334" height="231.91031" viewBox="0,0,523.28334,231.91031"><g transform="translate(53.75,-11.62303)"><g data-paper-data="{&quot;isPaintingLayer&quot;:true}" fill-rule="nonzero" stroke-linejoin="miter" stroke-miterlimit="10" stroke-dasharray="" stroke-dashoffset="0" style="mix-blend-mode: normal"><text transform="translate(-53.5,47.3) scale(0.5,0.5)" font-size="40" xml:space="preserve" fill="#ff4a00" fill-rule="nonzero" stroke="none" stroke-width="1" stroke-linecap="butt" stroke-linejoin="miter" stroke-miterlimit="10" stroke-dasharray="" stroke-dashoffset="0" font-family="Handwriting" font-weight="normal" text-anchor="start" style="mix-blend-mode: normal"><tspan x="0" dy="0"> </tspan></text><path d="M29.65496,170.46061v-150h424v150z" fill="#00daff" stroke="none" stroke-width="NaN" stroke-linecap="butt"/><text transform="translate(118.65496,60.96061) scale(1.15006,1.15006)" font-size="40" xml:space="preserve" fill="#000000" fill-rule="nonzero" stroke="none" stroke-width="1" stroke-linecap="butt" stroke-linejoin="miter" stroke-miterlimit="10" stroke-dasharray="" stroke-dashoffset="0" font-family="Sans Serif" font-weight="normal" text-anchor="start" style="mix-blend-mode: normal"><tspan x="0" dy="0">Level Five</tspan></text><text transform="translate(185.42275,100.68048) scale(0.89004,0.89004)" font-size="40" xml:space="preserve" fill="#000000" fill-rule="nonzero" stroke="none" stroke-width="1" stroke-linecap="butt" stroke-linejoin="miter" stroke-miterlimit="10" stroke-dasharray="" stroke-dashoffset="0" font-family="Sans Serif" font-weight="normal" text-anchor="start" style="mix-blend-mode: normal"><tspan x="0" dy="0">Shrink</tspan></text><g><path d="M389.75,54c0,-13.39291 10.85709,-24.25 24.25,-24.25c13.39291,0 24.25,10.85709 24.25,24.25c0,13.39291 -10.85709,24.25 -24.25,24.25c-13.39291,0 -24.25,-10.85709 -24.25,-24.25z" fill="#fff859" stroke="#000000" stroke-width="2" stroke-linecap="butt"/><path d="M400.375,48.75c0,-2.55432 2.07068,-4.625 4.625,-4.625c2.55432,0 4.625,2.07068 4.625,4.625c0,2.55432 -2.07068,4.625 -4.625,4.625c-2.55432,0 -4.625,-2.07068 -4.625,-4.625z" fill="#000000" stroke="#000000" stroke-width="2" stroke-linecap="butt"/><path d="M418.375,48.25c0,-2.55432 2.07068,-4.625 4.625,-4.625c2.55432,0 4.625,2.07068 4.625,4.625c0,2.55432 -2.07068,4.625 -4.625,4.625c-2.55432,0 -4.625,-2.07068 -4.625,-4.625z" fill="#000000" stroke="#000000" stroke-width="2" stroke-linecap="butt"/><path d="M402.78571,69v-4.85714h22.42857v4.85714z" fill="#000000" stroke="none" stroke-width="0" stroke-linecap="butt"/><path d="M399.92857,39.04286h10" fill="none" stroke="#000000" stroke-width="1.5" stroke-linecap="round"/><path d="M418.5,39.04286h10" fill="none" stroke="#000000" stroke-width="1.5" stroke-linecap="round"/></g><text transform="translate(342.5,102.20004) scale(0.5,0.5)" font-size="40" xml:space="preserve" fill="#000000" fill-rule="nonzero" stroke="none" stroke-width="1" stroke-linecap="butt" stroke-linejoin="miter" stroke-miterlimit="10" stroke-dasharray="" stroke-dashoffset="0" font-family="Sans Serif" font-weight="normal" text-anchor="start" style="mix-blend-mode: normal"><tspan x="0" dy="0">5* Medium</tspan></text><path d="M439.46668,228.00001c0,-8.02654 6.50679,-14.53333 14.53333,-14.53333c8.02654,0 14.53333,6.50679 14.53333,14.53333c0,8.02654 -6.50679,14.53333 -14.53333,14.53333c-8.02654,0 -14.53333,-6.50679 -14.53333,-14.53333z" fill="#808080" stroke="#000000" stroke-width="2" stroke-linecap="butt"/><path d="M447.28126,227.83751h11.5" fill="none" stroke="#000000" stroke-width="2" stroke-linecap="round"/><path d="M455.46876,222.50001l5.25,5.25l-5.25,5.75" fill="none" stroke="#000000" stroke-width="2" stroke-linecap="round"/><path d="M35.00001,242.53334c-8.02654,0 -14.53333,-6.50679 -14.53333,-14.53333c0,-8.02654 6.50679,-14.53333 14.53333,-14.53333c8.02654,0 14.53333,6.50679 14.53333,14.53333c0,8.02654 -6.50679,14.53333 -14.53333,14.53333z" data-paper-data="{&quot;index&quot;:null}" fill="#808080" stroke="#000000" stroke-width="2" stroke-linecap="butt"/><path d="M30.21876,227.83751h11.5" data-paper-data="{&quot;index&quot;:null}" fill="none" stroke="#000000" stroke-width="2" stroke-linecap="round"/><path d="M33.53126,233.50001l-5.25,-5.75l5.25,-5.25" data-paper-data="{&quot;index&quot;:null}" fill="none" stroke="#000000" stroke-width="2" stroke-linecap="round"/></g></g></svg>