<svg version="1.1" xmlns="http://www.w3.org/2000/svg" xmlns:xlink="http://www.w3.org/1999/xlink" width="90.725" height="90.725" viewBox="0,0,90.725,90.725"><defs><radialGradient cx="240" cy="180" r="45.3625" gradientUnits="userSpaceOnUse" id="color-1"><stop offset="0" stop-color="#33ff44"/><stop offset="1" stop-color="#33ff44" stop-opacity="0"/></radialGradient></defs><g transform="translate(-194.6375,-134.6375)"><g data-paper-data="{&quot;isPaintingLayer&quot;:true}" fill-rule="nonzero" stroke-linejoin="miter" stroke-miterlimit="10" stroke-dasharray="" stroke-dashoffset="0" style="mix-blend-mode: normal"><path d="M194.6375,180c0,-25.053 20.3095,-45.3625 45.3625,-45.3625c25.053,0 45.3625,20.3095 45.3625,45.3625c0,25.053 -20.3095,45.3625 -45.3625,45.3625c-25.053,0 -45.3625,-20.3095 -45.3625,-45.3625z" fill="url(#color-1)" stroke="none" stroke-width="NaN" stroke-linecap="butt"/><path d="" fill="#ff0000" stroke="#ff0000" stroke-width="2.5" stroke-linecap="butt"/><path d="" fill="#ff0000" stroke="#ff0000" stroke-width="2.5" stroke-linecap="butt"/><path d="M256.60648,180c0,21.8497 -8.00711,39.56239 -17.88437,39.56239c-9.87727,0 -17.88436,-17.71269 -17.88436,-39.56239c0,-21.8497 8.0071,-39.56239 17.88436,-39.56239c9.87727,0 17.88437,17.71269 17.88437,39.56239z" fill="none" stroke="#000000" stroke-width="10" stroke-linecap="butt"/><path d="M256.60648,180c0,21.8497 -8.00711,39.56239 -17.88437,39.56239c-9.87727,0 -17.88436,-17.71269 -17.88436,-39.56239c0,-21.8497 8.0071,-39.56239 17.88436,-39.56239c9.87727,0 17.88437,17.71269 17.88437,39.56239z" fill="none" stroke="#000000" stroke-width="10" stroke-linecap="butt"/><path d="M256.60648,180c0,21.8497 -8.00711,39.56239 -17.88437,39.56239c-9.87727,0 -17.88436,-17.71269 -17.88436,-39.56239c0,-21.8497 8.0071,-39.56239 17.88436,-39.56239c9.87727,0 17.88437,17.71269 17.88437,39.56239z" fill="none" stroke="#00ff20" stroke-width="7.5" stroke-linecap="butt"/><path d="M256.60648,180c0,21.8497 -8.00711,39.56239 -17.88437,39.56239c-9.87727,0 -17.88436,-17.71269 -17.88436,-39.56239c0,-21.8497 8.0071,-39.56239 17.88436,-39.56239c9.87727,0 17.88437,17.71269 17.88437,39.56239z" fill="none" stroke="#33ff44" stroke-width="7.5" stroke-linecap="butt"/><path d="M259.16225,179.20092l-5.23142,3.77801" data-paper-data="{&quot;index&quot;:null}" fill="none" stroke="#000000" stroke-width="2.5" stroke-linecap="round"/><path d="M259.16225,179.20092l-5.23142,3.77801" data-paper-data="{&quot;index&quot;:null}" fill="none" stroke="#000000" stroke-width="2.5" stroke-linecap="round"/><path d="M258.78783,179.12831l-5.14493,-6.59835" data-paper-data="{&quot;index&quot;:null}" fill="none" stroke="#000000" stroke-width="2.5" stroke-linecap="round"/><path d="M258.78783,179.12831l-5.14493,-6.59835" data-paper-data="{&quot;index&quot;:null}" fill="none" stroke="#000000" stroke-width="2.5" stroke-linecap="round"/><path d="" fill="#ff0000" stroke="#ff0000" stroke-width="2.5" stroke-linecap="butt"/><path d="" fill="#ff0000" stroke="#ff0000" stroke-width="2.5" stroke-linecap="butt"/><path d="" fill="#ff0000" stroke="#ff0000" stroke-width="2.5" stroke-linecap="butt"/><path d="" fill="#ff0000" stroke="#ff0000" stroke-width="2.5" stroke-linecap="butt"/></g></g></svg>