<svg version="1.1" xmlns="http://www.w3.org/2000/svg" xmlns:xlink="http://www.w3.org/1999/xlink" width="484" height="368" viewBox="0,0,484,368"><defs><linearGradient x1="240" y1="-4" x2="240" y2="364" gradientUnits="userSpaceOnUse" id="color-1"><stop offset="0" stop-color="#8e3e9a"/><stop offset="1" stop-color="#9a3e82"/></linearGradient></defs><g transform="translate(2,4)"><g data-paper-data="{&quot;isPaintingLayer&quot;:true}" fill-rule="nonzero" stroke-linejoin="miter" stroke-miterlimit="10" stroke-dasharray="" stroke-dashoffset="0" style="mix-blend-mode: normal"><path d="M-2,364v-368h484v368z" fill="url(#color-1)" stroke="#000000" stroke-width="0" stroke-linecap="butt"/><text transform="translate(141.03975,53.51875) scale(1.2584,1.2584)" font-size="40" xml:space="preserve" fill="#000000" fill-rule="nonzero" stroke="none" stroke-width="1" stroke-linecap="butt" stroke-linejoin="miter" stroke-miterlimit="10" stroke-dasharray="" stroke-dashoffset="0" font-family="Handwriting" font-weight="normal" text-anchor="start" style="mix-blend-mode: normal"><tspan x="0" dy="0">The Vault</tspan></text><g><path d="M233.94161,226.35773v-4h11.71429v4z" fill="#404040" stroke="#000000" stroke-width="0" stroke-linecap="butt"/><path d="M228.07029,174.58177l-10.30061,10.33657l-5.0609,-15.51143z" fill="#808080" stroke="#000000" stroke-width="2.5" stroke-linecap="round"/><path d="M267.40363,169.90691l-5.0609,15.51143l-10.30061,-10.33657z" data-paper-data="{&quot;index&quot;:null}" fill="#808080" stroke="#000000" stroke-width="2.5" stroke-linecap="round"/><path d="M212.59637,194.99702c0,-15.00374 12.16293,-27.16667 27.16667,-27.16667c15.00374,0 27.16667,12.16293 27.16667,27.16667c0,15.00374 -12.16293,27.16667 -27.16667,27.16667c-15.00374,0 -27.16667,-12.16293 -27.16667,-27.16667z" fill="#374b99" stroke="#000000" stroke-width="2.5" stroke-linecap="butt"/><path d="" fill="#2d3d7c" stroke="none" stroke-width="0" stroke-linecap="butt"/><path d="" fill="#2d3d7c" stroke="none" stroke-width="0" stroke-linecap="butt"/><path d="M247.26304,189.17202c-1.51879,0 -2.75,-1.23121 -2.75,-2.75c0,-1.51879 1.23121,-2.75 2.75,-2.75c1.51879,0 2.75,1.23121 2.75,2.75c0,1.51879 -1.23121,2.75 -2.75,2.75z" data-paper-data="{&quot;index&quot;:null}" fill="#e8ff5c" stroke="none" stroke-width="0" stroke-linecap="butt"/><path d="M228.51304,187.42202c0,-1.51879 1.23121,-2.75 2.75,-2.75c1.51879,0 2.75,1.23121 2.75,2.75c0,1.51879 -1.23121,2.75 -2.75,2.75c-1.51879,0 -2.75,-1.23121 -2.75,-2.75z" data-paper-data="{&quot;index&quot;:null}" fill="#e8ff5c" stroke="none" stroke-width="0" stroke-linecap="butt"/><path d="M230.84638,182.83869c2.85347,0 5.16666,2.3132 5.16666,5.16667c0,0.25477 -0.01844,0.50524 -0.05406,0.75014c-1.23223,-0.69743 -2.29739,-1.62905 -3.71355,-2.10139c-1.89237,-0.63118 -4.01272,-0.74915 -6.02329,-0.95584c0.84749,-1.69538 2.59991,-2.85958 4.62423,-2.85958z" fill="#2d3d7c" stroke="none" stroke-width="0" stroke-linecap="butt"/><path d="M251.84638,185.36493c-2.01057,0.20668 -4.13092,0.32466 -6.02329,0.95584c-1.41616,0.47234 -2.48132,1.40396 -3.71355,2.10139c-0.03562,-0.2449 -0.05406,-0.49536 -0.05406,-0.75014c0,-2.85347 2.3132,-5.16667 5.16666,-5.16667c2.02433,0 3.77674,1.1642 4.62423,2.85958z" data-paper-data="{&quot;index&quot;:null}" fill="#2d3d7c" stroke="none" stroke-width="0" stroke-linecap="butt"/><path d="M250.85433,205.19969l2.68758,-2.81562l1.43864,4.10745z" fill="none" stroke="#3c52a7" stroke-width="2.5" stroke-linecap="round"/><path d="M225.82221,203.20801l2.81563,2.68758l-4.10744,1.43864z" fill="none" stroke="#3c52a7" stroke-width="2.5" stroke-linecap="round"/><path d="M221.73113,200.98702c0.02405,-1.68227 1.91645,-2.72055 3.48061,-2.41658c0.29523,0.05737 0.57877,0.16256 0.83585,0.32027c3.61895,2.22008 4.65954,6.36378 10.05248,6.42965c4.6456,0.05674 9.0244,0.08422 12.66487,-2.47453c2.19647,-1.54382 5.89762,-6.74599 8.42866,-3.6088c2.8262,3.50302 -5.07841,8.19395 -7.7796,9.01401c-1.75148,0.53174 -3.39648,1.64057 -5.53325,2.06932c-8.15529,1.6364 -18.15969,-1.53774 -21.83242,-8.17032z" fill="#2d3d7c" stroke="none" stroke-width="0.5" stroke-linecap="butt"/><g stroke="none" stroke-width="0" stroke-linecap="butt"><path d="M236.46304,177.72559v-6.6h6.6v6.6z" fill="#2d3d7c"/><path d="M237.37733,174.42273v-2h2v2z" fill="#202b58"/><path d="M240.23447,174.42274v-2h2v2z" fill="#202b58"/><path d="M237.94876,173.85131v-0.85714h0.85714v0.85714z" fill="#000000"/><path d="M240.8059,173.85131v-0.85714h0.85714v0.85714z" fill="#000000"/><path d="M237.52018,176.85131v-1.28571h4.57143v1.28571z" fill="#202b58"/></g><path d="M234.34637,237.38988v-10.83333h10.83333v10.83333z" fill="#e4cd00" stroke="#000000" stroke-width="1" stroke-linecap="butt"/><path d="M238.19161,230.52202c0,-0.82843 0.67157,-1.5 1.5,-1.5c0.82843,0 1.5,0.67157 1.5,1.5c0,0.82843 -0.67157,1.5 -1.5,1.5c-0.82843,0 -1.5,-0.67157 -1.5,-1.5z" fill="#000000" stroke="#000000" stroke-width="1" stroke-linecap="butt"/><path d="M239.4101,234.84555v-3.47059h0.58824v3.47059z" fill="none" stroke="#000000" stroke-width="1" stroke-linecap="butt"/><path d="M236.87018,226.42916v-3.78571" fill="none" stroke="#000000" stroke-width="1" stroke-linecap="round"/><path d="M241.58447,222.78631v3.78571" fill="none" stroke="#000000" stroke-width="1" stroke-linecap="round"/></g><path d="M147.5,158.61012v-36h185v36z" fill="#ffffff" stroke="#000000" stroke-width="5" stroke-linecap="butt"/><path d="M429.75,360.45v-52.5h30v52.5z" fill="#000000" stroke="none" stroke-width="NaN" stroke-linecap="butt"/><path d="M429.6,310.75674c0,-9.1127 6.80527,-16.5 15.2,-16.5c8.39473,0 15.2,7.3873 15.2,16.5c0,9.1127 -6.80527,16.5 -15.2,16.5c-8.39473,0 -15.2,-7.3873 -15.2,-16.5z" fill="#000000" stroke="none" stroke-width="0" stroke-linecap="butt"/><path d="M406.4,184.15c0,-13.1858 10.6892,-23.875 23.875,-23.875c13.1858,0 23.875,10.6892 23.875,23.875c0,13.1858 -10.6892,23.875 -23.875,23.875c-13.1858,0 -23.875,-10.6892 -23.875,-23.875z" fill="#00ff15" stroke="#000000" stroke-width="2.5" stroke-linecap="butt"/><path d="M420.775,172.21713l20.68288,12.18287l-20.68288,12.18287z" fill="#00feff" stroke="none" stroke-width="0" stroke-linecap="butt"/><text transform="translate(388.9,130.525) scale(0.5,0.5)" font-size="40" xml:space="preserve" fill="#000000" fill-rule="nonzero" stroke="none" stroke-width="1" stroke-linecap="butt" stroke-linejoin="miter" stroke-miterlimit="10" stroke-dasharray="" stroke-dashoffset="0" font-family="Handwriting" font-weight="normal" text-anchor="start" style="mix-blend-mode: normal"><tspan x="0" dy="0">The Secret</tspan><tspan x="0" dy="46.150000000000006px">    Room</tspan></text></g></g></svg>