<svg version="1.1" xmlns="http://www.w3.org/2000/svg" xmlns:xlink="http://www.w3.org/1999/xlink" width="73.21227" height="92.09301" viewBox="0,0,73.21227,92.09301"><g transform="translate(-203.39386,-133.9535)"><g data-paper-data="{&quot;isPaintingLayer&quot;:true}" stroke-dasharray="" stroke-dashoffset="0" style="mix-blend-mode: normal"><g fill-rule="evenodd" stroke-linecap="round" stroke-linejoin="round" stroke-miterlimit="1.5"><path d="M246.27672,185.32962v-7.5478" data-paper-data="{&quot;index&quot;:null}" fill="none" stroke="#000000" stroke-width="5.33"/><path d="M225.80371,182.85161v-7.5478" data-paper-data="{&quot;index&quot;:null}" fill="none" stroke="#000000" stroke-width="5.33"/><path d="M268.12113,198.97173c1.42951,5.33481 -1.73622,10.81814 -7.07099,12.24756l-23.66989,6.34222c-5.33477,1.42942 -10.81812,-1.73643 -12.24763,-7.07124l-13.25376,-49.46199c-1.42951,-5.33481 1.73622,-10.81814 7.07099,-12.24756l23.66989,-6.34222c5.33477,-1.42942 10.81812,1.73643 12.24763,7.07124z" data-paper-data="{&quot;index&quot;:null}" fill="none" stroke="#ffffff" stroke-width="16.97"/><path d="M268.12113,198.97173c1.42951,5.33481 -1.73622,10.81814 -7.07099,12.24756l-23.66989,6.34222c-5.33477,1.42942 -10.81812,-1.73643 -12.24763,-7.07124l-13.25376,-49.46199c-1.42951,-5.33481 1.73622,-10.81814 7.07099,-12.24756l23.66989,-6.34222c5.33477,-1.42942 10.81812,1.73643 12.24763,7.07124z" data-paper-data="{&quot;index&quot;:null}" fill="#000000" stroke="none" stroke-width="1"/><path d="M229.71108,210.39373l-13.8224,-51.5856l34.3908,-9.21516l13.8224,51.5856z" data-paper-data="{&quot;index&quot;:null}" fill="#ffffff" stroke="none" stroke-width="1"/><path d="M250.23083,172.78488v7.5478" data-paper-data="{&quot;index&quot;:null}" fill="none" stroke="#000000" stroke-width="5.33"/><path d="M229.75782,170.30681v7.5478" data-paper-data="{&quot;index&quot;:null}" fill="none" stroke="#000000" stroke-width="5.33"/><path d="M246.9529,188.32149c-4.87042,2.81193 -11.10724,1.14078 -13.91917,-3.72965" data-paper-data="{&quot;index&quot;:null}" fill="none" stroke="#000000" stroke-width="6"/></g><path d="" fill="#9966ff" fill-rule="nonzero" stroke="none" stroke-width="0.5" stroke-linecap="butt" stroke-linejoin="miter" stroke-miterlimit="10"/></g></g></svg>