<svg version="1.1" xmlns="http://www.w3.org/2000/svg" xmlns:xlink="http://www.w3.org/1999/xlink" width="52.225" height="52.225" viewBox="0,0,52.225,52.225"><defs><radialGradient cx="240" cy="180" r="26.1125" gradientUnits="userSpaceOnUse" id="color-1"><stop offset="0" stop-color="#ffe900"/><stop offset="1" stop-color="#ffe900" stop-opacity="0"/></radialGradient></defs><g transform="translate(-213.8875,-153.8875)"><g data-paper-data="{&quot;isPaintingLayer&quot;:true}" fill-rule="nonzero" stroke-linejoin="miter" stroke-miterlimit="10" stroke-dasharray="" stroke-dashoffset="0" style="mix-blend-mode: normal"><path d="M213.8875,180c0,-14.42154 11.69097,-26.1125 26.1125,-26.1125c14.42154,0 26.1125,11.69097 26.1125,26.1125c0,14.42154 -11.69096,26.1125 -26.1125,26.1125c-14.42154,0 -26.1125,-11.69097 -26.1125,-26.1125z" fill="url(#color-1)" stroke="none" stroke-width="NaN" stroke-linecap="butt"/><path d="M221.52513,180c0,-4.90392 3.97541,-8.87933 8.87933,-8.87933c4.90392,0 8.87933,3.97541 8.87933,8.87933c0,4.90392 -3.97541,8.87933 -8.87933,8.87933c-4.90392,0 -8.87933,-3.97541 -8.87933,-8.87933z" fill="#ffea00" stroke="#ffe900" stroke-width="2.5" stroke-linecap="butt"/><path d="M237.03354,180c0,3.66114 -2.96794,6.62909 -6.62909,6.62909c-3.66114,0 -6.62909,-2.96794 -6.62909,-6.62909c0,-3.66114 2.96794,-6.62909 6.62909,-6.62909c3.66114,0 6.62909,2.96794 6.62909,6.62909z" fill="#fff600" stroke="#fff600" stroke-width="2.5" stroke-linecap="butt"/><path d="M238.61479,179.96351h18.6101" fill="none" stroke="#ffe900" stroke-width="5" stroke-linecap="round"/><path d="M249.42507,180.20983v6.20336" fill="none" stroke="#ffe900" stroke-width="5" stroke-linecap="round"/><path d="M254.53372,180.1186v6.20336" fill="none" stroke="#ffe900" stroke-width="5" stroke-linecap="round"/></g></g></svg>