<svg version="1.1" xmlns="http://www.w3.org/2000/svg" xmlns:xlink="http://www.w3.org/1999/xlink" width="33.20833" height="31.33317" viewBox="0,0,33.20833,31.33317"><defs><radialGradient cx="240" cy="180" r="16.60417" gradientUnits="userSpaceOnUse" id="color-1"><stop offset="0" stop-color="#edec4d"/><stop offset="1" stop-color="#edec4d" stop-opacity="0"/></radialGradient></defs><g transform="translate(-223.39583,-164.33341)"><g data-paper-data="{&quot;isPaintingLayer&quot;:true}" fill-rule="nonzero" stroke="#000000" stroke-linecap="butt" stroke-linejoin="miter" stroke-miterlimit="10" stroke-dasharray="" stroke-dashoffset="0" style="mix-blend-mode: normal"><path d="M256.60417,180c0,8.65242 -7.43394,15.66659 -16.60417,15.66659c-9.17023,0 -16.60417,-7.01417 -16.60417,-15.66659c0,-8.65242 7.43394,-15.66659 16.60417,-15.66659c9.17023,0 16.60417,7.01417 16.60417,15.66659z" fill="url(#color-1)" stroke-width="0"/><path d="M255.05213,180c0,1.58928 -1.59889,2.26512 -2.47602,3.62062c-2.37889,3.67626 -6.50249,7.06154 -12.57611,7.06154c-5.1799,0 -9.60995,-3.66035 -12.31805,-6.4873c-1.63805,-1.70994 -2.73408,-1.97132 -2.73408,-4.19486c0,-2.71986 0.59998,-3.12137 2.95856,-5.00721c2.75737,-2.2047 7.61304,-5.67495 12.09357,-5.67495c4.7893,0 8.77871,3.11341 11.53549,5.58725c2.02833,1.82016 3.51664,2.59417 3.51664,5.0949z" fill="#edec4d" stroke-width="1.5"/></g></g></svg>