<svg version="1.1" xmlns="http://www.w3.org/2000/svg" xmlns:xlink="http://www.w3.org/1999/xlink" width="427.5625" height="335.01268" viewBox="0,0,427.5625,335.01268"><g transform="translate(-38.5,-25)"><g data-paper-data="{&quot;isPaintingLayer&quot;:true}" fill-rule="nonzero" stroke-linejoin="miter" stroke-miterlimit="10" stroke-dasharray="" stroke-dashoffset="0" style="mix-blend-mode: normal"><path d="M41,332.5v-305h397v305z" fill="#00ffb6" stroke="#ffde00" stroke-width="5" stroke-linecap="butt"/><text transform="translate(161.65496,76.71061) scale(1.34507,1.34507)" font-size="40" xml:space="preserve" fill="#000000" fill-rule="nonzero" stroke="none" stroke-width="1" stroke-linecap="butt" stroke-linejoin="miter" stroke-miterlimit="10" stroke-dasharray="" stroke-dashoffset="0" font-family="Handwriting" font-weight="normal" text-anchor="start" style="mix-blend-mode: normal"><tspan x="0" dy="0">Quests</tspan></text><path d="M69.5,163.3v-71h342v71z" fill="#66fffc" stroke="#ffea00" stroke-width="5" stroke-linecap="butt"/><path d="M70.5,245.30001v-71h341v71z" fill="#66fffc" stroke="#ffea00" stroke-width="5" stroke-linecap="butt"/><path d="M71.5,325.30001v-71h339v71z" fill="#66fffc" stroke="#ffea00" stroke-width="5" stroke-linecap="butt"/><text transform="translate(322.5,138.3) scale(0.5,0.5)" font-size="40" xml:space="preserve" fill="#000000" fill-rule="nonzero" stroke="none" stroke-width="1" stroke-linecap="butt" stroke-linejoin="miter" stroke-miterlimit="10" stroke-dasharray="" stroke-dashoffset="0" font-family="Handwriting" font-weight="normal" text-anchor="start" style="mix-blend-mode: normal"><tspan x="0" dy="0">100 points</tspan></text><text transform="translate(317.5,217.30001) scale(0.5,0.5)" font-size="40" xml:space="preserve" fill="#000000" fill-rule="nonzero" stroke="none" stroke-width="1" stroke-linecap="butt" stroke-linejoin="miter" stroke-miterlimit="10" stroke-dasharray="" stroke-dashoffset="0" font-family="Handwriting" font-weight="normal" text-anchor="start" style="mix-blend-mode: normal"><tspan x="0" dy="0">200 points</tspan></text><text transform="translate(317.5,303.30001) scale(0.5,0.5)" font-size="40" xml:space="preserve" fill="#000000" fill-rule="nonzero" stroke="none" stroke-width="1" stroke-linecap="butt" stroke-linejoin="miter" stroke-miterlimit="10" stroke-dasharray="" stroke-dashoffset="0" font-family="Handwriting" font-weight="normal" text-anchor="start" style="mix-blend-mode: normal"><tspan x="0" dy="0">500 points</tspan></text><path d="M338.5,83.3v-55h100v55z" fill="#00ffff" stroke="#ffde00" stroke-width="5" stroke-linecap="butt"/><text transform="translate(359.5,66.57603) scale(0.82578,0.82578)" font-size="40" xml:space="preserve" fill="#000000" fill-rule="nonzero" stroke="none" stroke-width="1" stroke-linecap="butt" stroke-linejoin="miter" stroke-miterlimit="10" stroke-dasharray="" stroke-dashoffset="0" font-family="Handwriting" font-weight="normal" text-anchor="start" style="mix-blend-mode: normal"><tspan x="0" dy="0">Skip</tspan></text><path d="M453.125,360.01268v-23.75c0,0 0.83891,-1.56909 2.31047,-2.68196c1.12639,-0.85183 3.08663,-1.31804 3.97525,-1.31804c0.9062,0 2.72276,0.77964 3.94389,1.60006c1.68097,1.12937 2.39539,2.39994 2.39539,2.39994v23.75z" fill="#000000" stroke="none" stroke-width="none" stroke-linecap="butt"/><path d="M453.3125,336.64943h12.5" fill="none" stroke="#808080" stroke-width="0.5" stroke-linecap="round"/><path d="M453.3125,340.93515h12.5" fill="none" stroke="#808080" stroke-width="0.5" stroke-linecap="round"/><path d="M453.24108,345.22086h12.5" fill="none" stroke="#808080" stroke-width="0.5" stroke-linecap="round"/><path d="M453.3125,349.00658h12.5" fill="none" stroke="#808080" stroke-width="0.5" stroke-linecap="round"/><path d="M453.3125,353.29229h12.5" fill="none" stroke="#808080" stroke-width="0.5" stroke-linecap="round"/><path d="M453.24108,357.57801h12.5" fill="none" stroke="#808080" stroke-width="0.5" stroke-linecap="round"/><path d="M463.31251,334.29229l0.21429,25.35715" fill="none" stroke="#808080" stroke-width="0.5" stroke-linecap="round"/><path d="M459.02679,332.578l0.21429,27.07143" fill="none" stroke="#808080" stroke-width="0.5" stroke-linecap="round"/><path d="M454.74108,334.57801l0.21428,25" fill="none" stroke="#808080" stroke-width="0.5" stroke-linecap="round"/></g></g></svg>