<svg version="1.1" xmlns="http://www.w3.org/2000/svg" xmlns:xlink="http://www.w3.org/1999/xlink" width="104.25656" height="104.2566" viewBox="0,0,104.25656,104.2566"><g transform="translate(-187.87173,-127.8717)"><g data-paper-data="{&quot;isPaintingLayer&quot;:true}" fill="#ffffff" fill-rule="nonzero" stroke="#ffffff" stroke-width="2.5" stroke-linecap="round" stroke-linejoin="round" stroke-miterlimit="10" stroke-dasharray="" stroke-dashoffset="0" style="mix-blend-mode: normal"><path d="M214.85888,222.96808c0,-1.79372 1.45409,-3.24782 3.24782,-3.24782c1.79372,0 3.24782,1.45409 3.24782,3.24782c0,1.79372 -1.45409,3.24782 -3.24782,3.24782c-1.79372,0 -3.24782,-1.45409 -3.24782,-3.24782z"/><path d="M229.20828,227.63048c0,-1.79372 1.45409,-3.24782 3.24782,-3.24782c1.79372,0 3.24782,1.45409 3.24782,3.24782c0,1.79372 -1.45409,3.24782 -3.24782,3.24782c-1.79372,0 -3.24782,-1.45409 -3.24782,-3.24782z"/><path d="M244.29614,227.63048c0,-1.79372 1.45409,-3.24782 3.24782,-3.24782c1.79372,0 3.24782,1.45409 3.24782,3.24782c0,1.79372 -1.45409,3.24782 -3.24782,3.24782c-1.79372,0 -3.24782,-1.45409 -3.24782,-3.24782z"/><path d="M258.64554,222.96808c0,-1.79372 1.45409,-3.24782 3.24782,-3.24782c1.79372,0 3.24782,1.45409 3.24782,3.24782c0,1.79372 -1.45409,3.24782 -3.24782,3.24782c-1.79372,0 -3.24782,-1.45409 -3.24782,-3.24782z"/><path d="M270.85186,214.09966c0,-1.79372 1.45409,-3.24782 3.24782,-3.24782c1.79372,0 3.24782,1.45409 3.24782,3.24782c0,1.79372 -1.45409,3.24782 -3.24782,3.24782c-1.79372,0 -3.24782,-1.45409 -3.24782,-3.24782z"/><path d="M279.72024,201.89332c0,-1.79372 1.45409,-3.24782 3.24782,-3.24782c1.79372,0 3.24782,1.45409 3.24782,3.24782c0,1.79372 -1.45409,3.24782 -3.24782,3.24782c-1.79372,0 -3.24782,-1.45409 -3.24782,-3.24782z"/><path d="M284.38266,187.54393c0,-1.79372 1.45409,-3.24782 3.24782,-3.24782c1.79372,0 3.24782,1.45409 3.24782,3.24782c0,1.79372 -1.45409,3.24782 -3.24782,3.24782c-1.79372,0 -3.24782,-1.45409 -3.24782,-3.24782z"/><path d="M284.38266,172.45607c0,-1.79372 1.45409,-3.24782 3.24782,-3.24782c1.79372,0 3.24782,1.45409 3.24782,3.24782c0,1.79372 -1.45409,3.24782 -3.24782,3.24782c-1.79372,0 -3.24782,-1.45409 -3.24782,-3.24782z"/><path d="M279.72024,158.10667c0,-1.79372 1.45409,-3.24782 3.24782,-3.24782c1.79372,0 3.24782,1.45409 3.24782,3.24782c0,1.79372 -1.45409,3.24782 -3.24782,3.24782c-1.79372,0 -3.24782,-1.45409 -3.24782,-3.24782z"/><path d="M270.85186,145.90034c0,-1.79372 1.45409,-3.24782 3.24782,-3.24782c1.79372,0 3.24782,1.45409 3.24782,3.24782c0,1.79372 -1.45409,3.24782 -3.24782,3.24782c-1.79372,0 -3.24782,-1.45409 -3.24782,-3.24782z"/><path d="M258.64554,137.03193c0,-1.79372 1.45409,-3.24782 3.24782,-3.24782c1.79372,0 3.24782,1.45409 3.24782,3.24782c0,1.79372 -1.45409,3.24782 -3.24782,3.24782c-1.79372,0 -3.24782,-1.45409 -3.24782,-3.24782z"/><path d="M244.29614,132.36952c0,-1.79372 1.45409,-3.24782 3.24782,-3.24782c1.79372,0 3.24782,1.45409 3.24782,3.24782c0,1.79372 -1.45409,3.24782 -3.24782,3.24782c-1.79372,0 -3.24782,-1.45409 -3.24782,-3.24782z"/><path d="M229.20828,132.36952c0,-1.79372 1.45409,-3.24782 3.24782,-3.24782c1.79372,0 3.24782,1.45409 3.24782,3.24782c0,1.79372 -1.45409,3.24782 -3.24782,3.24782c-1.79372,0 -3.24782,-1.45409 -3.24782,-3.24782z"/><path d="M214.85888,137.03193c0,-1.79372 1.45409,-3.24782 3.24782,-3.24782c1.79372,0 3.24782,1.45409 3.24782,3.24782c0,1.79372 -1.45409,3.24782 -3.24782,3.24782c-1.79372,0 -3.24782,-1.45409 -3.24782,-3.24782z"/><path d="M202.65255,214.09966c0,-1.79372 1.45409,-3.24782 3.24782,-3.24782c1.79372,0 3.24782,1.45409 3.24782,3.24782c0,1.79372 -1.45409,3.24782 -3.24782,3.24782c-1.79372,0 -3.24782,-1.45409 -3.24782,-3.24782z"/><path d="M193.78414,201.89332c0,-1.79372 1.45409,-3.24782 3.24782,-3.24782c1.79372,0 3.24782,1.45409 3.24782,3.24782c0,1.79372 -1.45409,3.24782 -3.24782,3.24782c-1.79372,0 -3.24782,-1.45409 -3.24782,-3.24782z"/><path d="M189.12174,187.54393c0,-1.79372 1.45409,-3.24782 3.24782,-3.24782c1.79372,0 3.24782,1.45409 3.24782,3.24782c0,1.79372 -1.45409,3.24782 -3.24782,3.24782c-1.79372,0 -3.24782,-1.45409 -3.24782,-3.24782z"/><path d="M189.12174,172.45607c0,-1.79372 1.45409,-3.24782 3.24782,-3.24782c1.79372,0 3.24782,1.45409 3.24782,3.24782c0,1.79372 -1.45409,3.24782 -3.24782,3.24782c-1.79372,0 -3.24782,-1.45409 -3.24782,-3.24782z"/><path d="M193.78414,158.10667c0,-1.79372 1.45409,-3.24782 3.24782,-3.24782c1.79372,0 3.24782,1.45409 3.24782,3.24782c0,1.79372 -1.45409,3.24782 -3.24782,3.24782c-1.79372,0 -3.24782,-1.45409 -3.24782,-3.24782z"/><path d="M202.65255,145.90034c0,-1.79372 1.45409,-3.24782 3.24782,-3.24782c1.79372,0 3.24782,1.45409 3.24782,3.24782c0,1.79372 -1.45409,3.24782 -3.24782,3.24782c-1.79372,0 -3.24782,-1.45409 -3.24782,-3.24782z"/></g></g></svg>