<svg version="1.1" xmlns="http://www.w3.org/2000/svg" xmlns:xlink="http://www.w3.org/1999/xlink" width="32.125" height="44.1935" viewBox="0,0,32.125,44.1935"><g transform="translate(-223.64019,-160.10131)"><g data-paper-data="{&quot;isPaintingLayer&quot;:true}" fill-rule="nonzero" stroke="none" stroke-linecap="butt" stroke-linejoin="miter" stroke-miterlimit="10" stroke-dasharray="" stroke-dashoffset="0" style="mix-blend-mode: normal"><path d="M223.64019,195.45671c0,-4.88115 3.95695,-8.8381 8.8381,-8.8381c4.88115,0 8.8381,3.95695 8.8381,8.8381c0,4.88115 -3.95695,8.8381 -8.8381,8.8381c-4.88115,0 -8.8381,-3.95695 -8.8381,-8.8381z" fill="#ff6666" stroke-width="0"/><path d="M238.08899,195.45671c0,-4.88115 3.95696,-8.8381 8.8381,-8.8381c4.88115,0 8.8381,3.95696 8.8381,8.8381c0,4.88115 -3.95696,8.8381 -8.8381,8.8381c-4.88115,0 -8.8381,-3.95696 -8.8381,-8.8381z" fill="#66ffff" stroke-width="0"/><path d="M230.96098,183.4296c0,-4.88115 3.95696,-8.8381 8.8381,-8.8381c4.88115,0 8.8381,3.95696 8.8381,8.8381c0,4.88115 -3.95696,8.8381 -8.8381,8.8381c-4.88115,0 -8.8381,-3.95696 -8.8381,-8.8381z" fill="#66ffa6" stroke-width="0"/><text transform="translate(228.22754,169.37379) scale(0.24509,0.24509)" font-size="40" xml:space="preserve" fill="#000000" fill-rule="nonzero" stroke="none" stroke-width="1" stroke-linecap="butt" stroke-linejoin="miter" stroke-miterlimit="10" stroke-dasharray="" stroke-dashoffset="0" font-family="Handwriting" font-weight="normal" text-anchor="start" style="mix-blend-mode: normal"><tspan x="0" dy="0">Color</tspan></text></g></g></svg>