<svg version="1.1" xmlns="http://www.w3.org/2000/svg" xmlns:xlink="http://www.w3.org/1999/xlink" width="33.20833" height="31.33316" viewBox="0,0,33.20833,31.33316"><defs><radialGradient cx="240.00001" cy="180.00001" r="16.60417" gradientUnits="userSpaceOnUse" id="color-1"><stop offset="0" stop-color="#ec1c2c"/><stop offset="1" stop-color="#ec1c2c" stop-opacity="0"/></radialGradient></defs><g transform="translate(-223.39584,-164.33342)"><g data-paper-data="{&quot;isPaintingLayer&quot;:true}" fill-rule="nonzero" stroke-linecap="butt" stroke-linejoin="miter" stroke-miterlimit="10" stroke-dasharray="" stroke-dashoffset="0" style="mix-blend-mode: normal"><path d="M256.60418,180.00001c0,8.65242 -7.43394,15.66658 -16.60417,15.66658c-9.17023,0 -16.60416,-7.01417 -16.60416,-15.66658c0,-8.65242 7.43393,-15.66658 16.60416,-15.66658c9.17023,0 16.60417,7.01417 16.60417,15.66658z" fill="url(#color-1)" stroke="#000000" stroke-width="0"/><g stroke="none" stroke-width="1"><path d="M251.67103,181.8115c0,6.00451 -5.17701,10.87358 -11.56426,10.87358c-6.38725,0 -11.56385,-4.86701 -11.56385,-10.87358c0,-6.00451 5.17618,-8.79368 11.56385,-8.79368c6.38684,-0.00041 11.56426,2.78959 11.56426,8.79368z" fill="#ec1c2c"/><g fill="#231f20"><path d="M252.96601,181.69535c0,6.67783 -5.75651,12.09168 -12.85841,12.09168c-7.10067,0 -12.85759,-5.41385 -12.85759,-12.09168c0,-5.88505 4.47269,-8.53452 10.39494,-9.08178c0,0 1.87158,-0.23973 3.77622,-0.07812c6.48273,0.30173 11.54484,2.90037 11.54484,9.1599zM251.00433,181.87267c0,-5.20884 -4.13624,-7.84674 -9.48561,-8.23362c0,0 -3.39223,0.04753 -3.49515,0.05952c-5.01994,0.55428 -8.8098,3.18681 -8.8098,8.17327c0,5.65689 4.87652,10.24449 10.89425,10.24449c6.01732,0 10.89384,-4.58677 10.89632,-10.24366z"/><path d="M243.80818,176.29886c-1.47478,0.07481 -2.88755,0.11201 -4.36522,0.27776c-0.98663,0.11077 -1.9373,0.11945 -2.66807,-0.62579c-0.15872,-0.16327 0.04877,-0.44475 0.24717,-0.31951c0.48856,0.30628 0.98084,0.43028 1.47602,0.45425c0.03224,0.02645 1.76659,-0.20253 2.55854,-0.45384c0.95563,-0.2604 1.91208,-0.47533 2.86399,-0.16079c0.45508,0.15045 0.36704,0.80269 -0.11243,0.82791z"/></g><path d="M232.43942,181.75322c0,1.41815 0.76467,2.56763 -0.03472,2.56763c-0.79939,0 -1.44667,-1.14948 -1.44667,-2.56763c0,-1.41774 0.64728,-2.56722 1.44667,-2.56722c0.79939,0 0.03472,1.1499 0.03472,2.56722z" fill="#ffffff"/></g><g stroke="none" stroke-width="1"><path d="M237.21798,169.52886c0.42201,-0.25213 0.84279,-0.50509 1.26439,-0.75764c0.30339,0.46624 0.60843,0.92132 0.85312,1.43923c0.89363,1.88646 0.69688,3.87914 0.67125,5.87431c-0.155,0.03679 -0.40383,0.06324 -0.55717,0.09052c0.10664,-2.54118 -0.49807,-4.87073 -2.23159,-6.64641z" fill="#99661d"/><path d="M241.0128,175.21303c0,0 -0.09507,0.77541 -0.10375,0.92174c0,0 -1.55868,0.46459 -2.17,0.23229l-0.01901,-0.66505c0.0124,-1.32887 -0.40093,-2.75611 -0.64563,-3.20293c-0.11697,-0.21328 -0.58817,-1.43262 -2.02534,-2.71023c-0.24635,-0.21783 -0.16327,-0.6262 0.10003,-0.78451c0.74689,-0.44805 1.49172,-0.89611 2.23779,-1.34416c0.23973,-0.14343 0.52287,-0.03637 0.68531,0.1798c2.28491,3.04131 2.01046,7.05851 1.9406,7.37306zM239.96458,175.50815c0.04629,-1.83603 0.20253,-3.54227 -0.62909,-5.2977c-0.24469,-0.51791 -0.54973,-0.97299 -0.85312,-1.43923c-0.4216,0.25255 -0.84238,0.50551 -1.26439,0.75764c1.63763,1.67731 2.3064,3.70719 2.28574,6.06899v0.47616l0.45839,-0.05828z" fill="#231f20"/></g></g></g></svg>