<svg version="1.1" xmlns="http://www.w3.org/2000/svg" xmlns:xlink="http://www.w3.org/1999/xlink" width="90.725" height="90.725" viewBox="0,0,90.725,90.725"><defs><radialGradient cx="240" cy="180" r="45.3625" gradientUnits="userSpaceOnUse" id="color-1"><stop offset="0" stop-color="#52f6ff"/><stop offset="1" stop-color="#52f6ff" stop-opacity="0"/></radialGradient></defs><g transform="translate(-194.6375,-134.6375)"><g data-paper-data="{&quot;isPaintingLayer&quot;:true}" fill-rule="nonzero" stroke-linejoin="miter" stroke-miterlimit="10" stroke-dasharray="" stroke-dashoffset="0" style="mix-blend-mode: normal"><path d="M194.6375,180c0,-25.053 20.3095,-45.3625 45.3625,-45.3625c25.053,0 45.3625,20.3095 45.3625,45.3625c0,25.053 -20.3095,45.3625 -45.3625,45.3625c-25.053,0 -45.3625,-20.3095 -45.3625,-45.3625z" fill="url(#color-1)" stroke="none" stroke-width="NaN" stroke-linecap="butt"/><path d="" fill="#ff0000" stroke="#ff0000" stroke-width="2.5" stroke-linecap="butt"/><path d="" fill="#ff0000" stroke="#ff0000" stroke-width="2.5" stroke-linecap="butt"/><path d="M255.97231,180c0,21.84358 -8.00487,39.5513 -17.87936,39.5513c-9.8745,0 -17.87936,-17.70772 -17.87936,-39.5513c0,-21.84358 8.00487,-39.5513 17.87936,-39.5513c9.8745,0 17.87936,17.70772 17.87936,39.5513z" fill="none" stroke="#000000" stroke-width="10" stroke-linecap="butt"/><path d="M255.97231,180c0,21.84358 -8.00487,39.5513 -17.87936,39.5513c-9.8745,0 -17.87936,-17.70772 -17.87936,-39.5513c0,-21.84358 8.00487,-39.5513 17.87936,-39.5513c9.8745,0 17.87936,17.70772 17.87936,39.5513z" fill="none" stroke="#52f6ff" stroke-width="7.5" stroke-linecap="butt"/><path d="M257.41958,180.46142l-2.25724,-8.6528" data-paper-data="{&quot;index&quot;:null}" fill="none" stroke="#000000" stroke-width="2.5" stroke-linecap="round"/><path d="M259.78641,171.91821l-2.25724,8.6528" data-paper-data="{&quot;index&quot;:null}" fill="none" stroke="#000000" stroke-width="2.5" stroke-linecap="round"/><path d="" fill="#ff0000" stroke="#ff0000" stroke-width="2.5" stroke-linecap="butt"/><path d="" fill="#ff0000" stroke="#ff0000" stroke-width="2.5" stroke-linecap="butt"/><path d="" fill="none" stroke="#000000" stroke-width="2" stroke-linecap="round"/><path d="" fill="none" stroke="#000000" stroke-width="2" stroke-linecap="round"/></g></g></svg>