<svg version="1.1" xmlns="http://www.w3.org/2000/svg" xmlns:xlink="http://www.w3.org/1999/xlink" width="50.5" height="50.5" viewBox="0,0,50.5,50.5"><g transform="translate(-214.75,-154.75)"><g data-paper-data="{&quot;isPaintingLayer&quot;:true}" fill-rule="nonzero" stroke-linejoin="miter" stroke-miterlimit="10" stroke-dasharray="" stroke-dashoffset="0" style="mix-blend-mode: normal"><g><path d="M215.75,180c0,-13.39291 10.85709,-24.25 24.25,-24.25c13.39291,0 24.25,10.85709 24.25,24.25c0,13.39291 -10.85709,24.25 -24.25,24.25c-13.39291,0 -24.25,-10.85709 -24.25,-24.25z" fill="#fff859" stroke="#000000" stroke-width="2" stroke-linecap="butt"/><path d="M226.375,174.75c0,-2.55432 2.07068,-4.625 4.625,-4.625c2.55432,0 4.625,2.07068 4.625,4.625c0,2.55432 -2.07068,4.625 -4.625,4.625c-2.55432,0 -4.625,-2.07068 -4.625,-4.625z" fill="#000000" stroke="#000000" stroke-width="2" stroke-linecap="butt"/><path d="M244.375,174.25c0,-2.55432 2.07068,-4.625 4.625,-4.625c2.55432,0 4.625,2.07068 4.625,4.625c0,2.55432 -2.07068,4.625 -4.625,4.625c-2.55432,0 -4.625,-2.07068 -4.625,-4.625z" fill="#000000" stroke="#000000" stroke-width="2" stroke-linecap="butt"/><path d="M228.78571,195v-4.85714h22.42857v4.85714z" fill="#000000" stroke="none" stroke-width="0" stroke-linecap="butt"/><path d="M225.92857,165.04286h10" fill="none" stroke="#000000" stroke-width="1.5" stroke-linecap="round"/><path d="M244.5,165.04286h10" fill="none" stroke="#000000" stroke-width="1.5" stroke-linecap="round"/></g></g></g></svg>