<svg version="1.1" xmlns="http://www.w3.org/2000/svg" xmlns:xlink="http://www.w3.org/1999/xlink" width="39.99887" height="35.86645" viewBox="0,0,39.99887,35.86645"><g transform="translate(-219.99914,-161.96184)"><g data-paper-data="{&quot;isPaintingLayer&quot;:true}" fill="none" fill-rule="nonzero" stroke-width="5" stroke-linecap="round" stroke-linejoin="miter" stroke-miterlimit="10" stroke-dasharray="" stroke-dashoffset="0" style="mix-blend-mode: normal"><path d="M222.49915,179.87298c0,0 29.46056,-13.58433 33.4224,-15.41114c0.85679,-0.39507 1.56339,-0.09117 1.56387,0.98749c0.00258,5.77984 0.0109,24.45351 0.0126,28.25011c0.00059,1.31222 -0.90819,2.11819 -1.959,1.62886c-4.31421,-2.00901 -33.03986,-15.38578 -33.03986,-15.38578" stroke="#000000"/><path d="M227.75556,179.74066l24.81023,-11.44005l0.01028,23.04761l-24.82051,-11.55825" stroke="#fde800"/><path d="M231.3453,179.76488l17.63371,-8.13094l0.00731,16.38094l-17.64102,-8.21495" stroke="#fde800"/><path d="M234.01196,179.78288l12.30259,-5.67275l0.0051,11.42856l-12.30769,-5.73136" stroke="#fde800"/><path d="M236.17865,179.79751l7.97105,-3.67547l0.0033,7.40475l-7.97436,-3.71344" stroke="#fde800"/><path d="M239.01196,179.96417l7.97106,-3.67547l0.0033,7.40475l-7.97436,-3.71344" stroke="#fde800"/></g></g></svg>