<svg version="1.1" xmlns="http://www.w3.org/2000/svg" xmlns:xlink="http://www.w3.org/1999/xlink" width="52.225" height="52.225" viewBox="0,0,52.225,52.225"><defs><radialGradient cx="239.8" cy="188.8" r="26.1125" gradientUnits="userSpaceOnUse" id="color-1"><stop offset="0" stop-color="#33ff44"/><stop offset="1" stop-color="#33ff44" stop-opacity="0"/></radialGradient></defs><g transform="translate(-213.6875,-162.6875)"><g data-paper-data="{&quot;isPaintingLayer&quot;:true}" fill-rule="nonzero" stroke-linejoin="miter" stroke-miterlimit="10" stroke-dasharray="" stroke-dashoffset="0" style="mix-blend-mode: normal"><path d="M213.6875,188.8c0,-14.42153 11.69097,-26.1125 26.1125,-26.1125c14.42153,0 26.1125,11.69097 26.1125,26.1125c0,14.42153 -11.69097,26.1125 -26.1125,26.1125c-14.42153,0 -26.1125,-11.69097 -26.1125,-26.1125z" fill="url(#color-1)" stroke="none" stroke-width="NaN" stroke-linecap="butt"/><path d="" fill="#ff0000" stroke="#ff0000" stroke-width="2.5" stroke-linecap="butt"/><path d="" fill="#ff0000" stroke="#ff0000" stroke-width="2.5" stroke-linecap="butt"/><path d="M226.27146,192.9883c0.05066,-2.5414 1.75857,-6.6068 3.79394,-8.67097c2.68955,-2.7276 6.83478,-3.74536 10.20903,-3.74536c5.96932,0 13.47004,5.13499 13.68286,13.58668c-1.83407,-0.05983 -6.72681,0.11761 -8.56469,0.11761c0,0 -0.38277,0 -0.76101,0.19366c-0.13572,-0.00883 -0.27364,-0.25928 -0.41365,-0.26851c-5.00712,-0.33011 -13.08887,-0.50431 -17.9954,-0.48988c-0.14459,0.00042 0.19361,-0.72348 0.04894,-0.72322z" fill="#33ff44" stroke="#e2ff00" stroke-width="0" stroke-linecap="butt"/><path d="M225.49113,193.86132c0.3326,-7.74401 6.71598,-13.92014 14.54187,-13.92014c8.03798,0 14.55421,6.51542 14.5555,14.5531" fill="none" stroke="#000000" stroke-width="2.5" stroke-linecap="butt"/><path d="M225.41152,194.40646l29.12208,0.40236" fill="none" stroke="#000000" stroke-width="2.5" stroke-linecap="round"/></g></g></svg>