<svg version="1.1" xmlns="http://www.w3.org/2000/svg" xmlns:xlink="http://www.w3.org/1999/xlink" width="537.8523" height="373.09628" viewBox="0,0,537.8523,373.09628"><defs><radialGradient cx="258.04179" cy="45.69921" r="6.83116" gradientUnits="userSpaceOnUse" id="color-1"><stop offset="0" stop-color="#e8ff5c"/><stop offset="1" stop-color="#e8ff5c" stop-opacity="0"/></radialGradient><radialGradient cx="218.29689" cy="48.18327" r="6.83116" gradientUnits="userSpaceOnUse" id="color-2"><stop offset="0" stop-color="#e8ff5c"/><stop offset="1" stop-color="#e8ff5c" stop-opacity="0"/></radialGradient><linearGradient x1="217.93559" y1="36.79802" x2="217.93559" y2="51.49571" gradientUnits="userSpaceOnUse" id="color-3"><stop offset="0" stop-color="#7cff5c"/><stop offset="1" stop-color="#7cff5c" stop-opacity="0"/></linearGradient><linearGradient x1="257.26651" y1="35.96998" x2="257.26651" y2="50.66767" gradientUnits="userSpaceOnUse" id="color-4"><stop offset="0" stop-color="#7cff5c"/><stop offset="1" stop-color="#7cff5c" stop-opacity="0"/></linearGradient><linearGradient x1="240.51341" y1="227.19177" x2="221.61815" y2="277.77803" gradientUnits="userSpaceOnUse" id="color-5"><stop offset="0" stop-color="#ffffff"/><stop offset="1" stop-color="#ffffff" stop-opacity="0"/></linearGradient><linearGradient x1="239.48659" y1="227.80823" x2="258.38185" y2="177.22198" gradientUnits="userSpaceOnUse" id="color-6"><stop offset="0" stop-color="#ffffff"/><stop offset="1" stop-color="#ffffff" stop-opacity="0"/></linearGradient></defs><g transform="translate(28.92615,1.73356)"><g data-paper-data="{&quot;isPaintingLayer&quot;:true}" fill-rule="nonzero" stroke-linejoin="miter" stroke-miterlimit="10" stroke-dasharray="" stroke-dashoffset="0" style="mix-blend-mode: normal"><path d="" fill="#2d3d7c" stroke="none" stroke-width="0" stroke-linecap="butt"/><path d="" fill="#2d3d7c" stroke="none" stroke-width="0" stroke-linecap="butt"/><path d="M210.36592,16.28736l-25.5873,25.67663l-12.57156,-38.53128z" fill="#000000" stroke="#000000" stroke-width="2.5" stroke-linecap="round"/><path d="M308.07218,4.67474l-12.57156,38.53128l-25.5873,-25.67663z" data-paper-data="{&quot;index&quot;:null}" fill="#000000" stroke="#000000" stroke-width="2.5" stroke-linecap="round"/><path d="M171.92782,67c0,-37.27014 30.21341,-67.48355 67.48355,-67.48355c37.27014,0 67.48355,30.21341 67.48355,67.48355c0,37.27014 -30.21341,67.48355 -67.48355,67.48355c-37.27014,0 -67.48355,-30.21341 -67.48355,-67.48355z" fill="#000000" stroke="#000000" stroke-width="2.5" stroke-linecap="butt"/><path d="M215.06042,98.15251l9.2784,2.72034l-7.42398,7.85871z" fill="none" stroke="#1a1a1a" stroke-width="2.5" stroke-linecap="round"/><path d="M258.04179,52.53037c-3.77276,0 -6.83116,-3.0584 -6.83116,-6.83116c0,-3.77276 3.0584,-6.83116 6.83116,-6.83116c3.77276,0 6.83116,3.0584 6.83116,6.83116c0,3.77276 -3.0584,6.83116 -6.83116,6.83116z" data-paper-data="{&quot;index&quot;:null}" fill="url(#color-1)" stroke="none" stroke-width="0" stroke-linecap="butt"/><path d="M211.46574,48.18327c0,-3.77276 3.0584,-6.83116 6.83116,-6.83116c3.77276,0 6.83116,3.0584 6.83116,6.83116c0,3.77276 -3.0584,6.83116 -6.83116,6.83116c-3.77276,0 -6.83116,-3.0584 -6.83116,-6.83116z" data-paper-data="{&quot;index&quot;:null}" fill="url(#color-2)" stroke="none" stroke-width="0" stroke-linecap="butt"/><path d="M217.26189,36.79802c7.08818,0 12.83428,5.74612 12.83428,12.8343c0,0.63286 -0.04581,1.25504 -0.13429,1.86339c-3.06093,-1.73246 -5.70685,-4.04665 -9.22467,-5.21997c-4.70075,-1.56789 -9.96782,-1.86093 -14.9622,-2.37436c2.10521,-4.21142 6.45832,-7.10336 11.48685,-7.10336z" fill="url(#color-3)" stroke="none" stroke-width="0" stroke-linecap="butt"/><path d="M269.42708,43.07334c-4.99437,0.5134 -10.26144,0.80647 -14.9622,2.37436c-3.51782,1.17332 -6.16374,3.48752 -9.22467,5.21997c-0.08848,-0.60835 -0.13429,-1.2305 -0.13429,-1.86339c0,-7.08818 5.74612,-12.8343 12.83428,-12.8343c5.02855,0 9.38164,2.89194 11.48685,7.10336z" data-paper-data="{&quot;index&quot;:null}" fill="url(#color-4)" stroke="none" stroke-width="0" stroke-linecap="butt"/><path d="M266.96277,92.34401l6.6761,-6.99416l3.57366,10.20314z" fill="none" stroke="#1a1a1a" stroke-width="2.5" stroke-linecap="round"/><path d="M263.47136,106.2475l-7.42398,-7.85871l9.2784,-2.72034z" data-paper-data="{&quot;index&quot;:null}" fill="none" stroke="#1a1a1a" stroke-width="2.5" stroke-linecap="round"/><path d="M204.78156,87.39657l6.99419,6.6761l-10.20311,3.57366z" fill="none" stroke="#1a1a1a" stroke-width="2.5" stroke-linecap="round"/><path d="M243.45334,101.30746l9.51173,-1.73663l-3.10353,10.35581z" fill="none" stroke="#1a1a1a" stroke-width="2.5" stroke-linecap="round"/><path d="M230.71559,101.11154l9.49851,1.80747l-6.62664,8.54178z" fill="none" stroke="#1a1a1a" stroke-width="2.5" stroke-linecap="round"/><path d="M194.61909,81.8795c0.05974,-4.17885 4.76057,-6.758 8.64603,-6.00292c0.73337,0.14251 1.4377,0.40381 2.0763,0.79557c8.98968,5.51481 11.57456,15.80799 24.97093,15.97162c11.53993,0.14095 22.41712,0.20921 31.46026,-6.14687c5.45616,-3.83494 14.65002,-16.75742 20.93727,-8.96446c7.02044,8.7017 -12.61506,20.35424 -19.32497,22.39131c-4.35078,1.32087 -8.43705,4.07527 -13.74491,5.14031c-20.2582,4.06491 -45.1097,-3.81983 -54.23297,-20.29554z" fill="#7cff5c" stroke="none" stroke-width="0.5" stroke-linecap="butt"/><path d="M231.21399,24.09678v-16.39478h16.39478v16.39478z" fill="#1d1d1d" stroke="none" stroke-width="0" stroke-linecap="butt"/><path d="M233.48514,15.89229v-4.96811h4.96811v4.96811z" fill="#484848" stroke="none" stroke-width="0" stroke-linecap="butt"/><path d="M240.58244,15.89232v-4.96811h4.96811v4.96811z" fill="#484848" stroke="none" stroke-width="0" stroke-linecap="butt"/><path d="M234.9046,14.47285v-2.12918h2.12918v2.12918z" fill="#000000" stroke="none" stroke-width="0" stroke-linecap="butt"/><path d="M242.0019,14.47285v-2.12918h2.12918v2.12918z" fill="#000000" stroke="none" stroke-width="0" stroke-linecap="butt"/><path d="M233.83999,21.92502v-3.19378h11.35569v3.19378z" fill="#484848" stroke="none" stroke-width="0" stroke-linecap="butt"/><path d="M-28.92615,184.19333l18.89526,-50.58625l501.0886,187.1694l-18.89526,50.58625z" data-paper-data="{&quot;index&quot;:null}" fill="url(#color-5)" stroke="none" stroke-width="0" stroke-linecap="butt"/><path d="M508.92615,270.80667l-18.89526,50.58625l-501.0886,-187.16939l18.89526,-50.58626z" data-paper-data="{&quot;index&quot;:null}" fill="url(#color-6)" stroke="none" stroke-width="0" stroke-linecap="butt"/></g></g></svg>