<svg version="1.1" xmlns="http://www.w3.org/2000/svg" xmlns:xlink="http://www.w3.org/1999/xlink" width="31.78872" height="30.796" viewBox="0,0,31.78872,30.796"><g transform="translate(-224.10564,-164.60201)"><g data-paper-data="{&quot;isPaintingLayer&quot;:true}" fill="#00ffb5" fill-rule="nonzero" stroke-linejoin="miter" stroke-miterlimit="10" stroke-dasharray="" stroke-dashoffset="0" style="mix-blend-mode: normal"><path d="M231.18583,180.00001c0,-4.86793 3.94623,-8.81416 8.81416,-8.81416c4.86793,0 8.81416,3.94623 8.81416,8.81416c0,4.86793 -3.94623,8.81416 -8.81416,8.81416c-4.86793,0 -8.81416,-3.94623 -8.81416,-8.81416z" stroke="none" stroke-width="0" stroke-linecap="butt"/><path d="M242.51441,171.82141l-4.45435,0.00775l2.09524,-4.44035z" stroke="#00ffaf" stroke-width="2.5" stroke-linecap="round"/><path d="M248.67496,181.65994l-0.00776,-4.45433l4.44035,2.09524z" stroke="#00ffaf" stroke-width="2.5" stroke-linecap="round"/><path d="M238.07373,188.17862l4.45433,-0.00775l-2.09524,4.44034z" stroke="#00ffaf" stroke-width="2.5" stroke-linecap="round"/><path d="M231.32502,177.7338l0.00777,4.45435l-4.44035,-2.09526z" stroke="#00ffaf" stroke-width="2.5" stroke-linecap="round"/><path d="M232.54153,183.91111l3.15517,3.14421l-4.62136,1.65823z" stroke="#00ffaf" stroke-width="2.5" stroke-linecap="round"/><path d="M236.04683,172.11345l-3.1442,3.15518l-1.65823,-4.62136z" stroke="#00ffaf" stroke-width="2.5" stroke-linecap="round"/><path d="M247.84003,175.28779l-3.15518,-3.14421l4.62136,-1.65823z" stroke="#00ffaf" stroke-width="2.5" stroke-linecap="round"/><path d="M244.94571,186.76496l3.14421,-3.15519l1.65823,4.62137z" stroke="#00ffaf" stroke-width="2.5" stroke-linecap="round"/></g></g></svg>