<svg version="1.1" xmlns="http://www.w3.org/2000/svg" xmlns:xlink="http://www.w3.org/1999/xlink" width="64.20285" height="31.3895" viewBox="0,0,64.20285,31.3895"><g transform="translate(-207.89857,-164.30525)"><g data-paper-data="{&quot;isPaintingLayer&quot;:true}" fill-rule="nonzero" stroke-linejoin="miter" stroke-miterlimit="10" stroke-dasharray="" stroke-dashoffset="0" style="mix-blend-mode: normal"><path d="M232.82612,170.78159l-3.95981,2.44343l-3.0282,3.21429c0,0 0.04618,-0.83895 0.07967,-1.44716c0.05711,-1.03744 0.23178,-4.21055 0.23178,-4.21055z" data-paper-data="{&quot;index&quot;:null}" fill="#00ff6c" stroke="none" stroke-width="0" stroke-linecap="butt"/><path d="M221.52977,179.49738v10.00652h-13.57394v-10.00652z" data-paper-data="{&quot;index&quot;:null}" fill="#00ffae" stroke="#000000" stroke-width="0" stroke-linecap="butt"/><path d="M219.8628,180.65599v8.02848h-11.6617v-8.02848c0,0 5.29709,0 7.42734,0c1.60847,0 4.23436,0 4.23436,0z" data-paper-data="{&quot;index&quot;:null}" fill="#00ff6c" stroke="none" stroke-width="0" stroke-linecap="butt"/><path d="M272.10143,164.47862l-31.72328,15.54276l-32.47957,15.5v-31.04276z" data-paper-data="{&quot;index&quot;:null}" fill="#00e6ff" stroke="#00ffff" stroke-width="0" stroke-linecap="butt"/><path d="M260.00221,168.95682l-10.8668,4.28835l-11.15401,6.02381v-9.97883z" data-paper-data="{&quot;index&quot;:null}" fill="#00ffae" stroke="#000000" stroke-width="0" stroke-linecap="butt"/><path d="M221.58089,169.28313v9.97883h-13.53639v-9.97883z" data-paper-data="{&quot;index&quot;:null}" fill="#00ffae" stroke="#000000" stroke-width="0" stroke-linecap="butt"/><path d="M231.23108,185.28864l-8.11357,3.58598l-7.91269,4.67857l-0.14619,-8.26455z" data-paper-data="{&quot;index&quot;:null}" fill="#00ffae" stroke="#000000" stroke-width="0" stroke-linecap="butt"/><path d="M256.29873,169.59636l-8.86887,3.8158l-9.09472,4.85714c0,0 0.43921,-4.82516 0.62615,-6.3661c0.10657,-0.87841 -0.1876,-2.21159 -0.1876,-2.21159z" data-paper-data="{&quot;index&quot;:null}" fill="#00ff6c" stroke="none" stroke-width="0" stroke-linecap="butt"/><path d="M219.91853,170.32743v8.00627h-11.62945v-8.00627z" data-paper-data="{&quot;index&quot;:null}" fill="#00ff6c" stroke="none" stroke-width="0" stroke-linecap="butt"/><path d="M269.56354,165.55525l-59.12709,28.8895" data-paper-data="{&quot;index&quot;:null}" fill="none" stroke="#0c0c0c" stroke-width="2.5" stroke-linecap="round"/></g></g></svg>