<svg version="1.1" xmlns="http://www.w3.org/2000/svg" xmlns:xlink="http://www.w3.org/1999/xlink" width="523.28334" height="231.91031" viewBox="0,0,523.28334,231.91031"><g transform="translate(53.75,-11.62304)"><g data-paper-data="{&quot;isPaintingLayer&quot;:true}" fill-rule="nonzero" stroke-linejoin="miter" stroke-miterlimit="10" stroke-dasharray="" stroke-dashoffset="0" style="mix-blend-mode: normal"><text transform="translate(-53.5,47.3) scale(0.5,0.5)" font-size="40" xml:space="preserve" fill="#ff4a00" fill-rule="nonzero" stroke="none" stroke-width="1" stroke-linecap="butt" stroke-linejoin="miter" stroke-miterlimit="10" stroke-dasharray="" stroke-dashoffset="0" font-family="Handwriting" font-weight="normal" text-anchor="start" style="mix-blend-mode: normal"><tspan x="0" dy="0"> </tspan></text><path d="M29.65496,170.46061v-150h424v150z" fill="#00ff6b" stroke="none" stroke-width="NaN" stroke-linecap="butt"/><text transform="translate(118.65496,60.96061) scale(1.15006,1.15006)" font-size="40" xml:space="preserve" fill="#000000" fill-rule="nonzero" stroke="none" stroke-width="1" stroke-linecap="butt" stroke-linejoin="miter" stroke-miterlimit="10" stroke-dasharray="" stroke-dashoffset="0" font-family="Sans Serif" font-weight="normal" text-anchor="start" style="mix-blend-mode: normal"><tspan x="0" dy="0">Level Four</tspan></text><text transform="translate(116.40997,101.68048) scale(0.89004,0.89004)" font-size="40" xml:space="preserve" fill="#000000" fill-rule="nonzero" stroke="none" stroke-width="1" stroke-linecap="butt" stroke-linejoin="miter" stroke-miterlimit="10" stroke-dasharray="" stroke-dashoffset="0" font-family="Sans Serif" font-weight="normal" text-anchor="start" style="mix-blend-mode: normal"><tspan x="0" dy="0">Upside Down</tspan></text><g><path d="M388.75,53.00001c0,-13.39291 10.85709,-24.25 24.25,-24.25c13.39291,0 24.25,10.85709 24.25,24.25c0,13.39291 -10.85709,24.25 -24.25,24.25c-13.39291,0 -24.25,-10.85709 -24.25,-24.25z" fill="#59ff9f" stroke="#000000" stroke-width="2" stroke-linecap="butt"/><path d="M399.375,47.75001c0,-2.55432 2.07068,-4.625 4.625,-4.625c2.55432,0 4.625,2.07068 4.625,4.625c0,2.55432 -2.07068,4.625 -4.625,4.625c-2.55432,0 -4.625,-2.07068 -4.625,-4.625z" fill="#000000" stroke="#000000" stroke-width="2" stroke-linecap="butt"/><path d="M417.375,47.25001c0,-2.55432 2.07068,-4.625 4.625,-4.625c2.55432,0 4.625,2.07068 4.625,4.625c0,2.55432 -2.07068,4.625 -4.625,4.625c-2.55432,0 -4.625,-2.07068 -4.625,-4.625z" fill="#000000" stroke="#000000" stroke-width="2" stroke-linecap="butt"/><path d="M402.02326,59.8538c3.24826,-0.15209 6.25928,6.57489 11.28438,6.58701c2.30111,0.00555 5.30915,-0.52387 6.89597,-2.36184c0.59668,-0.69112 1.56522,-2.85464 2.27615,-3.09162c2.41787,-0.80596 4.56904,0.68576 3.63361,3.21435c-2.92851,7.91616 -13.44446,8.59723 -19.6169,5.01522c-1.28677,-0.74674 -6.33634,-3.76829 -6.43188,-5.48811c-0.25403,-0.39131 -0.40157,-0.85814 -0.40157,-1.35944c0,-1.22776 0.88504,-2.24881 2.05193,-2.45996c0.09689,-0.03131 0.19936,-0.05052 0.30832,-0.05562z" fill="#000000" stroke="none" stroke-width="0.5" stroke-linecap="butt"/><path d="M401.64286,40.75715l8.85715,-4" data-paper-data="{&quot;index&quot;:null}" fill="none" stroke="#000000" stroke-width="1.5" stroke-linecap="round"/><path d="M424.07143,40.75715l-8.85715,-4" data-paper-data="{&quot;index&quot;:null}" fill="none" stroke="#000000" stroke-width="1.5" stroke-linecap="round"/></g><text transform="translate(348.5,102.20003) scale(0.5,0.5)" font-size="40" xml:space="preserve" fill="#000000" fill-rule="nonzero" stroke="none" stroke-width="1" stroke-linecap="butt" stroke-linejoin="miter" stroke-miterlimit="10" stroke-dasharray="" stroke-dashoffset="0" font-family="Sans Serif" font-weight="normal" text-anchor="start" style="mix-blend-mode: normal"><tspan x="0" dy="0">4* Normal</tspan></text><path d="M439.46668,228.00001c0,-8.02654 6.50679,-14.53333 14.53333,-14.53333c8.02654,0 14.53333,6.50679 14.53333,14.53333c0,8.02654 -6.50679,14.53333 -14.53333,14.53333c-8.02654,0 -14.53333,-6.50679 -14.53333,-14.53333z" fill="#808080" stroke="#000000" stroke-width="2" stroke-linecap="butt"/><path d="M447.28126,227.83751h11.5" fill="none" stroke="#000000" stroke-width="2" stroke-linecap="round"/><path d="M455.46876,222.50001l5.25,5.25l-5.25,5.75" fill="none" stroke="#000000" stroke-width="2" stroke-linecap="round"/><path d="M35.00001,242.53334c-8.02654,0 -14.53333,-6.50679 -14.53333,-14.53333c0,-8.02654 6.50679,-14.53333 14.53333,-14.53333c8.02654,0 14.53333,6.50679 14.53333,14.53333c0,8.02654 -6.50679,14.53333 -14.53333,14.53333z" data-paper-data="{&quot;index&quot;:null}" fill="#808080" stroke="#000000" stroke-width="2" stroke-linecap="butt"/><path d="M30.21876,227.83751h11.5" data-paper-data="{&quot;index&quot;:null}" fill="none" stroke="#000000" stroke-width="2" stroke-linecap="round"/><path d="M33.53126,233.50001l-5.25,-5.75l5.25,-5.25" data-paper-data="{&quot;index&quot;:null}" fill="none" stroke="#000000" stroke-width="2" stroke-linecap="round"/></g></g></svg>