<svg version="1.1" xmlns="http://www.w3.org/2000/svg" xmlns:xlink="http://www.w3.org/1999/xlink" width="620.4" height="153"><g transform="translate(51,-104)"><g data-paper-data="{&quot;isPaintingLayer&quot;:true}" fill="#ff3396" fill-rule="nonzero" stroke="none" stroke-width="0" stroke-linecap="butt" stroke-linejoin="miter" stroke-miterlimit="10" stroke-dasharray="" stroke-dashoffset="0" style="mix-blend-mode: normal"><path d="M-3,216v-72h486v72z" data-paper-data="{&quot;origPos&quot;:null}"/><path d="M-9,146l24,-42l23,42z" data-paper-data="{&quot;origPos&quot;:null}"/><path d="M36.4,146l24,-42l23,42z" data-paper-data="{&quot;origPos&quot;:null}"/><path d="M80,146l24,-42l23,42z" data-paper-data="{&quot;origPos&quot;:null}"/><path d="M125.4,146l24,-42l23,42z" data-paper-data="{&quot;origPos&quot;:null}"/><path d="M168,146l24,-42l23,42z" data-paper-data="{&quot;origPos&quot;:null}"/><path d="M213.4,146l24,-42l23,42z" data-paper-data="{&quot;origPos&quot;:null}"/><path d="M257,146l24,-42l23,42z" data-paper-data="{&quot;origPos&quot;:null}"/><path d="M302.4,146l24,-42l23,42z" data-paper-data="{&quot;origPos&quot;:null}"/><g data-paper-data="{&quot;origPos&quot;:null}"><path d="M345.4,146l24,-42l23,42z" data-paper-data="{&quot;origPos&quot;:null}"/><path d="M388,146l24,-42l23,42z" data-paper-data="{&quot;origPos&quot;:null}"/><path d="M433.4,146l24,-42l23,42z" data-paper-data="{&quot;origPos&quot;:null}"/><path d="M477,146l24,-42l23,42z" data-paper-data="{&quot;origPos&quot;:null}"/><path d="M522.4,146l24,-42l23,42z" data-paper-data="{&quot;origPos&quot;:null}"/></g><path d="M-4,215l-23,42l-24,-42z" data-paper-data="{&quot;origPos&quot;:null,&quot;index&quot;:null}"/><path d="M41.4,215l-23,42l-24,-42z" data-paper-data="{&quot;origPos&quot;:null,&quot;index&quot;:null}"/><path d="M85,215l-23,42l-24,-42z" data-paper-data="{&quot;origPos&quot;:null,&quot;index&quot;:null}"/><path d="M130.4,215l-23,42l-24,-42z" data-paper-data="{&quot;origPos&quot;:null,&quot;index&quot;:null}"/><path d="M173,215l-23,42l-24,-42z" data-paper-data="{&quot;origPos&quot;:null,&quot;index&quot;:null}"/><path d="M218.4,215l-23,42l-24,-42z" data-paper-data="{&quot;origPos&quot;:null,&quot;index&quot;:null}"/><path d="M262,215l-23,42l-24,-42z" data-paper-data="{&quot;origPos&quot;:null,&quot;index&quot;:null}"/><path d="M307.4,215l-23,42l-24,-42z" data-paper-data="{&quot;origPos&quot;:null,&quot;index&quot;:null}"/><g data-paper-data="{&quot;origPos&quot;:null,&quot;index&quot;:null}"><path d="M350.4,215l-23,42l-24,-42z" data-paper-data="{&quot;origPos&quot;:null}"/><path d="M393,215l-23,42l-24,-42z" data-paper-data="{&quot;origPos&quot;:null}"/><path d="M438.4,215l-23,42l-24,-42z" data-paper-data="{&quot;origPos&quot;:null}"/><path d="M482,215l-23,42l-24,-42z" data-paper-data="{&quot;origPos&quot;:null}"/><path d="M527.4,215l-23,42l-24,-42z" data-paper-data="{&quot;origPos&quot;:null}"/></g></g></g></svg>