<svg version="1.1" xmlns="http://www.w3.org/2000/svg" xmlns:xlink="http://www.w3.org/1999/xlink" width="24.41834" height="24.41833"><g transform="translate(-227.79083,-167.736)"><g data-paper-data="{&quot;isPaintingLayer&quot;:true}" fill-rule="nonzero" stroke="none" stroke-width="0" stroke-linecap="butt" stroke-linejoin="miter" stroke-miterlimit="10" stroke-dasharray="" stroke-dashoffset="0" style="mix-blend-mode: normal"><path d="M227.79083,179.94517c0,-6.74295 5.46624,-12.20917 12.20917,-12.20917c6.74295,0 12.20917,5.46624 12.20917,12.20917c0,6.74295 -5.46624,12.20916 -12.20917,12.20916c-6.74295,0 -12.20917,-5.46624 -12.20917,-12.20916z" data-paper-data="{&quot;origPos&quot;:null}" fill="#ffffff"/><path d="M232.94795,179.96833c0,-3.89475 3.15732,-7.05205 7.05205,-7.05205c3.89475,0 7.05205,3.15732 7.05205,7.05205c0,3.89475 -3.15732,7.05205 -7.05205,7.05205c-3.89475,0 -7.05205,-3.15732 -7.05205,-7.05205z" data-paper-data="{&quot;origPos&quot;:null}" fill="#ff3396"/><path d="M237.71025,173.31952l2.35566,-2.61813l2.22478,2.61813z" data-paper-data="{&quot;origPos&quot;:null}" fill="#ff3396"/><path d="M242.29069,186.68049l-2.22478,2.61813l-2.35566,-2.61813z" data-paper-data="{&quot;origPos&quot;:null,&quot;index&quot;:null}" fill="#ff3396"/><path d="M246.68048,177.67811l2.61813,2.35566l-2.61813,2.22478z" data-paper-data="{&quot;origPos&quot;:null,&quot;origRot&quot;:0}" fill="#ff3396"/><path d="M233.31953,182.25855l-2.61813,-2.22478l2.61813,-2.35566z" data-paper-data="{&quot;origPos&quot;:null,&quot;index&quot;:null,&quot;origRot&quot;:0}" fill="#ff3396"/><path d="M233.93232,177.06316l-0.20495,-3.3242l3.24058,0.23434z" data-paper-data="{&quot;origPos&quot;:null,&quot;origRot&quot;:0}" fill="#ff3396"/><path d="M245.98095,182.82812l0.29169,3.23592l-3.32732,-0.14606z" data-paper-data="{&quot;origPos&quot;:null,&quot;index&quot;:null,&quot;origRot&quot;:0}" fill="#ff3396"/><path d="M242.81743,173.90064l3.3242,-0.20494l-0.23434,3.24058z" data-paper-data="{&quot;origPos&quot;:null,&quot;origRot&quot;:0}" fill="#ff3396"/><path d="M237.05248,185.94928l-3.23592,0.29169l0.14606,-3.32732z" data-paper-data="{&quot;origPos&quot;:null,&quot;index&quot;:null,&quot;origRot&quot;:0}" fill="#ff3396"/></g></g></svg>