<svg version="1.1" xmlns="http://www.w3.org/2000/svg" xmlns:xlink="http://www.w3.org/1999/xlink" width="117.13333" height="124.13333"><g transform="translate(-178.86667,-111.86667)"><g data-paper-data="{&quot;isPaintingLayer&quot;:true}" fill-rule="nonzero" stroke-linecap="butt" stroke-linejoin="miter" stroke-miterlimit="10" stroke-dasharray="" stroke-dashoffset="0" style="mix-blend-mode: normal"><path d="M278.96667,180c0,20.3609 -17.44597,36.86667 -38.96667,36.86667c-21.5207,0 -38.96667,-16.50577 -38.96667,-36.86667c0,-20.3609 17.44597,-36.86667 38.96667,-36.86667c21.5207,0 38.96667,16.50577 38.96667,36.86667z" data-paper-data="{&quot;origPos&quot;:null}" fill="#9a1f5b" stroke="none" stroke-width="0"/><path d="M198.37548,180.21456c0,-22.98859 18.63593,-41.62452 41.62452,-41.62452c22.98859,0 41.62452,18.63593 41.62452,41.62452c0,22.98859 -18.63593,41.62452 -41.62452,41.62452c-22.98859,0 -41.62452,-18.63593 -41.62452,-41.62452z" data-paper-data="{&quot;origPos&quot;:null}" fill="none" stroke="#ff3396" stroke-width="11"/><path d="M240.16952,195.72159l-12.99477,-7.15645l-0.66557,-15.78201l13.69851,-8.07562l12.81311,7.05322l0.47,16.12728z" data-paper-data="{&quot;origPos&quot;:null,&quot;origRot&quot;:0}" fill="#ff3396" stroke="#ff3396" stroke-width="0"/><path d="M228.4138,136.87356v-10.72797c0,0 6.37377,-2.14559 10.72797,-2.14559c4.01926,0 10.72797,2.14559 10.72797,2.14559v10.72797z" data-paper-data="{&quot;origPos&quot;:null}" fill="#ff3396" stroke="none" stroke-width="0"/><path d="M250.29885,223.12644v10.72797c0,0 -6.70871,2.14559 -10.72797,2.14559c-4.3542,0 -10.72797,-2.14559 -10.72797,-2.14559v-10.72797z" data-paper-data="{&quot;origPos&quot;:null,&quot;index&quot;:null}" fill="#ff3396" stroke="none" stroke-width="0"/><path d="M196.87356,191.15709h-10.72797c0,0 -2.14559,-6.37377 -2.14559,-10.72797c0,-4.01926 2.14559,-10.72797 2.14559,-10.72797h10.72797z" data-paper-data="{&quot;origPos&quot;:null,&quot;origRot&quot;:0}" fill="#ff3396" stroke="none" stroke-width="0"/><path d="M283.12644,169.27203h10.72797c0,0 2.14559,6.70871 2.14559,10.72797c0,4.3542 -2.14559,10.72797 -2.14559,10.72797h-10.72797z" data-paper-data="{&quot;origPos&quot;:null,&quot;index&quot;:null,&quot;origRot&quot;:0}" fill="#ff3396" stroke="none" stroke-width="0"/><path d="M217.24254,218.44709l-7.58582,7.58582c0,0 -6.0241,-2.98977 -9.10298,-6.06866c-2.84204,-2.84204 -6.06866,-9.10298 -6.06866,-9.10298l7.58582,-7.58582z" data-paper-data="{&quot;origPos&quot;:null,&quot;origRot&quot;:0}" fill="#ff3396" stroke="none" stroke-width="0"/><path d="M262.75746,141.98203l7.58582,-7.58582c0,0 6.26094,3.22661 9.10298,6.06866c3.07888,3.07888 6.06866,9.10298 6.06866,9.10298l-7.58582,7.58582z" data-paper-data="{&quot;origPos&quot;:null,&quot;index&quot;:null,&quot;origRot&quot;:0}" fill="#ff3396" stroke="none" stroke-width="0"/><path d="M278.23253,202.97202l7.58582,7.58582c0,0 -2.98977,6.0241 -6.06866,9.10298c-2.84204,2.84204 -9.10298,6.06866 -9.10298,6.06866l-7.58582,-7.58582z" data-paper-data="{&quot;origPos&quot;:null,&quot;origRot&quot;:0}" fill="#ff3396" stroke="none" stroke-width="0"/><path d="M201.76747,157.4571l-7.58582,-7.58582c0,0 3.22661,-6.26094 6.06866,-9.10298c3.07888,-3.07888 9.10298,-6.06866 9.10298,-6.06866l7.58582,7.58582z" data-paper-data="{&quot;origPos&quot;:null,&quot;index&quot;:null,&quot;origRot&quot;:0}" fill="#ff3396" stroke="none" stroke-width="0"/><ellipse cx="357.73333" cy="223.73333" transform="scale(0.5,0.5)" rx="0" ry="0" fill="#9a1f5b" stroke="none" stroke-width="0"/></g></g></svg>