<svg version="1.1" xmlns="http://www.w3.org/2000/svg" xmlns:xlink="http://www.w3.org/1999/xlink" width="28.2" height="29.9"><g transform="translate(-225.9,-165.05)"><g data-paper-data="{&quot;isPaintingLayer&quot;:true}" fill="none" fill-rule="nonzero" stroke="none" stroke-width="0" stroke-linecap="butt" stroke-linejoin="miter" stroke-miterlimit="10" stroke-dasharray="" stroke-dashoffset="0" font-family="none" font-weight="none" font-size="none" text-anchor="none" style="mix-blend-mode: normal"><path d="M233.36178,169.65l20.23822,-4.6l-0.37076,21.83633l-2.24631,-1.92564l0.01706,-13.33975l-15.11229,2.97409l-0.0005,17.00481l-2.74259,-0.43393z" data-paper-data="{&quot;origPos&quot;:null}" fill="#2ee7e7" stroke="#961b57"/><path d="M236.5,189.77927c0,2.85572 -2.37289,5.17073 -5.3,5.17073c-2.92711,0 -5.3,-2.31502 -5.3,-5.17073c0,-2.85572 2.37289,-5.17073 5.3,-5.17073c2.92711,0 5.3,2.31502 5.3,5.17073z" data-paper-data="{&quot;origPos&quot;:null}" fill="#2ee7e7" stroke="none"/><path d="M254.1,187.37927c0,2.85572 -2.37289,5.17073 -5.3,5.17073c-2.92711,0 -5.3,-2.31501 -5.3,-5.17073c0,-2.85572 2.37289,-5.17074 5.3,-5.17074c2.92711,0 5.3,2.31502 5.3,5.17074z" data-paper-data="{&quot;origPos&quot;:null}" fill="#2ee7e7" stroke="none"/></g></g></svg>