<svg version="1.1" xmlns="http://www.w3.org/2000/svg" xmlns:xlink="http://www.w3.org/1999/xlink" width="130" height="712.5"><g transform="translate(-175,207.5)"><g data-paper-data="{&quot;isPaintingLayer&quot;:true}" fill="#ff3396" fill-rule="nonzero" stroke="none" stroke-width="0" stroke-linecap="butt" stroke-linejoin="miter" stroke-miterlimit="10" stroke-dasharray="" stroke-dashoffset="0" style="mix-blend-mode: normal"><path d="M210.75,505v-246h58.5v246z" data-paper-data="{&quot;origPos&quot;:null}"/><path d="M175,256.5v-33h130v33z" data-paper-data="{&quot;origPos&quot;:null}"/><path d="M175,221v-15.5l18.39783,15.5z" data-paper-data="{&quot;origPos&quot;:null}"/><path d="M286.5,221.5l18.39782,-15.5v15.5z" data-paper-data="{&quot;origPos&quot;:null,&quot;index&quot;:null}"/><path d="M283.18261,259l-10.68261,9v-9z" data-paper-data="{&quot;origPos&quot;:null,&quot;index&quot;:null,&quot;origRot&quot;:0}"/><path d="M207.13261,259v9l-10.68261,-9z" data-paper-data="{&quot;origPos&quot;:null,&quot;index&quot;:null,&quot;origRot&quot;:0}"/><path d="M269.25,-207.5v301h-58.5v-301z" data-paper-data="{&quot;origPos&quot;:null}"/><path d="M305,96v33h-130v-33z" data-paper-data="{&quot;origPos&quot;:null}"/><path d="M193.39783,131.5l-18.39782,15.5v-15.5z" data-paper-data="{&quot;origPos&quot;:null}"/><path d="M304.89783,131v15.5l-18.39782,-15.5z" data-paper-data="{&quot;origPos&quot;:null,&quot;index&quot;:null}"/><path d="M272.5,93.5v-9l10.68261,9z" data-paper-data="{&quot;origPos&quot;:null,&quot;index&quot;:null,&quot;origRot&quot;:0}"/><path d="M196.45,93.5l10.68261,-9v9z" data-paper-data="{&quot;origPos&quot;:null,&quot;index&quot;:null,&quot;origRot&quot;:0}"/></g></g></svg>