<svg version="1.1" xmlns="http://www.w3.org/2000/svg" xmlns:xlink="http://www.w3.org/1999/xlink" width="506" height="583.92093"><g transform="translate(-188,71.92093)"><g data-paper-data="{&quot;isPaintingLayer&quot;:true}" fill-rule="nonzero" stroke="none" stroke-width="0" stroke-linecap="butt" stroke-linejoin="miter" stroke-miterlimit="10" stroke-dasharray="" stroke-dashoffset="0" style="mix-blend-mode: normal"><g data-paper-data="{&quot;origPos&quot;:null}" fill="#ff3396"><path d="M255,-71.92093v140h-26.5v-140z" data-paper-data="{&quot;origPos&quot;:null,&quot;index&quot;:null}"/><path d="M226,11.57908v56.5h-12z" data-paper-data="{&quot;origPos&quot;:null,&quot;index&quot;:null}"/><path d="M270.5,68.07908h-13.5v-57z" data-paper-data="{&quot;origPos&quot;:null,&quot;index&quot;:null}"/><path d="M203.5,70.07908v27.96599l-14.5,5.67426v-24.31825z" data-paper-data="{&quot;origPos&quot;:null,&quot;index&quot;:null}"/><path d="M206.32722,130l-16.19485,-24.24299l13.32425,-5.58337z" data-paper-data="{&quot;origRot&quot;:0,&quot;origPos&quot;:null,&quot;index&quot;:null}"/><path d="M294.32722,79.40108v24.31825l-14.5,-5.67426v-27.96599z" data-paper-data="{&quot;origPos&quot;:null,&quot;index&quot;:null}"/><path d="M279.87061,100.17364l13.32425,5.58337l-16.19486,24.24299z" data-paper-data="{&quot;origRot&quot;:0,&quot;origPos&quot;:null,&quot;index&quot;:null}"/><path d="M278,69.95163v22.33334l-13.59645,0.24381l-9.07021,-4.57715h-29.33334l-7.71765,4.71504l-13.28235,-0.04837v-22.66666z" data-paper-data="{&quot;origPos&quot;:null,&quot;index&quot;:null}"/></g><path d="M257,166v-22h437v22z" data-paper-data="{&quot;origPos&quot;:null}" fill="#ffffff"/><path d="M204,238v-22.66667l13.28235,-0.04837l7.71765,4.71503h29.33333l9.07022,-4.57715l13.59645,0.24382v22.33333z" data-paper-data="{&quot;origPos&quot;:null}" fill="#ff3396"/><path d="M213,240h12v56.5z" data-paper-data="{&quot;origPos&quot;:null}" fill="#ff3396"/><path d="M256,297v-57h13.5z" data-paper-data="{&quot;origPos&quot;:null,&quot;index&quot;:null}" fill="#ff3396"/><path d="M188,228.98915v-23.50658l14.5,5.48487v27.03256z" data-paper-data="{&quot;origPos&quot;:null}" fill="#ff3396"/><path d="M202.45661,208.90991l-13.32425,-5.39702l16.19485,-23.43382z" data-paper-data="{&quot;origRot&quot;:0,&quot;origPos&quot;:null}" fill="#ff3396"/><path d="M278.82722,238v-27.03256l14.5,-5.48487v23.50658z" data-paper-data="{&quot;origPos&quot;:null,&quot;index&quot;:null}" fill="#ff3396"/><path d="M276,180.07907l16.19486,23.43382l-13.32425,5.39702z" data-paper-data="{&quot;origRot&quot;:0,&quot;origPos&quot;:null,&quot;index&quot;:null}" fill="#ff3396"/><path d="M231.4,219v-34.3h2.175l2.75,1.75597l9.01711,0.02839l2.48289,-1.78436h2.575v34.3z" data-paper-data="{&quot;origPos&quot;:null}" fill="#ff3396"/><path d="M260.44366,154.55c0,10.90762 -8.71784,19.75 -19.47183,19.75c-10.75399,0 -19.47183,-8.84238 -19.47183,-19.75c0,-10.90762 8.71784,-19.75 19.47183,-19.75c10.75399,0 19.47183,8.84238 19.47183,19.75z" data-paper-data="{&quot;origPos&quot;:null}" fill="#ff3396"/><path d="M223.9,180.55l-2.25,-7.2l5.5952,0.1602l4.2548,2.4398h19.2l4.56718,-2.69611l6.13282,-0.10389l-2.5,7l-8.2,2.6h-3.875l-2.48457,0.98063l-7.01543,0.01937l-2.5,-1h-3.325z" data-paper-data="{&quot;origPos&quot;:null}" fill="#ff3396"/><path d="M250.4,90.15v34.3h-2.575l-2.48289,-1.78437l-9.01711,0.0284l-2.75,1.75597h-2.175v-34.3z" data-paper-data="{&quot;origPos&quot;:null,&quot;index&quot;:null}" fill="#ff3396"/><path d="M231.5,126.4h3.325l2.5,-1l7.01543,0.01937l2.48457,0.98063h3.875l8.2,2.6l2.5,7l-6.13282,-0.10389l-4.56718,-2.69611h-19.2l-4.2548,2.4398l-5.5952,0.1602l2.25,-7.2z" data-paper-data="{&quot;origPos&quot;:null,&quot;index&quot;:null}" fill="#ff3396"/><path d="M226.5,512v-272h26.5v272z" data-paper-data="{&quot;origPos&quot;:null}" fill="#ff3396"/></g></g></svg>