<svg version="1.1" xmlns="http://www.w3.org/2000/svg" xmlns:xlink="http://www.w3.org/1999/xlink" width="187.73658" height="187.45186"><g transform="translate(-146.13172,-86.27407)"><g data-paper-data="{&quot;isPaintingLayer&quot;:true}" fill-rule="nonzero" stroke-linecap="butt" stroke-linejoin="miter" stroke-miterlimit="10" stroke-dasharray="" stroke-dashoffset="0" style="mix-blend-mode: normal"><path d="M233.93171,140.83294c0,0 7.10377,-23.62217 18.77838,-30.76383c16.69173,-10.21078 38.36004,-9.56917 38.36004,-9.56917l4.48144,3.36107c0,0 -18.91891,5.70576 -34.17516,13.61164c-12.68556,6.57373 -15.12073,23.36029 -15.12073,23.36029z" data-paper-data="{&quot;origPos&quot;:null}" fill="#ff3396" stroke="none" stroke-width="0"/><path d="M244.55158,218.49194c0,0 -7.10377,23.62217 -18.77838,30.76383c-16.69173,10.21078 -38.36004,9.56917 -38.36004,9.56917l-4.48145,-3.36107c0,0 18.91891,-5.70576 34.17516,-13.61164c12.68556,-6.57373 15.12073,-23.3603 15.12073,-23.3603z" data-paper-data="{&quot;origPos&quot;:null,&quot;index&quot;:null}" fill="#ff3396" stroke="none" stroke-width="0"/><path d="M249.74476,141.67191c0,0 15.09693,-19.50777 28.55541,-21.99158c19.24221,-3.55123 39.24157,4.81254 39.24157,4.81254l2.9794,4.74377c0,0 -19.70712,-1.4527 -36.78322,0.4611c-14.19877,1.59132 -22.48763,16.39043 -22.48763,16.39043z" data-paper-data="{&quot;origPos&quot;:null,&quot;origRot&quot;:0}" fill="#ff3396" stroke="none" stroke-width="0"/><path d="M231.83046,217.97905c0,0 -15.09693,19.50777 -28.55541,21.99158c-19.24221,3.55123 -39.24157,-4.81254 -39.24157,-4.81254l-2.9794,-4.74377c0,0 19.70712,1.4527 36.78322,-0.4611c14.19877,-1.59132 22.48763,-16.39043 22.48763,-16.39043z" data-paper-data="{&quot;origPos&quot;:null,&quot;index&quot;:null,&quot;origRot&quot;:0}" fill="#ff3396" stroke="none" stroke-width="0"/><path d="M263.50422,147.67442c0,0 21.80214,-11.53851 35.08609,-8.24663c18.99269,4.70654 33.75774,20.57854 33.75774,20.57854l0.75609,5.55054c0,0 -17.35104,-9.45633 -33.69494,-14.7604c-13.58994,-4.41033 -27.24757,5.64889 -27.24757,5.64889z" data-paper-data="{&quot;origPos&quot;:null,&quot;origRot&quot;:0}" fill="#ff3396" stroke="none" stroke-width="0"/><path d="M217.04113,210.71446c0,0 -20.69545,13.4227 -34.21861,11.31935c-19.33469,-3.00724 -35.44646,-17.51028 -35.44646,-17.51028l-1.24434,-5.46185c0,0 18.11983,7.88368 34.86901,11.72053c13.92693,3.19033 26.64074,-8.0381 26.64074,-8.0381z" data-paper-data="{&quot;origPos&quot;:null,&quot;index&quot;:null,&quot;origRot&quot;:0}" fill="#ff3396" stroke="none" stroke-width="0"/><path d="M274.01559,159.51789c0,0 24.48901,-2.95948 35.71113,4.87405c16.04479,11.19994 24.14158,31.30888 24.14158,31.30888l-1.28315,5.45286c0,0 -12.81009,-15.04602 -26.16786,-25.85462c-11.10698,-8.98735 -27.46227,-4.49035 -27.46227,-4.49035z" data-paper-data="{&quot;origPos&quot;:null,&quot;origRot&quot;:0}" fill="#ff3396" stroke="none" stroke-width="0"/><path d="M207.12343,200.37303c0,0 -24.48901,2.95948 -35.71113,-4.87405c-16.04479,-11.19994 -24.14158,-31.30888 -24.14158,-31.30888l1.28315,-5.45286c0,0 12.81009,15.04602 26.16786,25.85462c11.10698,8.98735 27.46227,4.49035 27.46227,4.49035z" data-paper-data="{&quot;origPos&quot;:null,&quot;index&quot;:null,&quot;origRot&quot;:0}" fill="#ff3396" stroke="none" stroke-width="0"/><path d="M279.45378,172.80706c0,0 23.79233,6.51118 31.22353,18.00366c10.62475,16.43133 10.52488,38.1089 10.52488,38.1089l-3.24802,4.56405c0,0 -6.1768,-18.7704 -14.4615,-33.8243c-6.88872,-12.51731 -23.7309,-14.53218 -23.7309,-14.53218z" data-paper-data="{&quot;origPos&quot;:null,&quot;origRot&quot;:0}" fill="#ff3396" stroke="none" stroke-width="0"/><path d="M202.08445,185.36448c0,0 -23.79233,-6.51118 -31.22353,-18.00366c-10.62475,-16.43133 -10.52488,-38.1089 -10.52488,-38.1089l3.24802,-4.56405c0,0 6.1768,18.7704 14.4615,33.8243c6.88872,12.51731 23.7309,14.53218 23.7309,14.53218z" data-paper-data="{&quot;origPos&quot;:null,&quot;index&quot;:null,&quot;origRot&quot;:0}" fill="#ff3396" stroke="none" stroke-width="0"/><path d="M279.01027,188.63614c0,0 19.87898,14.60468 22.69837,27.99687c4.03103,19.14745 -3.8303,39.34959 -3.8303,39.34959l-4.66783,3.09702c0,0 0.95973,-19.73727 -1.38024,-36.76021c-1.94569,-14.15456 -16.94733,-22.07097 -16.94733,-22.07097z" data-paper-data="{&quot;origPos&quot;:null,&quot;origRot&quot;:0}" fill="#ff3396" stroke="none" stroke-width="0"/><path d="M203.00843,171.30741c0,0 -19.16595,-15.52859 -21.34874,-29.03914c-3.12087,-19.31668 5.6872,-39.12438 5.6872,-39.12438l4.80909,-2.87277c0,0 -1.89221,19.66979 -0.36002,36.78435c1.27402,14.23075 15.88443,22.84786 15.88443,22.84786z" data-paper-data="{&quot;origPos&quot;:null,&quot;index&quot;:null,&quot;origRot&quot;:0}" fill="#ff3396" stroke="none" stroke-width="0"/><path d="M272.58858,204.54249c0,0 11.049,22.05425 7.46146,35.26141c-5.12928,18.88291 -21.32688,33.29002 -21.32688,33.29002l-5.56603,0.63201c0,0 9.84125,-17.13565 15.50879,-33.3571c4.71256,-13.48811 -5.03932,-27.36686 -5.03932,-27.36686z" data-paper-data="{&quot;origPos&quot;:null,&quot;origRot&quot;:0}" fill="#ff3396" stroke="none" stroke-width="0"/><path d="M210.06557,156.29917c0,0 -12.07978,-21.50696 -9.12093,-34.86903c4.2304,-19.10439 19.72844,-34.2615 19.72844,-34.2615l5.52991,-0.89457c0,0 -9.01973,17.58196 -13.91367,34.05331c-4.06931,13.69591 6.3281,27.09788 6.3281,27.09788z" data-paper-data="{&quot;origPos&quot;:null,&quot;index&quot;:null,&quot;origRot&quot;:0}" fill="#ff3396" stroke="none" stroke-width="0"/><path d="M260.36839,216.18974c0,0 1.41259,24.62671 -7.11158,35.33364c-12.1874,15.3082 -32.76599,22.12356 -32.76599,22.12356l-5.36131,-1.62374c0,0 15.82229,-11.8379 27.45004,-24.48904c9.66847,-10.51942 6.20958,-27.12528 6.20958,-27.12528z" data-paper-data="{&quot;origPos&quot;:null,&quot;origRot&quot;:0}" fill="#ff3396" stroke="none" stroke-width="0"/><path d="M221.2623,147.49519c0,0 -3.57059,-24.4074 3.98002,-35.82178c10.79545,-16.31968 30.69574,-24.91652 30.69574,-24.91652l5.48323,1.14647c0,0 -14.72116,13.18212 -25.19255,26.80585c-8.70696,11.32812 -3.8026,27.56592 -3.8026,27.56592z" data-paper-data="{&quot;origPos&quot;:null,&quot;index&quot;:null,&quot;origRot&quot;:0}" fill="#ff3396" stroke="none" stroke-width="0"/><path d="M186.78761,179.82548c0,-29.82338 24.17662,-54 54,-54c29.82338,0 54,24.17662 54,54c0,29.82338 -24.17662,54 -54,54c-29.82338,0 -54,-24.17662 -54,-54z" data-paper-data="{&quot;origPos&quot;:null}" fill="#ff3396" stroke="#000000" stroke-width="4"/><path d="M216.5,180c0,-12.97869 10.52131,-23.5 23.5,-23.5c12.97869,0 23.5,10.52131 23.5,23.5c0,12.97869 -10.52131,23.5 -23.5,23.5c-12.97869,0 -23.5,-10.52131 -23.5,-23.5z" data-paper-data="{&quot;origPos&quot;:null}" fill="#000000" stroke="#000000" stroke-width="4"/><path d="M235.5,180c0,-2.48528 2.01472,-4.5 4.5,-4.5c2.48528,0 4.5,2.01472 4.5,4.5c0,2.48528 -2.01472,4.5 -4.5,4.5c-2.48528,0 -4.5,-2.01472 -4.5,-4.5z" data-paper-data="{&quot;origPos&quot;:null}" fill="#ff3396" stroke="none" stroke-width="0"/></g></g></svg>