<svg version="1.1" xmlns="http://www.w3.org/2000/svg" xmlns:xlink="http://www.w3.org/1999/xlink" width="31.3895" height="31.3895" viewBox="0,0,31.3895,31.3895"><g transform="translate(-224.30525,-164.30525)"><g data-paper-data="{&quot;isPaintingLayer&quot;:true}" fill-rule="nonzero" stroke-linejoin="miter" stroke-miterlimit="10" stroke-dasharray="" stroke-dashoffset="0" style="mix-blend-mode: normal"><path d="M255.68476,164.47862v31.04276l-15.86952,-15.5l-15.5,-15.54276z" data-paper-data="{&quot;index&quot;:null}" fill="#00e6ff" stroke="#00ffff" stroke-width="0" stroke-linecap="butt"/><path d="M240.98629,169.29015v9.97883l-5.44985,-6.02381l-5.30952,-4.28835z" data-paper-data="{&quot;index&quot;:null}" fill="#00ffae" stroke="#000000" stroke-width="0" stroke-linecap="butt"/><path d="M255.61346,169.28313v9.97883h-6.61388v-9.97883z" data-paper-data="{&quot;index&quot;:null}" fill="#00ffae" stroke="#000000" stroke-width="0" stroke-linecap="butt"/><path d="M254.62111,185.28864l-0.07143,8.26455l-3.86614,-4.67857l-3.96429,-3.58598z" data-paper-data="{&quot;index&quot;:null}" fill="#00ffae" stroke="#000000" stroke-width="0" stroke-linecap="butt"/><path d="M240.59917,169.69161c0,0 -0.14373,1.33318 -0.09166,2.21159c0.09134,1.54094 0.30594,6.3661 0.30594,6.3661l-4.44368,-4.85714l-4.33333,-3.8158z" data-paper-data="{&quot;index&quot;:null}" fill="#00ff6c" stroke="none" stroke-width="0" stroke-linecap="butt"/><path d="M253.61786,186.11494c0,0 0.14021,3.17311 0.18605,4.21055c0.02688,0.60821 0.06395,1.44716 0.06395,1.44716l-2.43076,-3.21429l-3.17857,-2.44343z" data-paper-data="{&quot;index&quot;:null}" fill="#00ff6c" stroke="none" stroke-width="0" stroke-linecap="butt"/><path d="M255.49396,170.32743v8.00627h-5.68215v-8.00627z" data-paper-data="{&quot;index&quot;:null}" fill="#00ff6c" stroke="none" stroke-width="0" stroke-linecap="butt"/><path d="M254.44475,194.44475l-28.8895,-28.8895" data-paper-data="{&quot;index&quot;:null}" fill="none" stroke="#0c0c0c" stroke-width="2.5" stroke-linecap="round"/></g></g></svg>