<svg version="1.1" xmlns="http://www.w3.org/2000/svg" xmlns:xlink="http://www.w3.org/1999/xlink" width="52.225" height="52.225" viewBox="0,0,52.225,52.225"><defs><radialGradient cx="240" cy="180" r="26.1125" gradientUnits="userSpaceOnUse" id="color-1"><stop offset="0" stop-color="#ff0094"/><stop offset="1" stop-color="#ff0094" stop-opacity="0"/></radialGradient></defs><g transform="translate(-213.8875,-153.8875)"><g data-paper-data="{&quot;isPaintingLayer&quot;:true}" fill-rule="nonzero" stroke-linecap="butt" stroke-miterlimit="10" stroke-dasharray="" stroke-dashoffset="0" style="mix-blend-mode: normal"><path d="M213.8875,180c0,-14.42154 11.69097,-26.1125 26.1125,-26.1125c14.42154,0 26.1125,11.69097 26.1125,26.1125c0,14.42154 -11.69096,26.1125 -26.1125,26.1125c-14.42154,0 -26.1125,-11.69097 -26.1125,-26.1125z" fill="url(#color-1)" stroke="none" stroke-width="NaN" stroke-linejoin="miter"/><path d="M239.99998,171.06524c1.12577,-2.55987 3.55548,-4.33907 6.37845,-4.33907c3.89183,0 7.05042,3.37153 7.05042,7.52573c0,8.18141 -8.28355,10.71833 -13.42887,19.02192c-5.44229,-8.35502 -13.42882,-10.57078 -13.42882,-19.02192c0,-4.1542 3.15858,-7.52573 7.05041,-7.52573c2.82299,0 5.25269,1.7792 6.37841,4.33907z" fill="#ff0094" stroke="#ff0094" stroke-width="4.22139" stroke-linejoin="round"/></g></g></svg>