<svg version="1.1" xmlns="http://www.w3.org/2000/svg" xmlns:xlink="http://www.w3.org/1999/xlink" width="32.125" height="45.02562" viewBox="0,0,32.125,45.02562"><g transform="translate(-223.9375,-157.32603)"><g data-paper-data="{&quot;isPaintingLayer&quot;:true}" fill-rule="nonzero" stroke="none" stroke-linecap="butt" stroke-linejoin="miter" stroke-miterlimit="10" stroke-dasharray="" stroke-dashoffset="0" style="mix-blend-mode: normal"><text transform="translate(225.33297,166.59861) scale(0.24509,0.24509)" font-size="40" xml:space="preserve" fill="#000000" fill-rule="nonzero" stroke="none" stroke-width="1" stroke-linecap="butt" stroke-linejoin="miter" stroke-miterlimit="10" stroke-dasharray="" stroke-dashoffset="0" font-family="Handwriting" font-weight="normal" text-anchor="start" style="mix-blend-mode: normal"><tspan x="0" dy="0">Shader</tspan></text><path d="M223.9375,193.51356c0,-4.88115 3.95695,-8.8381 8.8381,-8.8381c4.88115,0 8.8381,3.95695 8.8381,8.8381c0,4.88115 -3.95695,8.8381 -8.8381,8.8381c-4.88115,0 -8.8381,-3.95695 -8.8381,-8.8381z" fill="#7f3333" stroke-width="0"/><path d="M238.3863,193.51356c0,-4.88115 3.95696,-8.8381 8.8381,-8.8381c4.88115,0 8.8381,3.95696 8.8381,8.8381c0,4.88115 -3.95696,8.8381 -8.8381,8.8381c-4.88115,0 -8.8381,-3.95696 -8.8381,-8.8381z" fill="#337f7f" stroke-width="0"/><path d="M231.25829,181.48645c0,-4.88115 3.95696,-8.8381 8.8381,-8.8381c4.88115,0 8.8381,3.95696 8.8381,8.8381c0,4.88115 -3.95696,8.8381 -8.8381,8.8381c-4.88115,0 -8.8381,-3.95696 -8.8381,-8.8381z" fill="#337f53" stroke-width="0"/></g></g></svg>