<svg version="1.1" xmlns="http://www.w3.org/2000/svg" xmlns:xlink="http://www.w3.org/1999/xlink" width="390.39325" height="346.02503" viewBox="0,0,390.39325,346.02503"><g transform="translate(-83.67634,-4.43042)"><g data-paper-data="{&quot;isPaintingLayer&quot;:true}" fill-rule="nonzero" stroke-linecap="butt" stroke-linejoin="miter" stroke-miterlimit="10" stroke-dasharray="" stroke-dashoffset="0" style="mix-blend-mode: normal"><path d="M88.67634,345.45545v-309h331v309z" fill="#00ffae" stroke="#ffe200" stroke-width="10"/><text transform="translate(137.96518,92.33478) scale(1.51842,1.51842)" font-size="40" xml:space="preserve" fill="#000000" fill-rule="nonzero" stroke="none" stroke-width="1" stroke-linecap="butt" stroke-linejoin="miter" stroke-miterlimit="10" stroke-dasharray="" stroke-dashoffset="0" font-family="Handwriting" font-weight="normal" text-anchor="start" style="mix-blend-mode: normal"><tspan x="0" dy="0">Pause</tspan></text><text transform="translate(104.5,236.65761) scale(0.5,0.5)" font-size="40" xml:space="preserve" fill="#000000" fill-rule="nonzero" stroke="none" stroke-width="1" stroke-linecap="butt" stroke-linejoin="miter" stroke-miterlimit="10" stroke-dasharray="" stroke-dashoffset="0" font-family="Handwriting" font-weight="normal" text-anchor="start" style="mix-blend-mode: normal"><tspan x="0" dy="0">Quality</tspan></text><path d="M428.21523,29c0,-11.75526 9.52952,-21.28477 21.28477,-21.28477c11.75526,0 21.28477,9.52952 21.28477,21.28477c0,11.75526 -9.52952,21.28477 -21.28477,21.28477c-11.75526,0 -21.28477,-9.52952 -21.28477,-21.28477z" fill="#fde800" stroke="none" stroke-width="NaN"/><path d="M458.61269,31.95393l-16.27862,-16.27863l2.9715,-2.97149l16.27862,16.27862z" fill="#ff0094" stroke="#ff0095" stroke-width="2.5"/><path d="M442.61818,42.60436l16.27862,-16.27862l2.9715,2.9715l-16.27862,16.27862z" fill="#ff0094" stroke="#ff0095" stroke-width="2.5"/><path d="M425.93043,29c0,-13.01712 10.55246,-23.56958 23.56958,-23.56958c13.01712,0 23.56958,10.55246 23.56958,23.56958c0,13.01712 -10.55246,23.56958 -23.56958,23.56958c-13.01712,0 -23.56958,-10.55246 -23.56958,-23.56958z" fill="none" stroke="#fde800" stroke-width="2"/><text transform="translate(114.28479,136.76521) scale(0.5,0.5)" font-size="40" xml:space="preserve" fill="#000000" fill-rule="nonzero" stroke="none" stroke-width="1" stroke-linecap="butt" stroke-linejoin="miter" stroke-miterlimit="10" stroke-dasharray="" stroke-dashoffset="0" font-family="Handwriting" font-weight="normal" text-anchor="start" style="mix-blend-mode: normal"><tspan x="0" dy="0">Volume</tspan></text><text transform="translate(114.2848,173.76522) scale(0.5,0.5)" font-size="40" xml:space="preserve" fill="#000000" fill-rule="nonzero" stroke="none" stroke-width="1" stroke-linecap="butt" stroke-linejoin="miter" stroke-miterlimit="10" stroke-dasharray="" stroke-dashoffset="0" font-family="Handwriting" font-weight="normal" text-anchor="start" style="mix-blend-mode: normal"><tspan x="0" dy="0">SFX</tspan></text><path d="M115.10001,150.03334v-8.83333h118v8.83333z" fill="#ffe800" stroke="#000000" stroke-width="2.5"/><path d="M115.10001,192.03334v-8.83333h118v8.83333z" fill="#ffe800" stroke="#000000" stroke-width="2.5"/></g></g></svg>