<svg version="1.1" xmlns="http://www.w3.org/2000/svg" xmlns:xlink="http://www.w3.org/1999/xlink" width="33.20834" height="31.33318" viewBox="0,0,33.20834,31.33318"><defs><radialGradient cx="240.00001" cy="180.00001" r="16.60417" gradientUnits="userSpaceOnUse" id="color-1"><stop offset="0" stop-color="#fff63b"/><stop offset="1" stop-color="#fff63b" stop-opacity="0"/></radialGradient></defs><g transform="translate(-223.39583,-164.33341)"><g data-paper-data="{&quot;isPaintingLayer&quot;:true}" stroke-linecap="butt" stroke-linejoin="miter" stroke-miterlimit="10" stroke-dasharray="" stroke-dashoffset="0" style="mix-blend-mode: normal"><path d="M256.60418,180.00001c0,8.65242 -7.43394,15.66659 -16.60417,15.66659c-9.17023,0 -16.60417,-7.01417 -16.60417,-15.66659c0,-8.65242 7.43394,-15.66659 16.60417,-15.66659c9.17023,0 16.60417,7.01417 16.60417,15.66659z" fill="url(#color-1)" fill-rule="nonzero" stroke="#000000" stroke-width="0"/><g fill-rule="evenodd" stroke="none" stroke-width="1"><path d="M248.25288,189.73653c-4.42454,0.09124 -7.59469,-2.007 -9.03153,-4.78945c-1.75613,-3.42103 -0.88945,-10.10344 3.48947,-10.6508c0.0228,-0.3877 0.20525,-2.007 0.45612,-3.10173l1.43684,-0.61578c0.79824,0.77544 1.09473,2.59999 -0.25087,4.17367c0.52454,0.20525 1.20876,1.16315 0.95787,2.25787c-0.47892,2.05263 -1.11753,3.85435 -0.15963,6.02101c0.77544,1.73331 2.9877,2.62279 4.3105,4.10522c1.61927,1.80176 0.52454,2.53157 -1.20876,2.59999z" fill="#272525"/><path d="M244.01079,170.96647c0.45615,0.27369 0.98069,0.91228 0.93507,1.43684c-0.11401,0.13683 -1.23157,2.46315 -0.84383,2.66841c0.98069,0.50174 -0.47895,4.3105 0.06842,6.75083c0.75262,3.3754 3.6719,4.12805 4.83504,6.04381c0.63861,1.04914 -0.52454,1.3228 -0.86665,1.3228c-5.31399,-0.09122 -7.43503,-2.9649 -8.30171,-4.74383c-1.14032,-2.32629 -0.43333,-5.19995 0.54737,-7.45785c0.20528,-0.45612 0.72982,-1.29998 1.09473,-1.64209c0.59298,-0.50174 0.72982,-0.54737 1.50526,-0.61578c0.11404,-0.0228 1.02631,-3.76313 1.02631,-3.76313z" fill="#fff63b"/><path d="M243.09852,175.52785c0.04562,-0.15963 0.27369,-0.09122 0.22808,0.04562c-1.39122,4.62979 -0.79824,8.98591 2.37191,11.26658c0.6614,0.47895 1.98418,1.04914 2.28068,1.16317c0.31932,0.11401 0.06842,0.29647 -0.22805,0.20525c-0.27369,-0.09124 -0.50177,-0.18246 -0.91228,-0.36491c-3.42105,-1.55088 -6.29471,-4.08242 -3.74034,-12.31572z" fill="#272525"/></g><g fill-rule="evenodd" stroke="none" stroke-width="1"><path d="M243.50905,174.45594c0.45612,0.34209 0.77544,1.50526 0.13683,2.46313c-1.18594,1.77895 -2.41754,3.26139 -2.3035,5.61051c0.09124,1.87014 1.84737,3.44382 2.57719,5.26837c0.86665,2.23508 -0.43336,2.55437 -2.09824,2.007c-4.17367,-1.3684 -6.40872,-4.37892 -6.77363,-7.45783c-0.43333,-3.78596 2.75962,-9.76135 7.09292,-8.84907c0.25087,-0.54737 1.82455,-3.60348 2.3035,-3.53506c1.3228,0.18246 2.007,3.28419 -0.93507,4.49296z" fill="#272525"/><path d="M244.55816,170.78402c0.50174,0.22808 0.86665,0.72982 0.36491,1.66492c-0.31929,0.59298 -2.05263,1.91577 -1.75613,2.23508c0.75264,0.79824 -1.98418,3.89997 -2.34909,6.3631c-0.47895,3.42103 1.98418,5.08594 2.39471,7.25258c0.22808,1.18597 -0.95789,1.07193 -1.27718,0.95789c-4.94908,-1.82455 -5.9298,-5.22277 -6.11225,-7.18416c-0.22805,-2.57716 1.43684,-5.01749 3.17017,-6.84205c0.34209,-0.36491 1.14032,-1.00352 1.61927,-1.18597c0.72982,-0.2965 0.70702,-0.75262 1.45964,-0.54737c0.11404,0.04562 2.48595,-2.71402 2.48595,-2.71402z" fill="#fff63b"/><path d="M242.0722,174.79803c0.11404,-0.13683 0.2965,0 0.20528,0.11404c-2.9649,3.89997 -3.94559,8.16487 -1.80176,11.38062c0.45612,0.68423 1.48244,1.64209 1.73331,1.82455c0.2509,0.20528 -0.13683,0.50177 -0.36491,0.31932c-0.22805,-0.18246 -0.57016,-0.43333 -0.86665,-0.72982c-2.66841,-2.62279 -4.24209,-6.02101 1.09473,-12.9087z" fill="#272525"/></g><g fill-rule="evenodd" stroke="none" stroke-width="1"><path d="M241.88975,173.86296c0.15966,0.54737 -0.15963,1.59648 -1.11753,2.12104c-1.91579,1.07193 -3.44385,1.96138 -4.49296,4.10522c-0.82106,1.71054 -0.34211,3.71754 -0.59298,5.6561c-0.31929,2.37191 -2.21226,1.80176 -3.42103,0.57019c-3.03331,-3.07894 -2.94207,-6.47716 -1.73334,-9.35082c1.48246,-3.53506 7.22978,-7.38941 10.60521,-4.62979c0.47895,-0.36491 3.35261,-2.37191 3.76313,-2.09824c1.0719,0.75264 0.06842,3.80876 -3.01052,3.6263z" fill="#272525"/><path d="M244.58095,171.03492c0.11404,0.50174 -0.04559,1.29998 -0.50174,1.64209c-0.41053,0.29647 -1.80173,0.86665 -2.59999,0.93507c0.27369,1.04911 -3.69469,2.80524 -5.22275,4.81225c-2.09824,2.78244 -0.75264,5.38243 -1.45964,7.48065c-0.38773,1.14035 -1.36843,0.52457 -1.5965,0.25087c-3.46664,-3.83155 -2.66841,-7.2982 -1.87014,-9.09992c1.04911,-2.37191 3.74031,-3.78596 6.13502,-4.60699c0.47895,-0.15966 1.50526,-0.36491 2.007,-0.31929c0.79826,0.06842 0.9351,0.15963 1.48246,0.66138c0.11404,0.09124 3.53506,-2.18946 3.62627,-1.7561z" fill="#fff63b"/><path d="M240.40732,173.45243c0.15963,-0.06842 0.25087,0.13686 0.13683,0.18246c-4.51575,2.09824 -7.50345,5.42805 -7.16136,9.23678c0.06842,0.79824 0.50177,2.09824 0.63861,2.39474c0.13683,0.29647 -0.20528,0.25087 -0.2965,-0.02282c-0.11404,-0.27367 -0.20525,-0.47895 -0.31929,-0.88945c-1.09473,-3.48947 -1.07193,-7.22978 7.0017,-10.9017z" fill="#272525"/></g></g></g></svg>