<svg version="1.1" xmlns="http://www.w3.org/2000/svg" xmlns:xlink="http://www.w3.org/1999/xlink" width="360.5" height="115" viewBox="0,0,360.5,115"><defs><radialGradient cx="119.33352" cy="193.4537" r="1.98297" gradientUnits="userSpaceOnUse" id="color-1"><stop offset="0" stop-color="#e8ff5c"/><stop offset="1" stop-color="#e8ff5c" stop-opacity="0"/></radialGradient><radialGradient cx="107.79621" cy="193.88635" r="1.98298" gradientUnits="userSpaceOnUse" id="color-2"><stop offset="0" stop-color="#e8ff5c"/><stop offset="1" stop-color="#e8ff5c" stop-opacity="0"/></radialGradient></defs><g transform="translate(-59.5,-122.5)"><g data-paper-data="{&quot;isPaintingLayer&quot;:true}" fill-rule="nonzero" stroke-linecap="butt" stroke-linejoin="miter" stroke-miterlimit="10" stroke-dasharray="" stroke-dashoffset="0" style="mix-blend-mode: normal"><path d="M62.5,235v-110h355v110z" fill="#66c7ff" stroke="#00a2ff" stroke-width="5"/><path d="M59.5,235.3v-112h112v112z" fill="#00a2ff" stroke="none" stroke-width="0"/><path d="" fill="#2d3d7c" stroke="none" stroke-width="0"/><path d="" fill="#2d3d7c" stroke="none" stroke-width="0"/><g><path d="M93.47593,196.90273c0,-11.28738 9.15023,-20.43761 20.43761,-20.43761c11.28739,0 20.43762,9.15023 20.43762,20.43761c0,11.28739 -9.15023,20.43762 -20.43762,20.43762c-11.28738,0 -20.43761,-9.15023 -20.43761,-20.43762z" fill="#000000" stroke="#000000" stroke-width="NaN"/><path d="M119.33352,195.43667c-1.09517,0 -1.98298,-0.8878 -1.98298,-1.98297c0,-1.09517 0.88781,-1.98298 1.98298,-1.98298c1.09517,0 1.98297,0.88781 1.98297,1.98298c0,1.09517 -0.8878,1.98297 -1.98297,1.98297z" data-paper-data="{&quot;index&quot;:null}" fill="url(#color-1)" stroke="none" stroke-width="0"/><path d="M105.81324,193.88635c0,-1.09517 0.8878,-1.98297 1.98297,-1.98297c1.09517,0 1.98298,0.8878 1.98298,1.98297c0,1.09517 -0.88781,1.98297 -1.98298,1.98297c-1.09517,0 -1.98297,-0.8878 -1.98297,-1.98297z" data-paper-data="{&quot;index&quot;:null}" fill="url(#color-2)" stroke="none" stroke-width="0"/></g><text transform="translate(70.25,142.10009) scale(0.44367,0.44367)" font-size="40" xml:space="preserve" fill="#000000" fill-rule="nonzero" stroke="none" stroke-width="1" stroke-linecap="butt" stroke-linejoin="miter" stroke-miterlimit="10" stroke-dasharray="" stroke-dashoffset="0" font-family="Handwriting" font-weight="normal" text-anchor="start" style="mix-blend-mode: normal"><tspan x="0" dy="0">Unknown ???</tspan></text></g></g></svg>