<svg version="1.1" xmlns="http://www.w3.org/2000/svg" xmlns:xlink="http://www.w3.org/1999/xlink" width="31.94265" height="31.94265" viewBox="0,0,31.94265,31.94265"><g transform="translate(-224.02872,-164.02873)"><g data-paper-data="{&quot;isPaintingLayer&quot;:true}" fill-rule="nonzero" stroke="none" stroke-linecap="butt" stroke-linejoin="miter" stroke-miterlimit="10" stroke-dasharray="" stroke-dashoffset="0" style="mix-blend-mode: normal"><path d="M224.02873,195.97138v-31.94265h31.94265v31.94265z" fill="#7f7f7f" stroke-width="0"/><path d="M235.85631,173.36914c0,2.14777 -1.69137,3.88889 -3.77778,3.88889c-2.08641,0 -3.77777,-1.74112 -3.77777,-3.88889c0,-2.14777 1.69136,-3.88889 3.77777,-3.88889c2.08641,0 3.77778,1.74111 3.77778,3.88889z" fill="#cbcbcb" stroke-width="0"/><path d="M252.7452,176.59136c0,2.14777 -1.69137,3.88889 -3.77778,3.88889c-2.08641,0 -3.77777,-1.74112 -3.77777,-3.88889c0,-2.14777 1.69136,-3.88889 3.77777,-3.88889c2.08641,0 3.77778,1.74112 3.77778,3.88889z" fill="#cbcbcb" stroke-width="0"/><path d="M242.18965,187.81358c0,2.14777 -1.69137,3.88889 -3.77778,3.88889c-2.08641,0 -3.77777,-1.74112 -3.77777,-3.88889c0,-2.14777 1.69136,-3.88889 3.77777,-3.88889c2.08641,0 3.77778,1.74112 3.77778,3.88889z" fill="#cbcbcb" stroke-width="0"/><text transform="translate(236.50224,180.79097) scale(0.06856,0.06856)" font-size="40" xml:space="preserve" fill="#000000" fill-rule="nonzero" stroke="none" stroke-width="1" stroke-linecap="butt" stroke-linejoin="miter" stroke-miterlimit="10" stroke-dasharray="" stroke-dashoffset="0" font-family="Sans Serif" font-weight="normal" text-anchor="start" style="mix-blend-mode: normal"><tspan x="0" dy="0">silver</tspan></text></g></g></svg>