<svg version="1.1" xmlns="http://www.w3.org/2000/svg" xmlns:xlink="http://www.w3.org/1999/xlink" width="20.25866" height="39.44976" viewBox="0,0,20.25866,39.44976"><g transform="translate(-229.87067,-160.90012)"><g data-paper-data="{&quot;isPaintingLayer&quot;:true}" fill-rule="nonzero" stroke-linejoin="miter" stroke-miterlimit="10" stroke-dasharray="" stroke-dashoffset="0" style="mix-blend-mode: normal"><path d="M240,162.15012c4.90392,0 8.87933,3.97541 8.87933,8.87933c0,4.90392 -3.97541,8.87933 -8.87933,8.87933c-4.90392,0 -8.87933,-3.97541 -8.87933,-8.87933c0,-4.90392 3.97541,-8.87933 8.87933,-8.87933z" fill="#ffea00" stroke="#ff874c" stroke-width="2.5" stroke-linecap="butt"/><path d="M240,177.65853c-3.66114,0 -6.62909,-2.96794 -6.62909,-6.62909c0,-3.66114 2.96794,-6.62909 6.62909,-6.62909c3.66114,0 6.62909,2.96794 6.62909,6.62909c0,3.66114 -2.96794,6.62909 -6.62909,6.62909z" fill="#ff0000" stroke="#ff0000" stroke-width="2.5" stroke-linecap="butt"/><path d="M240.03649,179.23978v18.6101" fill="none" stroke="#ff874c" stroke-width="5" stroke-linecap="round"/><path d="M239.79017,190.05006h-6.20336" fill="none" stroke="#ff874c" stroke-width="5" stroke-linecap="round"/><path d="M239.8814,195.15871h-6.20336" fill="none" stroke="#ff874c" stroke-width="5" stroke-linecap="round"/></g></g></svg>