<svg version="1.1" xmlns="http://www.w3.org/2000/svg" xmlns:xlink="http://www.w3.org/1999/xlink" width="52.225" height="52.225" viewBox="0,0,52.225,52.225"><defs><radialGradient cx="240" cy="180" r="26.1125" gradientUnits="userSpaceOnUse" id="color-1"><stop offset="0" stop-color="#52f6ff"/><stop offset="1" stop-color="#52f6ff" stop-opacity="0"/></radialGradient></defs><g transform="translate(-213.8875,-153.8875)"><g data-paper-data="{&quot;isPaintingLayer&quot;:true}" fill-rule="nonzero" stroke-linejoin="miter" stroke-miterlimit="10" stroke-dasharray="" stroke-dashoffset="0" style="mix-blend-mode: normal"><path d="M213.8875,180c0,-14.42154 11.69097,-26.1125 26.1125,-26.1125c14.42154,0 26.1125,11.69097 26.1125,26.1125c0,14.42154 -11.69097,26.1125 -26.1125,26.1125c-14.42154,0 -26.1125,-11.69097 -26.1125,-26.1125z" fill="url(#color-1)" stroke="none" stroke-width="NaN" stroke-linecap="butt"/><path d="M225.46667,180c0,-8.02654 6.50679,-14.53333 14.53333,-14.53333c8.02654,0 14.53333,6.50679 14.53333,14.53333c0,8.02654 -6.50679,14.53333 -14.53333,14.53333c-8.02654,0 -14.53333,-6.50679 -14.53333,-14.53333z" fill="none" stroke="#000000" stroke-width="2.5" stroke-linecap="butt"/><path d="M250.85023,180c0,5.99241 -4.85781,10.85023 -10.85023,10.85023c-5.99241,0 -10.85023,-4.85781 -10.85023,-10.85023c0,-5.99241 4.85781,-10.85023 10.85023,-10.85023c5.99241,0 10.85023,4.85781 10.85023,10.85023z" fill="#52f6ff" stroke="#52f6ff" stroke-width="2.5" stroke-linecap="butt"/><path d="M240,175.00058v9.99884" fill="none" stroke="#000000" stroke-width="2" stroke-linecap="round"/><path d="" fill="none" stroke="#000000" stroke-width="2" stroke-linecap="round"/><path d="" fill="none" stroke="#000000" stroke-width="2" stroke-linecap="round"/><path d="M240.05952,174.94106l-5.35652,5.35652" fill="none" stroke="#000000" stroke-width="2" stroke-linecap="round"/><path d="M245.29758,180.29817l-5.35652,-5.35652" data-paper-data="{&quot;index&quot;:null}" fill="none" stroke="#000000" stroke-width="2" stroke-linecap="round"/></g></g></svg>