<svg version="1.1" xmlns="http://www.w3.org/2000/svg" xmlns:xlink="http://www.w3.org/1999/xlink" width="90.725" height="90.725" viewBox="0,0,90.725,90.725"><defs><radialGradient cx="240" cy="180" r="45.3625" gradientUnits="userSpaceOnUse" id="color-1"><stop offset="0" stop-color="#33ff44"/><stop offset="1" stop-color="#33ff44" stop-opacity="0"/></radialGradient></defs><g transform="translate(-194.6375,-134.6375)"><g data-paper-data="{&quot;isPaintingLayer&quot;:true}" fill-rule="nonzero" stroke-linecap="butt" stroke-linejoin="miter" stroke-miterlimit="10" stroke-dasharray="" stroke-dashoffset="0" style="mix-blend-mode: normal"><path d="M194.6375,180c0,-25.05301 20.30949,-45.3625 45.3625,-45.3625c25.05301,0 45.3625,20.30949 45.3625,45.3625c0,25.05301 -20.30949,45.3625 -45.3625,45.3625c-25.05301,0 -45.3625,-20.30949 -45.3625,-45.3625z" fill="url(#color-1)" stroke="none" stroke-width="NaN"/><path d="" fill="#ff0000" stroke="#ff0000" stroke-width="2.5"/><path d="" fill="#ff0000" stroke="#ff0000" stroke-width="2.5"/><path d="M254.93145,180c0,21.47533 -7.86991,38.88452 -17.57793,38.88452c-9.70803,0 -17.57793,-17.4092 -17.57793,-38.88452c0,-21.47533 7.86991,-38.88452 17.57793,-38.88452c9.70803,0 17.57793,17.4092 17.57793,38.88452z" fill="none" stroke="#000000" stroke-width="10"/><path d="M254.93145,180c0,21.47533 -7.86991,38.88452 -17.57793,38.88452c-9.70803,0 -17.57793,-17.4092 -17.57793,-38.88452c0,-21.47533 7.86991,-38.88452 17.57793,-38.88452c9.70803,0 17.57793,17.4092 17.57793,38.88452z" fill="none" stroke="#33ff44" stroke-width="5"/><path d="M250.32779,185.132v-9.89662h9.89662v9.89662z" fill="#000000" stroke="none" stroke-width="0"/><path d="" fill="#ff0000" stroke="#ff0000" stroke-width="2.5"/><path d="" fill="#ff0000" stroke="#ff0000" stroke-width="2.5"/></g></g></svg>