<svg version="1.1" xmlns="http://www.w3.org/2000/svg" xmlns:xlink="http://www.w3.org/1999/xlink" width="90.725" height="90.725" viewBox="0,0,90.725,90.725"><defs><radialGradient cx="240" cy="180" r="45.3625" gradientUnits="userSpaceOnUse" id="color-1"><stop offset="0" stop-color="#ff4c4c"/><stop offset="1" stop-color="#ff4c4c" stop-opacity="0"/></radialGradient></defs><g transform="translate(-194.6375,-134.6375)"><g data-paper-data="{&quot;isPaintingLayer&quot;:true}" fill-rule="nonzero" stroke-linejoin="miter" stroke-miterlimit="10" stroke-dasharray="" stroke-dashoffset="0" style="mix-blend-mode: normal"><path d="M240,225.3625c-25.053,0 -45.3625,-20.3095 -45.3625,-45.3625c0,-25.053 20.3095,-45.3625 45.3625,-45.3625c25.053,0 45.3625,20.3095 45.3625,45.3625c0,25.053 -20.3095,45.3625 -45.3625,45.3625z" fill="url(#color-1)" stroke="none" stroke-width="NaN" stroke-linecap="butt"/><path d="" fill="#ff0000" stroke="#ff0000" stroke-width="2.5" stroke-linecap="butt"/><path d="" fill="#ff0000" stroke="#ff0000" stroke-width="2.5" stroke-linecap="butt"/><path d="" fill="#ff0000" stroke="#ff0000" stroke-width="2.5" stroke-linecap="butt"/><path d="" fill="#ff0000" stroke="#ff0000" stroke-width="2.5" stroke-linecap="butt"/><path d="M207.97917,202.29844l35.78761,-19.57135l26.84071,22.92644" data-paper-data="{&quot;index&quot;:null}" fill="none" stroke="#000000" stroke-width="7.5" stroke-linecap="round"/><path d="M208.27416,202.29844l35.49263,-19.57135l26.54573,22.92644" data-paper-data="{&quot;index&quot;:null}" fill="none" stroke="#ff4c4c" stroke-width="3.75" stroke-linecap="round"/><path d="M208.446,188.01619l35.78761,-19.57135l26.84071,22.92644" data-paper-data="{&quot;index&quot;:null}" fill="none" stroke="#000000" stroke-width="7.5" stroke-linecap="round"/><path d="M208.74098,188.01619l35.49263,-19.57135l26.54573,22.92644" data-paper-data="{&quot;index&quot;:null}" fill="none" stroke="#ff4c4c" stroke-width="3.75" stroke-linecap="round"/><path d="M209.39251,174.69863l35.78761,-19.57135l26.84071,22.92644" data-paper-data="{&quot;index&quot;:null}" fill="none" stroke="#000000" stroke-width="7.5" stroke-linecap="round"/><path d="M209.68749,174.69863l35.49263,-19.57135l26.54573,22.92644" data-paper-data="{&quot;index&quot;:null}" fill="none" stroke="#ff4c4c" stroke-width="3.75" stroke-linecap="round"/><path d="" fill="#ff0000" stroke="#ff0000" stroke-width="2.5" stroke-linecap="butt"/><path d="" fill="#ff0000" stroke="#ff0000" stroke-width="2.5" stroke-linecap="butt"/></g></g></svg>