<svg version="1.1" xmlns="http://www.w3.org/2000/svg" xmlns:xlink="http://www.w3.org/1999/xlink" width="64.20285" height="31.3895" viewBox="0,0,64.20285,31.3895"><g transform="translate(-207.89857,-164.30525)"><g data-paper-data="{&quot;isPaintingLayer&quot;:true}" fill-rule="nonzero" stroke-linejoin="miter" stroke-miterlimit="10" stroke-dasharray="" stroke-dashoffset="0" style="mix-blend-mode: normal"><path d="M253.85045,170.7816c0,0 0.17467,3.17311 0.23178,4.21055c0.03349,0.60821 0.07967,1.44716 0.07967,1.44716l-3.0282,-3.21429l-3.95981,-2.44343z" data-paper-data="{&quot;index&quot;:null}" fill="#00ff6c" stroke="none" stroke-width="0" stroke-linecap="butt"/><path d="M272.04418,179.49738v10.00652h-13.57394v-10.00652z" data-paper-data="{&quot;index&quot;:null}" fill="#00ffae" stroke="#000000" stroke-width="0" stroke-linecap="butt"/><path d="M264.37156,180.65599c2.13025,0 7.42734,0 7.42734,0v8.02848h-11.6617v-8.02848c0,0 2.62589,0 4.23436,0z" data-paper-data="{&quot;index&quot;:null}" fill="#00ff6c" stroke="none" stroke-width="0" stroke-linecap="butt"/><path d="M272.10143,164.47862v31.04276l-32.47957,-15.5l-31.72328,-15.54276z" data-paper-data="{&quot;index&quot;:null}" fill="#00e6ff" stroke="#00ffff" stroke-width="0" stroke-linecap="butt"/><path d="M242.01861,169.29015v9.97883l-11.15401,-6.02381l-10.8668,-4.28835z" data-paper-data="{&quot;index&quot;:null}" fill="#00ffae" stroke="#000000" stroke-width="0" stroke-linecap="butt"/><path d="M271.95551,169.28313v9.97883h-13.53639v-9.97883z" data-paper-data="{&quot;index&quot;:null}" fill="#00ffae" stroke="#000000" stroke-width="0" stroke-linecap="butt"/><path d="M264.94138,185.28864l-0.14619,8.26455l-7.91269,-4.67857l-8.11357,-3.58598z" data-paper-data="{&quot;index&quot;:null}" fill="#00ffae" stroke="#000000" stroke-width="0" stroke-linecap="butt"/><path d="M241.22632,169.69161c0,0 -0.29417,1.33318 -0.1876,2.21159c0.18694,1.54094 0.62615,6.3661 0.62615,6.3661l-9.09472,-4.85714l-8.86887,-3.8158z" data-paper-data="{&quot;index&quot;:null}" fill="#00ff6c" stroke="none" stroke-width="0" stroke-linecap="butt"/><path d="M271.71092,170.32743v8.00627h-11.62945v-8.00627z" data-paper-data="{&quot;index&quot;:null}" fill="#00ff6c" stroke="none" stroke-width="0" stroke-linecap="butt"/><path d="M210.43647,165.55525l59.12709,28.8895" data-paper-data="{&quot;index&quot;:null}" fill="none" stroke="#0c0c0c" stroke-width="2.5" stroke-linecap="round"/></g></g></svg>