<svg version="1.1" xmlns="http://www.w3.org/2000/svg" xmlns:xlink="http://www.w3.org/1999/xlink" width="50.5" height="50.5" viewBox="0,0,50.5,50.5"><g transform="translate(-214.75,-154.75)"><g data-paper-data="{&quot;isPaintingLayer&quot;:true}" fill-rule="nonzero" stroke-linejoin="miter" stroke-miterlimit="10" stroke-dasharray="" stroke-dashoffset="0" style="mix-blend-mode: normal"><g><path d="M215.75,180c0,-13.39291 10.85709,-24.25 24.25,-24.25c13.39291,0 24.25,10.85709 24.25,24.25c0,13.39291 -10.85709,24.25 -24.25,24.25c-13.39291,0 -24.25,-10.85709 -24.25,-24.25z" fill="#9c59ff" stroke="#000000" stroke-width="2" stroke-linecap="butt"/><path d="M226.375,174.75c0,-2.55432 2.07068,-4.625 4.625,-4.625c2.55432,0 4.625,2.07068 4.625,4.625c0,2.55432 -2.07068,4.625 -4.625,4.625c-2.55432,0 -4.625,-2.07068 -4.625,-4.625z" fill="#000000" stroke="#000000" stroke-width="2" stroke-linecap="butt"/><path d="M244.375,174.25c0,-2.55432 2.07068,-4.625 4.625,-4.625c2.55432,0 4.625,2.07068 4.625,4.625c0,2.55432 -2.07068,4.625 -4.625,4.625c-2.55432,0 -4.625,-2.07068 -4.625,-4.625z" fill="#000000" stroke="#000000" stroke-width="2" stroke-linecap="butt"/><path d="M238.81019,171.43927l-8.04892,-10.50708" data-paper-data="{&quot;index&quot;:null}" fill="none" stroke="#000000" stroke-width="1.5" stroke-linecap="round"/><path d="M230.53377,199.71873c-0.34464,0.31349 -0.72871,0.49181 -1.12057,0.55957c-0.17984,0.04111 -0.36708,0.06282 -0.55939,0.06282c-1.38071,0 -2.5,-1.11929 -2.5,-2.5c0,-0.29691 0.05176,-0.58173 0.14675,-0.84593c3.28618,-9.85854 8.5188,-16.6664 20.61415,-12.24728c2.79424,1.0209 8.37235,12.18319 5.92661,14.62893c-1.66667,1.66667 -2.70833,1.66667 -4.375,0c-1.76775,-1.76774 -0.0448,-10.59111 -5.64677,-10.60714c-2.93344,-0.0084 -5.96334,-0.80527 -7.88175,1.81831c-1.81898,2.48761 -2.4927,7.21018 -4.60402,9.13072z" data-paper-data="{&quot;index&quot;:null}" fill="#000000" stroke="none" stroke-width="0.5" stroke-linecap="butt"/><path d="M229.02327,201.14623c-0.10896,-0.0051 -0.21143,-0.02431 -0.30832,-0.05562c-1.16689,-0.21115 -2.05193,-1.2322 -2.05193,-2.45996c0,-0.5013 0.14754,-0.96813 0.40157,-1.35944c0.09554,-1.71982 5.14511,-4.74137 6.43188,-5.48811c6.17244,-3.58201 16.68839,-2.90094 19.6169,5.01522c0.93543,2.52859 -1.21574,4.02031 -3.63361,3.21435c-0.71093,-0.23698 -1.67947,-2.4005 -2.27615,-3.09162c-1.58682,-1.83797 -4.59486,-2.36739 -6.89597,-2.36184c-5.0251,0.01212 -8.03612,6.7391 -11.28438,6.58701z" data-paper-data="{&quot;index&quot;:null}" fill="#000000" stroke="none" stroke-width="0.5" stroke-linecap="butt"/><path d="M242.61841,171.43927l8.04892,-10.50708" data-paper-data="{&quot;index&quot;:null}" fill="none" stroke="#000000" stroke-width="1.5" stroke-linecap="round"/></g></g></g></svg>