<svg version="1.1" xmlns="http://www.w3.org/2000/svg" xmlns:xlink="http://www.w3.org/1999/xlink" width="360.5" height="115" viewBox="0,0,360.5,115"><defs><radialGradient cx="121.5" cy="191.425" r="2.75" gradientUnits="userSpaceOnUse" id="color-1"><stop offset="0" stop-color="#e8ff5c"/><stop offset="1" stop-color="#e8ff5c" stop-opacity="0"/></radialGradient><radialGradient cx="105.5" cy="192.425" r="2.75" gradientUnits="userSpaceOnUse" id="color-2"><stop offset="0" stop-color="#e8ff5c"/><stop offset="1" stop-color="#e8ff5c" stop-opacity="0"/></radialGradient><linearGradient x1="105.35455" y1="187.84167" x2="105.35455" y2="193.75848" gradientUnits="userSpaceOnUse" id="color-3"><stop offset="0" stop-color="#7cff5c"/><stop offset="1" stop-color="#7cff5c" stop-opacity="0"/></linearGradient><linearGradient x1="121.18789" y1="187.50833" x2="121.18789" y2="193.42514" gradientUnits="userSpaceOnUse" id="color-4"><stop offset="0" stop-color="#7cff5c"/><stop offset="1" stop-color="#7cff5c" stop-opacity="0"/></linearGradient></defs><g transform="translate(-59.5,-122.5)"><g data-paper-data="{&quot;isPaintingLayer&quot;:true}" fill-rule="nonzero" stroke-linejoin="miter" stroke-miterlimit="10" stroke-dasharray="" stroke-dashoffset="0" style="mix-blend-mode: normal"><path d="M62.5,235v-110h355v110z" fill="#66c7ff" stroke="#00a2ff" stroke-width="5" stroke-linecap="butt"/><path d="M59.5,235.3v-112h112v112z" fill="#00a2ff" stroke="none" stroke-width="0" stroke-linecap="butt"/><g><path d="M102.30725,179.58475l-10.30061,10.33657l-5.0609,-15.51143z" fill="#000000" stroke="#000000" stroke-width="2.5" stroke-linecap="round"/><path d="M141.6406,174.90989l-5.0609,15.51143l-10.30061,-10.33657z" data-paper-data="{&quot;index&quot;:null}" fill="#000000" stroke="#000000" stroke-width="2.5" stroke-linecap="round"/><path d="M86.83334,200c0,-15.00374 12.16293,-27.16667 27.16667,-27.16667c15.00374,0 27.16667,12.16293 27.16667,27.16667c0,15.00374 -12.16293,27.16667 -27.16667,27.16667c-15.00374,0 -27.16667,-12.16293 -27.16667,-27.16667z" fill="#000000" stroke="#000000" stroke-width="2.5" stroke-linecap="butt"/><path d="" fill="#2d3d7c" stroke="none" stroke-width="0" stroke-linecap="butt"/><path d="M104.1971,212.54098l3.73518,1.09512l-2.98865,3.16366z" fill="none" stroke="#1a1a1a" stroke-width="2.5" stroke-linecap="round"/><path d="" fill="#2d3d7c" stroke="none" stroke-width="0" stroke-linecap="butt"/><path d="M121.5,194.175c-1.51879,0 -2.75,-1.23121 -2.75,-2.75c0,-1.51879 1.23121,-2.75 2.75,-2.75c1.51879,0 2.75,1.23121 2.75,2.75c0,1.51879 -1.23121,2.75 -2.75,2.75z" data-paper-data="{&quot;index&quot;:null}" fill="url(#color-1)" stroke="none" stroke-width="0" stroke-linecap="butt"/><path d="M102.75,192.425c0,-1.51879 1.23121,-2.75 2.75,-2.75c1.51879,0 2.75,1.23121 2.75,2.75c0,1.51879 -1.23121,2.75 -2.75,2.75c-1.51879,0 -2.75,-1.23121 -2.75,-2.75z" data-paper-data="{&quot;index&quot;:null}" fill="url(#color-2)" stroke="none" stroke-width="0" stroke-linecap="butt"/><path d="M105.08335,187.84167c2.85347,0 5.16666,2.3132 5.16666,5.16667c0,0.25477 -0.01844,0.50524 -0.05406,0.75014c-1.23223,-0.69743 -2.29739,-1.62905 -3.71355,-2.10139c-1.89237,-0.63118 -4.01272,-0.74915 -6.02329,-0.95584c0.84749,-1.69538 2.59991,-2.85958 4.62423,-2.85958z" fill="url(#color-3)" stroke="none" stroke-width="0" stroke-linecap="butt"/><path d="M126.08335,190.36791c-2.01057,0.20668 -4.13092,0.32466 -6.02329,0.95584c-1.41616,0.47234 -2.48132,1.40396 -3.71355,2.10139c-0.03562,-0.2449 -0.05406,-0.49536 -0.05406,-0.75014c0,-2.85347 2.3132,-5.16667 5.16666,-5.16667c2.02433,0 3.77674,1.1642 4.62423,2.85958z" data-paper-data="{&quot;index&quot;:null}" fill="url(#color-4)" stroke="none" stroke-width="0" stroke-linecap="butt"/><path d="M125.0913,210.20267l2.68758,-2.81562l1.43864,4.10745z" fill="none" stroke="#1a1a1a" stroke-width="2.5" stroke-linecap="round"/><path d="M123.68577,215.79976l-2.98865,-3.16366l3.73518,-1.09512z" data-paper-data="{&quot;index&quot;:null}" fill="none" stroke="#1a1a1a" stroke-width="2.5" stroke-linecap="round"/><path d="M100.05918,208.21099l2.81563,2.68758l-4.10744,1.43864z" fill="none" stroke="#1a1a1a" stroke-width="2.5" stroke-linecap="round"/><path d="M115.62716,213.81106l3.82911,-0.69911l-1.24938,4.16891z" fill="none" stroke="#1a1a1a" stroke-width="2.5" stroke-linecap="round"/><path d="M110.49937,213.73219l3.82379,0.72763l-2.66767,3.43864z" fill="none" stroke="#1a1a1a" stroke-width="2.5" stroke-linecap="round"/><path d="M95.9681,205.99c0.02405,-1.68227 1.91645,-2.72055 3.48061,-2.41658c0.29523,0.05737 0.57877,0.16256 0.83585,0.32027c3.61895,2.22008 4.65954,6.36378 10.05248,6.42965c4.6456,0.05674 9.0244,0.08422 12.66487,-2.47453c2.19647,-1.54382 5.89762,-6.74599 8.42866,-3.6088c2.8262,3.50302 -5.07841,8.19395 -7.7796,9.01401c-1.75148,0.53174 -3.39648,1.64057 -5.53325,2.06932c-8.15529,1.6364 -18.15969,-1.53774 -21.83242,-8.17032z" fill="#7cff5c" stroke="none" stroke-width="0.5" stroke-linecap="butt"/><path d="M110.7,182.72857v-6.6h6.6v6.6z" fill="#1d1d1d" stroke="none" stroke-width="0" stroke-linecap="butt"/><path d="M111.61429,179.42571v-2h2v2z" fill="#484848" stroke="none" stroke-width="0" stroke-linecap="butt"/><path d="M114.47144,179.42572v-2h2v2z" fill="#484848" stroke="none" stroke-width="0" stroke-linecap="butt"/><path d="M112.18572,178.85429v-0.85714h0.85714v0.85714z" fill="#000000" stroke="none" stroke-width="0" stroke-linecap="butt"/><path d="M115.04287,178.85429v-0.85714h0.85714v0.85714z" fill="#000000" stroke="none" stroke-width="0" stroke-linecap="butt"/><path d="M111.75715,181.85429v-1.28571h4.57143v1.28571z" fill="#484848" stroke="none" stroke-width="0" stroke-linecap="butt"/></g><text transform="translate(60.25,142.10009) scale(0.44367,0.44367)" font-size="40" xml:space="preserve" fill="#000000" fill-rule="nonzero" stroke="none" stroke-width="1" stroke-linecap="butt" stroke-linejoin="miter" stroke-miterlimit="10" stroke-dasharray="" stroke-dashoffset="0" font-family="Handwriting" font-weight="normal" text-anchor="start" style="mix-blend-mode: normal"><tspan x="0" dy="0">Blockie Master</tspan></text></g></g></svg>