<svg version="1.1" xmlns="http://www.w3.org/2000/svg" xmlns:xlink="http://www.w3.org/1999/xlink" width="50.5" height="50.5" viewBox="0,0,50.5,50.5"><g transform="translate(-214.75,-154.75)"><g data-paper-data="{&quot;isPaintingLayer&quot;:true}" fill-rule="nonzero" stroke-linejoin="miter" stroke-miterlimit="10" stroke-dasharray="" stroke-dashoffset="0" style="mix-blend-mode: normal"><g><path d="M215.75,180c0,-13.39291 10.85709,-24.25 24.25,-24.25c13.39291,0 24.25,10.85709 24.25,24.25c0,13.39291 -10.85709,24.25 -24.25,24.25c-13.39291,0 -24.25,-10.85709 -24.25,-24.25z" fill="#ff5959" stroke="#000000" stroke-width="2" stroke-linecap="butt"/><path d="M226.375,174.75c0,-2.55432 2.07068,-4.625 4.625,-4.625c2.55432,0 4.625,2.07068 4.625,4.625c0,2.55432 -2.07068,4.625 -4.625,4.625c-2.55432,0 -4.625,-2.07068 -4.625,-4.625z" fill="#000000" stroke="#000000" stroke-width="2" stroke-linecap="butt"/><path d="M244.375,174.25c0,-2.55432 2.07068,-4.625 4.625,-4.625c2.55432,0 4.625,2.07068 4.625,4.625c0,2.55432 -2.07068,4.625 -4.625,4.625c-2.55432,0 -4.625,-2.07068 -4.625,-4.625z" fill="#000000" stroke="#000000" stroke-width="2" stroke-linecap="butt"/><path d="M237.92859,169.75715l-11.14287,-7.14285" data-paper-data="{&quot;index&quot;:null}" fill="none" stroke="#000000" stroke-width="1.5" stroke-linecap="round"/><path d="M241.92857,169.47144l11.14287,-7.14285" data-paper-data="{&quot;index&quot;:null}" fill="none" stroke="#000000" stroke-width="1.5" stroke-linecap="round"/><path d="M230.53377,199.71873c-0.34464,0.31349 -0.72871,0.49181 -1.12057,0.55957c-0.17984,0.04111 -0.36708,0.06282 -0.55939,0.06282c-1.38071,0 -2.5,-1.11929 -2.5,-2.5c0,-0.29691 0.05176,-0.58173 0.14675,-0.84593c3.28618,-9.85854 8.5188,-16.6664 20.61415,-12.24728c2.79424,1.0209 8.37235,12.18319 5.92661,14.62893c-1.66667,1.66667 -2.70833,1.66667 -4.375,0c-1.76775,-1.76774 -0.0448,-10.59111 -5.64677,-10.60714c-2.93344,-0.0084 -5.96334,-0.80527 -7.88175,1.81831c-1.81898,2.48761 -2.4927,7.21018 -4.60402,9.13072z" data-paper-data="{&quot;index&quot;:null}" fill="#000000" stroke="none" stroke-width="0.5" stroke-linecap="butt"/></g></g></g></svg>