<svg version="1.1" xmlns="http://www.w3.org/2000/svg" xmlns:xlink="http://www.w3.org/1999/xlink" width="81.64689" height="85.95408" viewBox="0,0,81.64689,85.95408"><g transform="translate(-199.17656,-137.02297)"><g data-paper-data="{&quot;isPaintingLayer&quot;:true}" fill-rule="nonzero" stroke="#000000" stroke-width="1.5" stroke-linecap="butt" stroke-linejoin="miter" stroke-miterlimit="10" stroke-dasharray="" stroke-dashoffset="0" style="mix-blend-mode: normal"><path d="M217.99991,179.99994c0,-17.14113 13.89564,-31.03677 31.03677,-31.03677c17.14113,0 31.03677,13.89564 31.03677,31.03677c0,17.14113 -13.89564,31.03677 -31.03677,31.03677c-17.14113,0 -31.03677,-13.89564 -31.03677,-31.03677z" fill="#ff009a"/><path d="M235.14156,179.99994c0,-7.67406 6.22107,-13.89513 13.89513,-13.89513c7.67406,0 13.89513,6.22107 13.89513,13.89513c0,7.67406 -6.22107,13.89513 -13.89513,13.89513c-7.67406,0 -13.89513,-6.22107 -13.89513,-13.89513z" fill="#fee700"/><path d="M199.92656,222.22705v-84.45408h34.14002v84.45408z" data-paper-data="{&quot;index&quot;:null}" fill="#ff009a"/></g></g></svg>