<svg version="1.1" xmlns="http://www.w3.org/2000/svg" xmlns:xlink="http://www.w3.org/1999/xlink" width="52.225" height="52.225" viewBox="0,0,52.225,52.225"><defs><radialGradient cx="240" cy="180" r="26.1125" gradientUnits="userSpaceOnUse" id="color-1"><stop offset="0" stop-color="#ff66c2"/><stop offset="1" stop-color="#ff66c2" stop-opacity="0"/></radialGradient></defs><g transform="translate(-213.8875,-153.8875)"><g data-paper-data="{&quot;isPaintingLayer&quot;:true}" fill-rule="nonzero" stroke-linejoin="miter" stroke-miterlimit="10" stroke-dasharray="" stroke-dashoffset="0" style="mix-blend-mode: normal"><path d="M213.8875,180c0,-14.42154 11.69097,-26.1125 26.1125,-26.1125c14.42154,0 26.1125,11.69097 26.1125,26.1125c0,14.42154 -11.69096,26.1125 -26.1125,26.1125c-14.42154,0 -26.1125,-11.69097 -26.1125,-26.1125z" fill="url(#color-1)" stroke="none" stroke-width="NaN" stroke-linecap="butt"/><path d="M254.91534,166.93733v16.968c0,0.33667 -0.13466,0.67333 -0.404,0.808c-2.15466,1.88533 -4.84801,2.828 -7.60867,2.828c-2.76066,0 -5.454,-1.01 -7.60867,-2.828c-1.75066,-1.48134 -3.90533,-2.35667 -6.19467,-2.35667c-2.08733,0 -4.10734,0.67334 -5.79067,2.02v11.24467c0,0.67334 -0.53866,1.212 -1.212,1.212c-0.67334,0 -1.212,-0.53867 -1.212,-1.212v-28.684c0,-0.53867 0.33667,-0.87533 0.67333,-1.07733c2.15466,-1.75066 4.71333,-2.69334 7.40667,-2.69334c2.76066,0 5.52134,1.01 7.676,2.828c1.75066,1.48134 3.90533,2.28933 6.19467,2.28933c2.28933,0 4.444,-0.808 6.19467,-2.28933c0.404,-0.26934 0.87534,-0.33666 1.27934,-0.13466c0.404,0.202 0.606,0.606 0.606,1.07733z" fill="#ff66bf" stroke="#983d72" stroke-width="2.5" stroke-linecap="butt"/><g fill="none" stroke="#000000" stroke-width="1.5" stroke-linecap="round"><path d="M243.27724,170.83843l-3.07234,9.90945"/><path d="M236.39869,176.79497l3.81516,4.07303" data-paper-data="{&quot;index&quot;:null}"/></g></g></g></svg>