<svg version="1.1" xmlns="http://www.w3.org/2000/svg" xmlns:xlink="http://www.w3.org/1999/xlink" width="360.5" height="115" viewBox="0,0,360.5,115"><defs><radialGradient cx="121.5" cy="173.425" r="2.75" gradientUnits="userSpaceOnUse" id="color-1"><stop offset="0" stop-color="#e8ff5c"/><stop offset="1" stop-color="#e8ff5c" stop-opacity="0"/></radialGradient><radialGradient cx="105.5" cy="174.425" r="2.75" gradientUnits="userSpaceOnUse" id="color-2"><stop offset="0" stop-color="#e8ff5c"/><stop offset="1" stop-color="#e8ff5c" stop-opacity="0"/></radialGradient><linearGradient x1="105.35455" y1="169.84167" x2="105.35455" y2="175.75848" gradientUnits="userSpaceOnUse" id="color-3"><stop offset="0" stop-color="#7cff5c"/><stop offset="1" stop-color="#7cff5c" stop-opacity="0"/></linearGradient><linearGradient x1="121.18789" y1="169.50833" x2="121.18789" y2="175.42514" gradientUnits="userSpaceOnUse" id="color-4"><stop offset="0" stop-color="#7cff5c"/><stop offset="1" stop-color="#7cff5c" stop-opacity="0"/></linearGradient></defs><g transform="translate(-59.5,-122.5)"><g data-paper-data="{&quot;isPaintingLayer&quot;:true}" fill-rule="nonzero" stroke-linecap="butt" stroke-linejoin="miter" stroke-miterlimit="10" stroke-dasharray="" stroke-dashoffset="0" style="mix-blend-mode: normal"><path d="M62.5,235v-110h355v110z" fill="#66c7ff" stroke="#00a2ff" stroke-width="5"/><path d="M59.5,235.3v-112h112v112z" fill="#00a2ff" stroke="none" stroke-width="0"/><path d="M86.83334,182c0,-15.00374 12.16293,-27.16667 27.16667,-27.16667c15.00374,0 27.16667,12.16293 27.16667,27.16667c0,15.00374 -12.16293,27.16667 -27.16667,27.16667c-15.00374,0 -27.16667,-12.16293 -27.16667,-27.16667z" fill="#000000" stroke="#000000" stroke-width="2.5"/><path d="" fill="#2d3d7c" stroke="none" stroke-width="0"/><path d="" fill="#2d3d7c" stroke="none" stroke-width="0"/><path d="M121.5,176.175c-1.51879,0 -2.75,-1.23121 -2.75,-2.75c0,-1.51879 1.23121,-2.75 2.75,-2.75c1.51879,0 2.75,1.23121 2.75,2.75c0,1.51879 -1.23121,2.75 -2.75,2.75z" data-paper-data="{&quot;index&quot;:null}" fill="url(#color-1)" stroke="none" stroke-width="0"/><path d="M102.75,174.425c0,-1.51879 1.23121,-2.75 2.75,-2.75c1.51879,0 2.75,1.23121 2.75,2.75c0,1.51879 -1.23121,2.75 -2.75,2.75c-1.51879,0 -2.75,-1.23121 -2.75,-2.75z" data-paper-data="{&quot;index&quot;:null}" fill="url(#color-2)" stroke="none" stroke-width="0"/><path d="M105.08335,169.84167c2.85347,0 5.16666,2.3132 5.16666,5.16667c0,0.25477 -0.01844,0.50524 -0.05406,0.75014c-1.23223,-0.69743 -2.29739,-1.62905 -3.71355,-2.10139c-1.89237,-0.63118 -4.01272,-0.74915 -6.02329,-0.95584c0.84749,-1.69538 2.59991,-2.85958 4.62423,-2.85958z" fill="url(#color-3)" stroke="none" stroke-width="0"/><path d="M126.08335,172.36791c-2.01057,0.20668 -4.13092,0.32466 -6.02329,0.95584c-1.41616,0.47234 -2.48132,1.40396 -3.71355,2.10139c-0.03562,-0.2449 -0.05406,-0.49536 -0.05406,-0.75014c0,-2.85347 2.3132,-5.16667 5.16666,-5.16667c2.02433,0 3.77674,1.1642 4.62423,2.85958z" data-paper-data="{&quot;index&quot;:null}" fill="url(#color-4)" stroke="none" stroke-width="0"/><text transform="translate(71.25,142.10009) scale(0.44367,0.44367)" font-size="40" xml:space="preserve" fill="#000000" fill-rule="nonzero" stroke="none" stroke-width="1" stroke-linecap="butt" stroke-linejoin="miter" stroke-miterlimit="10" stroke-dasharray="" stroke-dashoffset="0" font-family="Handwriting" font-weight="normal" text-anchor="start" style="mix-blend-mode: normal"><tspan x="0" dy="0">Unknown ???</tspan></text></g></g></svg>