<svg version="1.1" xmlns="http://www.w3.org/2000/svg" xmlns:xlink="http://www.w3.org/1999/xlink" width="63.45496" height="43.74197" viewBox="0,0,63.45496,43.74197"><g transform="translate(-208.42513,-152.30122)"><g data-paper-data="{&quot;isPaintingLayer&quot;:true}" fill="#5b76df" fill-rule="nonzero" stroke="#272525" stroke-width="5" stroke-linecap="butt" stroke-linejoin="miter" stroke-miterlimit="10" stroke-dasharray="" stroke-dashoffset="0" style="mix-blend-mode: normal"><path d="M254.0476,176.68381c-9.36238,0.57135 -18.4314,2.37921 -27.71746,3.50348c-0.24191,-1.61202 -0.51506,-6.72756 -0.94162,-7.69968c-0.27802,-0.63182 -2.68745,0.66449 -4.07294,0.39778c-1.28993,-1.86937 1.89084,-2.36975 1.68655,-3.72099c-3.71476,-2.97291 -11.55005,0.04004 -11.88445,-10.7116c7.49146,7.36275 32.01734,1.85958 41.6696,15.62455c0.49399,0.70949 0.97524,1.78326 1.26033,2.60647z"/><path d="M268.88233,179.94941c-4.63802,1.05717 -31.78436,5.09039 -51.44884,12.93113c-1.40394,-2.72238 -2.56223,-5.58609 -3.31378,-8.57381c12.83358,-2.57317 48.23191,-6.37455 52.56047,-6.17056c1.66135,0.07779 1.85147,0.28827 2.20215,1.81323z"/></g></g></svg>