<svg version="1.1" xmlns="http://www.w3.org/2000/svg" xmlns:xlink="http://www.w3.org/1999/xlink" width="31.3895" height="31.3895" viewBox="0,0,31.3895,31.3895"><g transform="translate(-224.30525,-164.30525)"><g data-paper-data="{&quot;isPaintingLayer&quot;:true}" fill-rule="nonzero" stroke-linejoin="miter" stroke-miterlimit="10" stroke-dasharray="" stroke-dashoffset="0" style="mix-blend-mode: normal"><path d="M224.31524,195.52138v-31.04276l15.86952,15.5l15.5,15.54276z" data-paper-data="{&quot;index&quot;:null}" fill="#00e6ff" stroke="#00ffff" stroke-width="0" stroke-linecap="butt"/><path d="M239.01371,190.70985v-9.97883l5.44985,6.02381l5.30952,4.28835z" data-paper-data="{&quot;index&quot;:null}" fill="#00ffae" stroke="#000000" stroke-width="0" stroke-linecap="butt"/><path d="M224.38654,190.71687v-9.97883h6.61388v9.97883z" data-paper-data="{&quot;index&quot;:null}" fill="#00ffae" stroke="#000000" stroke-width="0" stroke-linecap="butt"/><path d="M225.37889,174.71136l0.07143,-8.26455l3.86614,4.67857l3.96429,3.58598z" data-paper-data="{&quot;index&quot;:null}" fill="#00ffae" stroke="#000000" stroke-width="0" stroke-linecap="butt"/><path d="M239.40083,190.30839c0,0 0.14373,-1.33318 0.09166,-2.21159c-0.09134,-1.54094 -0.30594,-6.3661 -0.30594,-6.3661l4.44368,4.85714l4.33333,3.8158z" data-paper-data="{&quot;index&quot;:null}" fill="#00ff6c" stroke="none" stroke-width="0" stroke-linecap="butt"/><path d="M226.38214,173.88506c0,0 -0.14021,-3.17311 -0.18605,-4.21055c-0.02688,-0.60821 -0.06395,-1.44716 -0.06395,-1.44716l2.43076,3.21429l3.17857,2.44343z" data-paper-data="{&quot;index&quot;:null}" fill="#00ff6c" stroke="none" stroke-width="0" stroke-linecap="butt"/><path d="M224.50604,189.67257v-8.00627h5.68215v8.00627z" data-paper-data="{&quot;index&quot;:null}" fill="#00ff6c" stroke="none" stroke-width="0" stroke-linecap="butt"/><path d="M225.55525,165.55525l28.8895,28.8895" data-paper-data="{&quot;index&quot;:null}" fill="none" stroke="#0c0c0c" stroke-width="2.5" stroke-linecap="round"/></g></g></svg>