<svg version="1.1" xmlns="http://www.w3.org/2000/svg" xmlns:xlink="http://www.w3.org/1999/xlink" width="484" height="369.45" viewBox="0,0,484,369.45"><g transform="translate(2,4)"><g data-paper-data="{&quot;isPaintingLayer&quot;:true}" fill-rule="nonzero" stroke-linejoin="miter" stroke-miterlimit="10" stroke-dasharray="" stroke-dashoffset="0" style="mix-blend-mode: normal"><path d="M-2,364v-368h484v368z" fill="#8e3e9a" stroke="#000000" stroke-width="0" stroke-linecap="butt"/><path d="M434.75,365.45v-52.5h30v52.5z" fill="#000000" stroke="none" stroke-width="NaN" stroke-linecap="butt"/><path d="M434.6,315.75674c0,-9.1127 6.80527,-16.5 15.2,-16.5c8.39473,0 15.2,7.3873 15.2,16.5c0,9.1127 -6.80527,16.5 -15.2,16.5c-8.39473,0 -15.2,-7.3873 -15.2,-16.5z" fill="#000000" stroke="none" stroke-width="0" stroke-linecap="butt"/><g><path d="M276.61324,153.3206h-73.63503" fill="none" stroke="#000000" stroke-width="2" stroke-linecap="round"/><path d="M175.3256,233.45442l0.0606,-42.45894" fill="none" stroke="#000000" stroke-width="2" stroke-linecap="round"/><path d="M248.4305,220.10071c0,5.49562 -5.24124,9.95067 -11.70669,9.95067c-6.46541,0 -11.70668,-4.45508 -11.70668,-9.95067c0,-5.49562 5.24123,-9.95066 11.70668,-9.95066c6.46541,0 11.70669,4.45508 11.70669,9.95066z" fill="#000000" stroke="#000000" stroke-width="2" stroke-linecap="butt"/><g><path d="M175.19003,282.6794v-129.35881h129.35881v129.35881z" fill="#005fff" stroke="none" stroke-width="0" stroke-linecap="butt"/><path d="M202.38854,171.89522h73.63502" fill="none" stroke="#0015ff" stroke-width="2" stroke-linecap="round"/><path d="M275.3602,191.13319h-73.63502" fill="none" stroke="#0015ff" stroke-width="2" stroke-linecap="round"/><path d="M274.03342,181.18253h-73.63502" fill="none" stroke="#0015ff" stroke-width="2" stroke-linecap="round"/><path d="M201.72518,162.6079h73.63502" fill="none" stroke="#0015ff" stroke-width="2" stroke-linecap="round"/><path d="M203.05193,199.09372h73.63502" fill="none" stroke="#0015ff" stroke-width="2" stroke-linecap="round"/><path d="M175.19003,282.01606v-128.69542h24.94018v128.69542z" fill="#ff9500" stroke="#000000" stroke-width="2" stroke-linecap="butt"/><path d="M277.35033,282.01606v-128.69542h27.59371v128.69542z" fill="#ff9500" stroke="#000000" stroke-width="2" stroke-linecap="butt"/><path d="M175.05596,201.88132h127.36868v22.28671h-127.36868z" data-paper-data="{&quot;index&quot;:null}" fill="#ff9500" stroke="none" stroke-width="0" stroke-linecap="butt"/><path d="M177.70948,258.93189h125.37855v23.61344h-125.37854z" fill="#ff9500" stroke="#000000" stroke-width="2" stroke-linecap="butt"/><path d="M175.05596,218.46581h127.36868v15.65292h-127.36868z" data-paper-data="{&quot;index&quot;:null}" fill="#ff9500" stroke="none" stroke-width="0" stroke-linecap="butt"/><path d="M175.19004,219.97078l126.04193,1.60769" fill="none" stroke="#000000" stroke-width="2" stroke-linecap="round"/><path d="M214.32937,241.54998v-43.1196h45.77313v43.1196z" fill="#ffdf00" stroke="none" stroke-width="0" stroke-linecap="butt"/></g><path d="M234.30444,238.67534v-13.93097h3.98026v13.93097z" fill="#000000" stroke="#000000" stroke-width="2" stroke-linecap="butt"/><path d="M246.40135,219.43732c0,4.39648 -4.19303,7.96053 -9.36535,7.96053c-5.17232,0 -9.36535,-3.56405 -9.36535,-7.96053c0,-4.39648 4.19299,-7.96053 9.36535,-7.96053c5.17232,0 9.36535,3.56405 9.36535,7.96053z" fill="#ffffff" stroke="#000000" stroke-width="2" stroke-linecap="butt"/></g><text transform="translate(105.44318,93.76875) scale(0.8467,0.8467)" font-size="40" xml:space="preserve" fill="#000000" fill-rule="nonzero" stroke="none" stroke-width="1" stroke-linecap="butt" stroke-linejoin="miter" stroke-miterlimit="10" stroke-dasharray="" stroke-dashoffset="0" font-family="Handwriting" font-weight="normal" text-anchor="start" style="mix-blend-mode: normal"><tspan x="0" dy="0">The Treasure Room</tspan></text><g stroke="#000000" stroke-linecap="butt"><path d="M440.01878,336.56535v-18.40312h18.40312v18.40312z" fill="#fa7f7f" stroke-width="2.5"/><path d="M447.40278,346.68034v-9.94362h3.7103v9.94362z" fill="#fa7f7f" stroke-width="2.5"/><path d="M443.54407,326.82674v-4.00713h4.00713v4.00713z" fill="#ffffff" stroke-width="2.5"/><path d="M450.92708,326.84435v-4.00712h4.00713v4.00713z" fill="#ffffff" stroke-width="2.5"/><path d="M443.39565,333.80212v-2.96825h11.72456v2.96825z" fill="#000000" stroke-width="2.5"/><path d="M434.1941,353.83777v-11.13091h31.6118v11.13091z" fill="#fa7f7f" stroke-width="2.5"/><path d="M438.09042,348.37482v-2.81983h7.28456v2.81983z" fill="#fa3333" stroke-width="0"/><path d="M454.3366,350.96709v-2.81983h7.28457v2.81983z" fill="#fa3333" stroke-width="0"/></g><text transform="translate(367.5,29.3) scale(0.5,0.5)" font-size="40" xml:space="preserve" fill="#000000" fill-rule="nonzero" stroke="none" stroke-width="1" stroke-linecap="butt" stroke-linejoin="miter" stroke-miterlimit="10" stroke-dasharray="" stroke-dashoffset="0" font-family="Handwriting" font-weight="normal" text-anchor="start" style="mix-blend-mode: normal"><tspan x="0" dy="0">Keys:</tspan></text><g><path d="M351,2.15012c4.90392,0 8.87933,3.97541 8.87933,8.87933c0,4.90392 -3.97541,8.87933 -8.87933,8.87933c-4.90392,0 -8.87933,-3.97541 -8.87933,-8.87933c0,-4.90392 3.97541,-8.87933 8.87933,-8.87933z" fill="#ffea00" stroke="#ff874c" stroke-width="2.5" stroke-linecap="butt"/><path d="M351,17.65853c-3.66114,0 -6.62909,-2.96794 -6.62909,-6.62909c0,-3.66114 2.96794,-6.62909 6.62909,-6.62909c3.66114,0 6.62909,2.96794 6.62909,6.62909c0,3.66114 -2.96794,6.62909 -6.62909,6.62909z" fill="#ff0000" stroke="#ff0000" stroke-width="2.5" stroke-linecap="butt"/><path d="M351.03649,37.84988v-18.6101" fill="none" stroke="#ff874c" stroke-width="5" stroke-linecap="round"/><path d="M344.58681,30.05006h6.20336" fill="none" stroke="#ff874c" stroke-width="5" stroke-linecap="round"/><path d="M350.8814,35.15871h-6.20336" fill="none" stroke="#ff874c" stroke-width="5" stroke-linecap="round"/></g></g></g></svg>