<svg version="1.1" xmlns="http://www.w3.org/2000/svg" xmlns:xlink="http://www.w3.org/1999/xlink" width="360.5" height="115" viewBox="0,0,360.5,115"><defs><radialGradient cx="98.59328" cy="166.99341" r="1.81252" gradientUnits="userSpaceOnUse" id="color-1"><stop offset="0" stop-color="#e8ff5c"/><stop offset="1" stop-color="#e8ff5c" stop-opacity="0"/></radialGradient><radialGradient cx="88.04768" cy="167.38887" r="1.81253" gradientUnits="userSpaceOnUse" id="color-2"><stop offset="0" stop-color="#e8ff5c"/><stop offset="1" stop-color="#e8ff5c" stop-opacity="0"/></radialGradient></defs><g transform="translate(-59.5,-122.5)"><g data-paper-data="{&quot;isPaintingLayer&quot;:true}" fill-rule="nonzero" stroke-linecap="butt" stroke-linejoin="miter" stroke-miterlimit="10" stroke-dasharray="" stroke-dashoffset="0" style="mix-blend-mode: normal"><path d="M62.5,235v-110h355v110z" fill="#66c7ff" stroke="#00a2ff" stroke-width="5"/><path d="M59.5,235.3v-112h112v112z" fill="#00a2ff" stroke="none" stroke-width="0"/><path d="" fill="#2d3d7c" stroke="none" stroke-width="0"/><path d="" fill="#2d3d7c" stroke="none" stroke-width="0"/><g><g stroke="#000000"><path d="M108.39672,227.34788l0.02637,-17.93624l46.10097,-21.16174l-2.48949,18.67163z" data-paper-data="{&quot;index&quot;:null}" fill="#000000" stroke-width="2"/><path d="M108.94946,209.19665l-4.48217,-19.30092l41.95286,-19.56023l7.57267,17.43324z" data-paper-data="{&quot;index&quot;:null}" fill="#4c4c4c" stroke-width="5"/></g><path d="M74.95833,170.14597c0,-10.31715 8.3637,-18.68085 18.68085,-18.68085c10.31716,0 18.68086,8.3637 18.68086,18.68085c0,10.31716 -8.3637,18.68086 -18.68086,18.68086c-10.31715,0 -18.68085,-8.3637 -18.68085,-18.68086z" fill="#000000" stroke="#000000" stroke-width="NaN"/><path d="M88.17862,236.53488v-66.1015h8.62194v66.10151z" fill="#000000" stroke="none" stroke-width="0"/><path d="M117.46185,221.43133l-26.82517,-26.82517l4.47087,-4.47087l26.82517,26.82517z" fill="#000000" stroke="none" stroke-width="0"/><path d="M128.40306,207.88686l-34.93678,-14.78517l2.4642,-5.82279l34.93678,14.78516z" fill="#000000" stroke="none" stroke-width="0"/><path d="M98.59328,168.80593c-1.00103,0 -1.81253,-0.81149 -1.81253,-1.81252c0,-1.00103 0.8115,-1.81253 1.81253,-1.81253c1.00103,0 1.81252,0.8115 1.81252,1.81253c0,1.00103 -0.81149,1.81252 -1.81252,1.81252z" data-paper-data="{&quot;index&quot;:null}" fill="url(#color-1)" stroke="none" stroke-width="0"/><path d="M86.23516,167.38887c0,-1.00103 0.81149,-1.81252 1.81252,-1.81252c1.00103,0 1.81253,0.81149 1.81253,1.81252c0,1.00103 -0.8115,1.81252 -1.81253,1.81252c-1.00103,0 -1.81252,-0.81149 -1.81252,-1.81252z" data-paper-data="{&quot;index&quot;:null}" fill="url(#color-2)" stroke="none" stroke-width="0"/></g><text transform="translate(72.25,142.10009) scale(0.44367,0.44367)" font-size="40" xml:space="preserve" fill="#000000" fill-rule="nonzero" stroke="none" stroke-width="1" stroke-linecap="butt" stroke-linejoin="miter" stroke-miterlimit="10" stroke-dasharray="" stroke-dashoffset="0" font-family="Handwriting" font-weight="normal" text-anchor="start" style="mix-blend-mode: normal"><tspan x="0" dy="0">The Hexxor</tspan></text></g></g></svg>